<?xml version="1.0" encoding="UTF-8"?>
<!DOCTYPE svg PUBLIC "-//W3C//DTD SVG 1.1//EN" "http://www.w3.org/Graphics/SVG/1.1/DTD/svg11.dtd">
<!-- Creator: CorelDRAW X6 -->
<svg xmlns="http://www.w3.org/2000/svg" xml:space="preserve" width="300px" height="300px" version="1.1" style="shape-rendering:geometricPrecision; text-rendering:geometricPrecision; image-rendering:optimizeQuality; fill-rule:evenodd; clip-rule:evenodd"
viewBox="0 0 2858 2860"
 xmlns:xlink="http://www.w3.org/1999/xlink">
 <defs>
  <style type="text/css">
   <![CDATA[
    .fil3 {fill:#D4A69B}
    .fil5 {fill:#568021;fill-rule:nonzero}
    .fil6 {fill:#629C62;fill-rule:nonzero}
    .fil1 {fill:#9C696F;fill-rule:nonzero}
    .fil2 {fill:#9C6980;fill-rule:nonzero}
    .fil4 {fill:#A3D1A3;fill-rule:nonzero}
    .fil7 {fill:#D4F7D4;fill-rule:nonzero}
    .fil0 {fill:#DBC7D0;fill-rule:nonzero}
   ]]>
  </style>
 </defs>
 <g id="Слой_x0020_1">
  <metadata id="CorelCorpID_0Corel-Layer"/>
  <path class="fil0" d="M2821 465l-128 820c-392,155 -1170,1458 -1461,1575 -381,-220 -1205,-658 -1205,-658 -6,-384 9,-569 9,-569l108 -112c0,0 2567,-1088 2677,-1056z"/>
  <path class="fil1" d="M2693 1285c-388,154 -1155,1432 -1453,1571 18,-83 14,-261 14,-261 0,0 38,-70 6,-60l0 -117 14 -75 74 -99 -89 66c0,0 -16,-105 14,-217 187,-153 1098,-1276 1471,-1613 41,-12 68,-18 77,-15l-128 820z"/>
  <path class="fil1" d="M105 1560l39 -39c0,0 21,-10 60,-27 243,123 1253,642 1253,642l-187 89c-89,-55 -1029,-569 -1165,-665z"/>
  <path class="fil0" d="M2858 439c-231,-111 -971,-423 -1131,-439 -347,182 -1110,1506 -1727,1413 534,379 1252,779 1252,779 460,-319 1083,-1465 1606,-1753z"/>
  <path class="fil2" d="M671 1105c0,1 -1,1 -1,1 206,72 964,507 1074,570 152,-192 310,-406 469,-604 -179,-94 -933,-417 -1061,-475 -151,175 -314,359 -481,508z"/>
  <path class="fil3" d="M1316 404l1054 472c-241,317 -486,631 -741,942l-1078 -612c277,-228 526,-506 765,-802z"/>
  <path class="fil4" d="M2239 1718c2,-193 0,-626 -2,-669 -171,-92 -1003,-447 -1081,-485 -278,209 -469,516 -469,516 222,77 1087,577 1087,577 50,141 8,609 8,609 0,0 380,-412 457,-548z"/>
  <g id="_1053070368">
   <path class="fil5" d="M978 2614c7,2 14,4 21,6 -5,-1 -12,-3 -21,-6z"/>
   <path class="fil1" d="M913 2206c-260,-129 -862,-450 -862,-450l-7 68 -6 193c0,0 309,209 330,233 -79,-49 -296,-181 -337,-206 -1,-145 2,-251 5,-319 35,14 723,375 877,481z"/>
   <path class="fil1" d="M31 2155c0,-26 0,-51 0,-74l8 43c0,0 781,435 939,490 -265,-75 -831,-380 -947,-459z"/>
  </g>
  <path class="fil6" d="M2236 1049c1,0 1,0 1,0 2,43 4,476 2,669 -77,136 -457,548 -457,548 0,0 42,-468 -8,-609 0,0 -7,-4 -20,-12 144,-82 397,-452 482,-596z"/>
  <path class="fil1" d="M621 1365c-77,-5 -141,41 -142,104 -1,62 60,117 138,122 77,6 141,-41 142,-103 1,-63 -61,-117 -138,-123z"/>
  <path class="fil7" d="M1354 709c98,63 728,311 730,349 1,38 1,38 1,38 0,0 -276,421 -332,470 119,-34 388,-451 414,-503 -45,-63 -623,-312 -813,-354z"/>
  <path class="fil1" d="M1419 369c139,-128 282,-254 317,-274 36,-21 520,169 716,238 -140,-118 -654,-299 -731,-277 -85,32 -285,276 -302,313z"/>
 </g>
</svg>
