<?xml version="1.0" encoding="UTF-8"?>
<!DOCTYPE svg PUBLIC "-//W3C//DTD SVG 1.1//EN" "http://www.w3.org/Graphics/SVG/1.1/DTD/svg11.dtd">
<!-- Creator: CorelDRAW X6 -->
<svg xmlns="http://www.w3.org/2000/svg" xml:space="preserve" width="244px" height="300px" version="1.1" style="shape-rendering:geometricPrecision; text-rendering:geometricPrecision; image-rendering:optimizeQuality; fill-rule:evenodd; clip-rule:evenodd"
viewBox="0 0 1343 1653"
 xmlns:xlink="http://www.w3.org/1999/xlink">
 <defs>
  <style type="text/css">
   <![CDATA[
    .fil3 {fill:#0F6A47;fill-rule:nonzero}
    .fil6 {fill:#292929;fill-rule:nonzero}
    .fil5 {fill:#7C5349;fill-rule:nonzero}
    .fil4 {fill:#EC842F;fill-rule:nonzero}
    .fil7 {fill:#F7AA47;fill-rule:nonzero}
    .fil1 {fill:#FBC88C;fill-rule:nonzero}
    .fil0 {fill:#FDD6A2;fill-rule:nonzero}
    .fil2 {fill:#FEE0B0;fill-rule:nonzero}
   ]]>
  </style>
 </defs>
 <g id="Слой_x0020_1">
  <metadata id="CorelCorpID_0Corel-Layer"/>
  <g id="_950532688">
   <path class="fil0" d="M388 1026c58,-37 51,-148 51,-174l465 0c0,26 -7,137 51,174l-283 317 -284 -317z"/>
  </g>
  <g id="_950535696">
   <path class="fil1" d="M852 1137l103 -111c-58,-37 -51,-148 -51,-174l-465 0c34,96 254,261 413,285z"/>
  </g>
  <g id="_950535632">
   <path class="fil2" d="M1033 517c0,207 -119,465 -361,465 -243,0 -362,-258 -362,-465 0,-207 162,-285 362,-285 199,0 361,78 361,285z"/>
  </g>
  <g id="_950534928">
   <path class="fil3" d="M1266 1653c43,0 77,-34 77,-77l0 -249c0,-114 -88,-235 -197,-270l-161 -52c-87,67 -211,157 -313,157 -102,0 -227,-90 -314,-157l-161 52c-108,35 -197,156 -197,270l0 249c0,43 35,77 78,77l1188 0z"/>
  </g>
  <g id="_950534576">
   <path class="fil4" d="M672 1162l-108 108c-11,11 -30,10 -39,-3l-189 -260 60 -60c10,-9 25,-10 36,-1l240 216z"/>
  </g>
  <g id="_950536144">
   <path class="fil4" d="M672 1162l107 108c12,11 30,10 40,-3l188 -260 -60 -60c-9,-9 -25,-10 -35,-1l-240 216z"/>
  </g>
  <g id="_950536304">
   <path class="fil4" d="M697 1421c0,14 -11,26 -25,26 -15,0 -26,-12 -26,-26 0,-14 11,-26 26,-26 14,0 25,12 25,26z"/>
  </g>
  <g id="_950536368">
   <path class="fil4" d="M697 1292c0,14 -11,25 -25,25 -15,0 -26,-11 -26,-25 0,-15 11,-26 26,-26 14,0 25,11 25,26z"/>
  </g>
  <g id="_950537776">
   <path class="fil2" d="M322 542c-38,-9 -64,11 -64,52 0,54 52,186 107,103 55,-82 -43,-155 -43,-155z"/>
  </g>
  <g id="_950538512">
   <path class="fil2" d="M1015 542c42,-9 70,11 70,52 0,54 -57,186 -117,103 -59,-82 47,-155 47,-155z"/>
  </g>
  <g id="_950537040">
   <path class="fil5" d="M387 434c-10,28 -25,155 -25,155l-52 -26 -15 -171 92 42z"/>
  </g>
  <g id="_950536752">
   <path class="fil5" d="M956 434c11,28 26,155 26,155l51 -26 15 -171 -92 42z"/>
  </g>
  <g id="_950537712">
   <path class="fil4" d="M941 82l-197 -70c-47,-16 -98,-16 -145,0l-197 70c-64,23 -107,83 -107,150l0 233 753 0 0 -233c0,-67 -43,-127 -107,-150z"/>
  </g>
  <g id="_950537904">
   <path class="fil3" d="M672 336c-157,0 -392,58 -392,129l783 0c0,-71 -234,-129 -391,-129z"/>
  </g>
  <g id="_950540208">
   <path class="fil6" d="M1073 1034l-347 619 178 0 313 -559c-22,-16 -46,-29 -71,-37l-73 -23z"/>
  </g>
  <g id="_950539056">
   <path class="fil7" d="M827 181c0,57 -70,103 -155,103 -86,0 -155,-46 -155,-103 0,-57 69,-103 155,-103 85,0 155,46 155,103z"/>
  </g>
 </g>
</svg>
