<svg width="69" height="68" viewBox="0 0 69 68" fill="none" xmlns="http://www.w3.org/2000/svg">
<path d="M24.5387 30.6616C22.9652 30.6616 21.4953 31.2827 20.3773 32.38C18.0793 34.678 18.0793 38.4046 20.3773 40.7026C21.4953 41.8206 22.9652 42.421 24.5387 42.421C26.1121 42.421 27.582 41.7999 28.7 40.7026C30.998 38.4046 30.998 34.678 28.7 32.38C27.582 31.2827 26.1121 30.6616 24.5387 30.6616ZM26.5055 38.5288C25.9879 39.0464 25.284 39.3362 24.5387 39.3362C23.7934 39.3362 23.0895 39.0464 22.5719 38.5288C21.4953 37.4522 21.4953 35.6718 22.5719 34.5952C23.0895 34.0776 23.7934 33.7878 24.5387 33.7878C25.284 33.7878 25.9879 34.0776 26.5055 34.5952C27.6027 35.6718 27.6027 37.4315 26.5055 38.5288Z" fill="#F78222"/>
<path d="M49.4032 30.6616C47.8297 30.6616 46.3598 31.2827 45.2418 32.38C42.9438 34.678 42.9438 38.4046 45.2418 40.7026C46.3598 41.8206 47.8297 42.421 49.4032 42.421C50.9766 42.421 52.4465 41.7999 53.5645 40.7026C55.8626 38.4046 55.8626 34.678 53.5645 32.38C52.4465 31.2827 50.9766 30.6616 49.4032 30.6616ZM51.37 38.5288C50.8524 39.0464 50.1485 39.3362 49.4032 39.3362C48.6579 39.3362 47.954 39.0464 47.4364 38.5288C46.3598 37.4522 46.3598 35.6718 47.4364 34.5952C47.954 34.0776 48.6579 33.7878 49.4032 33.7878C50.1485 33.7878 50.8524 34.0776 51.37 34.5952C52.4465 35.6718 52.4465 37.4315 51.37 38.5288Z" fill="#F78222"/>
<path d="M36.9807 18.0741C36.1319 18.0741 35.428 18.778 35.428 19.6268V53.4557C35.428 54.3046 36.1319 55.0085 36.9807 55.0085C37.8295 55.0085 38.5334 54.3046 38.5334 53.4557V19.6268C38.5334 18.778 37.8295 18.0741 36.9807 18.0741Z" fill="#F78222"/>
<path d="M34.4759 3.39561C34.2481 3.16787 33.9376 3.00225 33.6064 2.96084L14.4767 0.0210001C13.9798 -0.0618124 13.4829 0.103812 13.1517 0.455765L0.874711 12.7327C0.522758 13.0847 0.357133 13.5815 0.439945 14.0577L3.37979 33.1874C3.42119 33.5187 3.58682 33.8085 3.81455 34.0569L35.8009 66.0433C36.836 67.0784 38.2231 67.6581 39.7138 67.6581C41.1837 67.6581 42.5708 67.0784 43.6267 66.0433L66.4829 43.187C67.5181 42.1519 68.0978 40.7647 68.0978 39.2741C68.0978 37.8042 67.5181 36.4171 66.4829 35.3612L34.4759 3.39561ZM64.2677 40.9925L41.4114 63.8487C40.956 64.3042 40.3556 64.5526 39.6931 64.5526C39.0513 64.5526 38.4302 64.3042 37.9747 63.8487L6.36104 32.2351L3.62823 14.389L14.8079 3.20928L32.654 5.94209L64.2677 37.5558C64.7232 38.0112 64.9716 38.6116 64.9716 39.2741C64.9716 39.9159 64.7232 40.5163 64.2677 40.9925Z" fill="#F78222"/>
<path d="M19.4046 10.7866C18.3073 9.68935 16.8581 9.08896 15.3054 9.08896C13.7526 9.08896 12.3034 9.68935 11.2062 10.7866C8.94951 13.0433 8.94951 16.7284 11.2062 18.9851C12.3034 20.0823 13.7526 20.6827 15.3054 20.6827C16.8581 20.6827 18.3073 20.0823 19.4046 18.9851C21.6612 16.7284 21.6612 13.0433 19.4046 10.7866ZM17.2101 16.7905C16.6925 17.3081 16.03 17.5772 15.3054 17.5772C14.5808 17.5772 13.9183 17.2874 13.4007 16.7905C12.3448 15.7347 12.3448 14.037 13.4007 12.9811C13.9183 12.4636 14.5808 12.1944 15.3054 12.1944C16.03 12.1944 16.6925 12.4843 17.2101 12.9811C18.2659 14.037 18.2659 15.7347 17.2101 16.7905Z" fill="#F78222"/>
</svg>
