<svg width="54" height="54" viewBox="0 0 54 54" fill="none" xmlns="http://www.w3.org/2000/svg">
<path d="M36.5769 17.2006C36.1446 16.7736 35.5103 16.6238 34.9328 16.813L2.05381 27.5713C1.41815 27.7793 0.975341 28.3562 0.939017 29.0241C0.902477 29.6919 1.27977 30.3136 1.88906 30.5897L12.4055 35.3537C13.221 35.7232 14.1821 35.3617 14.5516 34.5457C14.9211 33.73 14.5594 32.7691 13.7436 32.3996L7.02673 29.3566L32.9449 20.8756L24.6855 47.1592L18.9051 35.1524C18.5165 34.3453 17.5475 34.0061 16.7406 34.3948C16.4923 34.5144 16.2887 34.6893 16.1367 34.8971C16.066 34.9479 15.9976 35.0032 15.9341 35.0668L0.475456 50.5254C-0.157834 51.1587 -0.157834 52.1855 0.475456 52.8186C0.791992 53.1351 1.20712 53.2936 1.62204 53.2936C2.03695 53.2936 2.45208 53.1353 2.76862 52.8186L16.9723 38.6149L23.542 52.261C23.8136 52.8251 24.3835 53.1792 25.0025 53.1792C25.0414 53.1792 25.0806 53.1779 25.1199 53.1749C25.7835 53.1269 26.3506 52.6785 26.5502 52.0437L36.984 18.8402C37.1663 18.2605 37.0091 17.6277 36.5769 17.2006Z" fill="#F78222"/>
<path d="M29.5603 0.70636C19.5948 0.70636 10.7143 6.66478 6.93638 15.8861C6.59693 16.7148 6.99347 17.6618 7.82221 18.0013C8.65096 18.3407 9.59797 17.9442 9.93743 17.1155C13.2141 9.1175 20.9168 3.94956 29.5603 3.94956C41.248 3.94956 50.7566 13.4582 50.7566 25.1459C50.7566 34.746 44.2856 43.1705 35.0202 45.6327C34.1547 45.8628 33.6394 46.751 33.8695 47.6165C34.0625 48.3425 34.7183 48.8221 35.4357 48.8221C35.5737 48.8221 35.7138 48.8044 35.8532 48.7674C46.5379 45.9279 53.9998 36.2145 53.9998 25.1461C54 11.6699 43.0365 0.70636 29.5603 0.70636Z" fill="#F78222"/>
<path d="M34.8559 38.0585C34.0205 38.3811 33.6045 39.3197 33.9271 40.1554C34.1755 40.7991 34.7895 41.1934 35.4404 41.1934C35.6345 41.1934 35.8321 41.1582 36.0239 41.0842C39.231 39.8464 41.9702 37.6968 43.9462 34.8683C45.9687 31.9726 47.0378 28.5687 47.0378 25.0248C47.0378 15.5358 39.3179 7.81589 29.829 7.81589C23.2158 7.81589 17.11 11.6783 14.2737 17.6556C13.8897 18.4646 14.2343 19.4317 15.0436 19.8157C15.8529 20.1995 16.82 19.8549 17.2038 19.0458C19.5061 14.194 24.4617 11.0589 29.829 11.0589C37.5296 11.0589 43.7946 17.3239 43.7946 25.0245C43.7944 30.7572 40.2022 35.9952 34.8559 38.0585Z" fill="#F78222"/>
</svg>
