<svg width="60" height="60" viewBox="0 0 60 60" fill="none" xmlns="http://www.w3.org/2000/svg">
<path d="M18.7875 53.7125C10.625 49.8375 4.7625 41.9 3.875 32.5H0.125C1.4 47.9 14.275 60 30 60C30.5625 60 31.1 59.95 31.65 59.9125L22.125 50.375L18.7875 53.7125ZM21.0125 37.4C20.5375 37.4 20.1 37.3375 19.7 37.1875C19.3125 37.05 18.975 36.85 18.7 36.6C18.425 36.35 18.2125 36.0375 18.0625 35.6875C17.9125 35.325 17.8375 34.9375 17.8375 34.5125H14.5875C14.5875 35.4125 14.7625 36.2 15.1125 36.8875C15.4625 37.575 15.925 38.15 16.5125 38.6C17.1 39.0625 17.775 39.4 18.55 39.6375C19.325 39.8875 20.125 40 20.975 40C21.9 40 22.7625 39.875 23.5625 39.625C24.3625 39.375 25.05 39 25.6375 38.5125C26.225 38.025 26.675 37.425 27.0125 36.7125C27.3375 36 27.5125 35.1875 27.5125 34.275C27.5125 33.7875 27.45 33.325 27.3375 32.875C27.2125 32.425 27.025 32 26.775 31.6C26.5125 31.2 26.175 30.85 25.7625 30.525C25.35 30.2125 24.8375 29.95 24.25 29.7375C24.75 29.5125 25.1875 29.2375 25.5625 28.9125C25.9375 28.5875 26.25 28.2375 26.5 27.875C26.75 27.5 26.9375 27.125 27.0625 26.725C27.1875 26.325 27.25 25.925 27.25 25.5375C27.25 24.625 27.1 23.825 26.8 23.1375C26.5 22.45 26.075 21.875 25.525 21.4125C24.975 20.95 24.325 20.6 23.55 20.3625C22.75 20.1125 21.9 20 20.975 20C20.075 20 19.2375 20.1375 18.475 20.4C17.7125 20.6625 17.0625 21.0375 16.5125 21.5125C15.9625 21.9875 15.5375 22.55 15.225 23.2C14.9125 23.85 14.7625 24.5625 14.7625 25.325H18.0125C18.0125 24.9 18.0875 24.525 18.2375 24.2C18.3875 23.8625 18.6 23.575 18.8625 23.35C19.125 23.1125 19.45 22.925 19.8125 22.8C20.175 22.675 20.575 22.6 21 22.6C22 22.6 22.7375 22.8625 23.225 23.375C23.7125 23.8875 23.95 24.6125 23.95 25.5375C23.95 25.9875 23.8875 26.3875 23.75 26.75C23.6125 27.1125 23.4125 27.425 23.1375 27.6875C22.8625 27.95 22.5125 28.15 22.1125 28.3C21.7 28.45 21.2125 28.525 20.6625 28.525H18.7375V31.0875H20.6625C21.2125 31.0875 21.7125 31.15 22.15 31.275C22.5875 31.4 22.9625 31.5875 23.275 31.8625C23.5875 32.125 23.825 32.4625 24 32.8625C24.1625 33.2625 24.25 33.7375 24.25 34.2875C24.25 35.3 23.9625 36.075 23.375 36.6125C22.8125 37.1375 22.025 37.4 21.0125 37.4ZM42.4125 22.5875C41.625 21.7625 40.675 21.125 39.575 20.675C38.4625 20.225 37.25 20 35.9125 20H30V40H35.7375C37.125 40 38.375 39.775 39.5125 39.325C40.65 38.875 41.6125 38.2375 42.4125 37.4125C43.2125 36.5875 43.8375 35.5875 44.2625 34.425C44.7 33.2625 44.9125 31.95 44.9125 30.5V29.5125C44.9125 28.0625 44.6875 26.7625 44.25 25.5875C43.8125 24.4125 43.2 23.4125 42.4125 22.5875ZM41.425 30.5125C41.425 31.55 41.3125 32.5 41.0625 33.325C40.825 34.1625 40.475 34.8625 40 35.4375C39.525 36.0125 38.9375 36.45 38.225 36.7625C37.5125 37.0625 36.6875 37.225 35.7375 37.225H33.475V22.8H35.9125C37.7125 22.8 39.075 23.375 40.025 24.5125C40.9625 25.6625 41.4375 27.3125 41.4375 29.4875V30.5125H41.425ZM30 0C29.4375 0 28.9 0.05 28.35 0.0875L37.875 9.625L41.2 6.3C49.375 10.1625 55.2375 18.1 56.125 27.5H59.875C58.6 12.1 45.725 0 30 0Z" fill="#F78222"/>
</svg>
