<?xml version="1.0" encoding="UTF-8"?>
<!DOCTYPE svg PUBLIC "-//W3C//DTD SVG 1.1//EN" "http://www.w3.org/Graphics/SVG/1.1/DTD/svg11.dtd">
<!-- Creator: CorelDRAW X6 -->
<svg xmlns="http://www.w3.org/2000/svg" xml:space="preserve" width="300px" height="102px" version="1.1" style="shape-rendering:geometricPrecision; text-rendering:geometricPrecision; image-rendering:optimizeQuality; fill-rule:evenodd; clip-rule:evenodd"
viewBox="0 0 58484 19885"
 xmlns:xlink="http://www.w3.org/1999/xlink">
 <defs>
  <style type="text/css">
   <![CDATA[
    .fil0 {fill:#006A44;fill-rule:nonzero}
    .fil2 {fill:#636468;fill-rule:nonzero}
    .fil1 {fill:#F78222;fill-rule:nonzero}
   ]]>
  </style>
 </defs>
 <g id="Слой_x0020_1">
  <metadata id="CorelCorpID_0Corel-Layer"/>
  <g id="_349605200">
   <g>
    <path class="fil0" d="M3912 11068c-1082,-4241 -150,-8022 2146,-9226 -1371,658 -2547,1655 -3424,2881 -1369,2081 -1709,5353 -314,8449 1363,3026 3772,4896 5809,5558 584,119 1189,182 1808,182 117,0 234,-4 350,-9 -1851,-580 -4999,-2443 -6375,-7835z"/>
    <path class="fil0" d="M11877 6833c1239,-3031 3903,-3483 5063,-2507 -1309,-1632 -3176,-2796 -5312,-3203 -1326,-50 -3930,1538 -4440,5951 -636,5505 1907,10078 4485,11669 548,-108 1076,-265 1583,-467 -1950,-2170 -3160,-7087 -1379,-11443z"/>
   </g>
   <g>
    <path class="fil1" d="M2320 13172c-1395,-3096 -1055,-6368 314,-8449 -1052,1470 -1672,3269 -1672,5214 0,4338 3077,7956 7167,8793 -2037,-662 -4446,-2532 -5809,-5558z"/>
    <path class="fil1" d="M7188 7074c510,-4413 3114,-6001 4440,-5951 -548,-104 -1113,-161 -1691,-161 -1390,0 -2705,316 -3879,880 -2296,1204 -3228,4985 -2146,9226 1376,5392 4524,7255 6375,7835 472,-18 935,-72 1386,-160 -2578,-1591 -5121,-6164 -4485,-11669z"/>
   </g>
   <g>
    <path class="fil2" d="M20798 7376l162 -602c15,-58 58,-242 58,-242l7 0c0,0 47,179 66,255l158 589 192 0 302 -1090 -207 0 -134 592c-15,71 -50,256 -50,256l-8 0c0,0 -30,-146 -61,-263l-151 -585 -205 0 -164 602c-25,93 -49,246 -49,246l-7 0c0,0 -32,-157 -56,-265l-138 -606 -200 32 295 1081 190 0z"/>
    <path class="fil2" d="M22388 7376l162 -602c15,-58 58,-242 58,-242l7 0c0,0 47,179 66,255l158 589 192 0 302 -1090 -207 0 -134 592c-15,71 -50,256 -50,256l-8 0c0,0 -30,-146 -60,-263l-152 -585 -204 0 -164 602c-26,93 -50,246 -50,246l-6 0c0,0 -33,-157 -57,-265l-138 -606 -200 32 295 1081 190 0z"/>
    <path class="fil2" d="M23978 7376l162 -602c15,-58 58,-242 58,-242l7 0c0,0 47,179 67,255l157 589 192 0 302 -1090 -207 0 -134 592c-15,71 -49,256 -49,256l-9 0c0,0 -30,-146 -60,-263l-151 -585 -205 0 -164 602c-26,93 -50,246 -50,246l-6 0c0,0 -33,-157 -56,-265l-138 -606 -201 32 296 1081 189 0z"/>
    <path class="fil2" d="M25207 7398c88,0 153,-74 153,-162 0,-89 -65,-162 -153,-162 -89,0 -153,73 -153,162 0,88 64,162 153,162z"/>
    <polygon class="fil2" points="26602,7367 26121,6744 26507,6284 26265,6284 25909,6752 26354,7367 "/>
    <path class="fil2" d="M25689 7367l198 0 0 -1346c0,-88 -12,-179 -25,-237l-201 47c17,63 28,136 28,246l0 1290z"/>
    <path class="fil2" d="M27171 7391c141,0 268,-45 373,-138l-75 -119c-78,69 -164,104 -265,104 -104,0 -192,-41 -248,-127 -33,-52 -46,-123 -46,-216l0 -26 658 0 0 -35c-2,-248 -36,-368 -131,-466 -76,-77 -173,-116 -294,-116 -133,0 -239,47 -326,149 -92,110 -129,231 -129,418 0,354 183,572 483,572zm-32 -988l0 0c69,0 121,32 155,76 43,53 67,140 67,243l-449 0c0,-196 76,-319 227,-319z"/>
    <path class="fil2" d="M27855 7367l198 0 0 -697c0,-118 104,-220 224,-220 22,0 37,5 57,11l68 -198c-17,-7 -40,-11 -66,-11 -115,0 -207,62 -294,188l0 -20c0,-54 -17,-125 -36,-166l-192 50c25,67 41,138 41,269l0 794z"/>
    <path class="fil2" d="M29097 6699c-350,0 -550,133 -550,384 0,207 134,317 349,317 188,0 279,-108 307,-143 26,76 77,130 144,156l102 -134c-85,-52 -89,-112 -89,-261 0,-158 9,-324 9,-401 0,-106 -5,-143 -22,-190 -41,-115 -155,-173 -313,-173 -209,0 -347,82 -453,142l91 143c88,-67 218,-123 332,-123 151,0 169,86 169,213l0 72c-29,-2 -50,-2 -76,-2zm65 414l0 0c-50,86 -136,142 -227,142 -110,0 -170,-69 -170,-188 0,-71 15,-110 56,-157 43,-50 134,-78 282,-78 18,0 35,2 65,5l-6 276z"/>
    <path class="fil2" d="M30042 7249c-121,0 -244,-50 -348,-108l-71 142c125,74 272,115 404,115 252,0 425,-147 425,-363 0,-142 -82,-257 -281,-302l-140 -32c-114,-26 -153,-69 -153,-147 0,-97 73,-162 188,-162 86,0 166,28 265,78l67 -140c-89,-52 -209,-89 -341,-89 -233,0 -391,138 -391,337 0,159 93,265 264,300l131 26c125,23 181,77 181,170 0,106 -82,175 -200,175z"/>
    <path class="fil2" d="M30741 7367l201 0 0 -940 233 0 52 -141 -287 0 0 -174c0,-110 54,-173 144,-173 50,0 93,17 141,41l66 -129c-66,-41 -146,-59 -235,-59 -80,0 -144,16 -196,52 -58,41 -121,123 -121,270 0,17 0,151 4,172l-105 0 0 141 103 0 0 940z"/>
    <path class="fil2" d="M31816 7391c140,0 268,-45 373,-138l-75 -119c-78,69 -164,104 -266,104 -103,0 -192,-41 -248,-127 -32,-52 -45,-123 -45,-216l0 -26 658 0 0 -35c-2,-248 -37,-368 -132,-466 -75,-77 -172,-116 -293,-116 -134,0 -240,47 -326,149 -93,110 -129,231 -129,418 0,354 183,572 483,572zm-32 -988l0 0c69,0 120,32 155,76 43,53 67,140 67,243l-449 0c0,-196 76,-319 227,-319z"/>
    <path class="fil2" d="M32499 7367l199 0 0 -697c0,-118 103,-220 224,-220 22,0 37,5 56,11l69 -198c-17,-7 -41,-11 -67,-11 -114,0 -207,62 -293,188l0 -20c0,-54 -17,-125 -37,-166l-192 50c26,67 41,138 41,269l0 794z"/>
    <path class="fil2" d="M33742 6699c-350,0 -550,133 -550,384 0,207 133,317 349,317 188,0 278,-108 306,-143 26,76 78,130 145,156l101 -134c-84,-52 -88,-112 -88,-261 0,-158 9,-324 9,-401 0,-106 -5,-143 -22,-190 -41,-115 -155,-173 -313,-173 -209,0 -347,82 -453,142l91 143c88,-67 218,-123 332,-123 151,0 168,86 168,213l0 72c-28,-2 -49,-2 -75,-2zm64 414l0 0c-49,86 -135,142 -226,142 -110,0 -171,-69 -171,-188 0,-71 15,-110 57,-157 43,-50 133,-78 282,-78 17,0 35,2 65,5l-7 276z"/>
    <path class="fil2" d="M34518 7398c89,0 154,-74 154,-162 0,-89 -65,-162 -154,-162 -88,0 -153,73 -153,162 0,88 65,162 153,162z"/>
    <path class="fil2" d="M35000 7367l198 0 0 -697c0,-118 104,-220 225,-220 21,0 36,5 56,11l69 -198c-18,-7 -41,-11 -67,-11 -115,0 -207,62 -294,188l0 -20c0,-54 -17,-125 -36,-166l-192 50c26,67 41,138 41,269l0 794z"/>
    <path class="fil2" d="M36076 7404c134,0 240,-50 326,-155 19,73 47,114 101,155l136 -108c-43,-37 -67,-114 -67,-224l0 -814 -196 39 0 777c-45,95 -149,170 -246,170 -48,0 -97,-21 -125,-47 -39,-37 -50,-80 -50,-190l0 -753 -196 39 0 768c0,78 6,138 26,181 45,99 153,162 291,162z"/>
    <polygon class="fil2" points="19900,13058 21933,13058 21933,12332 19900,12332 19900,10110 22207,10110 22207,9363 18637,9363 18637,16109 22335,16109 22335,15362 19900,15362 "/>
    <path class="fil2" d="M25194 9363l-2062 0 0 6746 1263 0 0 -2106 827 0c961,0 2115,-634 2115,-2356 0,-1547 -824,-2284 -2143,-2284zm-119 3975l0 0 -680 0 0 -3300 680 0c577,0 898,394 898,1671 0,1287 -330,1629 -898,1629z"/>
    <path class="fil2" d="M29181 9363l-1978 6746 769 0 540 -1889 2069 0 513 1889 1337 0 -1850 -6746 -1400 0zm-486 4204l0 0 879 -3176 19 0 814 3176 -1712 0z"/>
    <path class="fil2" d="M35537 15445c-1016,0 -1538,-695 -1538,-2709 0,-2013 476,-2698 1474,-2698 920,0 1427,508 1427,508l174 -700c0,0 -722,-587 -1756,-587 -1712,0 -2710,1401 -2710,3529 0,2086 924,3436 2755,3436 1529,0 2097,-1246 2097,-1246l-403 -498c0,0 -540,965 -1520,965z"/>
    <path class="fil2" d="M41392 10007l0 -644 -1263 0 0 644c-1593,41 -2655,965 -2655,2688 0,1723 1071,2678 2655,2719l0 695 1263 0 0 -695c1575,-41 2665,-1007 2665,-2730 0,-1722 -1090,-2636 -2665,-2677zm-1263 4764l0 0c-961,-52 -1318,-779 -1318,-2076 0,-1298 357,-2003 1318,-2055l0 4131zm1263 0l0 0 0 -4131c953,52 1319,757 1319,2044 0,1308 -366,2035 -1319,2087z"/>
    <polygon class="fil2" points="46048,13058 48081,13058 48081,12332 46048,12332 46048,10110 48355,10110 48355,9363 44785,9363 44785,16109 48483,16109 48483,15362 46048,15362 "/>
    <path class="fil2" d="M51471 9363l-2063 0 0 6746 1264 0 0 -2106 826 0c961,0 2115,-634 2115,-2356 0,-1547 -824,-2284 -2142,-2284zm-119 3975l0 0 -680 0 0 -3300 680 0c576,0 897,394 897,1671 0,1287 -330,1629 -897,1629z"/>
    <path class="fil2" d="M56635 9363l-1401 0 -1978 6746 769 0 540 -1889 2070 0 512 1889 1337 0 -1849 -6746zm-1887 4204l0 0 879 -3176 19 0 815 3176 -1713 0z"/>
    <path class="fil2" d="M17656 15420l-1656 -3431 1683 -2636 -879 0 -1628 2678 -541 446 0 -3124 -1263 0 0 6746 1263 0 0 -2719 461 -413 1636 3563c-1720,1772 -4125,2874 -6789,2874 -5226,0 -9462,-4236 -9462,-9461 0,-5226 4236,-9462 9462,-9462 4820,0 8795,3605 9384,8265l484 0 36891 0 0 -484 -36962 0c-802,-4684 -4888,-8262 -9797,-8262 -5483,0 -9943,4460 -9943,9943 0,5482 4460,9942 9943,9942 2728,0 5203,-1105 7002,-2891 0,0 0,-1 1,-1 96,-96 190,-194 283,-294 4,-4 8,-9 12,-14 91,-98 179,-197 265,-298 0,0 0,0 0,0 133,-156 262,-315 386,-479l-236 -488z"/>
   </g>
  </g>
 </g>
</svg>
