<svg width="72" height="51" viewBox="0 0 72 51" fill="none" xmlns="http://www.w3.org/2000/svg">
<g clip-path="url(#clip0)">
<path d="M65.3159 51H6.68586C3.00321 51 0.0175781 47.9956 0.0175781 44.2896V6.71058C0.0175781 3.00439 3.00321 0 6.68586 0H65.3159C68.9985 0 71.9842 3.00439 71.9842 6.71058V44.2896C71.9842 47.9956 68.9985 51 65.3159 51Z" fill="#36495C"/>
<path d="M42.0439 36.4323H29.9531V14.5677H42.0439V36.4323Z" fill="#F06521"/>
<path d="M30.7215 25.5001C30.7215 21.0644 32.7854 17.1142 35.999 14.5677C33.6483 12.7054 30.6831 11.5945 27.4597 11.5945C19.8285 11.5945 13.6426 17.8205 13.6426 25.5001C13.6426 33.1795 19.8285 39.4056 27.4597 39.4056C30.6831 39.4056 33.6483 38.2946 35.999 36.4323C32.7854 33.886 30.7215 29.9358 30.7215 25.5001Z" fill="#E41A23"/>
<path d="M58.3557 25.4992C58.3557 33.1795 52.1696 39.4046 44.5385 39.4046C41.3152 39.4046 38.35 38.2937 36 36.4314C39.2136 33.886 41.2768 29.9347 41.2768 25.4992C41.2768 21.0635 39.2136 17.1132 36 14.5668C38.35 12.7054 41.3152 11.5945 44.5385 11.5945C52.1696 11.5945 58.3557 17.8196 58.3557 25.4992Z" fill="#F79E1B"/>
</g>
<defs>
<clipPath id="clip0">
<rect width="72" height="51" fill="white"/>
</clipPath>
</defs>
</svg>
