<svg xmlns="http://www.w3.org/2000/svg" xmlns:xlink="http://www.w3.org/1999/xlink" width="0" height="0" style="position:absolute">

	<svg id="icon-svg-eye" viewBox="0 0 12 12">
		<g clip-path="url(#clip0)">
			<path d="M7.79843 5.99925C7.79843 6.95256 6.99179 7.72537 5.99674 7.72537C5.0017 7.72537 4.19506 6.95256 4.19506 5.99925C4.19506 5.04593 5.0017 4.27313 5.99674 4.27313C6.99179 4.27312 7.79843 5.04594 7.79843 5.99925ZM6 2.40521C4.96975 2.40978 3.90186 2.66059 2.89096 3.14078C2.14038 3.512 1.4089 4.03574 0.77394 4.68219C0.46208 5.01218 0.06431 5.49 0 5.99981C0.0076 6.44142 0.4813 6.9865 0.77394 7.31744C1.36937 7.9385 2.0818 8.44762 2.89096 8.85923C3.83367 9.31674 4.87712 9.58015 6 9.5948C7.03123 9.59016 8.09888 9.33646 9.10866 8.85923C9.85924 8.48801 10.5911 7.96389 11.2261 7.31744C11.5379 6.98745 11.9357 6.50962 12 5.99981C11.9924 5.5582 11.5187 5.0131 11.2261 4.68217C10.6306 4.06111 9.91782 3.55238 9.10866 3.14076C8.16644 2.6836 7.12042 2.422 6 2.40521ZM5.99924 3.29769C7.56043 3.29769 8.82599 4.50763 8.82599 6.0002C8.82599 7.49276 7.56043 8.7027 5.99924 8.7027C4.43805 8.7027 3.17249 7.49275 3.17249 6.0002C3.17249 4.50763 4.43805 3.29769 5.99924 3.29769Z"/>
		</g>
		<defs>
			<clipPath id="clip0">
				<rect width="12" height="12" fill="white"/>
			</clipPath>
		</defs>
	</svg>


	<symbol id="icon-svg-check" viewBox="0 0 12 12">
		<g clip-path="url(#clip0)">
			<path d="M10.0424 0.991516L3.92797 7.10593L1.94492 5.12288L0 7.06779L1.98305 9.05085L3.94067 11.0085L5.8856 9.06355L12 2.94916L10.0424 0.991516Z"/>
		</g>
		<defs>
			<clipPath id="clip0">
				<rect width="12" height="12" fill="white"/>
			</clipPath>
		</defs>
	</symbol>


	<symbol id="icon-svg-catalog" viewBox="0 0 5501 3829">
		<path class="fil0" d="M4434 697c76,119 135,250 174,387 40,137 61,278 61,420 0,415 -168,791 -440,1063 -273,272 -648,440 -1064,440 -415,0 -791,-168 -1063,-440 -272,-272 -440,-648 -440,-1063 0,-416 168,-792 440,-1064 272,-272 648,-440 1063,-440 126,0 251,16 372,47 120,30 237,76 348,137l-179 329c-81,-44 -169,-78 -262,-102 -90,-23 -184,-35 -279,-35 -311,0 -593,126 -797,330 -204,204 -330,486 -330,798 0,311 126,593 330,797 204,204 486,330 797,330 312,0 594,-126 798,-330 204,-204 330,-486 330,-797 0,-109 -15,-215 -44,-316 -30,-101 -74,-198 -132,-290l317 -201z"/>
		<polygon class="fil0" points="4213,2343 5501,3574 5259,3829 3971,2598 "/>
		<polygon class="fil0" points="0,804 1357,804 1357,1181 0,1181 "/>
		<polygon class="fil0" points="0,1799 1373,1799 1373,2176 0,2176 "/>
		<polygon class="fil0" points="0,2793 1881,2793 1881,3169 0,3169 "/>
	</symbol>

	<symbol id="icon-svg-home" viewBox="0 0 3563 3091">
		<polygon points="0,1407 1793,0 3563,1387 3385,1615 1794,368 179,1634 "/>
		<path d="M2903 2946l0 -1105 290 0 0 1105 -145 145 -145 -145 0 0zm290 0l0 145 -145 0 145 -145zm-905 -145l760 0 0 290 -760 0 0 -290zm-1786 0l790 0 0 290 -790 0 -145 -145 145 -145zm0 290l-145 0 0 -145 145 145zm145 -1249l0 1104 -290 0 0 -1104 290 0z"/>
		<path d="M2420 2217l0 873 -290 0 0 -873 0 0 290 0zm-934 5l-290 0 0 0 4 -67 10 -64 17 -61 23 -57 29 -53 35 -48 39 -43 44 -37 46 -32 50 -28 51 -22 52 -17 54 -13 54 -8 55 -4 54 -1 55 4 54 8 54 12 52 16 51 20 49 23 48 28 45 33 42 36 38 41 35 46 29 49 24 54 17 57 11 60 3 63 -290 0 -1 -31 -5 -27 -8 -26 -10 -23 -13 -22 -16 -21 -18 -19 -21 -18 -23 -17 -26 -15 -28 -13 -29 -12 -31 -9 -32 -7 -33 -5 -33 -2 -33 0 -32 2 -31 5 -30 7 -28 9 -26 12 -24 13 -22 15 -19 17 -17 18 -15 21 -13 23 -11 27 -8 30 -6 34 -2 39 0 0 0 0zm-290 868l0 -868 290 0 0 868 -290 0z"/>
	</symbol>


	<symbol id="icon-svg-3d" viewBox="0 0 1746 1746">
		<path class="fil0" d="M1456 873c0,90 -1,181 0,272 1,34 -12,57 -42,73 -169,91 -337,183 -506,275 -25,14 -48,13 -73,-1 -165,-90 -331,-181 -497,-270 -35,-19 -49,-44 -49,-84 2,-178 2,-357 0,-535 0,-38 15,-62 48,-79 165,-89 330,-179 494,-269 30,-16 56,-15 85,1 165,91 329,180 494,269 32,17 47,39 46,76 -1,90 0,181 0,272zm-638 256l0 0c0,-64 0,-127 0,-190 0,-23 -6,-40 -28,-52 -121,-65 -241,-131 -361,-197 -27,-15 -35,-7 -35,21 0,129 0,259 0,389 0,22 8,37 27,47 121,66 242,131 362,197 25,14 35,9 35,-21 0,-65 0,-129 0,-194zm534 -225l0 0c0,-63 -1,-126 0,-190 1,-35 -11,-38 -40,-22 -116,65 -232,128 -349,191 -27,14 -36,32 -36,61 1,124 1,248 0,371 0,33 6,46 41,27 116,-64 232,-128 349,-190 27,-14 36,-33 35,-62 -1,-62 0,-124 0,-186zm-71 -323l0 0c-5,-11 -16,-14 -25,-19 -116,-64 -233,-127 -349,-192 -25,-14 -47,-12 -72,2 -114,64 -229,127 -345,189 -29,16 -33,26 -1,43 119,63 236,128 354,193 18,10 36,13 55,3 122,-67 244,-134 365,-200 8,-5 18,-7 18,-19z"/>
		<path class="fil0" d="M1456 873c0,90 -1,181 0,272 1,34 -12,57 -42,73 -169,91 -337,183 -506,275 -25,14 -48,13 -73,-1 -165,-90 -331,-181 -497,-270 -35,-19 -49,-44 -49,-84 2,-178 2,-357 0,-535 0,-38 15,-62 48,-79 165,-89 330,-179 494,-269 30,-16 56,-15 85,1 165,91 329,180 494,269 32,17 47,39 46,76 -1,90 0,181 0,272zm-638 256l0 0c0,-64 0,-127 0,-190 0,-23 -6,-40 -28,-52 -121,-65 -241,-131 -361,-197 -27,-15 -35,-7 -35,21 0,129 0,259 0,389 0,22 8,37 27,47 121,66 242,131 362,197 25,14 35,9 35,-21 0,-65 0,-129 0,-194zm534 -225l0 0c0,-63 -1,-126 0,-190 1,-35 -11,-38 -40,-22 -116,65 -232,128 -349,191 -27,14 -36,32 -36,61 1,124 1,248 0,371 0,33 6,46 41,27 116,-64 232,-128 349,-190 27,-14 36,-33 35,-62 -1,-62 0,-124 0,-186zm-71 -323l0 0c-5,-11 -16,-14 -25,-19 -116,-64 -233,-127 -349,-192 -25,-14 -47,-12 -72,2 -114,64 -229,127 -345,189 -29,16 -33,26 -1,43 119,63 236,128 354,193 18,10 36,13 55,3 122,-67 244,-134 365,-200 8,-5 18,-7 18,-19z"/>
		<path class="fil0" d="M0 149c0,-30 0,-60 0,-90 0,-39 19,-59 58,-59 60,0 121,0 181,0 31,1 53,14 55,47 1,35 -20,53 -53,56 -33,2 -66,1 -99,1 -27,-1 -39,10 -38,37 0,31 0,63 -1,95 -1,34 -17,58 -55,58 -36,-1 -48,-26 -48,-59 0,-28 0,-57 0,-86z"/>
		<path class="fil0" d="M0 149c0,-30 0,-60 0,-90 0,-39 19,-59 58,-59 60,0 121,0 181,0 31,1 53,14 55,47 1,35 -20,53 -53,56 -33,2 -66,1 -99,1 -27,-1 -39,10 -38,37 0,31 0,63 -1,95 -1,34 -17,58 -55,58 -36,-1 -48,-26 -48,-59 0,-28 0,-57 0,-86z"/>
		<path class="fil0" d="M1745 146c0,32 1,64 0,95 -1,32 -16,52 -49,53 -33,0 -50,-20 -53,-51 -2,-33 -2,-66 -1,-99 1,-29 -10,-42 -40,-41 -31,2 -63,1 -94,0 -33,-1 -56,-18 -56,-53 0,-36 23,-50 56,-50 59,0 118,0 177,0 40,0 61,19 61,61 -1,28 0,57 0,85 0,0 0,0 -1,0z"/>
		<path class="fil0" d="M1745 146c0,32 1,64 0,95 -1,32 -16,52 -49,53 -33,0 -50,-20 -53,-51 -2,-33 -2,-66 -1,-99 1,-29 -10,-42 -40,-41 -31,2 -63,1 -94,0 -33,-1 -56,-18 -56,-53 0,-36 23,-50 56,-50 59,0 118,0 177,0 40,0 61,19 61,61 -1,28 0,57 0,85 0,0 0,0 -1,0z"/>
		<path class="fil0" d="M0 1596c0,-29 0,-57 0,-86 0,-32 12,-57 49,-58 37,0 53,24 54,58 1,26 3,52 0,77 -5,45 15,60 57,55 24,-2 48,0 73,0 34,1 60,14 61,52 0,39 -26,52 -60,52 -59,0 -118,0 -176,0 -40,0 -58,-21 -58,-60 0,-30 0,-60 0,-90z"/>
		<path class="fil0" d="M0 1596c0,-29 0,-57 0,-86 0,-32 12,-57 49,-58 37,0 53,24 54,58 1,26 3,52 0,77 -5,45 15,60 57,55 24,-2 48,0 73,0 34,1 60,14 61,52 0,39 -26,52 -60,52 -59,0 -118,0 -176,0 -40,0 -58,-21 -58,-60 0,-30 0,-60 0,-90z"/>
		<path class="fil0" d="M1599 1746c-32,0 -63,0 -95,-1 -32,-1 -52,-16 -52,-49 0,-33 20,-51 51,-53 34,-2 69,-1 104,-1 25,0 35,-11 35,-36 -1,-33 -1,-66 1,-99 1,-33 18,-55 53,-55 36,0 49,24 50,57 0,59 0,117 0,176 0,41 -20,61 -61,61 -29,0 -57,0 -86,0 0,0 0,0 0,0z"/>
		<path class="fil0" d="M1599 1746c-32,0 -63,0 -95,-1 -32,-1 -52,-16 -52,-49 0,-33 20,-51 51,-53 34,-2 69,-1 104,-1 25,0 35,-11 35,-36 -1,-33 -1,-66 1,-99 1,-33 18,-55 53,-55 36,0 49,24 50,57 0,59 0,117 0,176 0,41 -20,61 -61,61 -29,0 -57,0 -86,0 0,0 0,0 0,0z"/>
	</symbol>


	<symbol id="icon-svg-next" viewBox="0 0 492.004 492.004">
		<path d="M382.678,226.804L163.73,7.86C158.666,2.792,151.906,0,144.698,0s-13.968,2.792-19.032,7.86l-16.124,16.12
			c-10.492,10.504-10.492,27.576,0,38.064L293.398,245.9l-184.06,184.06c-5.064,5.068-7.86,11.824-7.86,19.028
			c0,7.212,2.796,13.968,7.86,19.04l16.124,16.116c5.068,5.068,11.824,7.86,19.032,7.86s13.968-2.792,19.032-7.86L382.678,265
			c5.076-5.084,7.864-11.872,7.848-19.088C390.542,238.668,387.754,231.884,382.678,226.804z"/>

		</symbol>


		<symbol id="icon-svg-brilliant" viewBox="0 0 129.38 107.58"><path d="M169.58,356c10.74,0,21.48,0,32.22,0a7,7,0,0,1,5.82,2.6q12.25,14.14,24.77,28.07c1.94,2.16,2.06,3.69,0,6Q202.13,427,172.07,461.69c-2.09,2.4-3.51,2.43-5.6,0q-30.21-34.74-60.6-69.34c-1.77-2-1.82-3.47-.07-5.43q13-14.54,25.77-29.19c1.43-1.65,3.13-1.8,5.05-1.8Q153.09,356,169.58,356Zm-.15,6.28c-8.87,0-17.73,0-26.59,0-2.61,0-3.71.65-2.84,3.52,1.82,6,3.49,12,5.07,18,.59,2.26,1.72,2.81,4,2.8,13.45-.11,26.9-.06,40.35.06,2.25,0,3.43-.6,4-2.85,1.54-5.91,3.16-11.81,5-17.65,1-3.23-.2-3.93-3.15-3.9C186.65,362.31,178,362.25,169.43,362.25Zm20.26,32.55c-.06-2.26-1.9-1.78-3.23-1.78-11.35,0-22.7.06-34.05-.08-3.43,0-4.07,1-2.89,4.13,6,16.12,11.94,32.29,17.93,48.42.4,1.05,1,1.7,1.88,1.7s1.32-.67,1.7-1.69q7.29-19.63,14.54-39.29C187,402.46,189.69,396.11,189.69,394.8ZM179.3,441.9c-.56,1.44-.28,1.76.91.57.72-.84,1.44-1.68,2.17-2.51Q193.2,427.54,204,415.14c5.42-6.19,10.92-12.32,16.35-18.51.78-.89,2.24-1.77,1.68-3.07-.5-1.14-2-.89-3.1-.88-6,0-11.87.19-18,.24-2.9,0-4.23,1.09-5.14,3.72-2.65,7.66-5.53,15.25-8.32,22.86S182.05,434.43,179.3,441.9Zm-20.54.93c.51.55,1,.95.17-1.47-5.51-15.25-11.23-30.42-16.79-45.65-.77-2.11-2.11-2.79-4.26-2.76-6.11.09-12.23,0-18.34.05-1.07,0-2.47-.28-2.86.87-.32,1,.64,1.84,1.41,2.72q11.32,13,22.72,25.85Zm52.49-56.18c3.12,0,6.23,0,9.34,0a2.74,2.74,0,0,0,1.72-.46c.56-.56,0-1.15-.44-1.61q-7.38-8.47-14.78-16.93c-1.14-1.3-2-1.34-2.54.57-1.47,5.3-3,10.58-4.52,15.86-.51,1.74-.2,2.53,1.88,2.42m-65.2,0c1.44,0,2.29-.19,1.82-1.86q-2.33-8.3-4.64-16.59c-.44-1.58-1.23-1.79-2.32-.55L116.73,384.4c-.4.46-1,1-.68,1.61s1.24.58,2,.57" transform="translate(-104.51 -355.93)"/></symbol>

		<symbol id="icon-svg-fire" viewBox="0 0 67.65 91.32"><path d="M54.62,349.73c-13.4.25-28.71-12.84-31-30.05-.84-6.24-.43-12.27,2.47-18a16.17,16.17,0,0,1,6-6.5c1.26-.79,2.57-1.28,4-.51a3.91,3.91,0,0,1,2.07,3.89A28.29,28.29,0,0,0,39.17,308c1.32,4.12,4.13,6.05,8.41,5.76a5,5,0,0,0,4.92-4.93,12.53,12.53,0,0,0-2.11-7.29c-4.71-8-4.8-16.15-1.15-24.48A50.84,50.84,0,0,1,62.32,259.7c1.45-1.3,3.09-1.77,4.83-.7s1.75,2.72,1.32,4.5a38.52,38.52,0,0,0-.87,14.27c.68,5.19,3.25,9.37,6.84,13.05,3.15,3.25,6.65,6.13,9.74,9.47,9.59,10.37,8.9,29.43-2.34,39.64C75,346.19,67,349.72,54.62,349.73Zm-23-43.51c-1.57,3.55-1.5,6.94-1.32,10.31.58,10.57,5.22,18.85,14.9,23.37,10.41,4.85,20.71,4.15,29.91-3.27,11.62-9.38,12-25.36,1.16-34.13a60.73,60.73,0,0,1-7.5-7.11c-3.94-4.5-7-9.47-7.89-15.5-.36-2.38-.58-4.77-.87-7.21-5.46,6.23-9,16.61-3.79,25.12a20.53,20.53,0,0,1,2.29,5.41c1.83,6.74-1.29,13.84-7.31,16.56-5.69,2.57-12.4.26-16.37-5.6C33.28,311.83,32.52,309.18,31.66,306.22Z" transform="translate(-23.22 -258.41)"/>
	</symbol>

	<symbol viewBox="0 0 512 512" id="icon-svg-percent">
		<path d="M504.936,7.136c-9.38-9.392-24.6-9.392-33.98,0L7.204,470.888c-9.388,9.384-9.388,24.592,0,33.976
			c4.692,4.696,10.844,7.044,16.992,7.044s12.3-2.348,16.988-7.044L504.936,41.112C514.324,31.728,514.324,16.52,504.936,7.136z"/>
			<path d="M114.144,0.256C51.208,0.256,0,51.468,0,114.404s51.208,114.144,114.144,114.144c62.94,0,114.144-51.212,114.144-114.148 S177.08,0.256,114.144,0.256z M114.144,180.484c-36.44,0-66.084-29.648-66.084-66.084c0-36.436,29.648-66.084,66.084-66.084
				c36.44,0,66.084,29.648,66.084,66.084C180.228,150.836,150.584,180.484,114.144,180.484z"/>
				<path d="M397.856,283.596c-62.936,0-114.144,51.208-114.144,114.144s51.208,114.144,114.144,114.144S512,460.68,512,397.74
					S460.792,283.596,397.856,283.596z M397.856,463.82c-36.44,0-66.084-29.648-66.084-66.084c0-36.436,29.648-66.084,66.084-66.084
					c36.436,0,66.084,29.648,66.084,66.084S434.296,463.82,397.856,463.82z"/>
				</symbol>

				<symbol id="icon-svg-cart" viewBox="0 0 459.529 459.529">
					<path d="M17 55.231h48.733l69.417 251.033c1.983 7.367 8.783 12.467 16.433 12.467h213.35c6.8 0 12.75-3.967 15.583-10.2l77.633-178.5c2.267-5.383 1.7-11.333-1.417-16.15-3.117-4.817-8.5-7.65-14.167-7.65H206.833c-9.35 0-17 7.65-17 17s7.65 17 17 17H416.5l-62.9 144.5H164.333L94.917 33.698c-1.983-7.367-8.783-12.467-16.433-12.467H17c-9.35 0-17 7.65-17 17s7.65 17 17 17zm118.433 383.067c21.25 0 38.533-17.283 38.533-38.533s-17.283-38.533-38.533-38.533S96.9 378.514 96.9 399.764s17.283 38.534 38.533 38.534zm240.834 0h2.833c10.2-.85 19.55-5.383 26.35-13.317 6.8-7.65 9.917-17.567 9.35-28.05-1.417-20.967-19.833-37.117-41.083-35.7-21.25 1.417-37.117 20.117-35.7 41.083 1.416 20.117 18.133 35.984 38.25 35.984z"></path>
				</symbol>

				<symbol id="icon-svg-heart-full" viewBox="0 0 512 512">
					<path d="M256,483.5c-7.3,0-14.3-2.6-19.8-7.4C215.5,458,195.6,441,178,426l-0.1-0.1C126.3,382,81.8,344,50.8,306.6
						C16.1,264.8,0,225.2,0,181.9C0,139.8,14.4,101,40.6,72.6C67.1,43.8,103.5,28,143,28c29.6,0,56.6,9.3,80.4,27.8
						c12,9.3,22.9,20.7,32.5,34c9.6-13.3,20.5-24.7,32.5-34C312.4,37.3,339.4,28,369,28c39.5,0,75.9,15.8,102.4,44.6
						C497.6,101,512,139.8,512,181.9c0,43.3-16.1,82.9-50.8,124.7c-31,37.4-75.5,75.4-127.1,119.3c-17.6,15-37.6,32-58.3,50.2
						C270.3,480.9,263.3,483.5,256,483.5z"/>
					</symbol>


					<symbol id="icon-svg-heart" viewBox="0 -28 512.001 512" xmlns="http://www.w3.org/2000/svg">
						<path d="m256 455.515625c-7.289062 0-14.316406-2.640625-19.792969-7.4375-20.683593-18.085937-40.625-35.082031-58.21875-50.074219l-.089843-.078125c-51.582032-43.957031-96.125-81.917969-127.117188-119.3125-34.644531-41.804687-50.78125-81.441406-50.78125-124.742187 0-42.070313 14.425781-80.882813 40.617188-109.292969 26.503906-28.746094 62.871093-44.578125 102.414062-44.578125 29.554688 0 56.621094 9.34375 80.445312 27.769531 12.023438 9.300781 22.921876 20.683594 32.523438 33.960938 9.605469-13.277344 20.5-24.660157 32.527344-33.960938 23.824218-18.425781 50.890625-27.769531 80.445312-27.769531 39.539063 0 75.910156 15.832031 102.414063 44.578125 26.191406 28.410156 40.613281 67.222656 40.613281 109.292969 0 43.300781-16.132812 82.9375-50.777344 124.738281-30.992187 37.398437-75.53125 75.355469-127.105468 119.308594-17.625 15.015625-37.597657 32.039062-58.328126 50.167969-5.472656 4.789062-12.503906 7.429687-19.789062 7.429687zm-112.96875-425.523437c-31.066406 0-59.605469 12.398437-80.367188 34.914062-21.070312 22.855469-32.675781 54.449219-32.675781 88.964844 0 36.417968 13.535157 68.988281 43.882813 105.605468 29.332031 35.394532 72.960937 72.574219 123.476562 115.625l.09375.078126c17.660156 15.050781 37.679688 32.113281 58.515625 50.332031 20.960938-18.253907 41.011719-35.34375 58.707031-50.417969 50.511719-43.050781 94.136719-80.222656 123.46875-115.617188 30.34375-36.617187 43.878907-69.1875 43.878907-105.605468 0-34.515625-11.605469-66.109375-32.675781-88.964844-20.757813-22.515625-49.300782-34.914062-80.363282-34.914062-22.757812 0-43.652344 7.234374-62.101562 21.5-16.441406 12.71875-27.894532 28.796874-34.609375 40.046874-3.453125 5.785157-9.53125 9.238282-16.261719 9.238282s-12.808594-3.453125-16.261719-9.238282c-6.710937-11.25-18.164062-27.328124-34.609375-40.046874-18.449218-14.265626-39.34375-21.5-62.097656-21.5zm0 0"/></symbol>

						<symbol id="icon-svg-check" viewBox="0 0 405.272 405.272">
							<path d="M393.401 124.425L179.603 338.208c-15.832 15.835-41.514 15.835-57.361 0L11.878 227.836c-15.838-15.835-15.838-41.52 0-57.358 15.841-15.841 41.521-15.841 57.355-.006l81.698 81.699L336.037 67.064c15.841-15.841 41.523-15.829 57.358 0 15.835 15.838 15.835 41.514.006 57.361z"></path>
						</symbol>

						<symbol id="icon-svg-clock" viewBox="0 0 380 380">
							<path d="M190 0C85.233 0 0 85.233 0 190s85.233 190 190 190 190-85.233 190-190S294.767 0 190 0zm0 340c-82.71 0-150-67.29-150-150S107.29 40 190 40s150 67.29 150 150-67.29 150-150 150z"></path><path d="M291.993 184.132h-74.197A32.827 32.827 0 0 0 207 173.336V84.139c0-9.389-7.611-17-17-17s-17 7.611-17 17v89.197c-9.345 5.737-15.593 16.05-15.593 27.796 0 17.972 14.622 32.593 32.593 32.593 11.746 0 22.059-6.248 27.796-15.593h74.197c9.389 0 17-7.611 17-17s-7.611-17-17-17z"></path>
						</symbol>

						<symbol id="icon-svg-close" viewBox="0 0 47.971 47.971">
							<path d="M28.228 23.986L47.092 5.122a2.998 2.998 0 0 0 0-4.242 2.998 2.998 0 0 0-4.242 0L23.986 19.744 5.121.88a2.998 2.998 0 0 0-4.242 0 2.998 2.998 0 0 0 0 4.242l18.865 18.864L.879 42.85a2.998 2.998 0 1 0 4.242 4.241l18.865-18.864L42.85 47.091c.586.586 1.354.879 2.121.879s1.535-.293 2.121-.879a2.998 2.998 0 0 0 0-4.242L28.228 23.986z"></path>
						</symbol>

						<symbol id="icon-svg-download" viewBox="0 0 240.811 240.811">
							<path d="M220.088 57.667l-99.671 99.695-99.671-99.707a12.147 12.147 0 0 0-17.191 0c-4.74 4.752-4.74 12.451 0 17.203l108.261 108.297c4.74 4.752 12.439 4.752 17.179 0L237.256 74.859c4.74-4.752 4.74-12.463 0-17.215-4.728-4.729-12.428-4.729-17.168.023z"></path>
						</symbol>

						<symbol id="icon-svg-location" viewBox="0 0 352.718 352.718">
							<path d="M154.677 234.106c15.524 17.733 19.319 17.733 21.358 17.733 2.08 0 5.95 0 21.499-17.73 9.63-10.979 20.358-24.967 30.207-39.384 15.455-22.62 41.381-64.942 41.381-94.244 0-51.329-41.759-93.088-93.087-93.088-51.329 0-93.088 41.759-93.088 93.088 0 29.246 26.009 71.603 41.512 94.248 9.84 14.373 20.572 28.357 30.218 39.377zm21.358-188.607c28.616 0 51.897 23.281 51.897 51.898s-23.281 51.897-51.897 51.897c-28.617 0-51.899-23.281-51.899-51.897s23.282-51.898 51.899-51.898z"></path><path d="M352.322 321.191l-22.629-96.794c-2.358-12.387-14.235-22.071-27.095-22.071h-41.713c-4.676 0-8.443 1.85-10.897 5.351-11.579 16.538-24.364 32.953-35.998 46.222-18.268 20.83-27.511 27.517-38.036 27.517-10.357 0-19.558-6.712-37.862-27.621-12.069-13.787-24.525-29.738-36.021-46.131l-.121-.175c-.968-1.412-3.541-5.162-10.095-5.162H50.119c-12.847 0-24.723 9.737-27.094 22.191L.443 321.084l-.048.229c-1.167 6.304.272 12.278 4.053 16.823 3.856 4.637 9.619 7.19 16.225 7.19h311.372c6.573 0 12.321-2.558 16.184-7.202 3.813-4.585 5.267-10.598 4.093-16.933z"></path>
						</symbol>

						<symbol id="icon-svg-logo" viewBox="0 0 11161 11161">
							<path class="fil0" d="M2240 6206c-599-2349-83-4443 1188-5110-759 364-1410 917-1896 1596-758 1152-946 2965-174 4679 755 1676 2089 2712 3218 3079 323 66 658 101 1001 101 65 0 129-3 194-5-1025-322-2769-1354-3531-4340z"></path><path class="fil0" d="M6652 3861c686-1679 2162-1930 2804-1389-725-904-1759-1549-2942-1774-735-28-2177 852-2459 3296-353 3049 1056 5582 2484 6463 303-60 596-147 876-259-1079-1202-1750-3925-763-6337z"></path><path class="fil0" d="M5580 0C2503 0 0 2503 0 5581c0 3077 2503 5580 5580 5580 1532 0 2921-621 3931-1623 191-190 369-394 531-609l-132-275-930-1925 945-1480h-493l-914 1503-304 251V5249h-709v3787h709V7510l259-232 918 2000c-965 994-2315 1613-3811 1613-2932 0-5310-2378-5310-5310 0-2933 2378-5311 5310-5311 2933 0 5311 2378 5311 5311 0 1036-299 2002-812 2819l137 283c596-888 945-1955 945-3102C11161 2503 8658 0 5580 0z"></path>
						</symbol>

						<symbol id="icon-svg-map" viewBox="0 0 512 512">
							<path d="M416 48c-44.188 0-80 35.813-80 80 0 11.938 2.625 23.281 7.312 33.438L416 304l72.688-142.563C493.375 151.281 496 139.938 496 128c0-44.187-35.812-80-80-80zm0 128c-26.5 0-48-21.5-48-48s21.5-48 48-48 48 21.5 48 48-21.5 48-48 48zm23.938 151.469l29.125 58.219-73.844 36.906-24.75-123.812 4.156-4.156.438-.438-15.25-30L352 272l-96-64-96 64-64-64L0 400l128 64 128-64 128 64 128-64-54-107.969-18.062 35.438zM116.75 422.594l-73.813-36.906L104.75 262l32.625 32.625 4.156 4.156-24.781 123.813zM240 372.219l-89.5 44.75 23.125-115.594 4.125-2.75 62.25-41.5v115.094zm32 0V257.125l62.25 41.5 4.094 2.75 23.125 115.594L272 372.219z"></path>
						</symbol>

						<symbol id="icon-svg-phone" viewBox="0 0 473.806 473.806">
							<path d="M374.456 293.506c-9.7-10.1-21.4-15.5-33.8-15.5-12.3 0-24.1 5.3-34.2 15.4l-31.6 31.5c-2.6-1.4-5.2-2.7-7.7-4-3.6-1.8-7-3.5-9.9-5.3-29.6-18.8-56.5-43.3-82.3-75-12.5-15.8-20.9-29.1-27-42.6 8.2-7.5 15.8-15.3 23.2-22.8 2.8-2.8 5.6-5.7 8.4-8.5 21-21 21-48.2 0-69.2l-27.3-27.3c-3.1-3.1-6.3-6.3-9.3-9.5-6-6.2-12.3-12.6-18.8-18.6-9.7-9.6-21.3-14.7-33.5-14.7s-24 5.1-34 14.7l-.2.2-34 34.3c-12.8 12.8-20.1 28.4-21.7 46.5-2.4 29.2 6.2 56.4 12.8 74.2 16.2 43.7 40.4 84.2 76.5 127.6 43.8 52.3 96.5 93.6 156.7 122.7 23 10.9 53.7 23.8 88 26 2.1.1 4.3.2 6.3.2 23.1 0 42.5-8.3 57.7-24.8.1-.2.3-.3.4-.5 5.2-6.3 11.2-12 17.5-18.1 4.3-4.1 8.7-8.4 13-12.9 9.9-10.3 15.1-22.3 15.1-34.6 0-12.4-5.3-24.3-15.4-34.3l-54.9-55.1zm35.8 105.3c-.1 0-.1.1 0 0-3.9 4.2-7.9 8-12.2 12.2-6.5 6.2-13.1 12.7-19.3 20-10.1 10.8-22 15.9-37.6 15.9-1.5 0-3.1 0-4.6-.1-29.7-1.9-57.3-13.5-78-23.4-56.6-27.4-106.3-66.3-147.6-115.6-34.1-41.1-56.9-79.1-72-119.9-9.3-24.9-12.7-44.3-11.2-62.6 1-11.7 5.5-21.4 13.8-29.7l34.1-34.1c4.9-4.6 10.1-7.1 15.2-7.1 6.3 0 11.4 3.8 14.6 7l.3.3c6.1 5.7 11.9 11.6 18 17.9 3.1 3.2 6.3 6.4 9.5 9.7l27.3 27.3c10.6 10.6 10.6 20.4 0 31-2.9 2.9-5.7 5.8-8.6 8.6-8.4 8.6-16.4 16.6-25.1 24.4-.2.2-.4.3-.5.5-8.6 8.6-7 17-5.2 22.7l.3.9c7.1 17.2 17.1 33.4 32.3 52.7l.1.1c27.6 34 56.7 60.5 88.8 80.8 4.1 2.6 8.3 4.7 12.3 6.7 3.6 1.8 7 3.5 9.9 5.3.4.2.8.5 1.2.7 3.4 1.7 6.6 2.5 9.9 2.5 8.3 0 13.5-5.2 15.2-6.9l34.2-34.2c3.4-3.4 8.8-7.5 15.1-7.5 6.2 0 11.3 3.9 14.4 7.3l.2.2 55.1 55.1c10.3 10.2 10.3 20.7.1 31.3zm-154.2-286.1c26.2 4.4 50 16.8 69 35.8s31.3 42.8 35.8 69c1.1 6.6 6.8 11.2 13.3 11.2.8 0 1.5-.1 2.3-.2 7.4-1.2 12.3-8.2 11.1-15.6-5.4-31.7-20.4-60.6-43.3-83.5s-51.8-37.9-83.5-43.3c-7.4-1.2-14.3 3.7-15.6 11s3.5 14.4 10.9 15.6zm217.2 96.3c-8.9-52.2-33.5-99.7-71.3-137.5s-85.3-62.4-137.5-71.3c-7.3-1.3-14.2 3.7-15.5 11-1.2 7.4 3.7 14.3 11.1 15.6 46.6 7.9 89.1 30 122.9 63.7 33.8 33.8 55.8 76.3 63.7 122.9 1.1 6.6 6.8 11.2 13.3 11.2.8 0 1.5-.1 2.3-.2 7.3-1.1 12.3-8.1 11-15.4z"></path>
						</symbol>

						<symbol id="icon-svg-point" viewBox="0 0 491.582 491.582">
							<path d="M245.791 0C153.799 0 78.957 74.841 78.957 166.833c0 36.967 21.764 93.187 68.493 176.926 31.887 57.138 63.627 105.4 64.966 107.433l22.941 34.773a12.497 12.497 0 0 0 20.868 0l22.94-34.771c1.326-2.01 32.835-49.855 64.967-107.435 46.729-83.735 68.493-139.955 68.493-176.926C412.625 74.841 337.783 0 245.791 0zm76.511 331.576c-31.685 56.775-62.696 103.869-64.003 105.848l-12.508 18.959-12.504-18.954c-1.314-1.995-32.563-49.511-64.007-105.853-43.345-77.676-65.323-133.104-65.323-164.743C103.957 88.626 167.583 25 245.791 25s141.834 63.626 141.834 141.833c0 31.643-21.978 87.069-65.323 164.743z"></path><path d="M245.791 73.291c-51.005 0-92.5 41.496-92.5 92.5s41.495 92.5 92.5 92.5 92.5-41.496 92.5-92.5-41.495-92.5-92.5-92.5zm0 160c-37.22 0-67.5-30.28-67.5-67.5s30.28-67.5 67.5-67.5c37.221 0 67.5 30.28 67.5 67.5s-30.279 67.5-67.5 67.5z"></path>
						</symbol>

						<symbol id="icon-svg-search" viewBox="0 0 310.420 310.420">
							<path d="M273.587 214.965c49.11-49.111 49.109-129.021 0-178.132-49.111-49.111-129.02-49.111-178.13 0C53.793 78.497 47.483 140.462 76.51 188.85c0 0 2.085 3.498-.731 6.312l-64.263 64.263c-12.791 12.79-15.836 30.675-4.493 42.02l1.953 1.951c11.343 11.345 29.229 8.301 42.019-4.49l64.128-64.128c2.951-2.951 6.448-.866 6.448-.866 48.387 29.026 110.352 22.717 152.016-18.947zM118.711 191.71c-36.288-36.288-36.287-95.332.001-131.62 36.288-36.287 95.332-36.288 131.619 0 36.288 36.287 36.288 95.332 0 131.62-36.288 36.286-95.331 36.286-131.62 0z"></path><path d="M126.75 118.424c-1.689 0-3.406-.332-5.061-1.031-6.611-2.798-9.704-10.426-6.906-17.038 17.586-41.559 65.703-61.062 107.261-43.476 6.611 2.798 9.704 10.426 6.906 17.038-2.799 6.612-10.425 9.703-17.039 6.906-28.354-11.998-61.186 1.309-73.183 29.663-2.099 4.959-6.913 7.938-11.978 7.938z"></path>
						</symbol>

						<symbol id="icon-svg-user" viewBox="0 0 253.121 253.121">
							<path d="M253.121 126.561C253.121 56.775 196.346 0 126.561 0c-32.82 0-63.933 12.509-87.607 35.222a7.5 7.5 0 0 0 10.384 10.824C70.206 26.026 97.631 15 126.561 15c61.515 0 111.561 50.046 111.561 111.561 0 27.975-10.409 54.736-29.311 75.355-21.092 23.009-51.071 36.206-82.25 36.206-29.913 0-58.723-12.148-79.64-33.454.124-.536.262-1.066.398-1.597.108-.423.208-.849.323-1.269.176-.64.372-1.271.565-1.903.115-.375.219-.755.339-1.127.234-.725.489-1.439.745-2.153.097-.27.184-.545.284-.814a72.009 72.009 0 0 1 2.427-5.753c.133-.28.278-.552.414-.83.318-.65.636-1.3.973-1.938.178-.337.369-.666.553-1 .311-.567.619-1.136.944-1.693.209-.359.432-.709.647-1.064.316-.521.63-1.043.958-1.555.234-.364.479-.718.719-1.077.328-.49.653-.982.992-1.464.255-.363.521-.716.783-1.074.34-.464.678-.929 1.028-1.384.275-.358.561-.708.843-1.06.353-.441.705-.884 1.068-1.316.293-.35.595-.691.895-1.035.367-.421.734-.842 1.111-1.255.31-.34.628-.671.944-1.005.382-.402.764-.804 1.154-1.197.326-.328.658-.648.989-.969.396-.383.793-.766 1.198-1.14.341-.315.687-.624 1.033-.932.409-.365.821-.727 1.238-1.082.355-.302.715-.599 1.077-.894.423-.345.848-.688 1.278-1.024a76.429 76.429 0 0 1 3.589-2.626 75.882 75.882 0 0 1 2.545-1.669 72.622 72.622 0 0 1 4.044-2.35c.417-.225.835-.448 1.256-.665.484-.249.973-.489 1.463-.727.427-.207.854-.414 1.285-.613.497-.229.998-.449 1.5-.667.435-.189.869-.378 1.307-.558.51-.209 1.024-.408 1.539-.605.442-.17.882-.341 1.328-.502.522-.189 1.05-.365 1.577-.542.447-.15.893-.303 1.344-.445.535-.168 1.076-.323 1.617-.478.451-.13.901-.265 1.356-.386.551-.147 1.107-.279 1.663-.414.452-.109.903-.224 1.358-.325.568-.126 1.143-.235 1.716-.347.45-.088.898-.184 1.351-.264.591-.104 1.188-.19 1.783-.28.442-.067.881-.142 1.325-.2.627-.083 1.261-.145 1.893-.212.418-.044.834-.098 1.254-.135.702-.062 1.411-.1 2.118-.142.355-.021.708-.053 1.064-.069a72.942 72.942 0 0 1 3.214-.072h18.463c21.67 0 42.011 9.609 55.807 26.364a7.5 7.5 0 0 0 11.579-9.535c-11.759-14.28-27.46-24.253-44.882-28.888 9.915-8.785 16.181-21.6 16.181-35.857 0-26.421-21.495-47.917-47.917-47.917s-47.917 21.495-47.917 47.917c0 14.257 6.266 27.071 16.18 35.856-.246.066-.494.128-.74.195a85.493 85.493 0 0 0-3.061.906c-.124.039-.251.073-.375.112a88.96 88.96 0 0 0-3.377 1.161c-.348.127-.69.267-1.036.399-.765.291-1.529.586-2.284.899-.419.173-.832.356-1.248.536-.675.292-1.349.587-2.015.895-.435.201-.865.408-1.296.616a89.53 89.53 0 0 0-3.192 1.619 84.62 84.62 0 0 0-1.89 1.043c-.404.229-.809.456-1.209.691-.658.387-1.307.787-1.955 1.191-.353.22-.709.434-1.059.659a86.692 86.692 0 0 0-2.383 1.595c-.18.124-.364.241-.543.367a87.4 87.4 0 0 0-2.837 2.08c-.27.206-.532.423-.8.632a91.421 91.421 0 0 0-1.952 1.563c-.341.283-.675.575-1.011.863-.558.477-1.113.957-1.658 1.448a86.21 86.21 0 0 0-1.045.962 88.467 88.467 0 0 0-2.564 2.48 85.915 85.915 0 0 0-1.482 1.537c-.323.342-.646.682-.963 1.03a88.183 88.183 0 0 0-1.49 1.683c-.281.324-.567.644-.844.973a86.035 86.035 0 0 0-1.702 2.098c-.172.218-.351.429-.521.649a86.394 86.394 0 0 0-2.107 2.837c-.182.256-.354.519-.533.777-.496.713-.988 1.43-1.463 2.159-.24.369-.47.744-.705 1.117a86.696 86.696 0 0 0-1.178 1.912c-.245.411-.482.827-.72 1.243a86.22 86.22 0 0 0-1.738 3.183 84.678 84.678 0 0 0-.968 1.929c-.213.436-.425.871-.631 1.311a86.893 86.893 0 0 0-.924 2.063c-.18.414-.365.824-.54 1.242a88.038 88.038 0 0 0-.969 2.444c-.119.31-.246.616-.361.928l-.053.136C22.167 172.148 15 149.772 15 126.561a7.5 7.5 0 0 0-15 0c0 31.738 11.81 62.099 33.253 85.491 23.926 26.1 57.936 41.069 93.307 41.069 35.373 0 69.382-14.969 93.308-41.07l.006-.007c21.44-23.391 33.247-53.749 33.247-85.483zm-126.56-58.623c18.15 0 32.917 14.766 32.917 32.917s-14.766 32.917-32.917 32.917-32.917-14.766-32.917-32.917 14.766-32.917 32.917-32.917z"></path>
						</symbol>

						<symbol id="icon-svg-vk" viewBox="0 0 548.358 548.358">
							<path d="M545.451,400.298c-0.664-1.431-1.283-2.618-1.858-3.569c-9.514-17.135-27.695-38.167-54.532-63.102l-0.567-0.571 l-0.284-0.28l-0.287-0.287h-0.288c-12.18-11.611-19.893-19.418-23.123-23.415c-5.91-7.614-7.234-15.321-4.004-23.13 c2.282-5.9,10.854-18.36,25.696-37.397c7.807-10.089,13.99-18.175,18.556-24.267c32.931-43.78,47.208-71.756,42.828-83.939
								l-1.701-2.847c-1.143-1.714-4.093-3.282-8.846-4.712c-4.764-1.427-10.853-1.663-18.278-0.712l-82.224,0.568
								c-1.332-0.472-3.234-0.428-5.712,0.144c-2.475,0.572-3.713,0.859-3.713,0.859l-1.431,0.715l-1.136,0.859
								c-0.952,0.568-1.999,1.567-3.142,2.995c-1.137,1.423-2.088,3.093-2.848,4.996c-8.952,23.031-19.13,44.444-30.553,64.238
								c-7.043,11.803-13.511,22.032-19.418,30.693c-5.899,8.658-10.848,15.037-14.842,19.126c-4,4.093-7.61,7.372-10.852,9.849
								c-3.237,2.478-5.708,3.525-7.419,3.142c-1.715-0.383-3.33-0.763-4.859-1.143c-2.663-1.714-4.805-4.045-6.42-6.995
								c-1.622-2.95-2.714-6.663-3.285-11.136c-0.568-4.476-0.904-8.326-1-11.563c-0.089-3.233-0.048-7.806,0.145-13.706
								c0.198-5.903,0.287-9.897,0.287-11.991c0-7.234,0.141-15.085,0.424-23.555c0.288-8.47,0.521-15.181,0.716-20.125
								c0.194-4.949,0.284-10.185,0.284-15.705s-0.336-9.849-1-12.991c-0.656-3.138-1.663-6.184-2.99-9.137
								c-1.335-2.95-3.289-5.232-5.853-6.852c-2.569-1.618-5.763-2.902-9.564-3.856c-10.089-2.283-22.936-3.518-38.547-3.71
								c-35.401-0.38-58.148,1.906-68.236,6.855c-3.997,2.091-7.614,4.948-10.848,8.562c-3.427,4.189-3.905,6.475-1.431,6.851
								c11.422,1.711,19.508,5.804,24.267,12.275l1.715,3.429c1.334,2.474,2.666,6.854,3.999,13.134c1.331,6.28,2.19,13.227,2.568,20.837
								c0.95,13.897,0.95,25.793,0,35.689c-0.953,9.9-1.853,17.607-2.712,23.127c-0.859,5.52-2.143,9.993-3.855,13.418
								c-1.715,3.426-2.856,5.52-3.428,6.28c-0.571,0.76-1.047,1.239-1.425,1.427c-2.474,0.948-5.047,1.431-7.71,1.431
								c-2.667,0-5.901-1.334-9.707-4c-3.805-2.666-7.754-6.328-11.847-10.992c-4.093-4.665-8.709-11.184-13.85-19.558
								c-5.137-8.374-10.467-18.271-15.987-29.691l-4.567-8.282c-2.855-5.328-6.755-13.086-11.704-23.267
								c-4.952-10.185-9.329-20.037-13.134-29.554c-1.521-3.997-3.806-7.04-6.851-9.134l-1.429-0.859c-0.95-0.76-2.475-1.567-4.567-2.427
								c-2.095-0.859-4.281-1.475-6.567-1.854l-78.229,0.568c-7.994,0-13.418,1.811-16.274,5.428l-1.143,1.711
								C0.288,140.146,0,141.668,0,143.763c0,2.094,0.571,4.664,1.714,7.707c11.42,26.84,23.839,52.725,37.257,77.659
								c13.418,24.934,25.078,45.019,34.973,60.237c9.897,15.229,19.985,29.602,30.264,43.112c10.279,13.515,17.083,22.176,20.412,25.981
								c3.333,3.812,5.951,6.662,7.854,8.565l7.139,6.851c4.568,4.569,11.276,10.041,20.127,16.416
								c8.853,6.379,18.654,12.659,29.408,18.85c10.756,6.181,23.269,11.225,37.546,15.126c14.275,3.905,28.169,5.472,41.684,4.716h32.834
								c6.659-0.575,11.704-2.669,15.133-6.283l1.136-1.431c0.764-1.136,1.479-2.901,2.139-5.276c0.668-2.379,1-5,1-7.851
								c-0.195-8.183,0.428-15.558,1.852-22.124c1.423-6.564,3.045-11.513,4.859-14.846c1.813-3.33,3.859-6.14,6.136-8.418
								c2.282-2.283,3.908-3.666,4.862-4.142c0.948-0.479,1.705-0.804,2.276-0.999c4.568-1.522,9.944-0.048,16.136,4.429
								c6.187,4.473,11.99,9.996,17.418,16.56c5.425,6.57,11.943,13.941,19.555,22.124c7.617,8.186,14.277,14.271,19.985,18.274
								l5.708,3.426c3.812,2.286,8.761,4.38,14.853,6.283c6.081,1.902,11.409,2.378,15.984,1.427l73.087-1.14
								c7.229,0,12.854-1.197,16.844-3.572c3.998-2.379,6.373-5,7.139-7.851c0.764-2.854,0.805-6.092,0.145-9.712
								C546.782,404.25,546.115,401.725,545.451,400.298z"/>
							</symbol>

							<symbol id="icon-svg-fb" viewBox="0 0 96.124 96.123">
								<path d="M72.089,0.02L59.624,0C45.62,0,36.57,9.285,36.57,23.656v10.907H24.037c-1.083,0-1.96,0.878-1.96,1.961v15.803
									c0,1.083,0.878,1.96,1.96,1.96h12.533v39.876c0,1.083,0.877,1.96,1.96,1.96h16.352c1.083,0,1.96-0.878,1.96-1.96V54.287h14.654
									c1.083,0,1.96-0.877,1.96-1.96l0.006-15.803c0-0.52-0.207-1.018-0.574-1.386c-0.367-0.368-0.867-0.575-1.387-0.575H56.842v-9.246
									c0-4.444,1.059-6.7,6.848-6.7l8.397-0.003c1.082,0,1.959-0.878,1.959-1.96V1.98C74.046,0.899,73.17,0.022,72.089,0.02z"/>
								</symbol>

								<symbol id="icon-svg-inst" viewBox="0 0 512 512">
									<path d="M352,0H160C71.6,0,0,71.6,0,160v192c0,88.4,71.6,160,160,160h192c88.4,0,160-71.6,160-160V160C512,71.6,440.4,0,352,0z	M464,352c0,61.8-50.2,112-112,112H160c-61.8,0-112-50.2-112-112V160C48,98.2,98.2,48,160,48h192c61.8,0,112,50.2,112,112V352z
										M256,128c-70.7,0-128,57.3-128,128s57.3,128,128,128s128-57.3,128-128S326.7,128,256,128z M256,336c-44.1,0-80-35.9-80-80
										c0-44.1,35.9-80,80-80s80,35.9,80,80C336,300.1,300.1,336,256,336z M393.6,101.3c9.4,0,17.1,7.6,17.1,17.1s-7.6,17.1-17.1,17.1
										s-17.1-7.6-17.1-17.1S384.2,101.3,393.6,101.3z"/>
									</symbol>

									<symbol id="icon-svg-youtube" viewBox="0 0 461.001 461.001">
										<path d="M365.257,67.393H95.744C42.866,67.393,0,110.259,0,163.137v134.728
											c0,52.878,42.866,95.744,95.744,95.744h269.513c52.878,0,95.744-42.866,95.744-95.744V163.137 C461.001,110.259,418.135,67.393,365.257,67.393z M300.506,237.056l-126.06,60.123c-3.359,1.602-7.239-0.847-7.239-4.568V168.607 c0-3.774,3.982-6.22,7.348-4.514l126.06,63.881C304.363,229.873,304.298,235.248,300.506,237.056z"/>
										</symbol>

										<symbol id="icon-svg-menu" viewBox="0 0 459 459">
											<path d="M0,382.5h459v-51H0V382.5z M0,255h459v-51H0V255z M0,76.5v51h459v-51H0z"/>
										</symbol>

										<symbol id="icon-svg-drop" viewBox="0 0 129 129">
											<path d="m121.3,34.6c-1.6-1.6-4.2-1.6-5.8,0l-51,51.1-51.1-51.1c-1.6-1.6-4.2-1.6-5.8,0-1.6,1.6-1.6,4.2 0,5.8l53.9,53.9c0.8,0.8 1.8,1.2 2.9,1.2 1,0 2.1-0.4 2.9-1.2l53.9-53.9c1.7-1.6 1.7-4.2 0.1-5.8z"/>
										</symbol>

										<symbol id="icon-svg-plus" viewBox="0 0 357 357">
											<path d="M357,204H204v153h-51V204H0v-51h153V0h51v153h153V204z"/>
										</symbol>

										<symbol id="icon-svg-minus" viewBox="0 0 24 24">
											<path d="M24,11c0-0.6-0.4-1-1-1H1c-0.6,0-1,0.4-1,1v2c0,0.6,0.4,1,1,1h22c0.6,0,1-0.4,1-1V11z"/>
										</symbol>

										<symbol id="icon-svg-agreement" viewBox="0 0 463 463">
											<path d="M375.5,0h-224c-0.086,0-0.17,0.01-0.256,0.013c-0.084,0.003-0.166,0.007-0.25,0.012c-0.32,0.021-0.636,0.057-0.944,0.117   c-0.006,0.001-0.011,0.001-0.017,0.003c-0.333,0.066-0.655,0.159-0.971,0.267c-0.057,0.02-0.114,0.041-0.17,0.063   c-0.297,0.11-0.587,0.235-0.865,0.38c-0.018,0.01-0.037,0.017-0.055,0.027c-0.292,0.156-0.569,0.334-0.836,0.526   c-0.061,0.043-0.12,0.089-0.18,0.134c-0.265,0.202-0.521,0.416-0.756,0.65c-0.001,0.001-0.003,0.002-0.004,0.003l-80,80   c-0.001,0.001-0.002,0.002-0.003,0.003c-0.235,0.236-0.449,0.492-0.651,0.757c-0.045,0.06-0.09,0.119-0.134,0.179   c-0.192,0.267-0.37,0.544-0.526,0.835c-0.01,0.02-0.019,0.04-0.029,0.06c-0.144,0.276-0.268,0.563-0.378,0.858   c-0.022,0.059-0.044,0.117-0.065,0.177c-0.108,0.313-0.2,0.633-0.266,0.964c-0.002,0.012-0.003,0.025-0.006,0.037   c-0.058,0.301-0.093,0.609-0.115,0.921c-0.006,0.088-0.01,0.175-0.013,0.263C64.01,87.334,64,87.416,64,87.5v352   c0,12.958,10.542,23.5,23.5,23.5h288c12.958,0,23.5-10.542,23.5-23.5v-416C399,10.542,388.458,0,375.5,0z M144,25.606V71.5   c0,4.687-3.813,8.5-8.5,8.5H89.606L144,25.606z M384,439.5c0,4.687-3.813,8.5-8.5,8.5h-288c-4.687,0-8.5-3.813-8.5-8.5V95h56.5   c12.958,0,23.5-10.542,23.5-23.5V15h216.5c4.687,0,8.5,3.813,8.5,8.5V439.5z" />
											<path d="M135.5,127h192c4.142,0,7.5-3.357,7.5-7.5s-3.358-7.5-7.5-7.5h-192c-4.142,0-7.5,3.357-7.5,7.5S131.358,127,135.5,127z" />
											<path d="M135.5,167h192c4.142,0,7.5-3.357,7.5-7.5s-3.358-7.5-7.5-7.5h-192c-4.142,0-7.5,3.357-7.5,7.5S131.358,167,135.5,167z" />
											<path d="M135.5,207h192c4.142,0,7.5-3.357,7.5-7.5s-3.358-7.5-7.5-7.5h-192c-4.142,0-7.5,3.357-7.5,7.5S131.358,207,135.5,207z" />
											<path d="M135.5,247h192c4.142,0,7.5-3.357,7.5-7.5s-3.358-7.5-7.5-7.5h-192c-4.142,0-7.5,3.357-7.5,7.5S131.358,247,135.5,247z" />
											<path d="M135.5,287h192c4.142,0,7.5-3.357,7.5-7.5s-3.358-7.5-7.5-7.5h-192c-4.142,0-7.5,3.357-7.5,7.5S131.358,287,135.5,287z" />
											<path d="M231.5,328h-96c-4.142,0-7.5,3.357-7.5,7.5s3.358,7.5,7.5,7.5h96c4.142,0,7.5-3.357,7.5-7.5S235.642,328,231.5,328z" />
											<path d="M231.5,368h-96c-4.142,0-7.5,3.357-7.5,7.5s3.358,7.5,7.5,7.5h96c4.142,0,7.5-3.357,7.5-7.5S235.642,368,231.5,368z" />
											<path d="M299.5,344c-6.341,0-11.5,5.159-11.5,11.5s5.159,11.5,11.5,11.5s11.5-5.159,11.5-11.5S305.841,344,299.5,344z"/>
											<path d="M299.5,312c-23.986,0-43.5,19.514-43.5,43.5s19.514,43.5,43.5,43.5s43.5-19.514,43.5-43.5S323.486,312,299.5,312z    M299.5,384c-15.715,0-28.5-12.785-28.5-28.5s12.785-28.5,28.5-28.5s28.5,12.785,28.5,28.5S315.215,384,299.5,384z" />
										</symbol>

										<symbol id="icon-svg-cards" viewBox="0 0 487.542 487.542">
											<path d="M462.339,190.535h-85.18V67.444c0-13.896-11.306-25.202-25.202-25.202H25.204C11.307,42.242,0,53.548,0,67.444v204.359   c0,13.897,11.307,25.203,25.204,25.203h85.178v123.09c0,13.897,11.307,25.203,25.204,25.203h326.753   c13.897,0,25.203-11.306,25.203-25.203V215.737C487.542,201.841,476.236,190.535,462.339,190.535z M21,106.335h335.159v31.072H21   V106.335z M25.204,63.242h326.753c2.317,0,4.202,1.885,4.202,4.202v17.891H21V67.444C21,65.127,22.886,63.242,25.204,63.242z    M25.204,276.007c-2.318,0-4.204-1.886-4.204-4.203V158.407h335.159v32.128H135.586c-13.897,0-25.204,11.306-25.204,25.203v60.269   H25.204z M466.542,420.097c0,2.317-1.886,4.203-4.203,4.203H135.586c-2.318,0-4.204-1.886-4.204-4.203V215.738   c0-2.317,1.886-4.203,4.204-4.203h326.753c2.317,0,4.203,1.885,4.203,4.202V420.097z"/>
											<path d="M405.99,331.552c-7.215,0-14.101,1.966-20.07,5.649c-5.971-3.684-12.855-5.649-20.071-5.649   c-21.16,0-38.375,17.216-38.375,38.376c0,21.16,17.215,38.376,38.375,38.376c7.216,0,14.1-1.966,20.071-5.649   c5.971,3.684,12.855,5.649,20.07,5.649c21.16,0,38.376-17.216,38.376-38.376C444.366,348.768,427.15,331.552,405.99,331.552z    M405.99,387.304c-4.757,0-9.199-1.892-12.509-5.327c-1.979-2.055-4.709-3.215-7.562-3.215c-2.852,0-5.582,1.16-7.561,3.215   c-3.31,3.436-7.752,5.327-12.51,5.327c-9.581,0-17.375-7.795-17.375-17.376c0-9.581,7.794-17.376,17.375-17.376   c4.758,0,9.201,1.892,12.51,5.326c1.979,2.055,4.709,3.215,7.561,3.215c2.853,0,5.582-1.16,7.562-3.215   c3.309-3.435,7.751-5.326,12.509-5.326c9.581,0,17.376,7.795,17.376,17.376C423.366,379.509,415.571,387.304,405.99,387.304z"/>
											<path d="M301.216,260.805h-128.78c-5.799,0-10.5,4.701-10.5,10.5s4.701,10.5,10.5,10.5h128.78c5.799,0,10.5-4.701,10.5-10.5   S307.015,260.805,301.216,260.805z"/>
											<path d="M344.699,281.805h40.14c5.799,0,10.5-4.701,10.5-10.5s-4.701-10.5-10.5-10.5h-40.14c-5.799,0-10.5,4.701-10.5,10.5   S338.9,281.805,344.699,281.805z"/>
										</symbol>

										<symbol id="icon-svg-funds" viewBox="0 0 442.003 442.003">
											<path d="M337.897,189.476c-0.01-0.082-0.016-0.165-0.028-0.246c-0.058-0.404-0.135-0.807-0.244-1.205   c-0.001-0.004-0.003-0.008-0.004-0.013c-0.102-0.372-0.232-0.739-0.379-1.102c-0.042-0.104-0.088-0.204-0.133-0.306   c-0.116-0.262-0.245-0.52-0.385-0.774c-0.061-0.111-0.12-0.222-0.186-0.331c-0.035-0.059-0.063-0.12-0.1-0.179   c-0.148-0.235-0.31-0.456-0.474-0.675c-0.031-0.041-0.056-0.084-0.087-0.124c-0.25-0.324-0.52-0.625-0.803-0.91   c-0.053-0.054-0.111-0.104-0.166-0.156c-0.246-0.237-0.501-0.459-0.767-0.668c-0.068-0.053-0.134-0.106-0.204-0.157   c-0.356-0.264-0.723-0.51-1.106-0.723L185.506,98.164l84.825-53.414l142.207,80.832l-59.891,37.713   c-4.674,2.942-6.077,9.117-3.134,13.79c2.942,4.674,9.116,6.077,13.79,3.134l74.026-46.613c2.976-1.873,4.749-5.172,4.669-8.688   c-0.079-3.516-1.998-6.73-5.056-8.468L275.009,24.404c-3.203-1.822-7.15-1.732-10.27,0.231L160.783,90.096   c-0.021,0.013-0.043,0.027-0.064,0.04l-51.947,32.711c-0.024,0.015-0.048,0.03-0.071,0.045L4.674,188.398   c-2.976,1.873-4.749,5.172-4.669,8.688c0.079,3.516,1.998,6.73,5.056,8.468l161.934,92.046c1.534,0.873,3.238,1.307,4.941,1.307   c1.853,0,3.703-0.515,5.328-1.538l74.026-46.614c4.674-2.942,6.077-9.117,3.134-13.79c-2.941-4.674-9.117-6.078-13.79-3.134   l-68.961,43.424L29.466,196.421l84.826-53.415l151.67,86.212v114.182c0,3.642,1.979,6.995,5.167,8.755   c1.507,0.832,3.171,1.245,4.833,1.245c1.854,0,3.704-0.515,5.328-1.538l52.014-32.753c2.908-1.831,4.672-5.026,4.672-8.462v-120   c0-0.059-0.01-0.115-0.012-0.174C337.958,190.141,337.936,189.809,337.897,189.476z M285.962,325.287V223.401   c0-3.597-1.932-6.916-5.059-8.693l-147.411-83.791l32.813-20.663l142.206,80.833l-12.451,7.84   c-4.674,2.942-6.077,9.117-3.134,13.79c1.9,3.02,5.149,4.673,8.472,4.673c1.82,0,3.664-0.497,5.318-1.539l11.259-7.089v96.366   L285.962,325.287z" />
											<path d="M426.674,156.681l-74.026,46.613c-4.674,2.942-6.077,9.117-3.134,13.79c1.9,3.02,5.149,4.673,8.472,4.673   c1.82,0,3.664-0.497,5.318-1.539l74.026-46.613c4.674-2.942,6.077-9.117,3.134-13.79   C437.522,155.141,431.347,153.737,426.674,156.681z" />
											<path d="M240.633,273.83l-68.961,43.424L14.943,228.167c-4.798-2.728-10.906-1.052-13.635,3.752   c-2.729,4.801-1.05,10.906,3.752,13.635l161.934,92.046c1.534,0.873,3.238,1.307,4.941,1.307c1.853,0,3.703-0.515,5.328-1.538   l74.026-46.614c4.674-2.942,6.077-9.117,3.134-13.79C251.482,272.29,245.306,270.886,240.633,273.83z" />
											<path d="M426.674,196.681l-74.026,46.613c-4.674,2.942-6.077,9.117-3.134,13.79c1.9,3.02,5.149,4.673,8.472,4.673   c1.82,0,3.664-0.497,5.318-1.539l74.026-46.613c4.674-2.942,6.077-9.117,3.134-13.79   C437.522,195.14,431.347,193.737,426.674,196.681z" />
											<path d="M240.633,313.83l-68.961,43.424L14.943,268.167c-4.798-2.728-10.906-1.052-13.635,3.752   c-2.729,4.801-1.05,10.906,3.752,13.635l161.934,92.046c1.534,0.873,3.238,1.307,4.941,1.307c1.853,0,3.703-0.515,5.328-1.538   l74.026-46.614c4.674-2.942,6.077-9.117,3.134-13.79C251.482,312.289,245.306,310.886,240.633,313.83z" />
											<path d="M426.674,236.681l-74.026,46.613c-4.674,2.942-6.077,9.117-3.134,13.79c1.9,3.02,5.149,4.673,8.472,4.673   c1.82,0,3.664-0.497,5.318-1.539l74.026-46.613c4.674-2.942,6.077-9.117,3.134-13.79   C437.522,235.141,431.347,233.738,426.674,236.681z" />
											<path d="M240.633,353.83l-68.961,43.424L14.943,308.167c-4.798-2.728-10.906-1.052-13.635,3.752   c-2.729,4.801-1.05,10.906,3.752,13.635l161.934,92.046c1.534,0.873,3.238,1.307,4.941,1.307c1.853,0,3.703-0.515,5.328-1.538   l74.026-46.614c4.674-2.942,6.077-9.117,3.134-13.79C251.482,352.29,245.306,350.886,240.633,353.83z"/>
										</symbol>

										<symbol id="icon-svg-box" viewBox="0 0 425.346 470.346">
											<path d="M356.866,193.696c-0.252,0-0.508-0.021-0.762-0.066l-44.764-7.884c-4.201-0.738-11.518-0.472-15.658,0.572l-23.432,5.92    c-2.342,0.598-4.717-0.829-5.309-3.168c-0.59-2.341,0.828-4.717,3.168-5.309l23.432-5.92c5.377-1.355,13.859-1.67,19.314-0.705    l44.764,7.885c2.377,0.418,3.965,2.686,3.547,5.062C360.792,192.205,358.946,193.696,356.866,193.696z"/>
											<path d="M302.892,314.348c-3.541,0-7.086-0.373-9.844-1.117l-67.534-18.234c-6.655-1.797-11.87-8.605-11.87-15.5v-16.731    c0-2.415,1.957-4.371,4.372-4.371c2.414,0,4.371,1.956,4.371,4.371v16.731c0,2.932,2.577,6.295,5.405,7.059l67.533,18.234    c3.998,1.078,11.014,1.086,15.014,0.021l68.449-18.281c2.826-0.756,5.4-4.109,5.4-7.033v-70.598c0-1.028-0.332-1.857-0.93-2.34    c-0.602-0.479-1.482-0.621-2.484-0.4l-67.34,14.975c-5.359,1.193-12.842,1.591-17.043,0.923l-6.666-1.066    c-2.387-0.381-4.008-2.623-3.627-5.006c0.381-2.381,2.625-4.004,5.006-3.626l6.67,1.066c3.107,0.499,9.543,0.112,13.764-0.825    l67.34-14.975c3.592-0.799,7.182-0.028,9.852,2.116c2.67,2.142,4.201,5.48,4.201,9.157v70.598c0,6.898-5.221,13.699-11.887,15.479    l-68.449,18.281C309.874,313.984,306.386,314.348,302.892,314.348z"/>
											<path d="M280.944,232.558c-9.234-10.699-80.136-92.636-103.118-113.486c18.218-11.93,29.318-32.14,29.318-54.208   C207.145,29.098,178.047,0,142.28,0S77.415,29.098,77.415,64.865c0,21.854,10.887,41.886,28.79,53.86   c-14.877,11.25-23.885,28.993-23.885,47.85v277.328c0,14.582,11.862,26.443,26.443,26.443c14.582,0,26.444-11.861,26.444-26.443   V291.564l13.6-0.004V443.9c0,14.582,11.862,26.443,26.444,26.443s26.444-11.861,26.444-26.432l0.521-226.077l46.606,46.606   c4.412,4.412,10.207,6.619,16.002,6.619s11.592-2.207,16.004-6.619C289.606,255.656,289.646,241.391,280.944,232.558z    M274.644,258.26c-2.625,2.623-6.111,4.068-9.82,4.068c-3.711,0-7.197-1.445-9.82-4.068c0,0-40.017-41.054-54.034-54.036   c-3.495-3.236-7.472-0.86-7.472,3.071c0,6.22-0.546,236.604-0.546,236.604c0,9.762-7.94,17.701-17.701,17.701   c-9.76,0-17.701-7.939-17.701-17.701V287.217c0-2.527-0.804-4.396-4.739-4.396c-4.98,0-17.863,0.002-22.838,0.002   c-2.235,0-3.509,1.104-3.509,4.398V443.9c0,9.762-7.94,17.701-17.701,17.701c-9.76,0-17.701-7.939-17.701-17.701V166.574   c0-18.156,9.766-35.122,25.487-44.277c0.165-0.096,0.313-0.213,0.467-0.327c0.042-0.031,0.087-0.056,0.127-0.089   c1.693-1.32,2.52-3.577,1.427-5.452c-0.53-0.913-1.432-1.563-2.446-1.925c-18.488-9.759-29.965-28.75-29.965-49.639   c0-30.944,25.176-56.122,56.122-56.122s56.122,25.176,56.122,56.122c0,20.983-11.577,40.058-30.212,49.778   c-1.894,0.988-3.883,4.627-0.103,7.705c9.379,5.613,68.676,72.401,106.34,116.041l0.217,0.233   C280.056,244.034,280.056,252.846,274.644,258.26z"/>
										</symbol>

										<symbol id="icon-svg-truck" viewBox="0 0 413.6 413.599">
											<path d="M164.033,275.857c-5.676,0-11.219,1.562-16.031,4.521c-2.058,1.264-2.7,3.955-1.436,6.012    c1.261,2.058,3.955,2.701,6.011,1.436c3.436-2.11,7.396-3.227,11.455-3.227c12.084,0,21.915,9.831,21.915,21.913    c0,12.085-9.831,21.915-21.915,21.915s-21.915-9.83-21.915-21.915c0-2.415-1.957-4.371-4.371-4.371H97.479    c-2.413,0-4.371,1.956-4.371,4.371s1.958,4.372,4.371,4.372h36.245c2.133,14.834,14.893,26.286,30.31,26.286    c16.905,0,30.658-13.753,30.658-30.658C194.691,289.61,180.938,275.857,164.033,275.857z"/>
											<path d="M265.331,119.467c-11.061,0-11.383-12.328-11.383-13.733V95.403c0-10.461-8.512-18.974-18.974-18.974H18.974    C8.512,76.429,0,84.941,0,95.403v196.506c0,10.641,6.137,18.976,13.973,18.976h5.58c2.131,14.837,14.891,26.286,30.308,26.286    c16.905,0,30.659-13.752,30.659-30.657s-13.754-30.656-30.659-30.656c-5.674,0-11.219,1.563-16.031,4.521    c-2.057,1.264-2.7,3.957-1.436,6.012c1.262,2.056,3.955,2.699,6.013,1.436c3.434-2.109,7.395-3.227,11.453-3.227    c12.084,0,21.917,9.832,21.917,21.913c0,12.083-9.832,21.915-21.917,21.915c-12.083,0-21.915-9.832-21.915-21.915    c0-2.415-1.957-4.371-4.371-4.371h-9.602c-2.133,0-5.23-3.985-5.23-10.232V95.403c0-5.641,4.59-10.231,10.231-10.231h216.001    c5.641,0,10.23,4.59,10.23,10.231v10.331c0,10.826,6.301,22.476,20.126,22.476c2.895,0,6.135,4.375,6.135,10.233v153.466    c0,5.644-4.59,10.233-10.233,10.233h-48.344c-2.415,0-4.372,1.956-4.372,4.371s1.957,4.371,4.372,4.371h48.344    c10.464,0,18.976-8.512,18.976-18.976V138.442C280.207,127.979,273.534,119.467,265.331,119.467z"/>
											<path d="M405.981,213.888l-36.905-65.491c-4.662-8.269-15.746-14.746-25.233-14.746h-23.715c-10.334,0-18.742,8.407-18.742,18.743    v61.791c0,10.336,8.408,18.743,18.742,18.743h50.298c2.415,0,4.371-1.957,4.371-4.372c0-2.414-1.956-4.371-4.371-4.371h-50.298    c-5.515,0-10-4.486-10-10v-61.791c0-5.515,4.483-10,10-10h23.715c6.293,0,14.525,4.812,17.614,10.295l36.909,65.491    c3.519,6.246,6.491,17.581,6.491,24.748v48.86c0,5.513-4.487,10-10.002,10h-15.634c-2.415,0-4.372,1.957-4.372,4.371    c0,2.415,1.957,4.372,4.372,4.372h15.634c10.334,0,18.744-8.409,18.744-18.743v-48.86    C413.6,234.229,410.253,221.473,405.981,213.888z"/>
											<path d="M335.606,275.149c-5.74,0-11.348,1.581-16.218,4.572c-2.059,1.265-2.701,3.956-1.438,6.014    c1.263,2.057,3.955,2.7,6.014,1.436c3.49-2.146,7.517-3.278,11.64-3.278c12.278,0,22.269,9.989,22.269,22.268    c0,12.277-9.99,22.267-22.269,22.267c-12.28,0-22.268-9.989-22.268-22.267c0-2.416-1.957-4.371-4.372-4.371h-16.527    c-2.414,0-4.371,1.955-4.371,4.371c0,2.415,1.957,4.372,4.371,4.372h12.501c2.135,15.032,15.052,26.638,30.666,26.638    c17.1,0,31.011-13.912,31.011-31.01C366.617,289.061,352.706,275.149,335.606,275.149z"/>
										</symbol>
										<symbol id="icon-svg-payment" viewBox="0 0 512 512">
											<path d="M410.3,164.3v-45.9h60.5V11H272.7v107.4h60.5v45.9H202.8v-62.6H74.6v62.6H11V501h490V164.3H410.3z M292.5,31.9h157.4v65.7    H292.5V31.9z M353,118.4h36.5v45.9H353V118.4z M94.4,122.6H182v116.8H94.4V122.6z M480.1,480.1H31.9V184.1h42.7v55.3H47.5v20.9    h181.4v-20.9h-26.1v-55.3h277.3V480.1z"/>
											<path d="m454.1,210.1h-187.7v62.6h187.7v-62.6zm-20.9,41.7h-146v-21.9h146v21.9z"/>
											<path d="m55.8,366.5h67.8v-67.8h-67.8v67.8zm19.8-47.9h27.1v27.1h-27.1v-27.1z"/>
											<path d="m166.3,366.5h67.8v-67.8h-67.8v67.8zm20.9-47.9h27.1v27.1h-27.1v-27.1z"/>
											<path d="m277.9,366.5h67.8v-67.8h-67.8v67.8zm19.8-47.9h27.1v27.1h-27.1v-27.1z"/>
											<path d="m388.4,366.5h67.8v-67.8h-67.8v67.8zm20.9-47.9h27.1v27.1h-27.1v-27.1z"/>
											<path d="m55.8,456.2h67.8v-67.8h-67.8v67.8zm19.8-48h27.1v27.1h-27.1v-27.1z"/>
											<path d="m166.3,456.2h67.8v-67.8h-67.8v67.8zm20.9-48h27.1v27.1h-27.1v-27.1z"/>
											<path d="m277.9,456.2h67.8v-67.8h-67.8v67.8zm19.8-48h27.1v27.1h-27.1v-27.1z"/>
											<path d="m388.4,456.2h67.8v-67.8h-67.8v67.8zm20.9-48h27.1v27.1h-27.1v-27.1z"/>
										</symbol>

										<symbol id="icon-svg-profile" viewBox="0 0 53.908 53.909">
											<path d="M53.226,43.86l-2.412-4.892c-1.681-3.411-5.865-5.483-9.13-5.769c-1.151-0.099-3.331-0.484-5.183-0.92     c-1.486-0.349-2.35-0.623-2.829-0.801c0.117-0.431,0.333-0.863,0.66-1.312c3.683-2.896,5.875-7.728,5.875-12.958     c0-8.587-5.928-15.572-13.212-15.572S13.783,8.622,13.783,17.209c0,5.233,2.193,10.062,5.873,12.96     c0.323,0.433,0.547,0.875,0.667,1.327c-0.49,0.188-1.363,0.469-2.87,0.82c-2.074,0.481-4.174,0.866-5.231,0.955     c-3.166,0.271-7.439,2.411-9.138,5.854l-2.403,5.021c-0.898,1.817-0.908,3.911-0.024,5.334c1.082,1.745,2.774,2.789,4.528,2.789     h43.536c1.749,0,3.44-1.041,4.527-2.789C54.138,48.052,54.127,45.687,53.226,43.86z M51.16,48.183     c-0.487,0.785-1.387,1.627-2.439,1.627H5.185c-1.057,0-1.953-0.839-2.44-1.625c-0.425-0.683-0.364-1.923,0.146-2.959l2.403-5.022     c1.246-2.525,4.606-4.26,7.137-4.479c1.433-0.12,3.901-0.62,5.58-1.01c3.562-0.831,4.224-1.395,4.441-1.579     c0.28-0.24,0.439-0.594,0.432-0.964c-0.027-1.286-0.491-2.508-1.364-3.616c-0.067-0.091-0.146-0.17-0.238-0.237     c-3.155-2.424-5.04-6.575-5.04-11.108c0-7.229,4.824-13.11,10.755-13.11c5.932,0,10.753,5.881,10.753,13.109     c0,4.532-1.884,8.684-5.04,11.102c-0.081,0.062-0.158,0.143-0.221,0.223c-0.888,1.119-1.351,2.338-1.38,3.621     c-0.007,0.368,0.148,0.721,0.425,0.957c0.209,0.182,0.843,0.731,4.406,1.567c1.951,0.457,4.279,0.865,5.532,0.974     c2.551,0.223,5.918,1.932,7.138,4.407l2.412,4.892C51.58,46.086,51.544,47.567,51.16,48.183z"/>
										</symbol>

										<symbol id="icon-svg-sber" viewBox="0 0 50 50" >
											<path class="st1" d="M34.8,4.1l1.8,1.6L14.4,18.4L3.7,12.2l1-2l9.7,5.6L34.8,4.1z M30.3,1.5l2.3,1.2L14.4,13.2L5.9,8.4l1.4-1.8l7,4
												L30.3,1.5z M38,7.3l1.3,1.8L14.4,23.4l-12-6.9l0.5-2.2l11.5,6.6L38,7.3z"/>
												<path class="st2" d="M41.7,13.8c0.7,2.1,1.1,4.2,1.1,6.5s-0.4,4.5-1.1,6.6l-0.5,1.4c-1,2.4-2.5,4.6-4.3,6.5
													c-1.9,1.9-4.1,3.3-6.5,4.3c-2.6,1.1-5.2,1.7-8,1.7c-2.8,0-5.4-0.6-7.9-1.7C12,38,9.9,36.6,8,34.7c-1.9-1.9-3.3-4.1-4.3-6.5
													C2.5,25.6,2,23,2,20.3v-1.4L14.4,26l26.1-15L41.7,13.8z"/>
												</symbol>

												<symbol id="icon-svg-none" viewBox="0 0 491.858 491.858">
													<path d="M245.929,0C110.106,0,0,110.106,0,245.929s110.106,245.929,245.929,245.929c135.822,0,245.929-110.106,245.929-245.929    S381.751,0,245.929,0z M43.721,245.929c0-111.677,90.531-202.208,202.208-202.208c46.144,0,88.668,15.467,122.696,41.485    L85.204,368.625C59.187,334.597,43.721,292.072,43.721,245.929z M245.929,448.137c-45.828,0-88.087-15.255-122-40.95    L407.186,123.93c25.694,33.911,40.949,76.171,40.949,121.999C448.136,357.605,357.605,448.137,245.929,448.137z"/>
												</symbol>

												<symbol id="icon-svg-telephone" viewBox="0 0 480.56 480.56">
													<path d="M365.354,317.9c-15.7-15.5-35.3-15.5-50.9,0c-11.9,11.8-23.8,23.6-35.5,35.6c-3.2,3.3-5.9,4-9.8,1.8    c-7.7-4.2-15.9-7.6-23.3-12.2c-34.5-21.7-63.4-49.6-89-81c-12.7-15.6-24-32.3-31.9-51.1c-1.6-3.8-1.3-6.3,1.8-9.4    c11.9-11.5,23.5-23.3,35.2-35.1c16.3-16.4,16.3-35.6-0.1-52.1c-9.3-9.4-18.6-18.6-27.9-28c-9.6-9.6-19.1-19.3-28.8-28.8    c-15.7-15.3-35.3-15.3-50.9,0.1c-12,11.8-23.5,23.9-35.7,35.5c-11.3,10.7-17,23.8-18.2,39.1c-1.9,24.9,4.2,48.4,12.8,71.3    c17.6,47.4,44.4,89.5,76.9,128.1c43.9,52.2,96.3,93.5,157.6,123.3c27.6,13.4,56.2,23.7,87.3,25.4c21.4,1.2,40-4.2,54.9-20.9    c10.2-11.4,21.7-21.8,32.5-32.7c16-16.2,16.1-35.8,0.2-51.8C403.554,355.9,384.454,336.9,365.354,317.9z"/>
													<path d="M346.254,238.2l36.9-6.3c-5.8-33.9-21.8-64.6-46.1-89c-25.7-25.7-58.2-41.9-94-46.9l-5.2,37.1    c27.7,3.9,52.9,16.4,72.8,36.3C329.454,188.2,341.754,212,346.254,238.2z"/>
													<path d="M403.954,77.8c-42.6-42.6-96.5-69.5-156-77.8l-5.2,37.1c51.4,7.2,98,30.5,134.8,67.2c34.9,34.9,57.8,79,66.1,127.5    l36.9-6.3C470.854,169.3,444.354,118.3,403.954,77.8z"/>
												</symbol>

												<symbol id="icon-svg-route" viewBox="0 0 217.205 217.205">
													<path d="M167.631,101.102H49.574c-16.216,0-29.408-13.199-29.408-29.422c0-16.211,13.192-29.399,29.408-29.399h73.789
														c4.143,0,7.5-3.358,7.5-7.5c0-4.142-3.357-7.5-7.5-7.5H49.574c-24.486,0-44.408,19.917-44.408,44.399
														c0,24.494,19.922,44.422,44.408,44.422h118.057c16.216,0,29.408,13.199,29.408,29.423c0,16.211-13.192,29.399-29.408,29.399H93.205
														c-4.142,0-7.5,3.358-7.5,7.5s3.358,7.5,7.5,7.5h74.426c24.486,0,44.408-19.917,44.408-44.399
														C212.039,121.03,192.117,101.102,167.631,101.102z"/>
														<path d="M48.516,130.001c-17.407,0-31.568,14.162-31.568,31.568c0,26.865,25.192,52.367,26.265,53.439
															c1.407,1.407,3.314,2.197,5.304,2.197c1.989,0,3.897-0.79,5.304-2.197c1.072-1.073,26.263-26.574,26.263-53.439
															C80.082,144.163,65.922,130.001,48.516,130.001z M48.516,198.357c-6.477-7.995-16.568-22.713-16.568-36.788
															c0-9.136,7.433-16.568,16.568-16.568c9.135,0,16.566,7.433,16.566,16.568C65.082,175.644,54.991,190.362,48.516,198.357z"/>
															<path d="M168.053,87.202c1.919,0,3.838-0.732,5.302-2.195c1.073-1.072,26.278-26.573,26.278-53.44
																C199.633,14.161,185.466,0,168.053,0c-17.407,0-31.568,14.161-31.568,31.566c0,26.866,25.192,52.367,26.266,53.439
																C164.214,86.47,166.133,87.202,168.053,87.202z M168.053,15c9.143,0,16.58,7.432,16.58,16.566c0,14.076-10.1,28.796-16.579,36.79
																c-6.476-7.994-16.569-22.713-16.569-36.79C151.484,22.432,158.917,15,168.053,15z"/>

															</symbol>

															<symbol id="icon-svg-top" viewBox="0 0 612 612">
																<path d="M325.402,0.296h-57.912L554.088,306L267.491,611.704h57.912L612,306L325.402,0.296z M57.912,0.296H0L286.597,306
																	L0,611.704h57.912L344.509,306L57.912,0.296z"/>
																</symbol>

																<svg id="icon-svg-view"  viewBox="0 0 511.999 511.999">
																	<path d="M508.745,246.041c-4.574-6.257-113.557-153.206-252.748-153.206S7.818,239.784,3.249,246.035
																		c-4.332,5.936-4.332,13.987,0,19.923c4.569,6.257,113.557,153.206,252.748,153.206s248.174-146.95,252.748-153.201
																		C513.083,260.028,513.083,251.971,508.745,246.041z M255.997,385.406c-102.529,0-191.33-97.533-217.617-129.418
																		c26.253-31.913,114.868-129.395,217.617-129.395c102.524,0,191.319,97.516,217.617,129.418
																		C447.361,287.923,358.746,385.406,255.997,385.406z"/>
																		<path d="M255.997,154.725c-55.842,0-101.275,45.433-101.275,101.275s45.433,101.275,101.275,101.275
																			s101.275-45.433,101.275-101.275S311.839,154.725,255.997,154.725z M255.997,323.516c-37.23,0-67.516-30.287-67.516-67.516
																			s30.287-67.516,67.516-67.516s67.516,30.287,67.516,67.516S293.227,323.516,255.997,323.516z"/>
																		</svg>



																	</svg>
