<svg width="72" height="51" viewBox="0 0 72 51" fill="none" xmlns="http://www.w3.org/2000/svg">
<g clip-path="url(#clip0)">
<path d="M65.3166 51H6.6857C3.00257 51 0.0175781 47.9961 0.0175781 44.2896V6.71044C0.0175781 3.00396 3.00257 3.05176e-05 6.6857 3.05176e-05H65.3166C68.9987 3.05176e-05 71.9848 3.00396 71.9848 6.71044V44.2896C71.9848 47.9961 68.9987 51 65.3166 51Z" fill="#0066B2"/>
<path d="M32.9456 33.4897H29.1973L31.5396 19.0008H35.289L32.9456 33.4897Z" fill="white"/>
<path d="M26.0434 19.0008L22.4701 28.9658L22.0471 26.8198V26.8209L20.7857 20.3053C20.7857 20.3053 20.6335 19.0008 19.0078 19.0008H13.1008L13.0312 19.246C13.0312 19.246 14.8386 19.6246 16.9525 20.9028L20.2083 33.4897H24.1143L30.0778 19.0008H26.0434Z" fill="white"/>
<path d="M55.5262 33.4897H58.9679L55.9666 19.0008H52.9534C51.5615 19.0008 51.2222 20.0809 51.2222 20.0809L45.6328 33.4897H49.5399L50.3207 31.3382H55.0858L55.5262 33.4897ZM51.4016 28.3639L53.3709 22.9426L54.479 28.3639H51.4016Z" fill="white"/>
<path d="M45.9248 22.4852L46.4599 19.3729C46.4599 19.3729 44.8091 18.7415 43.0888 18.7415C41.2282 18.7415 36.8111 19.56 36.8111 23.5379C36.8111 27.2816 41.996 27.3276 41.996 29.2941C41.996 31.2595 37.3461 30.9082 35.8118 29.6683L35.2539 32.9207C35.2539 32.9207 36.9275 33.7392 39.4851 33.7392C42.0427 33.7392 45.902 32.4063 45.902 28.7786C45.902 25.012 40.6704 24.6607 40.6704 23.0236C40.6704 21.3854 44.3209 21.5955 45.9248 22.4852Z" fill="white"/>
<path d="M22.0471 26.8209L20.7857 20.3053C20.7857 20.3053 20.6335 19.0008 19.0078 19.0008H13.1008L13.0312 19.246C13.0312 19.246 15.8705 19.838 18.5945 22.0573C21.1978 24.1781 22.0471 26.8209 22.0471 26.8209Z" fill="#F8A533"/>
</g>
<defs>
<clipPath id="clip0">
<rect width="72" height="51" fill="white"/>
</clipPath>
</defs>
</svg>
