<?xml version="1.0" encoding="iso-8859-1"?>
<!-- Generator: Adobe Illustrator 16.0.0, SVG Export Plug-In . SVG Version: 6.00 Build 0)  -->
<!DOCTYPE svg PUBLIC "-//W3C//DTD SVG 1.1//EN" "http://www.w3.org/Graphics/SVG/1.1/DTD/svg11.dtd">
<svg xmlns="http://www.w3.org/2000/svg" xmlns:xlink="http://www.w3.org/1999/xlink" version="1.1" id="Capa_1" x="0px" y="0px" width="512px" height="512px" viewBox="0 0 470.346 470.346" style="enable-background:new 0 0 470.346 470.346;" xml:space="preserve">
<g>
	<g>
		<path d="M356.866,193.696c-0.252,0-0.508-0.021-0.762-0.066l-44.764-7.884c-4.201-0.738-11.518-0.472-15.658,0.572l-23.432,5.92    c-2.342,0.598-4.717-0.829-5.309-3.168c-0.59-2.341,0.828-4.717,3.168-5.309l23.432-5.92c5.377-1.355,13.859-1.67,19.314-0.705    l44.764,7.885c2.377,0.418,3.965,2.686,3.547,5.062C360.792,192.205,358.946,193.696,356.866,193.696z" fill="#91DC5A"/>
	</g>
	<g>
		<path d="M302.892,314.348c-3.541,0-7.086-0.373-9.844-1.117l-67.534-18.234c-6.655-1.797-11.87-8.605-11.87-15.5v-16.731    c0-2.415,1.957-4.371,4.372-4.371c2.414,0,4.371,1.956,4.371,4.371v16.731c0,2.932,2.577,6.295,5.405,7.059l67.533,18.234    c3.998,1.078,11.014,1.086,15.014,0.021l68.449-18.281c2.826-0.756,5.4-4.109,5.4-7.033v-70.598c0-1.028-0.332-1.857-0.93-2.34    c-0.602-0.479-1.482-0.621-2.484-0.4l-67.34,14.975c-5.359,1.193-12.842,1.591-17.043,0.923l-6.666-1.066    c-2.387-0.381-4.008-2.623-3.627-5.006c0.381-2.381,2.625-4.004,5.006-3.626l6.67,1.066c3.107,0.499,9.543,0.112,13.764-0.825    l67.34-14.975c3.592-0.799,7.182-0.028,9.852,2.116c2.67,2.142,4.201,5.48,4.201,9.157v70.598c0,6.898-5.221,13.699-11.887,15.479    l-68.449,18.281C309.874,313.984,306.386,314.348,302.892,314.348z" fill="#91DC5A"/>
	</g>
	<path d="M280.944,232.558c-9.234-10.699-80.136-92.636-103.118-113.486c18.218-11.93,29.318-32.14,29.318-54.208   C207.145,29.098,178.047,0,142.28,0S77.415,29.098,77.415,64.865c0,21.854,10.887,41.886,28.79,53.86   c-14.877,11.25-23.885,28.993-23.885,47.85v277.328c0,14.582,11.862,26.443,26.443,26.443c14.582,0,26.444-11.861,26.444-26.443   V291.564l13.6-0.004V443.9c0,14.582,11.862,26.443,26.444,26.443s26.444-11.861,26.444-26.432l0.521-226.077l46.606,46.606   c4.412,4.412,10.207,6.619,16.002,6.619s11.592-2.207,16.004-6.619C289.606,255.656,289.646,241.391,280.944,232.558z    M274.644,258.26c-2.625,2.623-6.111,4.068-9.82,4.068c-3.711,0-7.197-1.445-9.82-4.068c0,0-40.017-41.054-54.034-54.036   c-3.495-3.236-7.472-0.86-7.472,3.071c0,6.22-0.546,236.604-0.546,236.604c0,9.762-7.94,17.701-17.701,17.701   c-9.76,0-17.701-7.939-17.701-17.701V287.217c0-2.527-0.804-4.396-4.739-4.396c-4.98,0-17.863,0.002-22.838,0.002   c-2.235,0-3.509,1.104-3.509,4.398V443.9c0,9.762-7.94,17.701-17.701,17.701c-9.76,0-17.701-7.939-17.701-17.701V166.574   c0-18.156,9.766-35.122,25.487-44.277c0.165-0.096,0.313-0.213,0.467-0.327c0.042-0.031,0.087-0.056,0.127-0.089   c1.693-1.32,2.52-3.577,1.427-5.452c-0.53-0.913-1.432-1.563-2.446-1.925c-18.488-9.759-29.965-28.75-29.965-49.639   c0-30.944,25.176-56.122,56.122-56.122s56.122,25.176,56.122,56.122c0,20.983-11.577,40.058-30.212,49.778   c-1.894,0.988-3.883,4.627-0.103,7.705c9.379,5.613,68.676,72.401,106.34,116.041l0.217,0.233   C280.056,244.034,280.056,252.846,274.644,258.26z" fill="#91DC5A"/>
</g>
<g>
</g>
<g>
</g>
<g>
</g>
<g>
</g>
<g>
</g>
<g>
</g>
<g>
</g>
<g>
</g>
<g>
</g>
<g>
</g>
<g>
</g>
<g>
</g>
<g>
</g>
<g>
</g>
<g>
</g>
</svg>
