<svg width="50" height="50" viewBox="0 0 50 50" xmlns="http://www.w3.org/2000/svg">
<path d="M42.9688 48.4375H10.1562C9.725 48.4375 9.375 48.0875 9.375 47.6562C9.375 47.225 9.725 46.875 10.1562 46.875H42.1875V5.46875C42.1875 5.0375 42.5375 4.6875 42.9688 4.6875C43.4 4.6875 43.75 5.0375 43.75 5.46875V47.6562C43.75 48.0875 43.4 48.4375 42.9688 48.4375Z"/>
<path d="M39.8438 45.3124H7.03125C6.6 45.3124 6.25 44.9624 6.25 44.5311V11.7186C6.25 11.2874 6.6 10.9374 7.03125 10.9374C7.4625 10.9374 7.8125 11.2874 7.8125 11.7186V43.7499H39.0625V3.12488H19.5312C19.1 3.12488 18.75 2.77488 18.75 2.34363C18.75 1.91238 19.1 1.56238 19.5312 1.56238H39.8438C40.275 1.56238 40.625 1.91238 40.625 2.34363V44.5311C40.625 44.9624 40.275 45.3124 39.8438 45.3124Z"/>
<path d="M16.4078 12.5H7.0656C6.74997 12.5 6.4656 12.3094 6.34528 12.0172C6.22341 11.7265 6.2906 11.3906 6.51247 11.1672L15.8547 1.79217C16.0781 1.56561 16.4156 1.50155 16.7062 1.62186C16.9984 1.74217 17.189 2.02811 17.189 2.34373V11.7187C17.189 12.15 16.839 12.5 16.4078 12.5ZM8.94841 10.9375H15.6265V4.23436L8.94841 10.9375Z"/>
<path d="M11.7188 23.4375H24.2188C24.65 23.4375 25 23.0875 25 22.6562C25 22.225 24.65 21.875 24.2188 21.875H11.7188C11.2875 21.875 10.9375 22.225 10.9375 22.6562C10.9375 23.0875 11.2875 23.4375 11.7188 23.4375Z"/>
<path d="M11.7188 26.5625H19.5312C19.9625 26.5625 20.3125 26.2125 20.3125 25.7812C20.3125 25.35 19.9625 25 19.5312 25H11.7188C11.2875 25 10.9375 25.35 10.9375 25.7812C10.9375 26.2125 11.2875 26.5625 11.7188 26.5625Z"/>
<path d="M22.6562 26.5625H35.1562C35.5875 26.5625 35.9375 26.2125 35.9375 25.7812C35.9375 25.35 35.5875 25 35.1562 25H22.6562C22.225 25 21.875 25.35 21.875 25.7812C21.875 26.2125 22.225 26.5625 22.6562 26.5625Z"/>
<path d="M11.7188 32.8125H22.6562C23.0875 32.8125 23.4375 32.4625 23.4375 32.0312C23.4375 31.6 23.0875 31.25 22.6562 31.25H11.7188C11.2875 31.25 10.9375 31.6 10.9375 32.0312C10.9375 32.4625 11.2875 32.8125 11.7188 32.8125Z"/>
<path d="M11.7188 29.6875H27.3438C27.775 29.6875 28.125 29.3375 28.125 28.9062C28.125 28.475 27.775 28.125 27.3438 28.125H11.7188C11.2875 28.125 10.9375 28.475 10.9375 28.9062C10.9375 29.3375 11.2875 29.6875 11.7188 29.6875Z"/>
<path d="M30.4688 29.6875H35.1562C35.5875 29.6875 35.9375 29.3375 35.9375 28.9062C35.9375 28.475 35.5875 28.125 35.1562 28.125H30.4688C30.0375 28.125 29.6875 28.475 29.6875 28.9062C29.6875 29.3375 30.0375 29.6875 30.4688 29.6875Z"/>
<path d="M27.3438 23.4375H35.1562C35.5875 23.4375 35.9375 23.0875 35.9375 22.6562C35.9375 22.225 35.5875 21.875 35.1562 21.875H27.3438C26.9125 21.875 26.5625 22.225 26.5625 22.6562C26.5625 23.0875 26.9125 23.4375 27.3438 23.4375Z"/>
<path d="M14.8438 17.1875H35.1562C35.5875 17.1875 35.9375 16.8375 35.9375 16.4062C35.9375 15.975 35.5875 15.625 35.1562 15.625H14.8438C14.4125 15.625 14.0625 15.975 14.0625 16.4062C14.0625 16.8375 14.4125 17.1875 14.8438 17.1875Z"/>
<path d="M11.7188 20.3125H35.1562C35.5875 20.3125 35.9375 19.9625 35.9375 19.5312C35.9375 19.1 35.5875 18.75 35.1562 18.75H11.7188C11.2875 18.75 10.9375 19.1 10.9375 19.5312C10.9375 19.9625 11.2875 20.3125 11.7188 20.3125Z"/>
</svg>
