<svg width="24" height="24" viewBox="0 0 24 24" fill="none" xmlns="http://www.w3.org/2000/svg">
<path d="M22.428 4.17294L15.45 2.22107L8.45156 4.19244L1.94339 2.34623C1.80393 2.30666 1.6572 2.29997 1.51472 2.32669C1.37224 2.3534 1.23789 2.4128 1.12224 2.5002C1.00659 2.58761 0.91279 2.70064 0.8482 2.83042C0.783611 2.9602 0.749997 3.10318 0.75 3.24815V19.2138C0.750709 19.4584 0.830844 19.6962 0.97835 19.8914C1.12586 20.0866 1.33276 20.2286 1.56792 20.2961L8.44997 22.2484L15.4515 20.2762L22.06 22.1248C22.1994 22.1637 22.3458 22.1699 22.488 22.1428C22.6301 22.1157 22.764 22.0561 22.8793 21.9687C22.9945 21.8812 23.0879 21.7683 23.1523 21.6387C23.2166 21.5091 23.25 21.3663 23.25 21.2217V5.25637C23.2494 5.01098 23.1688 4.77247 23.0205 4.57698C22.8722 4.38148 22.6642 4.23964 22.428 4.17294ZM7.64062 20.4594L2.25 18.9301V3.99238L7.64062 5.52163V20.4594ZM14.7007 18.9291L9.14062 20.4952V5.55669L14.7007 3.99051V18.9291ZM21.75 20.4802L16.2007 18.9282V3.98858L21.75 5.54066V20.4802Z" fill="#F78222"/>
</svg>
