<svg width="40" height="41" viewBox="0 0 40 41" fill="none" xmlns="http://www.w3.org/2000/svg">
<path d="M39.7332 16.8624C39.7432 17.4591 39.3753 17.8602 38.9974 18.2448C37.864 19.3951 36.7404 20.5554 35.5705 21.6693C34.9872 22.2229 34.9772 22.6406 35.5705 23.2009C36.6841 24.2518 37.7579 25.3457 38.8251 26.443C39.7531 27.3978 39.8028 28.0807 38.8781 29.0189C35.6235 32.3207 32.3457 35.6027 29.0447 38.8581C28.067 39.8228 27.4074 39.7598 26.38 38.7586C25.3724 37.7741 24.3318 36.8193 23.4071 35.7618C22.6481 34.8932 22.1278 35.0325 21.4251 35.8115C20.4276 36.9154 19.3471 37.9464 18.27 38.9808C17.1564 40.0515 16.53 40.035 15.4197 38.9509C14.3856 37.9365 13.3416 36.9287 12.354 35.8712C11.7707 35.2479 11.3299 35.2115 10.73 35.8546C9.65615 37.0016 8.52598 38.1022 7.40245 39.1995C6.33856 40.2405 5.66908 40.2803 4.63171 39.2891C3.28611 38.0028 1.96372 36.6867 0.677779 35.3408C-0.230333 34.3893 -0.223705 33.7031 0.684407 32.745C1.82452 31.545 2.99446 30.3714 4.19423 29.2277C4.78748 28.6642 4.75434 28.2431 4.17434 27.6928C3.03423 26.6088 1.92395 25.4949 0.840178 24.3545C-0.0911335 23.3766 -0.084505 22.7799 0.860064 21.7953C1.98029 20.6317 3.10714 19.4714 4.28703 18.3741C4.94657 17.7608 5.03274 17.3265 4.31685 16.6801C3.2132 15.6789 2.18246 14.5982 1.15172 13.5241C0.14418 12.4798 0.117666 11.8765 1.10863 10.8753C4.34005 7.60665 7.59136 4.35785 10.8559 1.12231C11.8701 0.117835 12.47 0.134411 13.504 1.12563C14.6077 2.18646 15.7047 3.26055 16.752 4.37442C17.3055 4.96451 17.6999 4.99103 18.2633 4.38768C19.3372 3.24066 20.4706 2.14668 21.5942 1.04275C22.8171 -0.157318 23.3607 -0.154003 24.6035 1.06595C25.6078 2.05054 26.6385 3.01855 27.5764 4.0628C28.2526 4.81533 28.7364 4.73577 29.3827 4.03297C30.3903 2.93567 31.4674 1.90136 32.5346 0.863732C33.7045 -0.273347 34.3608 -0.286607 35.4943 0.817321C36.7404 2.03065 37.97 3.26055 39.1797 4.51034C40.29 5.66068 40.2701 6.3005 39.1267 7.4641C38.0529 8.55476 36.9857 9.65538 35.8688 10.7063C35.2523 11.2864 35.196 11.7273 35.8456 12.3307C36.936 13.3451 37.9634 14.4291 39.014 15.4833C39.3952 15.8646 39.7697 16.2557 39.7332 16.8624ZM23.1386 2.26602C22.7608 2.29254 22.5686 2.52128 22.3664 2.7235C19.5327 5.55791 16.7023 8.39895 13.8587 11.2234C13.398 11.6809 13.272 12.0621 13.799 12.566C14.7833 13.5075 15.7412 14.4788 16.689 15.4601C17.0901 15.8745 17.4082 15.8944 17.8258 15.4734C20.7391 12.5428 23.6623 9.61891 26.5954 6.70825C27.0196 6.28724 26.9931 5.97562 26.5822 5.57449C25.6011 4.62637 24.6499 3.64842 23.6789 2.69035C23.5131 2.5246 23.3043 2.39199 23.1386 2.26602ZM6.03033 26.9237C6.40485 26.9569 6.5573 26.7414 6.72633 26.5723C9.6197 23.6816 12.5064 20.7809 15.4097 17.8967C15.8406 17.4691 15.9466 17.1342 15.4561 16.6668C14.4685 15.7253 13.5073 14.7573 12.5595 13.7794C12.1187 13.3252 11.7541 13.3285 11.31 13.7794C8.42656 16.6801 5.53319 19.5742 2.62989 22.4583C2.2156 22.8694 2.21892 23.2075 2.62657 23.6086C3.62748 24.5932 4.61182 25.5977 5.60942 26.5889C5.75194 26.7315 5.92428 26.8409 6.03033 26.9237ZM28.3023 15.5994C28.4746 15.4701 28.7232 15.3242 28.922 15.1253C31.7624 12.2942 34.5895 9.44984 37.4364 6.62869C37.907 6.16126 38.023 5.81318 37.4828 5.30928C36.5184 4.40757 35.5804 3.4694 34.6756 2.50471C34.1685 1.96435 33.8205 2.087 33.3532 2.55443C30.5328 5.4021 27.6891 8.22988 24.8587 11.0709C24.6334 11.2964 24.2158 11.5914 24.4478 11.8864C25.5183 13.2523 26.7711 14.449 28.0968 15.5662C28.12 15.5927 28.173 15.5828 28.3023 15.5994ZM33.7874 12.9506C33.5885 13.0931 33.4063 13.1926 33.2671 13.3351C30.3405 16.2557 27.4207 19.1863 24.4875 22.1003C24.0003 22.5843 24.1594 22.939 24.577 23.3434C25.4951 24.2352 26.4198 25.1269 27.2914 26.0684C27.8283 26.6486 28.2028 26.5425 28.7132 26.032C31.5337 23.1777 34.3674 20.3433 37.221 17.5221C37.7248 17.0248 37.7181 16.6768 37.2177 16.1994C36.2565 15.291 35.3418 14.333 34.4005 13.4048C34.2249 13.2324 34.0095 13.113 33.7874 12.9506ZM26.5822 27.9978C26.4761 27.8254 26.4164 27.6663 26.3071 27.5536C25.2598 26.4961 24.2025 25.4485 23.1552 24.391C22.7509 23.9832 22.4294 24.1656 22.1013 24.4938C19.2079 27.3912 16.3178 30.2886 13.4112 33.1727C12.9572 33.6236 12.9505 33.9683 13.4112 34.4092C14.3657 35.3242 15.307 36.2557 16.2151 37.2171C16.7023 37.7343 17.0536 37.6912 17.5375 37.2005C20.358 34.3462 23.2016 31.5218 26.0353 28.6807C26.2342 28.4851 26.3899 28.2431 26.5822 27.9978ZM15.5986 28.1039C15.5158 27.9912 15.4164 27.8089 15.2772 27.6696C14.2895 26.6718 13.2853 25.6872 12.3009 24.6827C11.8601 24.2319 11.5155 24.4109 11.1509 24.7789C8.26084 27.6763 5.37079 30.5737 2.46749 33.4578C2.05983 33.8622 2.02669 34.1838 2.45423 34.5949C3.43526 35.543 4.40302 36.5044 5.34428 37.4923C5.78508 37.9531 6.11651 37.9597 6.57388 37.5022C9.42415 34.6247 12.2943 31.7671 15.1579 28.8995C15.3534 28.6973 15.5953 28.5117 15.5986 28.1039ZM16.0162 6.31376C15.9665 6.22756 15.9234 6.10491 15.8406 6.01871C14.7635 4.93136 13.683 3.85064 12.5992 2.77323C12.1783 2.35553 11.8568 2.64394 11.5486 2.95225C8.68507 5.81649 5.82485 8.68737 2.95137 11.5417C2.49732 11.9925 2.49732 12.3439 2.95469 12.7848C3.90588 13.7031 4.85045 14.6313 5.75856 15.5927C6.25239 16.1165 6.59708 16.0502 7.07765 15.5629C9.89478 12.7119 12.7417 9.88412 15.5721 7.04639C15.771 6.84749 16.0328 6.68173 16.0162 6.31376ZM17.0735 26.7116C17.4049 26.7182 17.5839 26.4696 17.7828 26.2707C20.6198 23.4396 23.4469 20.5952 26.2971 17.7741C26.791 17.2834 26.8075 16.9254 26.3004 16.4447C25.3426 15.533 24.4113 14.5949 23.4933 13.6434C23.0425 13.176 22.6945 13.2224 22.2537 13.6666C19.4001 16.5408 16.53 19.3985 13.6697 22.2693C13.4444 22.4948 13.0665 22.7832 13.3648 23.1014C14.495 24.3048 15.6782 25.4585 16.8448 26.6254C16.8978 26.6751 16.9973 26.6817 17.0735 26.7116ZM33.4063 23.9567C33.3035 24.0363 33.1245 24.1424 32.982 24.2816C30.0854 27.1724 27.1986 30.0731 24.292 32.9572C23.8114 33.4346 23.9341 33.7893 24.3583 34.2004C25.3062 35.122 26.2474 36.0535 27.1622 37.0083C27.6063 37.4724 27.9443 37.4558 28.3951 37.0016C31.2453 34.1241 34.1122 31.2599 36.989 28.4056C37.4298 27.968 37.5027 27.6298 37.0254 27.1724C36.0411 26.2276 35.0899 25.2496 34.1221 24.2882C33.9498 24.1158 33.7775 23.9269 33.4063 23.9567Z" fill="#006A44"/>
</svg>
