<svg width="24" height="24" viewBox="0 0 24 24" fill="none" xmlns="http://www.w3.org/2000/svg">
<path d="M17.2798 9.28003C17.4123 9.13785 17.4845 8.94981 17.481 8.75551C17.4776 8.56121 17.3989 8.37582 17.2615 8.23841C17.1241 8.101 16.9387 8.02228 16.7444 8.01885C16.5501 8.01543 16.362 8.08755 16.2198 8.22003L10.2498 14.19L7.77985 11.72C7.63767 11.5876 7.44963 11.5154 7.25532 11.5189C7.06102 11.5223 6.87564 11.601 6.73822 11.7384C6.60081 11.8758 6.5221 12.0612 6.51867 12.2555C6.51524 12.4498 6.58737 12.6379 6.71985 12.78L9.71985 15.78C9.86047 15.9205 10.0511 15.9994 10.2498 15.9994C10.4486 15.9994 10.6392 15.9205 10.7798 15.78L17.2798 9.28003Z" fill="white"/>
<path fill-rule="evenodd" clip-rule="evenodd" d="M12 1C5.925 1 1 5.925 1 12C1 18.075 5.925 23 12 23C18.075 23 23 18.075 23 12C23 5.925 18.075 1 12 1ZM2.5 12C2.5 9.48044 3.50089 7.06408 5.28249 5.28249C7.06408 3.50089 9.48044 2.5 12 2.5C14.5196 2.5 16.9359 3.50089 18.7175 5.28249C20.4991 7.06408 21.5 9.48044 21.5 12C21.5 14.5196 20.4991 16.9359 18.7175 18.7175C16.9359 20.4991 14.5196 21.5 12 21.5C9.48044 21.5 7.06408 20.4991 5.28249 18.7175C3.50089 16.9359 2.5 14.5196 2.5 12Z" fill="white"/>
</svg>
