<svg width="40" height="35" viewBox="0 0 40 35" fill="none" xmlns="http://www.w3.org/2000/svg">
<path d="M28.6898 18.156C25.7945 18.156 22.8992 18.178 20.0039 18.1413C19.2209 18.1316 18.9087 18.3538 18.9453 19.1768C19.0014 20.4858 18.9379 21.8022 18.9648 23.1136C18.9818 23.9513 18.6428 24.3665 17.7866 24.364C15.4402 24.3542 13.0937 24.3542 10.7472 24.3591C9.9813 24.3616 9.61298 23.9611 9.6081 23.2357C9.59347 20.0633 9.552 16.8885 9.61542 13.7161C9.64225 12.307 10.7496 11.2227 12.1595 11.186C14.2279 11.1347 16.3012 11.0395 18.3696 11.2691C19.1282 11.3521 19.7258 11.6696 20.0429 12.3632C20.26 12.8369 20.5893 12.9346 21.06 12.9346C25.57 12.9249 30.0825 12.9224 34.5926 12.9444C35.3048 12.9493 35.5804 12.6977 35.5585 11.9846C35.5219 10.827 35.5658 9.66455 35.5292 8.50696C35.495 7.4153 34.8218 6.68021 33.8974 6.64357C32.9534 6.60694 32.2729 7.25656 32.107 8.35798C32.09 8.47765 32.09 8.6022 32.068 8.72187C31.99 9.15413 31.7729 9.4936 31.2972 9.47406C30.7826 9.45208 30.585 9.09796 30.5533 8.60464C30.4752 7.35181 31.5094 5.80102 32.7729 5.30282C34.0047 4.81438 35.3999 5.23932 36.2756 6.3554C36.9025 7.15643 37.1903 8.06981 37.1976 9.07598C37.2049 10.0822 37.2147 11.0908 37.2 12.097C37.1951 12.5854 37.322 12.8491 37.8732 12.9761C39.3782 13.3229 40.1441 14.4561 39.9782 15.9312C39.8295 17.2622 38.7196 18.1487 37.1927 18.1511C34.3584 18.1536 31.5241 18.1511 28.6898 18.1511C28.6898 18.1536 28.6898 18.1536 28.6898 18.156ZM28.4946 16.5954C31.3875 16.5954 34.2803 16.6028 37.1732 16.593C38.1879 16.5906 38.5001 16.256 38.4294 15.3719C38.3586 14.4976 37.7269 14.4927 37.1 14.4927C31.4046 14.4903 25.7115 14.5074 20.0161 14.4756C19.1575 14.4708 18.9355 14.7663 18.9306 15.5868C18.9233 16.4147 19.2209 16.6223 19.999 16.6125C22.8309 16.5759 25.6627 16.5979 28.4946 16.5954ZM17.4061 16.2389C17.4037 16.2389 17.4037 16.2389 17.4013 16.2389C17.4013 15.3548 17.3939 14.4708 17.4037 13.5891C17.411 13.0616 17.1842 12.8052 16.6402 12.8076C15.1499 12.8198 13.6571 12.8101 12.1668 12.8174C11.5838 12.8198 11.2424 13.1031 11.2399 13.7039C11.2326 15.411 11.2399 17.1156 11.2375 18.8227C11.2375 19.3185 11.4668 19.5334 11.9643 19.5309C13.5157 19.5212 15.0694 19.5139 16.6207 19.5358C17.2232 19.5456 17.4281 19.277 17.4135 18.7079C17.3915 17.8849 17.4061 17.0619 17.4061 16.2389ZM14.3133 21.0915C14.3133 21.0891 14.3133 21.0866 14.3133 21.0842C13.5547 21.0842 12.7937 21.1037 12.0351 21.0768C11.4497 21.0573 11.2131 21.2991 11.2204 21.8852C11.2277 22.442 11.3155 22.8279 12.0083 22.8181C13.5571 22.7937 15.106 22.7937 16.6549 22.8206C17.2891 22.8303 17.4183 22.5055 17.4135 21.9658C17.4086 21.4481 17.3354 21.0646 16.6817 21.0866C15.8939 21.111 15.1036 21.0915 14.3133 21.0915Z" fill="#006A44"/>
<path d="M37.2195 22.1319C37.2683 25.0064 36.3048 27.4607 34.1193 29.3608C33.5144 29.8858 33.3192 30.3498 33.7656 31.0654C34.0705 31.5538 34.2852 32.1009 34.5169 32.6308C34.7267 33.1095 34.8242 33.6248 34.2559 33.9057C33.6705 34.1963 33.3607 33.7787 33.1266 33.3073C32.8412 32.7334 32.5412 32.1668 32.2826 31.5807C32.0558 31.0678 31.7533 30.914 31.202 31.1338C29.9654 31.6247 28.6653 31.715 27.3408 31.7101C22.3113 31.6906 17.2817 31.6955 12.2521 31.7053C11.0813 31.7077 9.93002 31.6027 8.84702 31.1533C8.2104 30.8896 7.89575 31.0996 7.64939 31.6808C7.3884 32.2987 7.07374 32.8946 6.76153 33.488C6.55908 33.8666 6.2493 34.1279 5.79318 33.9423C5.3029 33.742 5.21753 33.3098 5.39315 32.8726C5.69073 32.14 6.02978 31.4195 6.39078 30.7137C6.62494 30.2546 6.56396 29.9518 6.15662 29.6148C3.3662 27.3118 2.50273 24.2566 2.76129 20.7692C2.79787 20.2685 3.01008 20.0707 3.5028 20.0683C4.01502 20.0658 4.30041 20.2221 4.31748 20.7912C4.34919 21.8266 4.24918 22.8621 4.44188 23.8952C5.12728 27.5487 7.9055 30.0641 11.6301 30.1203C17.2085 30.2033 22.7869 30.2058 28.3653 30.1252C32.5338 30.0641 35.6291 26.8014 35.6804 22.6277C35.6877 22.0171 35.6901 21.4066 35.6828 20.796C35.6755 20.3076 35.8828 20.0683 36.3902 20.0683C36.8804 20.0683 37.239 20.1733 37.2268 20.7619C37.2146 21.2161 37.2195 21.6728 37.2195 22.1319Z" fill="#006A44"/>
<path d="M4.63691 18.1463C3.90516 18.1463 3.1734 18.1707 2.44409 18.1414C1.03425 18.0803 0.0073582 16.9887 4.06818e-05 15.5795C-0.00727684 14.146 0.973271 13.0006 2.37336 12.9518C3.95394 12.8931 5.5394 12.9469 7.12486 12.9298C7.71271 12.9249 7.94687 13.1862 7.93467 13.7601C7.92247 14.3218 7.6249 14.4903 7.11511 14.4879C5.68331 14.4781 4.25152 14.4928 2.81972 14.4854C2.10017 14.4806 1.55623 14.6295 1.54892 15.5258C1.54404 16.405 2.04407 16.6004 2.78558 16.593C4.18566 16.5808 5.58819 16.6053 6.98827 16.5882C7.57367 16.5808 7.9176 16.7445 7.90296 17.4063C7.89077 18.0315 7.54196 18.1634 7.01022 18.1512C6.21993 18.1341 5.4272 18.1463 4.63447 18.1463C4.63691 18.1487 4.63691 18.1487 4.63691 18.1463Z" fill="#006A44"/>
<path d="M23.5309 4.70937C25.0091 4.68494 26.4262 6.08675 26.4213 7.56671C26.4165 8.91235 25.0042 10.3532 23.6578 10.385C22.1942 10.4216 20.76 9.0369 20.7259 7.5545C20.6942 6.15025 22.0894 4.73379 23.5309 4.70937ZM24.8603 7.52275C24.8554 6.81697 24.2944 6.27236 23.5626 6.26503C22.8358 6.25771 22.2747 6.82185 22.2967 7.53741C22.3211 8.30425 22.804 8.7585 23.5943 8.76094C24.3846 8.76094 24.8651 8.2896 24.8603 7.52275Z" fill="#006A44"/>
<path d="M20.7355 2.39912C20.0549 2.28922 19.6013 1.93022 19.5988 1.20734C19.5964 0.496663 20.0135 0.0668399 20.716 0.00334325C21.3404 -0.0528268 22.0014 0.609003 21.9355 1.21955C21.8624 1.91313 21.4306 2.29411 20.7355 2.39912Z" fill="#006A44"/>
<path d="M15.9277 6.45558C15.9448 5.67896 16.5058 5.14657 17.1742 5.20762C17.901 5.27356 18.2669 5.74734 18.2376 6.42871C18.2084 7.13206 17.7571 7.53746 17.0449 7.51792C16.3278 7.50083 15.9643 7.06856 15.9277 6.45558Z" fill="#006A44"/>
</svg>
