<svg width="50" height="50" viewBox="0 0 50 50" xmlns="http://www.w3.org/2000/svg">
<path d="M19.5741 36.7475C19.4632 37.0857 19.572 37.4572 19.8476 37.6824C20.0049 37.811 20.1981 37.8766 20.3925 37.8766C20.5386 37.8766 20.6855 37.8394 20.8182 37.764L23.8514 36.0381C24.1205 35.8851 24.2866 35.5993 24.2866 35.2897V30.8516C24.2866 30.5366 24.1145 30.2466 23.8381 30.0958C23.5616 29.945 23.2245 29.957 22.9597 30.1276L21.6757 30.9539C21.5094 31.0609 21.385 31.2219 21.3235 31.4098L19.5741 36.7475ZM21.9053 35.1641L22.5645 33.1524V34.789L21.9053 35.1641Z"/>
<path d="M27.2734 23.8764V33.9455C27.2734 34.2527 27.4372 34.5367 27.7029 34.6906C27.8363 34.7679 27.9855 34.8066 28.1345 34.8066C28.2824 34.8066 28.4303 34.7685 28.5631 34.6923L46.6076 24.3366C46.8751 24.1832 47.0401 23.8983 47.0401 23.5898V13.5207C47.0401 13.2135 46.8764 12.9296 46.6106 12.7756C46.3448 12.6218 46.0169 12.621 45.7505 12.7739L27.7059 23.1296C27.4384 23.2831 27.2734 23.5679 27.2734 23.8764ZM28.9955 24.375L45.318 15.0076V23.0911L28.9955 32.4585V24.375Z"/>
<path d="M0.320312 37.2529V41.0541C0.320312 41.3618 0.484486 41.6461 0.750838 41.7998L14.755 49.8846C14.8887 49.9619 15.0373 50 15.1854 50C15.3328 50 15.4788 49.9604 15.6101 49.8857L15.6109 49.887L20.6046 47.0506C20.6046 47.0506 22.6095 48.2561 22.7182 48.3188C23.0908 48.5339 23.5025 48.6361 23.9301 48.6361C25.2589 48.6361 26.7429 47.6497 27.6976 45.996C28.264 45.0153 28.5555 43.94 28.5186 42.9683C28.5129 42.8164 28.498 42.6691 28.4762 42.5258L38.4145 36.7886L40.5864 37.9297L40.586 37.9289C40.9436 38.1284 41.3463 38.2286 41.771 38.2286C42.272 38.2286 42.8029 38.0903 43.3242 37.8151C44.1841 37.3611 44.9696 36.571 45.5359 35.5904C46.1022 34.6097 46.3937 33.5344 46.3567 32.5627C46.353 32.4664 46.3449 32.3722 46.3348 32.2792L47.2824 31.7323C47.5489 31.5784 47.713 31.2942 47.713 30.9865V26.744L49.2499 25.8609C49.517 25.7073 49.6819 25.4226 49.6819 25.1143V8.94725C49.6819 8.63956 49.5179 8.3553 49.2513 8.20158L35.2456 0.115383C34.9798 -0.0381137 34.6523 -0.0384581 34.386 0.114579L11.0616 13.5203C10.7947 13.6737 10.63 13.9581 10.6296 14.266C10.6296 14.2662 10.6296 14.2668 10.6296 14.2668V18.506L5.89051 21.2723C5.68604 21.3917 5.54345 21.5884 5.48892 21.8128L5.48788 21.8126L3.43697 30.2559C1.45254 32.0404 0.320312 34.5741 0.320312 37.2529ZM2.08283 36.4777L2.88395 36.9403V37.863L2.04242 37.3888V37.2529C2.04242 36.9924 2.057 36.7339 2.08283 36.4777ZM5.19811 30.3016L6.02346 26.904L18.2988 33.9911L17.3327 37.3074L5.19811 30.3016ZM6.89002 23.3366L19.3134 30.5088L18.7948 32.2891L6.44698 25.1602L6.89002 23.3366ZM8.0397 22.0119L11.4906 19.9976L23.7772 27.092L20.3267 29.1053L8.0397 22.0119ZM12.3518 15.7582L24.634 22.8489V25.5981L12.3518 18.5063V15.7582ZM47.0956 8.94552L25.4961 21.3581L13.2158 14.2687L34.814 1.85471L47.0956 8.94552ZM26.3561 37.031V22.8501L47.9597 10.4353V24.6161L26.3561 37.031ZM40.9781 35.402C40.9538 34.7597 41.1694 33.9937 41.5696 33.3005C41.9698 32.6073 42.5254 32.0377 43.0937 31.7377C43.3646 31.5946 43.621 31.5217 43.8388 31.5217C43.975 31.5217 44.0962 31.5503 44.1964 31.6082C44.4568 31.7585 44.6168 32.1302 44.6356 32.6281C44.66 33.2703 44.4445 34.0362 44.0443 34.7294C43.6441 35.4226 43.0885 35.9923 42.5202 36.2923C42.0796 36.5249 41.6778 36.572 41.4174 36.4218C41.1571 36.2715 40.9971 35.8999 40.9781 35.402ZM27.2196 40.5223C26.9494 40.3664 26.6585 40.271 26.3561 40.2297V39.0173L45.9909 27.7338V30.4894L45.6955 30.6599C45.5154 30.4409 45.3016 30.2576 45.0577 30.1167C44.2739 29.6641 43.2651 29.7 42.2899 30.2148C41.4301 30.6687 40.6446 31.4588 40.0784 32.4395C39.7417 33.0226 39.503 33.6391 39.3719 34.2475L27.7577 40.9521C27.5998 40.7828 27.42 40.638 27.2196 40.5223ZM23.7315 43.7062C24.3881 42.569 25.3528 41.9262 25.998 41.9262C26.1344 41.9262 26.2566 41.9549 26.3585 42.0138C26.6189 42.1641 26.7788 42.5357 26.7978 43.0336C26.8221 43.6759 26.6065 44.4419 26.2063 45.1351C25.4109 46.5127 24.1634 47.1643 23.5793 46.8275C22.9952 46.4902 22.9361 45.0837 23.7315 43.7062ZM16.0468 44.8188C16.0468 42.8197 16.8103 40.9258 18.1967 39.4858L18.4727 39.199C18.5693 39.0986 18.6402 38.9764 18.6791 38.8426L21.0595 30.6715L24.634 28.5858L24.6339 40.5306C23.7364 40.9478 22.8722 41.7501 22.24 42.845C21.919 43.401 21.6938 43.9711 21.5607 44.5268L16.0468 47.6587V44.8188ZM13.4718 43.9744L13.4726 43.0218L14.4098 43.5627C14.3689 43.8693 14.3433 44.1792 14.3326 44.4916L13.4718 43.9744ZM2.04242 40.5569V39.3653L3.32228 40.0864C3.45362 40.1604 3.59931 40.1973 3.745 40.1973C3.89528 40.1973 4.04534 40.1581 4.17943 40.0797C4.4436 39.9252 4.60605 39.6422 4.60605 39.3363V36.4431C4.60605 36.1355 4.44188 35.8513 4.17553 35.6975L2.47363 34.7148C2.85663 33.6184 3.48703 32.6167 4.32673 31.787L16.494 38.8117C15.7489 39.7081 15.1832 40.7227 14.8172 41.8094L13.0431 40.7856C12.7769 40.632 12.4489 40.6319 12.1824 40.7855C11.9162 40.9391 11.7519 41.2232 11.7516 41.5307L11.7492 44.4606C11.749 44.7631 11.9075 45.0434 12.1668 45.1992L14.3247 46.4961V47.6477L2.04242 40.5569Z"/>
</svg>
