<svg width="36" height="36" viewBox="0 0 36 36" fill="none" xmlns="http://www.w3.org/2000/svg">
<path fill-rule="evenodd" clip-rule="evenodd" d="M17.6695 10.4535C17.565 10.3487 17.4408 10.2656 17.3042 10.2089C17.1675 10.1522 17.021 10.123 16.873 10.123C16.725 10.123 16.5785 10.1522 16.4418 10.2089C16.3051 10.2656 16.181 10.3487 16.0765 10.4535L9.32649 17.2035C9.22172 17.308 9.1386 17.4321 9.08189 17.5688C9.02517 17.7055 8.99598 17.852 8.99598 18C8.99598 18.148 9.02517 18.2945 9.08189 18.4312C9.1386 18.5678 9.22172 18.692 9.32649 18.7965L16.0765 25.5465C16.2877 25.7577 16.5742 25.8764 16.873 25.8764C17.1717 25.8764 17.4582 25.7577 17.6695 25.5465C17.8807 25.3352 17.9994 25.0487 17.9994 24.75C17.9994 24.4512 17.8807 24.1647 17.6695 23.9535L11.7137 18L17.6695 12.0465C17.7743 11.942 17.8574 11.8178 17.9141 11.6812C17.9708 11.5445 18 11.398 18 11.25C18 11.102 17.9708 10.9555 17.9141 10.8188C17.8574 10.6821 17.7743 10.558 17.6695 10.4535Z" fill="white"/>
<path fill-rule="evenodd" clip-rule="evenodd" d="M27 18C27 17.7016 26.8815 17.4155 26.6705 17.2045C26.4595 16.9935 26.1734 16.875 25.875 16.875H11.25C10.9516 16.875 10.6655 16.9935 10.4545 17.2045C10.2435 17.4155 10.125 17.7016 10.125 18C10.125 18.2984 10.2435 18.5845 10.4545 18.7955C10.6655 19.0065 10.9516 19.125 11.25 19.125H25.875C26.1734 19.125 26.4595 19.0065 26.6705 18.7955C26.8815 18.5845 27 18.2984 27 18Z" fill="white"/>
</svg>
