<svg width="40" height="40" viewBox="0 0 40 40" fill="none" xmlns="http://www.w3.org/2000/svg">
<path d="M35.0264 8.10462C35.0264 9.86211 35.0613 11.6221 35.0114 13.3795C34.9865 14.2138 35.3105 14.473 36.1079 14.4138C37.0375 14.3447 37.967 14.2632 38.904 14.3866C39.4647 14.4607 40.0429 14.5051 39.9981 15.2185C39.9532 15.8923 39.3676 15.9886 38.8118 15.9911C36.4768 16.001 34.1392 15.9985 31.8042 15.9985C30.4261 15.9985 30.4261 15.996 30.4261 17.3635C30.4261 18.5039 30.4036 19.6467 30.431 20.7871C30.451 21.614 30.0871 21.9596 29.2573 21.9547C26.7976 21.9374 24.3355 21.9744 21.8758 21.9349C21.0983 21.9226 20.8316 22.1768 20.864 22.942C20.9139 24.1441 20.8815 25.3487 20.874 26.5508C20.8665 27.7356 20.5999 28.0071 19.3738 28.0145C17.0387 28.0269 14.7012 28.0491 12.3661 28.0071C11.5313 27.9923 11.2721 28.291 11.307 29.0858C11.3593 30.2237 11.3244 31.369 11.317 32.5094C11.3095 33.7535 11.0827 33.9831 9.85663 33.9855C7.48917 33.9905 5.12172 34.0151 2.75676 33.9732C1.96179 33.9584 1.71757 34.2546 1.74498 35C1.78486 36.17 1.75495 37.345 1.74997 38.5175C1.74997 38.8902 1.73252 39.2654 1.54562 39.5961C1.38114 39.8849 1.10951 40.0577 0.765605 39.9837C0.302083 39.8849 0.0952423 39.5221 0.0802899 39.0975C0.0454011 38.1423 0.0528773 37.187 0.0478932 36.2293C0.0429091 35.3974 0.0329409 34.5631 0.0528773 33.7313C0.0777979 32.702 0.376845 32.4107 1.3961 32.3934C2.14371 32.3811 2.89133 32.3687 3.63895 32.3959C4.25448 32.4181 4.55852 32.2206 4.55353 31.5591C4.53609 28.1034 4.54107 24.6501 4.54606 21.1944C4.54606 20.6242 4.38158 20.4292 3.84579 20.7945C3.48693 21.0414 3.13555 21.308 2.74181 21.4881C1.95432 21.8485 1.62536 22.4237 1.74748 23.2654C1.75246 23.295 1.74997 23.3271 1.74748 23.3567C1.68517 23.9886 1.78984 24.8402 0.88024 24.8279C-0.0243765 24.8155 0.127639 23.9664 0.040417 23.337C-0.163932 21.8806 0.409241 20.9871 1.70013 20.1873C12.2316 13.6585 22.7156 7.05556 33.2097 0.469943C33.7305 0.144118 34.2564 -0.0138578 34.8769 0.000952476C36.1852 0.0330413 37.4935 0.00588922 38.8019 0.0182311C39.4 0.0231678 40.0205 0.149055 39.9956 0.877225C39.9681 1.6128 39.3277 1.68192 38.7396 1.64489C37.805 1.58318 36.8755 1.63008 35.941 1.67945C35.2607 1.714 35.0114 1.99046 35.0189 2.64705C35.0413 4.46377 35.0264 6.28543 35.0264 8.10462ZM25.3672 13.8337C25.3672 15.6825 25.3921 17.5338 25.3547 19.3826C25.3398 20.0861 25.5391 20.4267 26.2992 20.3576C26.7926 20.3132 27.2985 20.3132 27.792 20.3552C28.547 20.4193 28.861 20.1552 28.8287 19.3678C28.7788 18.1361 28.8336 16.9019 28.8112 15.6677C28.7938 14.7766 29.2224 14.3422 30.0971 14.3397C30.8422 14.3373 31.5899 14.3545 32.3325 14.4089C33.0427 14.4607 33.3343 14.2213 33.3293 13.4733C33.3019 10.0522 33.3069 6.62854 33.3268 3.20737C33.3318 2.51376 33.1898 2.38787 32.5667 2.78775C30.3986 4.17744 28.2131 5.54245 26.0176 6.88772C25.5342 7.18392 25.3547 7.5443 25.3622 8.09722C25.3821 10.0102 25.3672 11.9232 25.3672 13.8337ZM23.7474 14.4237C23.7474 12.7279 23.7224 11.0321 23.7573 9.33634C23.7748 8.55881 23.6078 8.38602 22.8976 8.84267C20.8092 10.1855 18.7059 11.506 16.5852 12.797C16.0095 13.1475 15.7952 13.5647 15.8027 14.2262C15.8301 17.4647 15.7852 20.7032 15.8226 23.9392C15.8525 26.6668 15.2918 26.2891 18.3346 26.3311C19.005 26.341 19.2916 26.1188 19.2691 25.4227C19.2317 24.1293 19.2716 22.8334 19.2567 21.5375C19.2467 20.7254 19.633 20.3428 20.4454 20.3478C21.193 20.3552 21.9431 20.3058 22.6857 20.3601C23.4882 20.4193 23.7972 20.1602 23.7673 19.3259C23.7075 17.6943 23.7474 16.0577 23.7474 14.4237ZM6.25561 25.7881C6.25561 27.237 6.23816 28.6859 6.26059 30.1349C6.29797 32.7168 5.8494 32.3243 8.52836 32.4008C9.43298 32.428 9.65477 32.0701 9.62237 31.2604C9.57502 30.0904 9.59496 28.918 9.62237 27.7455C9.64729 26.6717 9.95382 26.3706 11.0254 26.3336C11.7406 26.3089 12.4583 26.2965 13.1736 26.336C13.9087 26.3755 14.2327 26.1509 14.2252 25.3487C14.1878 21.9868 14.1978 18.6273 14.2177 15.2654C14.2227 14.5718 14.1106 14.3348 13.4178 14.784C11.297 16.1416 9.17131 17.482 7.02565 18.7976C6.44999 19.1506 6.23567 19.585 6.24564 20.2391C6.27554 22.088 6.25561 23.9392 6.25561 25.7881Z" fill="#006A44"/>
</svg>
