<svg width="12" height="12" viewBox="0 0 12 12" fill="none" xmlns="http://www.w3.org/2000/svg">
<g clip-path="url(#clip0)">
<path d="M7.79843 5.99925C7.79843 6.95256 6.99179 7.72537 5.99674 7.72537C5.0017 7.72537 4.19506 6.95256 4.19506 5.99925C4.19506 5.04593 5.0017 4.27313 5.99674 4.27313C6.99179 4.27312 7.79843 5.04594 7.79843 5.99925ZM6 2.40521C4.96975 2.40978 3.90186 2.66059 2.89096 3.14078C2.14038 3.512 1.4089 4.03574 0.77394 4.68219C0.46208 5.01218 0.06431 5.49 0 5.99981C0.0076 6.44142 0.4813 6.9865 0.77394 7.31744C1.36937 7.9385 2.0818 8.44762 2.89096 8.85923C3.83367 9.31674 4.87712 9.58015 6 9.5948C7.03123 9.59016 8.09888 9.33646 9.10866 8.85923C9.85924 8.48801 10.5911 7.96389 11.2261 7.31744C11.5379 6.98745 11.9357 6.50962 12 5.99981C11.9924 5.5582 11.5187 5.0131 11.2261 4.68217C10.6306 4.06111 9.91782 3.55238 9.10866 3.14076C8.16644 2.6836 7.12042 2.422 6 2.40521ZM5.99924 3.29769C7.56043 3.29769 8.82599 4.50763 8.82599 6.0002C8.82599 7.49276 7.56043 8.7027 5.99924 8.7027C4.43805 8.7027 3.17249 7.49275 3.17249 6.0002C3.17249 4.50763 4.43805 3.29769 5.99924 3.29769Z" fill="#A1A1A1"/>
</g>
<defs>
<clipPath id="clip0">
<rect width="12" height="12" fill="white"/>
</clipPath>
</defs>
</svg>
