<svg width="343" height="236" viewBox="0 0 343 236" fill="none" xmlns="http://www.w3.org/2000/svg">
<g filter="url(#filter0_d)">
<rect x="16" y="16" width="303" height="196" rx="12" fill="white"/>
</g>
<path d="M43.85 98.77V102H44.8V95.11H43.85V97.99H40.95V95.11H40V102H40.95V98.77H43.85ZM48.7269 96.61C47.2269 96.61 46.3669 97.74 46.3669 99.37C46.3669 101.04 47.2169 102.12 48.7169 102.12C50.2069 102.12 51.0669 100.99 51.0669 99.36C51.0669 97.69 50.2269 96.61 48.7269 96.61ZM48.7269 97.35C49.5969 97.35 50.0769 97.99 50.0769 99.36C50.0769 100.74 49.5969 101.38 48.7169 101.38C47.8369 101.38 47.3569 100.74 47.3569 99.37C47.3569 97.99 47.8469 97.35 48.7269 97.35ZM57.6491 102L57.1691 96.73H55.9591L54.8291 100.5L53.7991 96.73H52.6091L52.1391 102H53.0291L53.2191 99.5C53.2591 98.95 53.2591 98.29 53.2591 97.67L54.3791 101.42H55.2491L56.4491 97.65C56.4491 98.41 56.4491 98.93 56.5091 99.51L56.7491 102H57.6491ZM63.0804 99.21C63.0804 97.6 62.3304 96.61 60.9104 96.61C59.5504 96.61 58.7204 97.78 58.7204 99.42C58.7204 101.09 59.5804 102.12 61.0504 102.12C61.7804 102.12 62.3704 101.87 62.8904 101.46L62.4904 100.91C62.0304 101.23 61.6404 101.37 61.1204 101.37C60.3604 101.37 59.7904 100.9 59.7004 99.68H63.0604C63.0704 99.56 63.0804 99.39 63.0804 99.21ZM62.1704 99H59.7004C59.7704 97.83 60.2304 97.34 60.9304 97.34C61.7604 97.34 62.1704 97.91 62.1704 98.94V99ZM67.0184 96.61C66.4184 96.61 65.8484 96.9 65.4584 97.44L65.3884 96.73H64.5984V104.13L65.5184 104.02V101.52C65.8584 101.93 66.3284 102.12 66.8984 102.12C68.2584 102.12 68.9684 100.96 68.9684 99.36C68.9684 97.7 68.4184 96.61 67.0184 96.61ZM66.6784 101.37C66.1984 101.37 65.7884 101.14 65.5184 100.73V98.16C65.7984 97.74 66.2284 97.34 66.7884 97.34C67.5784 97.34 67.9784 97.99 67.9784 99.36C67.9784 100.74 67.5184 101.37 66.6784 101.37ZM75.5324 99.17L77.1324 96.73H76.1224L74.7924 98.85H74.1024V96.73H73.1824V102H74.1024V99.57H74.7724L76.2324 102H77.3224L75.5324 99.17ZM81.8691 100.77V98.36C81.8691 97.26 81.2891 96.61 80.0191 96.61C79.4291 96.61 78.8491 96.73 78.1991 96.97L78.4291 97.64C78.9691 97.46 79.4591 97.36 79.8491 97.36C80.5791 97.36 80.9491 97.64 80.9491 98.4V98.79H80.1391C78.6691 98.79 77.8191 99.4 77.8191 100.53C77.8191 101.47 78.4491 102.12 79.4991 102.12C80.1391 102.12 80.6991 101.88 81.0691 101.33C81.2291 101.85 81.5691 102.06 82.0991 102.12L82.3091 101.48C82.0391 101.38 81.8691 101.23 81.8691 100.77ZM79.7091 101.43C79.1091 101.43 78.7991 101.1 78.7991 100.48C78.7991 99.76 79.2891 99.4 80.2591 99.4H80.9491V100.61C80.6491 101.16 80.2491 101.43 79.7091 101.43ZM86.1786 96.61C85.5786 96.61 85.0086 96.9 84.6186 97.44L84.5486 96.73H83.7586V104.13L84.6786 104.02V101.52C85.0186 101.93 85.4886 102.12 86.0586 102.12C87.4186 102.12 88.1286 100.96 88.1286 99.36C88.1286 97.7 87.5786 96.61 86.1786 96.61ZM85.8386 101.37C85.3586 101.37 84.9486 101.14 84.6786 100.73V98.16C84.9586 97.74 85.3886 97.34 85.9486 97.34C86.7386 97.34 87.1386 97.99 87.1386 99.36C87.1386 100.74 86.6786 101.37 85.8386 101.37ZM93.0484 97.48L93.1584 96.73H88.6984V97.48H90.4384V102H91.3584V97.48H93.0484ZM95.6302 98.43H95.0302V96.73H94.1102V102H95.8002C96.8702 102 97.8702 101.46 97.8702 100.2C97.8702 99.13 97.2802 98.43 95.6302 98.43ZM99.5502 96.73H98.6302V102H99.5502V96.73ZM95.7202 101.28H95.0302V99.13H95.6202C96.5902 99.13 96.8902 99.5 96.8902 100.2C96.8902 101.02 96.4102 101.28 95.7202 101.28Z" fill="#636467"/>
<path d="M42.41 152.99C40.85 152.99 39.55 154.22 39.55 156.55C39.55 158.87 40.76 160.12 42.43 160.12C43.36 160.12 44.03 159.74 44.4 159.35L43.92 158.74C43.53 159.03 43.11 159.32 42.46 159.32C41.39 159.32 40.56 158.54 40.56 156.55C40.56 154.47 41.43 153.77 42.47 153.77C42.95 153.77 43.37 153.93 43.8 154.28L44.32 153.67C43.77 153.23 43.28 152.99 42.41 152.99ZM47.9657 154.61C47.3657 154.61 46.7957 154.9 46.4057 155.44L46.3357 154.73H45.5457V162.13L46.4657 162.02V159.52C46.8057 159.93 47.2757 160.12 47.8457 160.12C49.2057 160.12 49.9157 158.96 49.9157 157.36C49.9157 155.7 49.3657 154.61 47.9657 154.61ZM47.6257 159.37C47.1457 159.37 46.7357 159.14 46.4657 158.73V156.16C46.7457 155.74 47.1757 155.34 47.7357 155.34C48.5257 155.34 48.9257 155.99 48.9257 157.36C48.9257 158.74 48.4657 159.37 47.6257 159.37ZM53.4632 154.61C51.9632 154.61 51.1032 155.74 51.1032 157.37C51.1032 159.04 51.9532 160.12 53.4532 160.12C54.9432 160.12 55.8032 158.99 55.8032 157.36C55.8032 155.69 54.9632 154.61 53.4632 154.61ZM53.4632 155.35C54.3332 155.35 54.8132 155.99 54.8132 157.36C54.8132 158.74 54.3332 159.38 53.4532 159.38C52.5732 159.38 52.0932 158.74 52.0932 157.37C52.0932 155.99 52.5832 155.35 53.4632 155.35ZM59.673 157.17L61.273 154.73H60.263L58.933 156.85H58.243V154.73H57.323V160H58.243V157.57H58.913L60.373 160H61.463L59.673 157.17ZM67.1351 154.61C65.6351 154.61 64.7751 155.74 64.7751 157.37C64.7751 159.04 65.6251 160.12 67.1251 160.12C68.6151 160.12 69.4751 158.99 69.4751 157.36C69.4751 155.69 68.6351 154.61 67.1351 154.61ZM67.1351 155.35C68.0051 155.35 68.4851 155.99 68.4851 157.36C68.4851 158.74 68.0051 159.38 67.1251 159.38C66.2451 159.38 65.7651 158.74 65.7651 157.37C65.7651 155.99 66.2551 155.35 67.1351 155.35ZM73.3449 157.17L74.9449 154.73H73.9349L72.6049 156.85H71.9149V154.73H70.9949V160H71.9149V157.57H72.5849L74.0449 160H75.1349L73.3449 157.17ZM78.0628 154.61C76.5628 154.61 75.7028 155.74 75.7028 157.37C75.7028 159.04 76.5528 160.12 78.0528 160.12C79.5428 160.12 80.4028 158.99 80.4028 157.36C80.4028 155.69 79.5628 154.61 78.0628 154.61ZM78.0628 155.35C78.9328 155.35 79.4128 155.99 79.4128 157.36C79.4128 158.74 78.9328 159.38 78.0528 159.38C77.1728 159.38 76.6928 158.74 76.6928 157.37C76.6928 155.99 77.1828 155.35 78.0628 155.35ZM85.0327 157.68V160H85.9527V154.73H85.0327V156.94H82.8427V154.73H81.9227V160H82.8427V157.68H85.0327ZM91.4704 154.73H90.5504V157.09C90.2504 157.44 89.6604 157.66 89.2104 157.66C88.6404 157.66 88.3704 157.39 88.3704 156.71V154.73H87.4504V156.82C87.4504 157.8 87.9504 158.38 88.9604 158.38C89.5704 158.38 90.1704 158.15 90.5504 157.8V160H91.4704V154.73ZM96.918 158.77V156.36C96.918 155.26 96.338 154.61 95.068 154.61C94.478 154.61 93.898 154.73 93.248 154.97L93.478 155.64C94.018 155.46 94.508 155.36 94.898 155.36C95.628 155.36 95.998 155.64 95.998 156.4V156.79H95.188C93.718 156.79 92.868 157.4 92.868 158.53C92.868 159.47 93.498 160.12 94.548 160.12C95.188 160.12 95.748 159.88 96.118 159.33C96.278 159.85 96.618 160.06 97.148 160.12L97.358 159.48C97.088 159.38 96.918 159.23 96.918 158.77ZM94.758 159.43C94.158 159.43 93.848 159.1 93.848 158.48C93.848 157.76 94.338 157.4 95.308 157.4H95.998V158.61C95.698 159.16 95.298 159.43 94.758 159.43ZM101.917 157.68V160H102.837V154.73H101.917V156.94H99.7274V154.73H98.8074V160H99.7274V157.68H101.917ZM108.835 160V154.73H107.705L105.545 158.93C105.565 158.8 105.645 157.93 105.645 157.11V154.73H104.735V160H105.845L108.035 155.77C108.015 155.89 107.925 156.69 107.925 157.62V160H108.835ZM114.341 154.73H112.591C111.251 154.73 110.461 155.29 110.461 156.34C110.461 157 110.771 157.48 111.391 157.77L110.131 160H111.161L112.271 157.98H113.421V160H114.341V154.73ZM113.421 157.28H112.551C111.761 157.28 111.431 157 111.431 156.34C111.431 155.71 111.821 155.44 112.571 155.44H113.421V157.28ZM123.116 159.26H122.566V154.73H119.266L119.126 156.69C118.976 158.75 118.696 159 118.306 159.26H117.936V161.5H118.686L118.836 160H122.216L122.366 161.5H123.116V159.26ZM121.646 155.46V159.26H119.126C119.716 158.84 119.886 158.4 120.016 156.57L120.096 155.46H121.646ZM128.442 157.21C128.442 155.6 127.692 154.61 126.272 154.61C124.912 154.61 124.082 155.78 124.082 157.42C124.082 159.09 124.942 160.12 126.412 160.12C127.142 160.12 127.732 159.87 128.252 159.46L127.852 158.91C127.392 159.23 127.002 159.37 126.482 159.37C125.722 159.37 125.152 158.9 125.062 157.68H128.422C128.432 157.56 128.442 157.39 128.442 157.21ZM127.532 157H125.062C125.132 155.83 125.592 155.34 126.292 155.34C127.122 155.34 127.532 155.91 127.532 156.94V157ZM131.99 153.57C132.8 153.57 133.44 153.14 133.52 152.4L132.91 152.27C132.77 152.7 132.46 152.87 131.99 152.87C131.52 152.87 131.24 152.7 131.1 152.27L130.49 152.4C130.57 153.14 131.19 153.57 131.99 153.57ZM134.06 160V154.73H132.93L130.77 158.93C130.79 158.8 130.87 157.93 130.87 157.11V154.73H129.96V160H131.07L133.26 155.77C133.24 155.89 133.15 156.69 133.15 157.62V160H134.06ZM137.876 154.61C136.446 154.61 135.576 155.73 135.576 157.41C135.576 159.11 136.456 160.12 137.876 160.12C138.486 160.12 139.016 159.92 139.486 159.54L139.046 158.91C138.666 159.2 138.356 159.34 137.916 159.34C137.086 159.34 136.566 158.77 136.566 157.39C136.566 156.02 137.086 155.37 137.916 155.37C138.356 155.37 138.686 155.5 139.036 155.78L139.486 155.18C138.996 154.77 138.496 154.61 137.876 154.61ZM144.181 155.48L144.291 154.73H139.831V155.48H141.571V160H142.491V155.48H144.181ZM148.023 157.14C148.823 156.94 149.093 156.54 149.093 155.99C149.093 155.1 148.243 154.61 146.973 154.61C146.393 154.61 145.783 154.69 145.243 154.8V160H147.143C148.413 160 149.363 159.54 149.363 158.44C149.363 157.65 148.923 157.23 148.023 157.14ZM146.983 155.32C147.753 155.32 148.153 155.53 148.153 156.08C148.153 156.68 147.723 156.87 147.103 156.87H146.163V155.38C146.433 155.34 146.673 155.32 146.983 155.32ZM146.993 159.28H146.163V157.55H147.163C147.863 157.55 148.393 157.7 148.393 158.43C148.393 159.21 147.633 159.28 146.993 159.28ZM154.987 160V154.73H153.858L151.698 158.93C151.718 158.8 151.798 157.93 151.798 157.11V154.73H150.888V160H151.998L154.188 155.77C154.168 155.89 154.078 156.69 154.078 157.62V160H154.987ZM160.494 154.73H158.744C157.404 154.73 156.614 155.29 156.614 156.34C156.614 157 156.924 157.48 157.544 157.77L156.284 160H157.314L158.424 157.98H159.574V160H160.494V154.73ZM159.574 157.28H158.704C157.914 157.28 157.584 157 157.584 156.34C157.584 155.71 157.974 155.44 158.724 155.44H159.574V157.28Z" fill="#636467"/>
<path d="M44.58 112.42C41.58 112.42 40.1 114.88 40.1 119.32C40.1 123.76 41.58 126.24 44.58 126.24C47.58 126.24 49.06 123.76 49.06 119.32C49.06 114.9 47.58 112.42 44.58 112.42ZM44.58 113.88C46.24 113.88 47.14 115.4 47.14 119.32C47.14 123.26 46.24 124.78 44.58 124.78C42.9 124.78 42.02 123.26 42.02 119.32C42.02 115.4 42.9 113.88 44.58 113.88ZM55.7323 112.42C52.7323 112.42 51.2523 114.88 51.2523 119.32C51.2523 123.76 52.7323 126.24 55.7323 126.24C58.7323 126.24 60.2123 123.76 60.2123 119.32C60.2123 114.9 58.7323 112.42 55.7323 112.42ZM55.7323 113.88C57.3923 113.88 58.2923 115.4 58.2923 119.32C58.2923 123.26 57.3923 124.78 55.7323 124.78C54.0523 124.78 53.1723 123.26 53.1723 119.32C53.1723 115.4 54.0523 113.88 55.7323 113.88ZM66.8847 112.42C63.8847 112.42 62.4047 114.88 62.4047 119.32C62.4047 123.76 63.8847 126.24 66.8847 126.24C69.8847 126.24 71.3647 123.76 71.3647 119.32C71.3647 114.9 69.8847 112.42 66.8847 112.42ZM66.8847 113.88C68.5447 113.88 69.4447 115.4 69.4447 119.32C69.4447 123.26 68.5447 124.78 66.8847 124.78C65.2047 124.78 64.3247 123.26 64.3247 119.32C64.3247 115.4 65.2047 113.88 66.8847 113.88ZM78.037 112.42C75.037 112.42 73.557 114.88 73.557 119.32C73.557 123.76 75.037 126.24 78.037 126.24C81.037 126.24 82.517 123.76 82.517 119.32C82.517 114.9 81.037 112.42 78.037 112.42ZM78.037 113.88C79.697 113.88 80.597 115.4 80.597 119.32C80.597 123.26 79.697 124.78 78.037 124.78C76.357 124.78 75.477 123.26 75.477 119.32C75.477 115.4 76.357 113.88 78.037 113.88ZM84.8094 118.96V120.52H90.4694V118.96H84.8094ZM97.2558 112.42C94.2558 112.42 92.7758 114.88 92.7758 119.32C92.7758 123.76 94.2558 126.24 97.2558 126.24C100.256 126.24 101.736 123.76 101.736 119.32C101.736 114.9 100.256 112.42 97.2558 112.42ZM97.2558 113.88C98.9158 113.88 99.8158 115.4 99.8158 119.32C99.8158 123.26 98.9158 124.78 97.2558 124.78C95.5758 124.78 94.6958 123.26 94.6958 119.32C94.6958 115.4 95.5758 113.88 97.2558 113.88ZM108.408 112.42C105.408 112.42 103.928 114.88 103.928 119.32C103.928 123.76 105.408 126.24 108.408 126.24C111.408 126.24 112.888 123.76 112.888 119.32C112.888 114.9 111.408 112.42 108.408 112.42ZM108.408 113.88C110.068 113.88 110.968 115.4 110.968 119.32C110.968 123.26 110.068 124.78 108.408 124.78C106.728 124.78 105.848 123.26 105.848 119.32C105.848 115.4 106.728 113.88 108.408 113.88ZM119.56 112.42C116.56 112.42 115.08 114.88 115.08 119.32C115.08 123.76 116.56 126.24 119.56 126.24C122.56 126.24 124.04 123.76 124.04 119.32C124.04 114.9 122.56 112.42 119.56 112.42ZM119.56 113.88C121.22 113.88 122.12 115.4 122.12 119.32C122.12 123.26 121.22 124.78 119.56 124.78C117.88 124.78 117 123.26 117 119.32C117 115.4 117.88 113.88 119.56 113.88ZM130.713 112.42C127.713 112.42 126.233 114.88 126.233 119.32C126.233 123.76 127.713 126.24 130.713 126.24C133.713 126.24 135.193 123.76 135.193 119.32C135.193 114.9 133.713 112.42 130.713 112.42ZM130.713 113.88C132.373 113.88 133.273 115.4 133.273 119.32C133.273 123.26 132.373 124.78 130.713 124.78C129.033 124.78 128.153 123.26 128.153 119.32C128.153 115.4 129.033 113.88 130.713 113.88ZM137.485 118.96V120.52H143.145V118.96H137.485ZM149.932 112.42C146.932 112.42 145.452 114.88 145.452 119.32C145.452 123.76 146.932 126.24 149.932 126.24C152.932 126.24 154.412 123.76 154.412 119.32C154.412 114.9 152.932 112.42 149.932 112.42ZM149.932 113.88C151.592 113.88 152.492 115.4 152.492 119.32C152.492 123.26 151.592 124.78 149.932 124.78C148.252 124.78 147.372 123.26 147.372 119.32C147.372 115.4 148.252 113.88 149.932 113.88ZM161.084 112.42C158.084 112.42 156.604 114.88 156.604 119.32C156.604 123.76 158.084 126.24 161.084 126.24C164.084 126.24 165.564 123.76 165.564 119.32C165.564 114.9 164.084 112.42 161.084 112.42ZM161.084 113.88C162.744 113.88 163.644 115.4 163.644 119.32C163.644 123.26 162.744 124.78 161.084 124.78C159.404 124.78 158.524 123.26 158.524 119.32C158.524 115.4 159.404 113.88 161.084 113.88ZM172.236 112.42C169.236 112.42 167.756 114.88 167.756 119.32C167.756 123.76 169.236 126.24 172.236 126.24C175.236 126.24 176.716 123.76 176.716 119.32C176.716 114.9 175.236 112.42 172.236 112.42ZM172.236 113.88C173.896 113.88 174.796 115.4 174.796 119.32C174.796 123.26 173.896 124.78 172.236 124.78C170.556 124.78 169.676 123.26 169.676 119.32C169.676 115.4 170.556 113.88 172.236 113.88ZM183.389 112.42C180.389 112.42 178.909 114.88 178.909 119.32C178.909 123.76 180.389 126.24 183.389 126.24C186.389 126.24 187.869 123.76 187.869 119.32C187.869 114.9 186.389 112.42 183.389 112.42ZM183.389 113.88C185.049 113.88 185.949 115.4 185.949 119.32C185.949 123.26 185.049 124.78 183.389 124.78C181.709 124.78 180.829 123.26 180.829 119.32C180.829 115.4 181.709 113.88 183.389 113.88ZM190.161 118.96V120.52H195.821V118.96H190.161ZM202.607 112.42C199.607 112.42 198.127 114.88 198.127 119.32C198.127 123.76 199.607 126.24 202.607 126.24C205.607 126.24 207.087 123.76 207.087 119.32C207.087 114.9 205.607 112.42 202.607 112.42ZM202.607 113.88C204.267 113.88 205.167 115.4 205.167 119.32C205.167 123.26 204.267 124.78 202.607 124.78C200.927 124.78 200.047 123.26 200.047 119.32C200.047 115.4 200.927 113.88 202.607 113.88ZM213.76 112.42C210.76 112.42 209.28 114.88 209.28 119.32C209.28 123.76 210.76 126.24 213.76 126.24C216.76 126.24 218.24 123.76 218.24 119.32C218.24 114.9 216.76 112.42 213.76 112.42ZM213.76 113.88C215.42 113.88 216.32 115.4 216.32 119.32C216.32 123.26 215.42 124.78 213.76 124.78C212.08 124.78 211.2 123.26 211.2 119.32C211.2 115.4 212.08 113.88 213.76 113.88ZM224.912 112.42C221.912 112.42 220.432 114.88 220.432 119.32C220.432 123.76 221.912 126.24 224.912 126.24C227.912 126.24 229.392 123.76 229.392 119.32C229.392 114.9 227.912 112.42 224.912 112.42ZM224.912 113.88C226.572 113.88 227.472 115.4 227.472 119.32C227.472 123.26 226.572 124.78 224.912 124.78C223.232 124.78 222.352 123.26 222.352 119.32C222.352 115.4 223.232 113.88 224.912 113.88ZM236.064 112.42C233.064 112.42 231.584 114.88 231.584 119.32C231.584 123.76 233.064 126.24 236.064 126.24C239.064 126.24 240.544 123.76 240.544 119.32C240.544 114.9 239.064 112.42 236.064 112.42ZM236.064 113.88C237.724 113.88 238.624 115.4 238.624 119.32C238.624 123.26 237.724 124.78 236.064 124.78C234.384 124.78 233.504 123.26 233.504 119.32C233.504 115.4 234.384 113.88 236.064 113.88Z" fill="#222324"/>
<path d="M47.74 54.06V60H51.02V46.14H47.74V51.5H43.58V46.14H40.3V60H43.58V54.06H47.74ZM62.0003 56.92V52.8C62.0003 50.34 60.6803 49.04 57.6003 49.04C56.4003 49.04 54.9403 49.32 53.6003 49.82L54.3203 51.9C55.3803 51.54 56.4203 51.34 57.1003 51.34C58.4003 51.34 58.9003 51.72 58.9003 52.98V53.44H57.8203C54.6003 53.44 52.8403 54.7 52.8403 57.02C52.8403 58.96 54.1803 60.34 56.3003 60.34C57.5603 60.34 58.7403 59.92 59.5003 58.74C59.9803 59.8 60.8003 60.18 62.0603 60.28L62.7203 58.22C62.2203 58.04 62.0003 57.74 62.0003 56.92ZM57.2203 58.08C56.4403 58.08 55.9803 57.58 55.9803 56.74C55.9803 55.68 56.6803 55.18 58.1203 55.18H58.9003V57.06C58.5203 57.7 57.9603 58.08 57.2203 58.08ZM67.702 49.04C65.962 49.04 64.642 49.46 63.462 50.28L64.922 51.94C65.642 51.48 66.322 51.22 67.242 51.22C68.082 51.22 68.662 51.54 68.662 52.3C68.662 53.12 68.062 53.52 67.042 53.52H65.802L65.622 55.56H67.282C68.442 55.56 69.122 55.9 69.122 56.76C69.122 57.7 68.442 58.08 67.362 58.08C66.322 58.08 65.602 57.86 64.662 57.26L63.142 59.06C64.262 59.88 65.662 60.34 67.462 60.34C70.322 60.34 72.382 59.22 72.382 56.94C72.382 55.38 71.382 54.6 69.542 54.34C71.082 53.94 71.862 53.18 71.862 51.96C71.862 50.12 70.002 49.04 67.702 49.04ZM80.823 54.16C82.383 53.84 83.063 53.04 83.063 51.88C83.063 49.98 81.283 49.04 78.483 49.04C77.123 49.04 75.803 49.2 74.283 49.48V60H78.783C81.563 60 83.523 59.04 83.523 56.82C83.523 55.3 82.683 54.38 80.823 54.16ZM78.443 51.06C79.423 51.06 79.943 51.46 79.943 52.28C79.943 53.16 79.383 53.54 78.523 53.54H77.443V51.12C77.783 51.08 78.103 51.06 78.443 51.06ZM78.563 57.92H77.443V55.2H78.703C79.663 55.2 80.283 55.58 80.283 56.56C80.283 57.62 79.503 57.92 78.563 57.92ZM93.7581 56.92V52.8C93.7581 50.34 92.4381 49.04 89.3581 49.04C88.1581 49.04 86.6981 49.32 85.3581 49.82L86.0781 51.9C87.1381 51.54 88.1781 51.34 88.8581 51.34C90.1581 51.34 90.6581 51.72 90.6581 52.98V53.44H89.5781C86.3581 53.44 84.5981 54.7 84.5981 57.02C84.5981 58.96 85.9381 60.34 88.0581 60.34C89.3181 60.34 90.4981 59.92 91.2581 58.74C91.7381 59.8 92.5581 60.18 93.8181 60.28L94.4781 58.22C93.9781 58.04 93.7581 57.74 93.7581 56.92ZM88.9781 58.08C88.1981 58.08 87.7381 57.58 87.7381 56.74C87.7381 55.68 88.4381 55.18 89.8781 55.18H90.6581V57.06C90.2781 57.7 89.7181 58.08 88.9781 58.08ZM102.355 55.78V60H105.515V49.38H102.355V53.44H99.4352V49.38H96.2752V60H99.4352V55.78H102.355ZM117.334 60V49.38H114.074L110.594 56.98C110.794 56.2 111.014 54.74 111.014 53.22V49.38H107.994V60H111.214L114.754 52.42C114.554 53.2 114.334 54.58 114.334 56.22V60H117.334ZM129.07 54.48C129.07 51.04 127.21 49.04 124.17 49.04C120.95 49.04 119.21 51.56 119.21 54.74C119.21 58.06 121.01 60.34 124.55 60.34C126.27 60.34 127.63 59.7 128.69 58.86L127.39 57.1C126.47 57.74 125.71 58.04 124.85 58.04C123.55 58.04 122.65 57.52 122.43 55.62H129.01C129.05 55.3 129.07 54.82 129.07 54.48ZM125.97 53.72H122.43C122.57 51.82 123.19 51.14 124.25 51.14C125.51 51.14 125.95 52.14 125.97 53.58V53.72ZM141.231 50.12C139.771 50.12 138.771 50.72 138.051 51.76C138.311 49.54 139.031 48.88 140.671 48.34C142.211 47.86 143.151 47.46 144.091 46.84L142.951 44.82C141.791 45.5 141.091 45.82 139.431 46.34C135.991 47.44 135.031 49.58 135.031 54.06C135.031 58.46 137.111 60.34 140.151 60.34C143.211 60.34 145.211 58.32 145.211 55.04C145.211 51.88 143.451 50.12 141.231 50.12ZM140.131 58.02C139.011 58.02 138.311 57.14 138.311 55.12V53.76C138.791 52.86 139.551 52.44 140.331 52.44C141.351 52.44 141.951 53.02 141.951 55.14C141.951 57.4 141.171 58.02 140.131 58.02ZM155.535 56.92V52.8C155.535 50.34 154.215 49.04 151.135 49.04C149.935 49.04 148.475 49.32 147.135 49.82L147.855 51.9C148.915 51.54 149.955 51.34 150.635 51.34C151.935 51.34 152.435 51.72 152.435 52.98V53.44H151.355C148.135 53.44 146.375 54.7 146.375 57.02C146.375 58.96 147.715 60.34 149.835 60.34C151.095 60.34 152.275 59.92 153.035 58.74C153.515 59.8 154.335 60.18 155.595 60.28L156.255 58.22C155.755 58.04 155.535 57.74 155.535 56.92ZM150.755 58.08C149.975 58.08 149.515 57.58 149.515 56.74C149.515 55.68 150.215 55.18 151.655 55.18H152.435V57.06C152.055 57.7 151.495 58.08 150.755 58.08ZM164.133 55.78V60H167.293V49.38H164.133V53.44H161.213V49.38H158.053V60H161.213V55.78H164.133ZM176.491 54.3L179.311 49.38H176.271L173.971 53.52H172.931V49.38H169.771V60H172.931V55.44H173.891L176.211 60H179.551L176.491 54.3ZM189.071 56.92V52.8C189.071 50.34 187.751 49.04 184.671 49.04C183.471 49.04 182.011 49.32 180.671 49.82L181.391 51.9C182.451 51.54 183.491 51.34 184.171 51.34C185.471 51.34 185.971 51.72 185.971 52.98V53.44H184.891C181.671 53.44 179.911 54.7 179.911 57.02C179.911 58.96 181.251 60.34 183.371 60.34C184.631 60.34 185.811 59.92 186.571 58.74C187.051 59.8 187.871 60.18 189.131 60.28L189.791 58.22C189.291 58.04 189.071 57.74 189.071 56.92ZM184.291 58.08C183.511 58.08 183.051 57.58 183.051 56.74C183.051 55.68 183.751 55.18 185.191 55.18H185.971V57.06C185.591 57.7 185.031 58.08 184.291 58.08Z" fill="#EAEAEA"/>
<path d="M44.58 170.42C41.58 170.42 40.1 172.88 40.1 177.32C40.1 181.76 41.58 184.24 44.58 184.24C47.58 184.24 49.06 181.76 49.06 177.32C49.06 172.9 47.58 170.42 44.58 170.42ZM44.58 171.88C46.24 171.88 47.14 173.4 47.14 177.32C47.14 181.26 46.24 182.78 44.58 182.78C42.9 182.78 42.02 181.26 42.02 177.32C42.02 173.4 42.9 171.88 44.58 171.88ZM56.417 184V170.62H54.797L50.657 173.18L51.457 174.48L54.577 172.58V184H56.417ZM66.9094 168.22L65.3494 167.86L60.7094 185.7L62.2894 186.08L66.9094 168.22ZM72.9545 170.42C71.2745 170.42 69.9745 171.1 68.8945 172.44L70.1345 173.4C70.9945 172.38 71.7345 171.94 72.8545 171.94C74.1545 171.94 75.0545 172.76 75.0545 174.16C75.0545 176.34 73.8945 177.62 69.1745 182.54V184H77.0745L77.2945 182.46H71.2745C75.3745 178.36 76.9745 176.58 76.9745 174.08C76.9745 172 75.4145 170.42 72.9545 170.42ZM82.7969 170.42C81.3569 170.42 80.1169 170.94 78.9769 172L79.9369 173.1C80.8369 172.26 81.6369 171.9 82.6969 171.9C84.0369 171.9 84.9169 172.68 84.9169 173.94C84.9169 175.5 83.8169 176.3 82.4969 176.3H81.8169L81.5969 177.72H82.5969C84.2169 177.72 85.2569 178.28 85.2569 180.12C85.2569 181.7 84.2369 182.74 82.5569 182.74C81.4769 182.74 80.5569 182.34 79.7169 181.4L78.5969 182.44C79.6169 183.66 81.0169 184.24 82.6169 184.24C85.3969 184.24 87.1769 182.48 87.1769 180.14C87.1769 178.12 85.8369 177.06 84.1569 176.9C85.6569 176.54 86.7569 175.52 86.7569 173.82C86.7569 172.02 85.3569 170.42 82.7969 170.42Z" fill="#222324"/>
<circle cx="18" cy="119" r="9" fill="#EA001B"/>
<circle cx="18" cy="177" r="9" fill="#EA001B"/>
<path d="M19.584 123V114.888H17.892L15.156 116.544L15.984 117.804L17.724 116.736V123H19.584Z" fill="white"/>
<path d="M17.856 172.72C16.644 172.72 15.72 173.272 15.072 174.124L16.2 175.012C16.668 174.436 17.076 174.172 17.664 174.172C18.3 174.172 18.708 174.568 18.708 175.228C18.708 176.236 18.072 176.968 15.348 179.656V181H20.628L20.82 179.548H17.496C20.028 177.244 20.652 176.296 20.652 175.036C20.652 173.776 19.668 172.72 17.856 172.72Z" fill="white"/>
<g clip-path="url(#clip0)">
<path d="M253.013 190.362V187.212C253.013 186.004 252.285 185.216 251.038 185.216C250.415 185.216 249.74 185.426 249.272 186.109C248.909 185.531 248.389 185.216 247.61 185.216C247.09 185.216 246.571 185.374 246.155 185.951V185.321H245.064V190.362H246.155V187.579C246.155 186.687 246.623 186.266 247.35 186.266C248.077 186.266 248.441 186.739 248.441 187.579V190.362H249.532V187.579C249.532 186.687 250.051 186.266 250.727 186.266C251.454 186.266 251.818 186.739 251.818 187.579V190.362H253.013ZM269.168 185.321H267.402V183.799H266.311V185.321H265.324V186.319H266.311V188.629C266.311 189.785 266.779 190.467 268.026 190.467C268.493 190.467 269.012 190.31 269.376 190.1L269.065 189.154C268.753 189.364 268.389 189.417 268.13 189.417C267.61 189.417 267.402 189.102 267.402 188.577V186.319H269.168V185.321ZM278.415 185.216C277.792 185.216 277.377 185.531 277.117 185.951V185.321H276.026V190.362H277.117V187.527C277.117 186.687 277.48 186.214 278.156 186.214C278.363 186.214 278.623 186.267 278.831 186.319L279.143 185.269C278.935 185.216 278.623 185.216 278.415 185.216V185.216ZM264.441 185.741C263.922 185.374 263.194 185.216 262.415 185.216C261.169 185.216 260.337 185.846 260.337 186.844C260.337 187.684 260.961 188.157 262.052 188.314L262.571 188.367C263.143 188.472 263.454 188.629 263.454 188.892C263.454 189.259 263.039 189.522 262.311 189.522C261.584 189.522 261.013 189.259 260.649 188.997L260.129 189.837C260.701 190.257 261.48 190.467 262.259 190.467C263.714 190.467 264.545 189.785 264.545 188.839C264.545 187.947 263.87 187.474 262.831 187.317L262.311 187.264C261.844 187.211 261.48 187.107 261.48 186.792C261.48 186.424 261.844 186.214 262.415 186.214C263.039 186.214 263.662 186.476 263.974 186.634L264.441 185.741ZM293.429 185.216C292.805 185.216 292.39 185.531 292.13 185.951V185.321H291.039V190.362H292.13V187.527C292.13 186.687 292.493 186.214 293.169 186.214C293.377 186.214 293.636 186.267 293.844 186.319L294.156 185.269C293.948 185.216 293.636 185.216 293.429 185.216ZM279.506 187.842C279.506 189.364 280.545 190.467 282.156 190.467C282.883 190.467 283.402 190.31 283.922 189.89L283.402 188.997C282.987 189.312 282.571 189.469 282.104 189.469C281.221 189.469 280.597 188.839 280.597 187.842C280.597 186.897 281.221 186.266 282.104 186.214C282.571 186.214 282.987 186.371 283.402 186.687L283.922 185.794C283.402 185.374 282.883 185.216 282.156 185.216C280.545 185.216 279.506 186.319 279.506 187.842ZM289.584 187.842V185.321H288.493V185.951C288.13 185.479 287.61 185.216 286.935 185.216C285.532 185.216 284.441 186.319 284.441 187.842C284.441 189.364 285.532 190.467 286.935 190.467C287.662 190.467 288.182 190.205 288.493 189.732V190.362H289.584V187.842ZM285.584 187.842C285.584 186.949 286.156 186.214 287.091 186.214C287.974 186.214 288.597 186.897 288.597 187.842C288.597 188.734 287.974 189.469 287.091 189.469C286.156 189.417 285.584 188.734 285.584 187.842ZM272.545 185.216C271.091 185.216 270.052 186.266 270.052 187.842C270.052 189.417 271.09 190.467 272.597 190.467C273.324 190.467 274.052 190.257 274.623 189.785L274.104 188.997C273.688 189.312 273.169 189.522 272.649 189.522C271.974 189.522 271.298 189.207 271.142 188.314H274.831V187.894C274.883 186.266 273.948 185.216 272.545 185.216H272.545ZM272.545 186.161C273.22 186.161 273.688 186.582 273.792 187.369H271.195C271.298 186.687 271.766 186.161 272.545 186.161ZM299.61 187.842V183.326H298.519V185.951C298.156 185.479 297.636 185.216 296.961 185.216C295.558 185.216 294.467 186.319 294.467 187.842C294.467 189.364 295.558 190.467 296.961 190.467C297.688 190.467 298.208 190.205 298.519 189.732V190.362H299.61V187.842ZM295.61 187.842C295.61 186.949 296.182 186.214 297.117 186.214C298 186.214 298.623 186.897 298.623 187.842C298.623 188.734 298 189.469 297.117 189.469C296.182 189.417 295.61 188.734 295.61 187.842ZM259.142 187.842V185.321H258.052V185.951C257.688 185.479 257.168 185.216 256.493 185.216C255.09 185.216 254 186.319 254 187.842C254 189.364 255.09 190.467 256.493 190.467C257.22 190.467 257.74 190.205 258.052 189.732V190.362H259.142V187.842ZM255.09 187.842C255.09 186.949 255.662 186.214 256.597 186.214C257.48 186.214 258.104 186.897 258.104 187.842C258.104 188.734 257.48 189.469 256.597 189.469C255.662 189.417 255.09 188.734 255.09 187.842Z" fill="black"/>
<path d="M264.078 147.043H280.442V176.762H264.078V147.043Z" fill="#FF5F00"/>
<path d="M265.117 161.903C265.117 155.865 267.922 150.509 272.234 147.043C269.065 144.523 265.065 143 260.702 143C250.364 143 242 151.454 242 161.903C242 172.352 250.364 180.806 260.701 180.806C265.065 180.806 269.065 179.283 272.234 176.762C267.922 173.349 265.117 167.941 265.117 161.903Z" fill="#EB001B"/>
<path d="M302.519 161.903C302.519 172.352 294.155 180.806 283.818 180.806C279.454 180.806 275.454 179.283 272.285 176.762C276.649 173.297 279.402 167.941 279.402 161.903C279.402 155.865 276.597 150.509 272.285 147.043C275.454 144.523 279.454 143 283.818 143C294.155 143 302.519 151.506 302.519 161.903H302.519Z" fill="#F79E1B"/>
</g>
<defs>
<filter id="filter0_d" x="0" y="0" width="343" height="236" filterUnits="userSpaceOnUse" color-interpolation-filters="sRGB">
<feFlood flood-opacity="0" result="BackgroundImageFix"/>
<feColorMatrix in="SourceAlpha" type="matrix" values="0 0 0 0 0 0 0 0 0 0 0 0 0 0 0 0 0 0 127 0"/>
<feOffset dx="4" dy="4"/>
<feGaussianBlur stdDeviation="10"/>
<feColorMatrix type="matrix" values="0 0 0 0 0 0 0 0 0 0 0 0 0 0 0 0 0 0 0.06 0"/>
<feBlend mode="normal" in2="BackgroundImageFix" result="effect1_dropShadow"/>
<feBlend mode="normal" in="SourceGraphic" in2="effect1_dropShadow" result="shape"/>
</filter>
<clipPath id="clip0">
<rect width="60.58" height="47.5986" fill="white" transform="translate(242 143)"/>
</clipPath>
</defs>
</svg>
