<svg width="343" height="236" viewBox="0 0 343 236" fill="none" xmlns="http://www.w3.org/2000/svg">
<g filter="url(#filter0_d)">
<rect x="16" y="16" width="303" height="196" rx="12" fill="white"/>
</g>
<path d="M223.41 99.99C221.85 99.99 220.55 101.22 220.55 103.55C220.55 105.87 221.76 107.12 223.43 107.12C224.36 107.12 225.03 106.74 225.4 106.35L224.92 105.74C224.53 106.03 224.11 106.32 223.46 106.32C222.39 106.32 221.56 105.54 221.56 103.55C221.56 101.47 222.43 100.77 223.47 100.77C223.95 100.77 224.37 100.93 224.8 101.28L225.32 100.67C224.77 100.23 224.28 99.99 223.41 99.99ZM228.993 107L231.193 100.11H230.233L228.503 105.97L226.773 100.11H225.753L227.973 107H228.993ZM234.514 99.99C232.954 99.99 231.654 101.22 231.654 103.55C231.654 105.87 232.864 107.12 234.534 107.12C235.464 107.12 236.134 106.74 236.504 106.35L236.024 105.74C235.634 106.03 235.214 106.32 234.564 106.32C233.494 106.32 232.664 105.54 232.664 103.55C232.664 101.47 233.534 100.77 234.574 100.77C235.054 100.77 235.474 100.93 235.904 101.28L236.424 100.67C235.874 100.23 235.384 99.99 234.514 99.99Z" fill="#636467"/>
<rect x="16" y="40" width="303" height="45" fill="#222324"/>
<rect x="27" y="111" width="221" height="27" rx="4" fill="#EAEAEA"/>
<rect x="256" y="111" width="54" height="27" rx="4" fill="#EAEAEA"/>
<path d="M219.464 119.136C217.064 119.136 215.88 121.104 215.88 124.656C215.88 128.208 217.064 130.192 219.464 130.192C221.864 130.192 223.048 128.208 223.048 124.656C223.048 121.12 221.864 119.136 219.464 119.136ZM219.464 120.304C220.792 120.304 221.512 121.52 221.512 124.656C221.512 127.808 220.792 129.024 219.464 129.024C218.12 129.024 217.416 127.808 217.416 124.656C217.416 121.52 218.12 120.304 219.464 120.304ZM228.386 119.136C225.986 119.136 224.802 121.104 224.802 124.656C224.802 128.208 225.986 130.192 228.386 130.192C230.786 130.192 231.97 128.208 231.97 124.656C231.97 121.12 230.786 119.136 228.386 119.136ZM228.386 120.304C229.714 120.304 230.434 121.52 230.434 124.656C230.434 127.808 229.714 129.024 228.386 129.024C227.042 129.024 226.338 127.808 226.338 124.656C226.338 121.52 227.042 120.304 228.386 120.304ZM237.308 119.136C234.908 119.136 233.724 121.104 233.724 124.656C233.724 128.208 234.908 130.192 237.308 130.192C239.708 130.192 240.892 128.208 240.892 124.656C240.892 121.12 239.708 119.136 237.308 119.136ZM237.308 120.304C238.636 120.304 239.356 121.52 239.356 124.656C239.356 127.808 238.636 129.024 237.308 129.024C235.964 129.024 235.26 127.808 235.26 124.656C235.26 121.52 235.964 120.304 237.308 120.304Z" fill="#636467"/>
<circle cx="209" cy="125" r="9" fill="#EA001B"/>
<path d="M208.868 120.72C207.788 120.72 206.888 121.092 206.132 121.812L207.068 122.832C207.548 122.364 208.052 122.124 208.652 122.124C209.312 122.124 209.732 122.472 209.732 123.06C209.732 123.732 209.288 124.116 208.568 124.116H208.1L207.896 125.424H208.568C209.42 125.424 209.888 125.736 209.888 126.588C209.888 127.332 209.372 127.764 208.628 127.764C207.992 127.764 207.5 127.524 206.996 126.972L205.952 127.98C206.588 128.748 207.512 129.204 208.736 129.204C210.74 129.204 211.832 128.064 211.832 126.708C211.832 125.424 210.992 124.824 209.984 124.716C210.98 124.428 211.568 123.768 211.568 122.784C211.568 121.644 210.62 120.72 208.868 120.72Z" fill="white"/>
<defs>
<filter id="filter0_d" x="0" y="0" width="343" height="236" filterUnits="userSpaceOnUse" color-interpolation-filters="sRGB">
<feFlood flood-opacity="0" result="BackgroundImageFix"/>
<feColorMatrix in="SourceAlpha" type="matrix" values="0 0 0 0 0 0 0 0 0 0 0 0 0 0 0 0 0 0 127 0"/>
<feOffset dx="4" dy="4"/>
<feGaussianBlur stdDeviation="10"/>
<feColorMatrix type="matrix" values="0 0 0 0 0 0 0 0 0 0 0 0 0 0 0 0 0 0 0.06 0"/>
<feBlend mode="normal" in2="BackgroundImageFix" result="effect1_dropShadow"/>
<feBlend mode="normal" in="SourceGraphic" in2="effect1_dropShadow" result="shape"/>
</filter>
</defs>
</svg>
