<?xml version="1.0" encoding="UTF-8"?>
<!DOCTYPE svg PUBLIC "-//W3C//DTD SVG 1.1//EN" "http://www.w3.org/Graphics/SVG/1.1/DTD/svg11.dtd">
<!-- Creator: CorelDRAW X6 -->
<svg xmlns="http://www.w3.org/2000/svg" xml:space="preserve" width="300px" height="212px" version="1.1" style="shape-rendering:geometricPrecision; text-rendering:geometricPrecision; image-rendering:optimizeQuality; fill-rule:evenodd; clip-rule:evenodd"
viewBox="0 0 2675 1887"
 xmlns:xlink="http://www.w3.org/1999/xlink">
 <defs>
  <style type="text/css">
   <![CDATA[
    .fil5 {fill:#4A5457}
    .fil3 {fill:#9D9E9E}
    .fil1 {fill:#EBECEC}
    .fil0 {fill:#FEFEFE}
    .fil4 {fill:#0F6A47}
    .fil2 {fill:#EC842F}
   ]]>
  </style>
 </defs>
 <g id="Слой_x0020_1">
  <metadata id="CorelCorpID_0Corel-Layer"/>
  <path class="fil0" d="M420 1630c0,70 -52,126 -115,126 -64,0 -115,-56 -115,-126 0,-70 51,-127 115,-127 63,0 115,57 115,127z"/>
  <path class="fil0" d="M2213 1622c0,72 -52,130 -117,130 -64,0 -117,-58 -117,-130 0,-72 53,-130 117,-130 65,0 117,58 117,130z"/>
  <polygon class="fil1" points="1952,574 1952,1052 2353,1025 2357,971 2248,617 "/>
  <polygon class="fil2" points="2614,1460 2403,1460 2403,1335 2614,1335 "/>
  <path class="fil2" d="M1669 289l-1600 0c-34,0 -62,27 -62,62l0 913c0,34 28,62 62,62l1600 0c35,0 62,-28 62,-62l0 -913c0,-35 -27,-62 -62,-62z"/>
  <path class="fil3" d="M2134 1684c-14,13 -32,21 -53,21 -20,0 -38,-8 -52,-21 -16,-14 -25,-34 -25,-57 0,-5 0,-10 1,-14 7,-36 38,-64 76,-64 38,0 70,28 77,64 1,4 1,9 1,14 0,23 -10,43 -25,57zm-53 -317c-144,0 -260,116 -260,260 0,144 116,260 260,260 144,0 261,-116 261,-260 0,-144 -117,-260 -261,-260z"/>
  <path class="fil3" d="M366 1684c-14,13 -33,21 -53,21 -20,0 -39,-8 -52,-21 -16,-14 -26,-34 -26,-57 0,-5 1,-10 2,-14 2,-11 6,-22 12,-30 14,-21 38,-34 64,-34 27,0 50,13 64,34 6,8 10,19 12,30 1,4 2,9 2,14 0,23 -10,43 -25,57zm-52 -317l-2 0c-128,0 -234,93 -256,216 -2,14 -3,29 -3,44 0,144 116,260 260,260 144,0 260,-116 260,-260 0,-15 -1,-30 -3,-44 -21,-123 -128,-216 -256,-216z"/>
  <path class="fil4" d="M220 1367l-220 0 0 216 40 0c0,-1 0,-2 1,-3 17,-101 87,-181 179,-213z"/>
  <path class="fil4" d="M2608 1456c-67,2 -136,2 -203,1 -1,-40 -1,-80 0,-121 67,-1 135,-1 202,0 2,41 2,81 1,120zm-622 -475c-1,-116 -3,-232 1,-347 78,0 156,-1 233,2 31,115 68,228 99,344 -112,2 -222,1 -333,1zm635 466c-1,-118 2,-236 -3,-355 -37,-17 -76,-35 -114,-53 -27,-12 -53,-25 -80,-38 -3,-1 -6,-3 -10,-4 -54,-29 -52,-102 -72,-154 -22,-87 -57,-172 -78,-259 -14,-56 -22,-112 -17,-170 -156,-3 -310,-1 -464,0 -1,0 -1,0 -2,0l0 0 -1 -1 0 192 1 0c0,254 -3,508 0,762l-1374 0c91,32 161,112 179,213 0,1 0,2 0,3l1198 0c39,-121 133,-238 270,-246 150,-22 290,94 322,238 100,1 199,1 298,1 0,-41 1,-84 1,-125 -18,-1 -36,-3 -54,-4z"/>
  <path class="fil3" d="M1556 640c0,353 -286,640 -640,640 -353,0 -640,-287 -640,-640 0,-353 287,-640 640,-640 354,0 640,287 640,640z"/>
  <path class="fil0" d="M412 640c0,279 225,504 504,504l0 -1008c-279,0 -504,225 -504,504z"/>
  <path class="fil1" d="M916 136l0 1008c279,0 504,-225 504,-504 0,-279 -225,-504 -504,-504z"/>
  <path class="fil5" d="M997 640c0,45 -36,81 -81,81 -45,0 -81,-36 -81,-81 0,-45 36,-81 81,-81 45,0 81,36 81,81z"/>
  <path class="fil5" d="M947 523c0,11 -14,20 -30,20 -16,0 -30,-9 -30,-20l0 -297c0,-11 13,-19 30,-19 16,0 30,8 30,19l0 297z"/>
  <path class="fil5" d="M655 825c-17,8 -38,0 -47,-17 -8,-18 -2,-39 15,-48l164 -81c17,-8 37,0 46,17 9,18 3,39 -14,48l-164 81z"/>
 </g>
</svg>
