<svg width="72" height="47" viewBox="0 0 72 47" fill="none" xmlns="http://www.w3.org/2000/svg">
<path d="M10.2453 22.5871V39.2738C10.2453 40.1227 10.9492 40.8266 11.798 40.8266H16.9945C17.8434 44.0563 20.7625 46.4371 24.2406 46.4371C27.7188 46.4371 30.6586 44.0563 31.4867 40.8266H51.5066C52.3555 44.0563 55.2746 46.4371 58.7527 46.4371C62.2309 46.4371 65.1707 44.0563 65.9988 40.8266H69.8496C70.6984 40.8266 71.4023 40.1227 71.4023 39.2738V24.6367C71.4023 24.3055 71.2988 23.9949 71.1125 23.7465L65.7297 16.1484C65.4398 15.7344 64.9637 15.4859 64.4668 15.4859H53.2457V10.6C53.2457 9.75117 52.5418 9.04727 51.693 9.04727H23.0813C22.0047 3.89219 17.4293 0 11.9637 0C5.69062 0 0.597656 5.09297 0.597656 11.366C0.597656 17.0387 4.80039 21.759 10.2453 22.5871ZM24.2406 43.3317C21.8184 43.3317 19.8516 41.3649 19.8516 38.9426C19.8516 36.5203 21.8184 34.5535 24.2406 34.5535C26.6629 34.5535 28.6297 36.5203 28.6297 38.9426C28.6297 41.3649 26.6422 43.3317 24.2406 43.3317ZM58.7527 43.3317C56.3305 43.3317 54.3637 41.3649 54.3637 38.9426C54.3637 36.5203 56.3305 34.5535 58.7527 34.5535C61.175 34.5535 63.1418 36.5203 63.1418 38.9426C63.1418 41.3649 61.175 43.3317 58.7527 43.3317ZM68.2969 25.1543V25.4027H59.85V18.6121H63.6594L68.2969 25.1543ZM56.7445 18.6121V26.9555C56.7445 27.8043 57.4484 28.5082 58.2973 28.5082H68.2969V37.7211H66.1438C65.5641 34.1602 62.4586 31.4481 58.7527 31.4481C56.5789 31.4481 54.6121 32.3797 53.2457 33.8703V18.6121H56.7445ZM50.1402 37.7418H31.6316C31.052 34.1809 27.9465 31.4688 24.2406 31.4688C20.5348 31.4688 17.4293 34.1809 16.8496 37.7418H13.3508V22.6492C18.7129 21.9867 22.9156 17.5977 23.2883 12.1734H50.1402V37.7418ZM11.9637 3.12617C16.5184 3.12617 20.2242 6.83203 20.2242 11.3867C20.2242 15.9414 16.5184 19.6473 11.9637 19.6473C7.40898 19.6473 3.70312 15.9414 3.70312 11.3867C3.70312 6.83203 7.40898 3.12617 11.9637 3.12617Z" fill="#F78222"/>
<path d="M9.89336 14.9062C10.1832 15.1961 10.5766 15.3617 10.9906 15.3617C11.4047 15.3617 11.798 15.1961 12.0879 14.9062L16.9531 10.041C17.5535 9.44061 17.5535 8.44686 16.9531 7.84647C16.3527 7.24608 15.359 7.24608 14.7586 7.84647L10.9906 11.6144L9.16875 9.79257C8.56836 9.19218 7.57461 9.19218 6.97422 9.79257C6.37383 10.393 6.37383 11.3867 6.97422 11.9871L9.89336 14.9062Z" fill="#F78222"/>
</svg>
