<svg width="51" height="47" viewBox="0 0 51 47" fill="none" xmlns="http://www.w3.org/2000/svg">
<path d="M49.3304 18.3333H47.6637V8.33333C47.6637 7.89131 47.4881 7.46738 47.1756 7.15482C46.863 6.84226 46.4391 6.66667 45.9971 6.66667H5.99706C5.60241 6.6731 5.21828 6.53927 4.91307 6.289C4.60786 6.03873 4.40138 5.68826 4.33039 5.3V4.7C4.40138 4.31174 4.60786 3.96127 4.91307 3.711C5.21828 3.46073 5.60241 3.3269 5.99706 3.33333H45.2971C45.7391 3.33333 46.163 3.15774 46.4756 2.84518C46.7881 2.53262 46.9637 2.10869 46.9637 1.66667C46.9637 1.22464 46.7881 0.800716 46.4756 0.488156C46.163 0.175595 45.7391 0 45.2971 0H5.99706C4.67097 0 3.3992 0.526784 2.46152 1.46447C1.52384 2.40215 0.997055 3.67392 0.997055 5C0.985357 5.19983 0.985357 5.40017 0.997055 5.6V39.8833C1.0036 40.7807 1.18683 41.668 1.5363 42.4946C1.88576 43.3211 2.39461 44.0707 3.03379 44.7006C3.67298 45.3305 4.42997 45.8284 5.26155 46.1657C6.09313 46.503 6.98302 46.6733 7.88039 46.6667H45.9971C46.4391 46.6667 46.863 46.4911 47.1756 46.1785C47.4881 45.866 47.6637 45.442 47.6637 45V35H49.3304C49.7724 35 50.1963 34.8244 50.5089 34.5118C50.8215 34.1993 50.9971 33.7754 50.9971 33.3333V20C50.9971 19.558 50.8215 19.134 50.5089 18.8215C50.1963 18.5089 49.7724 18.3333 49.3304 18.3333ZM44.3304 43.3333H7.88039C6.95339 43.3423 6.06035 42.9848 5.39554 42.3388C4.73073 41.6927 4.34792 40.8102 4.33039 39.8833V9.8C4.87139 9.95678 5.43432 10.0243 5.99706 10H44.3304V18.3333H32.6637C30.4536 18.3333 28.334 19.2113 26.7712 20.7741C25.2084 22.3369 24.3304 24.4565 24.3304 26.6667C24.3304 28.8768 25.2084 30.9964 26.7712 32.5592C28.334 34.122 30.4536 35 32.6637 35H44.3304V43.3333ZM47.6637 31.6667H32.6637C31.3376 31.6667 30.0659 31.1399 29.1282 30.2022C28.1905 29.2645 27.6637 27.9927 27.6637 26.6667C27.6637 25.3406 28.1905 24.0688 29.1282 23.1311C30.0659 22.1934 31.3376 21.6667 32.6637 21.6667H47.6637V31.6667Z" fill="#F78222"/>
<path d="M34.3516 29.1667C35.7323 29.1667 36.8516 28.0475 36.8516 26.6667C36.8516 25.286 35.7323 24.1667 34.3516 24.1667C32.9709 24.1667 31.8516 25.286 31.8516 26.6667C31.8516 28.0475 32.9709 29.1667 34.3516 29.1667Z" fill="#F78222"/>
</svg>
