<svg width="52" height="45" viewBox="0 0 52 45" fill="none" xmlns="http://www.w3.org/2000/svg">
<path d="M44.7538 17H33.5V5.79875C33.5 3.70063 31.7994 2 29.7013 2C28.5481 2 27.455 2.525 26.735 3.425L12.875 20.75H12.8769H12.875V39.5L18.5 43.25H41.8869C43.5594 43.25 45.0294 42.14 45.4887 40.5294L50.1575 24.17C51.1813 20.5775 48.4869 17 44.7538 17Z" stroke="#F78222" stroke-width="3" stroke-miterlimit="10" stroke-linecap="round" stroke-linejoin="round"/>
<path d="M12.875 17H1.625V43.25H12.875V17Z" stroke="#F78222" stroke-width="3" stroke-miterlimit="10" stroke-linecap="round" stroke-linejoin="round"/>
<path d="M7.25 37.625C8.28553 37.625 9.125 36.7855 9.125 35.75C9.125 34.7145 8.28553 33.875 7.25 33.875C6.21447 33.875 5.375 34.7145 5.375 35.75C5.375 36.7855 6.21447 37.625 7.25 37.625Z" fill="#F78222"/>
</svg>
