<svg width="15" height="15" viewBox="0 0 15 15" fill="none" xmlns="http://www.w3.org/2000/svg">
<circle cx="7.5" cy="7.5" r="7.5" fill="#EB5757"/>
<path d="M4.86305 11C4.91031 10.9853 4.93815 10.9473 4.97002 10.9154C5.77336 10.114 6.57779 9.31372 7.37674 8.50793C7.47198 8.41169 7.52216 8.41754 7.61374 8.50976C8.40683 9.3086 9.2043 10.1027 10.001 10.8982C10.1318 11.0289 10.1322 11.0289 10.2666 10.8946C10.4868 10.6746 10.7029 10.4507 10.9286 10.2366C11.0191 10.1506 11.0077 10.0987 10.9249 10.0163C10.1194 9.21675 9.31933 8.41242 8.51269 7.61394C8.42038 7.52246 8.41489 7.4705 8.50976 7.37609C9.3098 6.5842 10.1047 5.78719 10.9007 4.99164C11.033 4.85954 11.033 4.85917 10.9004 4.72634C10.6806 4.50641 10.4564 4.29014 10.2421 4.06509C10.1586 3.97763 10.1069 3.9791 10.0216 4.06473C9.22812 4.8632 8.43064 5.65765 7.63426 6.45283C7.49469 6.59225 7.49432 6.59188 7.35183 6.4499C6.56204 5.66094 5.77042 4.87345 4.9843 4.08083C4.88906 3.98495 4.83191 3.97178 4.73374 4.07717C4.52164 4.30441 4.30112 4.52471 4.07327 4.73659C3.9663 4.83612 3.98535 4.89357 4.07949 4.98689C4.87917 5.77914 5.67262 6.57761 6.47266 7.3695C6.5701 7.46574 6.57596 7.51587 6.47412 7.61651C5.67005 8.41059 4.87441 9.21309 4.07143 10.0086C3.97729 10.1019 3.97509 10.1579 4.07143 10.2491C4.30405 10.469 4.5264 10.6999 4.75352 10.9257C4.78539 10.9564 4.81177 10.9974 4.86305 11Z" fill="white"/>
</svg>
