<?xml version="1.0" encoding="iso-8859-1"?>
<!-- Generator: Adobe Illustrator 18.0.0, SVG Export Plug-In . SVG Version: 6.00 Build 0)  -->
<!DOCTYPE svg PUBLIC "-//W3C//DTD SVG 1.1//EN" "http://www.w3.org/Graphics/SVG/1.1/DTD/svg11.dtd">
<svg xmlns="http://www.w3.org/2000/svg" xmlns:xlink="http://www.w3.org/1999/xlink" version="1.1" id="Capa_1" x="0px" y="0px" viewBox="0 0 487.542 487.542" style="enable-background:new 0 0 487.542 487.542;" xml:space="preserve" width="512px" height="512px">
<g>
	<path d="M462.339,190.535h-85.18V67.444c0-13.896-11.306-25.202-25.202-25.202H25.204C11.307,42.242,0,53.548,0,67.444v204.359   c0,13.897,11.307,25.203,25.204,25.203h85.178v123.09c0,13.897,11.307,25.203,25.204,25.203h326.753   c13.897,0,25.203-11.306,25.203-25.203V215.737C487.542,201.841,476.236,190.535,462.339,190.535z M21,106.335h335.159v31.072H21   V106.335z M25.204,63.242h326.753c2.317,0,4.202,1.885,4.202,4.202v17.891H21V67.444C21,65.127,22.886,63.242,25.204,63.242z    M25.204,276.007c-2.318,0-4.204-1.886-4.204-4.203V158.407h335.159v32.128H135.586c-13.897,0-25.204,11.306-25.204,25.203v60.269   H25.204z M466.542,420.097c0,2.317-1.886,4.203-4.203,4.203H135.586c-2.318,0-4.204-1.886-4.204-4.203V215.738   c0-2.317,1.886-4.203,4.204-4.203h326.753c2.317,0,4.203,1.885,4.203,4.202V420.097z" fill="#91DC5A"/>
	<path d="M405.99,331.552c-7.215,0-14.101,1.966-20.07,5.649c-5.971-3.684-12.855-5.649-20.071-5.649   c-21.16,0-38.375,17.216-38.375,38.376c0,21.16,17.215,38.376,38.375,38.376c7.216,0,14.1-1.966,20.071-5.649   c5.971,3.684,12.855,5.649,20.07,5.649c21.16,0,38.376-17.216,38.376-38.376C444.366,348.768,427.15,331.552,405.99,331.552z    M405.99,387.304c-4.757,0-9.199-1.892-12.509-5.327c-1.979-2.055-4.709-3.215-7.562-3.215c-2.852,0-5.582,1.16-7.561,3.215   c-3.31,3.436-7.752,5.327-12.51,5.327c-9.581,0-17.375-7.795-17.375-17.376c0-9.581,7.794-17.376,17.375-17.376   c4.758,0,9.201,1.892,12.51,5.326c1.979,2.055,4.709,3.215,7.561,3.215c2.853,0,5.582-1.16,7.562-3.215   c3.309-3.435,7.751-5.326,12.509-5.326c9.581,0,17.376,7.795,17.376,17.376C423.366,379.509,415.571,387.304,405.99,387.304z" fill="#91DC5A"/>
	<path d="M301.216,260.805h-128.78c-5.799,0-10.5,4.701-10.5,10.5s4.701,10.5,10.5,10.5h128.78c5.799,0,10.5-4.701,10.5-10.5   S307.015,260.805,301.216,260.805z" fill="#91DC5A"/>
	<path d="M344.699,281.805h40.14c5.799,0,10.5-4.701,10.5-10.5s-4.701-10.5-10.5-10.5h-40.14c-5.799,0-10.5,4.701-10.5,10.5   S338.9,281.805,344.699,281.805z" fill="#91DC5A"/>
</g>
<g>
</g>
<g>
</g>
<g>
</g>
<g>
</g>
<g>
</g>
<g>
</g>
<g>
</g>
<g>
</g>
<g>
</g>
<g>
</g>
<g>
</g>
<g>
</g>
<g>
</g>
<g>
</g>
<g>
</g>
</svg>
