<svg width="37" height="30" viewBox="0 0 37 30" fill="none" xmlns="http://www.w3.org/2000/svg">
<path d="M23.6036 12.7827C23.6036 9.98625 23.6785 7.18595 23.5793 4.39329C23.5082 2.36957 25.0485 0.292298 27.3225 0.167968C29.327 0.0589394 31.1687 1.99467 31.2286 4.24601C31.2735 5.94264 31.2585 7.64119 31.2267 9.33782C31.2155 9.9633 31.4176 10.1871 32.0334 10.1661C33.132 10.1278 34.2325 10.1852 35.3311 10.1469C35.9619 10.124 36.0592 10.4377 36.0573 10.9771C36.0554 11.5127 35.9637 11.8263 35.3349 11.8225C32.2935 11.8015 29.254 11.813 26.2127 11.813C25.2282 11.813 25.2263 11.813 25.2263 12.7827C25.2263 15.7475 25.2376 18.7104 25.217 21.6752C25.2132 22.2166 25.363 22.4882 25.9038 22.6278C26.4635 22.7732 27.0044 23.0295 27.5265 23.2915C29.1698 24.1121 30.8168 24.137 32.4507 23.3087C33.3397 22.8573 34.2493 22.5016 35.2394 22.3983C35.5688 22.3638 35.96 22.2586 36.0423 22.8133C36.1659 23.6377 36.0405 23.9648 35.4453 24.0547C34.648 24.1752 33.9068 24.443 33.1881 24.8026C31.077 25.8623 28.934 25.9101 26.8453 24.8103C24.9138 23.7946 23.0646 23.8405 21.1481 24.8332C19.1249 25.8795 17.0231 25.9082 14.9999 24.8638C12.9785 23.8214 11.0676 23.8195 9.0444 24.8925C7.10542 25.9216 5.06162 25.8298 3.08146 24.9117C2.28977 24.5444 1.52428 24.1465 0.639014 24.0796C-0.246257 24.0146 0.0457138 23.3221 0.0475854 22.8344C0.0513286 22.2242 0.537947 22.3657 0.884194 22.404C1.72642 22.4996 2.53121 22.7426 3.28547 23.1519C5.11216 24.1446 6.94446 24.1848 8.78051 23.171C9.44493 22.8038 10.1505 22.5532 10.8992 22.4499C11.3727 22.3849 11.5748 22.1649 11.5729 21.6523C11.558 18.5918 11.558 15.5333 11.5767 12.4729C11.5804 11.8321 11.2286 11.8091 10.7625 11.8091C7.46477 11.8168 4.16699 11.8015 0.869221 11.8225C0.244104 11.8263 0.000795226 11.6389 0.00828166 10.9656C0.0138965 10.3363 0.214159 10.1393 0.824303 10.1431C4.09587 10.1661 7.37119 10.1546 10.6465 10.1546C11.5655 10.1546 11.5692 10.1508 11.5692 9.18862C11.5711 7.56276 11.5449 5.9369 11.5748 4.31296C11.6104 2.37722 12.8101 0.781969 14.5207 0.311426C16.7124 -0.291099 19.1399 1.55282 19.1904 3.89597C19.2297 5.7112 19.2222 7.53025 19.1904 9.34547C19.1792 9.96904 19.357 10.2158 19.9858 10.1622C20.5436 10.1144 21.1088 10.1699 21.6684 10.1488C22.213 10.1297 22.6079 10.1622 22.5948 10.9254C22.5836 11.6179 22.3571 11.8359 21.6946 11.8244C19.6134 11.7919 17.5321 11.811 15.449 11.811C14.9344 11.811 14.4197 11.8302 13.905 11.8053C13.4015 11.7824 13.2649 12.0329 13.263 12.5035C13.2611 12.9893 13.4296 13.1882 13.9199 13.1844C16.4934 13.171 19.065 13.1768 21.6385 13.1806C22.5518 13.1825 22.5761 13.2418 22.578 14.1485C22.5799 14.6917 22.359 14.8447 21.863 14.8409C19.6882 14.8256 17.5134 14.8351 15.3368 14.8371C14.8688 14.8371 14.4009 14.8562 13.933 14.8313C13.4558 14.8045 13.2611 14.992 13.2611 15.4931C13.2593 16.0077 13.4315 16.2238 13.9555 16.22C16.529 16.2047 19.1006 16.2123 21.674 16.2181C22.5443 16.22 22.5462 16.2697 22.5817 17.1553C22.6079 17.8172 22.316 17.9664 21.7433 17.9625C19.1698 17.9453 16.5982 17.9568 14.0248 17.9549C13.6224 17.9549 13.2855 17.9721 13.2649 18.5364C13.2443 19.1006 13.3903 19.3512 14.006 19.3436C16.5795 19.3149 19.1511 19.3493 21.7245 19.3244C22.3403 19.3187 22.6042 19.4794 22.5892 20.1641C22.5761 20.7801 22.3965 21.0077 21.7788 21C19.2522 20.9752 16.7274 20.9828 14.2007 20.9981C13.8488 21 13.3416 20.7992 13.2817 21.4534C13.2331 21.9966 13.2181 22.4557 13.9461 22.624C14.5975 22.7751 15.2076 23.1213 15.8234 23.4063C17.272 24.0777 18.7281 24.0624 20.173 23.4446C21.1406 23.0295 22.0577 22.4805 23.1376 22.3983C23.6542 22.3581 23.6018 21.9641 23.6018 21.6026C23.6018 18.6645 23.6018 15.7227 23.6036 12.7827ZM17.5808 6.7594H17.5752C17.5752 5.82979 17.5752 4.89827 17.5752 3.96866C17.5752 3.92084 17.5733 3.87302 17.5696 3.8252C17.4741 2.64119 16.6169 1.88373 15.3835 1.89521C14.2044 1.90477 13.3154 2.68327 13.2911 3.83859C13.2518 5.74563 13.2799 7.65458 13.2705 9.56353C13.2686 9.98625 13.4389 10.1641 13.8582 10.1584C14.8857 10.1431 15.9132 10.1374 16.9388 10.1622C17.4329 10.1737 17.5977 9.96139 17.5864 9.47937C17.5658 8.57271 17.5808 7.66605 17.5808 6.7594ZM29.5254 6.69819H29.5217C29.5217 5.76667 29.5497 4.83514 29.5142 3.90553C29.4674 2.66988 28.6476 1.90477 27.418 1.89329C26.149 1.88182 25.2656 2.65075 25.2394 3.89597C25.2001 5.78006 25.2319 7.66605 25.2207 9.55205C25.2188 9.96904 25.3611 10.1603 25.7934 10.1527C26.8434 10.1354 27.8952 10.1354 28.9471 10.1527C29.3682 10.1584 29.5366 9.98625 29.531 9.5597C29.5161 8.60714 29.5254 7.65267 29.5254 6.69819Z" fill="#006A44"/>
<path d="M29.8755 29.4335C28.9116 29.3532 27.8673 29.2136 26.9258 28.678C25.0093 27.5877 23.1078 27.6317 21.1669 28.6378C19.0913 29.7128 16.9745 29.7109 14.8989 28.6359C12.9824 27.6432 11.1201 27.6221 9.1961 28.6378C7.18038 29.7032 5.10102 29.6784 3.04413 28.7201C2.21313 28.3318 1.40085 27.9435 0.46505 27.8555C-0.238674 27.7905 0.0907286 27.1631 0.036452 26.769C-0.0178246 26.3731 0.20864 26.2239 0.586705 26.2277C1.49631 26.2354 2.35537 26.4745 3.14145 26.9087C5.11787 27.997 7.04375 27.9301 9.03514 26.901C11.0658 25.8528 13.1695 25.9274 15.1834 26.9527C17.1167 27.9358 18.9622 27.9244 20.888 26.9469C22.958 25.8949 25.0898 25.8872 27.1654 26.9603C29.0595 27.9397 30.918 27.9703 32.8046 26.9622C33.6187 26.528 34.489 26.2621 35.4192 26.2239C35.8665 26.2048 36.0892 26.3865 36.0387 26.8475C35.9938 27.2491 36.2614 27.8325 35.5296 27.8765C34.7173 27.9263 33.9837 28.2208 33.2762 28.6091C32.2431 29.1734 31.122 29.3742 29.8755 29.4335Z" fill="#006A44"/>
</svg>
