<svg width="50" height="45" viewBox="0 0 50 45" xmlns="http://www.w3.org/2000/svg">
<g clip-path="url(#clip0)">
<path d="M33.9633 33.4484L36.8247 31.3624H27.2461V43.8865H36.8247V41.8005H29.977V38.595H35.8138V36.509H29.977V33.4484H33.9633Z"/>
<path d="M19.5333 41.8005H16.6883V38.3292H19.5333C21.2697 38.3292 22.0768 38.9091 22.0768 40.0608C22.0768 41.2448 21.2208 41.8005 19.5333 41.8005ZM20.0143 36.2432H16.6883V33.4484H21.9952L24.8566 31.3624H13.9492V43.8865H19.6556C22.8594 43.8865 24.6936 42.4529 24.6936 39.9481C24.6936 37.5641 23.0306 36.2432 20.0143 36.2432Z"/>
<path d="M44.5274 38.2567H42.0981V33.4484H44.5274C46.2801 33.4484 47.2421 34.3022 47.2421 35.8485C47.2421 37.403 46.2801 38.2567 44.5274 38.2567ZM44.5845 31.3624H39.3672V43.8865H42.0981V40.3347H44.5845C47.9105 40.3347 49.9811 38.6111 49.9811 35.8485C49.9811 33.086 47.9105 31.3624 44.5845 31.3624Z"/>
<path d="M9.25966 41.1723C8.55859 41.5589 7.73524 41.7602 6.89558 41.7602C4.43367 41.7602 2.64023 40.0206 2.64023 37.6285C2.64023 35.2284 4.43367 33.4887 6.89558 33.4887C7.82491 33.4887 8.66457 33.7464 9.38194 34.2619L11.3466 32.8363L11.2161 32.7236C10.0667 31.7249 8.54228 31.2014 6.7896 31.2014C4.89019 31.2014 3.17011 31.8296 1.93916 32.9813C0.708206 34.133 0.0234375 35.76 0.0234375 37.556C0.0234375 39.3601 0.700054 41.0112 1.93101 42.1952C3.17011 43.3872 4.89019 44.0476 6.7733 44.0476C8.74609 44.0476 10.4662 43.371 11.6319 42.1307C10.727 41.4783 9.86291 40.8421 9.86291 40.8421L9.25966 41.1723Z"/>
<path fill-rule="evenodd" clip-rule="evenodd" d="M37.3085 10.43C37.4226 11.1065 37.4797 11.7911 37.4797 12.4999C37.4797 13.1281 37.4389 13.7482 37.3411 14.3603L37.2596 14.8436H37.2514C34.9851 26.2803 19.4719 28.8254 13.6758 18.3552C11.2302 13.9415 11.8824 8.18288 15.3062 4.29277C18.3877 0.942287 22.7001 -0.620199 27.2 0.225476C29.5233 0.660395 31.007 1.47385 32.7841 2.77861L30.3222 4.56661C30.1592 4.46191 29.988 4.35721 29.8249 4.2525C22.8957 0.120773 13.4557 5.8311 15.4203 14.8436V14.8516C17.6051 23.1634 28.7162 24.6615 33.1102 17.5417C33.7297 16.5672 33.958 15.8987 34.2678 14.8436L34.4145 14.159L34.4716 13.8046C34.5286 13.3777 34.5612 12.9348 34.5612 12.4999C34.5612 12.4113 34.5612 12.3227 34.5612 12.2421L37.2025 10.3092L37.2759 10.2608L37.3085 10.43Z"/>
<path d="M34.8516 4.86462C35.4467 5.62171 35.9603 6.45933 36.3679 7.34527L24.8491 15.7295L20.0312 12.7495V9.16549L24.8491 12.1455L34.8516 4.86462Z"/>
</g>
<defs>
<clipPath id="clip0">
<rect width="50" height="44.0476"/>
</clipPath>
</defs>
</svg>
