<svg width="50" height="50" viewBox="0 0 50 50" xmlns="http://www.w3.org/2000/svg">
<g clip-path="url(#clip0)">
<path d="M29.4125 38.8318L24.0331 35.726C23.7894 35.5853 23.4891 35.5853 23.2454 35.726C23.0017 35.8668 22.8516 36.1268 22.8516 36.4082V42.6196C22.8516 42.901 23.0017 43.1611 23.2454 43.3018L28.6248 46.4075C28.7466 46.4779 28.8826 46.513 29.0186 46.513C29.1546 46.513 29.2906 46.4779 29.4125 46.4075C29.6561 46.2668 29.8063 46.0067 29.8063 45.7254V39.5139C29.8063 39.2325 29.6561 38.9725 29.4125 38.8318ZM28.2309 44.3611L24.4269 42.1649V37.7725L28.2309 39.9688V44.3611Z"/>
<path d="M45.9895 14.1002L22.9738 0.81205C21.1408 -0.246268 18.8493 -0.271893 16.9931 0.745045L16.0762 1.24769C15.2974 1.66589 14.8138 2.47351 14.8138 3.35802V14.8761L9.49633 11.8063C7.66347 10.748 5.37176 10.7223 3.51559 11.7393C3.51559 11.7393 2.55557 12.2643 2.53446 12.2765C1.78397 12.7098 1.33594 13.4858 1.33594 14.3524V31.4158C1.33594 32.8617 2.11384 34.2091 3.36603 34.932L28.9016 49.6751C29.2769 49.8917 29.6886 50 30.1002 50C30.4983 50 30.8962 49.8977 31.2614 49.695L33.3149 48.5789C34.4681 47.9416 35.1845 46.727 35.1845 45.4094L35.1847 34.528L42.3789 38.6816C42.7542 38.8979 43.1657 39.006 43.577 39.006C43.9753 39.006 44.3732 38.9037 44.7383 38.7011L46.7923 37.5848C47.9455 36.9474 48.6619 35.7328 48.6619 34.4152L48.6622 18.7297C48.6624 16.8261 47.6383 15.0521 45.9895 14.1002ZM16.3891 5.0408L44.3993 21.2103V25.6026L16.3891 9.43066V5.0408ZM16.3999 3.2281C16.439 2.97479 16.5904 2.75834 16.8212 2.63556L16.8375 2.62685C17.0893 2.49725 17.3747 2.50418 17.6209 2.64638L43.1566 17.3891C43.8788 17.8066 44.3428 18.5626 44.3941 19.3884L16.3999 3.2281ZM2.91128 16.0348L30.9219 32.2045V36.5969L2.91128 20.4247V16.0348ZM2.92137 14.2216C2.97199 13.8805 3.21207 13.7044 3.32213 13.6407C3.44564 13.5694 3.773 13.4266 4.14383 13.6407L29.6794 28.3837C30.4014 28.8006 30.8654 29.5565 30.9167 30.3824L2.92137 14.2216ZM30.511 48.3107C30.3874 48.382 30.0599 48.5248 29.6893 48.3107L4.15371 33.5678C3.38735 33.1253 2.91128 32.3007 2.91128 31.4159V22.2438L30.9219 38.4159V47.5992C30.9219 48.0274 30.6346 48.2394 30.511 48.3107ZM33.6092 45.4094C33.6092 46.1539 33.2044 46.8401 32.5529 47.2002L32.4972 47.231V30.5357C32.4972 29.0897 31.7193 27.7424 30.4671 27.0194L5.58181 12.6519C6.63929 12.4484 7.75726 12.6213 8.70866 13.1705L31.7242 26.4586C32.8871 27.13 33.6094 28.3811 33.6093 29.7237L33.6092 45.4094ZM43.9886 37.3166C43.865 37.388 43.5378 37.531 43.1663 37.317L35.1847 32.7089V29.7238C35.1848 27.8202 34.1607 26.0462 32.5119 25.0943L16.389 15.7858V11.2498L44.3992 27.4216V36.6052C44.3993 37.033 44.1121 37.2452 43.9886 37.3166ZM47.0867 34.4152C47.0867 35.1597 46.6819 35.846 46.0304 36.2061L45.9746 36.237V19.5414C45.9746 18.0963 45.197 16.749 43.9447 16.0251L19.0594 1.6577C20.1169 1.45427 21.2348 1.62703 22.1862 2.1764L45.2017 15.4644C46.3646 16.1359 47.0869 17.387 47.0868 18.7296L47.0867 34.4152Z"/>
<path d="M42.8929 27.8376L37.5135 24.7319C37.2699 24.5912 36.9695 24.5912 36.7259 24.7319C36.4822 24.8726 36.332 25.1327 36.332 25.414V31.6255C36.332 31.9069 36.4822 32.167 36.7259 32.3076L42.1052 35.4134C42.2271 35.4837 42.3631 35.5189 42.4991 35.5189C42.6351 35.5189 42.7711 35.4837 42.8929 35.4134C43.1366 35.2726 43.2868 35.0126 43.2868 34.7312V28.5198C43.2868 28.2384 43.1366 27.9784 42.8929 27.8376ZM41.7114 33.367L37.9074 31.1708V26.7784L41.7114 28.9746V33.367Z"/>
</g>
<defs>
<clipPath id="clip0">
<rect width="50" height="50"/>
</clipPath>
</defs>
</svg>
