<svg width="36" height="36" viewBox="0 0 36 36" fill="none" xmlns="http://www.w3.org/2000/svg">
<path fill-rule="evenodd" clip-rule="evenodd" d="M18.3305 10.4535C18.435 10.3487 18.5592 10.2656 18.6958 10.2089C18.8325 10.1522 18.979 10.123 19.127 10.123C19.275 10.123 19.4215 10.1522 19.5582 10.2089C19.6949 10.2656 19.819 10.3487 19.9235 10.4535L26.6735 17.2035C26.7783 17.308 26.8614 17.4321 26.9181 17.5688C26.9748 17.7055 27.004 17.852 27.004 18C27.004 18.148 26.9748 18.2945 26.9181 18.4312C26.8614 18.5678 26.7783 18.692 26.6735 18.7965L19.9235 25.5465C19.7123 25.7577 19.4258 25.8764 19.127 25.8764C18.8283 25.8764 18.5418 25.7577 18.3305 25.5465C18.1193 25.3352 18.0006 25.0487 18.0006 24.75C18.0006 24.4512 18.1193 24.1647 18.3305 23.9535L24.2863 18L18.3305 12.0465C18.2257 11.942 18.1426 11.8178 18.0859 11.6812C18.0292 11.5445 18 11.398 18 11.25C18 11.102 18.0292 10.9555 18.0859 10.8188C18.1426 10.6821 18.2257 10.558 18.3305 10.4535Z" fill="white"/>
<path fill-rule="evenodd" clip-rule="evenodd" d="M9 18C9 17.7016 9.11853 17.4155 9.32951 17.2045C9.54048 16.9935 9.82663 16.875 10.125 16.875H24.75C25.0484 16.875 25.3345 16.9935 25.5455 17.2045C25.7565 17.4155 25.875 17.7016 25.875 18C25.875 18.2984 25.7565 18.5845 25.5455 18.7955C25.3345 19.0065 25.0484 19.125 24.75 19.125H10.125C9.82663 19.125 9.54048 19.0065 9.32951 18.7955C9.11853 18.5845 9 18.2984 9 18Z" fill="white"/>
</svg>
