<svg width="50" height="50" viewBox="0 0 50 50" xmlns="http://www.w3.org/2000/svg">
<g clip-path="url(#clip0)">
<path d="M49.602 17.7378L41.4539 13.034C42.2361 11.8889 43.2719 10.9117 44.5086 10.1983C44.7549 10.0562 44.9068 9.79338 44.9068 9.50895C44.9068 9.22451 44.7551 8.96172 44.5088 8.81951L36.8654 4.4066C36.6217 4.26598 36.3221 4.26428 36.0772 4.40215C36.0746 4.40363 36.0695 4.4065 36.0669 4.40798C34.5858 5.2631 33.3501 6.44117 32.4283 7.82324L31.7672 7.44126C31.5209 7.29894 31.2174 7.29883 30.9709 7.44116L20.7825 13.3246C20.7388 13.3499 20.6976 13.3792 20.6594 13.4123L0.27722 31.0663L0.278281 31.0674C0.105815 31.2169 0.00244128 31.4342 0.00233515 31.6673L2.22365e-07 34.6079C-0.000212044 34.8926 0.151558 35.1557 0.397999 35.2979L18.2349 45.5935C18.358 45.6645 18.4955 45.7001 18.6329 45.7001C18.7705 45.7001 18.908 45.6645 19.0312 45.5933L49.6021 27.9429C49.8483 27.8007 50.0001 27.538 50.0001 27.2535V18.4271C50 18.1428 49.8483 17.88 49.602 17.7378ZM30.9737 14.6081L38.6165 19.0238C38.7397 19.0949 38.8772 19.1305 39.0147 19.1305C39.1521 19.1305 39.2896 19.095 39.4127 19.0239C39.659 18.8817 39.8108 18.6189 39.8107 18.3343C39.8106 17.8589 39.8481 17.3882 39.9187 16.9254L42.5192 18.427L39.0158 20.4497L27.868 14.0138L30.6852 12.3866C30.6136 12.8907 30.576 13.4023 30.576 13.9189C30.576 14.2032 30.7276 14.466 30.9737 14.6081ZM36.4781 6.0211L42.6001 9.55565C40.2221 11.3474 38.6631 14.0471 38.3 17.0024L32.1789 13.4658C32.3259 10.4432 33.9369 7.65533 36.4781 6.0211ZM31.3691 9.04971L31.6439 9.20848C31.4754 9.56244 31.3254 9.92531 31.1952 10.2962C31.1185 10.3136 31.0435 10.3413 30.9733 10.3818L25.878 13.3247C25.6318 13.467 25.4801 13.7297 25.4801 14.0141C25.4801 14.2985 25.6319 14.5612 25.8781 14.7034L38.6175 22.0583C38.7407 22.1294 38.8781 22.165 39.0155 22.165C39.153 22.165 39.2904 22.1294 39.4135 22.0583L44.5089 19.1165C44.7551 18.9743 44.9069 18.7116 44.9069 18.4272C44.9069 18.1429 44.7551 17.8801 44.5089 17.7379L40.3119 15.3143C40.4157 15.0096 40.5352 14.7111 40.6692 14.4194L47.613 18.4278L39.0153 23.3936L22.773 14.0138L31.3691 9.04971ZM21.2738 14.9864L37.649 24.4428L18.538 40.9907L2.16458 31.5375L21.2738 14.9864ZM1.59231 34.1491L1.59316 33.046L17.835 42.4232L17.8359 43.525L1.59231 34.1491ZM19.4279 43.5261L19.427 42.3269L39.4791 24.9641L48.4081 19.807V26.794L19.4279 43.5261Z"/>
<path d="M17.2028 21.4634L29.9688 28.8339C30.0927 28.9054 30.23 28.9405 30.3666 28.9405C30.5538 28.9405 30.7396 28.8746 30.8878 28.7463L34.7908 25.3667C34.9856 25.1982 35.0866 24.9458 35.0622 24.6895C35.0379 24.4332 34.8909 24.2044 34.6679 24.0757L21.9024 16.7038C21.6086 16.5341 21.2395 16.5692 20.9831 16.7915L17.0796 20.1725C16.8849 20.3411 16.7839 20.5935 16.8083 20.8498C16.8328 21.106 16.9798 21.3347 17.2028 21.4634ZM21.5972 18.3657L32.9036 24.8952L30.2742 27.1719L18.9671 20.6438L21.5972 18.3657Z"/>
<path d="M4.74969 31.2907C4.7741 31.547 4.92109 31.7757 5.14408 31.9044L17.9078 39.2736C18.0318 39.3451 18.169 39.3802 18.3057 39.3802C18.4929 39.3802 18.6787 39.3143 18.827 39.186L28.8456 30.511C29.0403 30.3425 29.1414 30.0901 29.117 29.8338C29.0927 29.5775 28.9457 29.3487 28.7227 29.2199L15.958 21.8487C15.6641 21.6791 15.2953 21.7143 15.0388 21.9364L5.02107 30.6133C4.82631 30.782 4.72528 31.0343 4.74969 31.2907ZM15.6525 23.5109L26.9581 30.0395L18.2131 37.6116L6.90833 31.0848L15.6525 23.5109Z"/>
</g>
<defs>
<clipPath id="clip0">
<rect width="50" height="50"/>
</clipPath>
</defs>
</svg>
