<svg width="50" height="50" viewBox="0 0 50 50" xmlns="http://www.w3.org/2000/svg">
<path d="M49.5899 22.8948L15.7382 3.35044C15.4845 3.20391 15.1717 3.20391 14.918 3.35044L0.412053 11.7255C0.158347 11.8719 0.0019684 12.1427 0.0019684 12.4356L0 26.3949C0 26.688 0.156269 26.9587 0.410084 27.1053L34.2618 46.6496C34.3887 46.7228 34.5303 46.7595 34.6719 46.7595C34.8135 46.7595 34.955 46.7228 35.0819 46.6497L49.5898 38.276C49.8436 38.1295 50 37.8587 50 37.5656V23.6051C50 23.312 49.8436 23.0413 49.5899 22.8948ZM12.1103 31.9662L1.64045 25.9215L1.64056 25.0217L12.1103 31.0673V31.9662ZM12.1103 29.1733L1.64077 23.1277L1.64088 22.2312L12.1103 28.2767V29.1733ZM12.1103 26.3825L1.64121 20.3372L1.64132 19.4396L12.1103 25.4849V26.3825ZM12.1103 23.5907L1.64154 17.5456L1.64165 16.6479L12.1103 22.693V23.5907ZM12.1103 20.7987L1.64187 14.7538L1.64198 13.8563L12.1103 19.9008V20.7987ZM2.46237 12.4358L15.3281 5.00773L25.7744 11.0389L12.8738 18.4476L2.46237 12.4358ZM21.7621 37.5388L13.7506 32.9134V20.848L21.7621 25.474V37.5388ZM14.5163 19.396L27.4169 11.9873L35.4364 16.6174L22.4362 23.9692L14.5163 19.396ZM33.8518 44.5188L23.4025 38.4858V37.5875L33.8518 43.6217V44.5188ZM33.8518 41.7275L23.4025 35.6932V34.7965L33.8518 40.8297V41.7275ZM33.8518 38.9357L23.4025 32.9024V32.0047L33.8518 38.038V38.9357ZM33.8518 36.1438L23.4025 30.1106V29.2128L33.8518 35.246V36.1438ZM33.8518 33.352L23.4025 27.3187V26.4211L33.8518 32.4547V33.352ZM34.6719 31.0342L24.085 24.9211L37.0853 17.5693L47.5395 23.605L34.6719 31.0342ZM48.3597 37.092L35.4921 44.5189V43.6213L48.3597 36.1919V37.092ZM48.3597 34.2978L35.4921 41.7272V40.8294L48.3597 33.4V34.2978ZM48.3597 31.5059L35.4921 38.9353V38.0376L48.3597 30.6091V31.5059ZM48.3597 28.7151L35.4921 36.1435V35.2457L48.3597 27.8173V28.7151ZM48.3597 25.9233L35.4921 33.3518V32.4548L48.3597 25.0258V25.9233Z"/>
</svg>
