<svg width="40" height="38" viewBox="0 0 40 38" fill="none" xmlns="http://www.w3.org/2000/svg">
<g clip-path="url(#clip0)">
<path d="M37.3223 32.458C37.3223 33.2187 37.3384 33.9817 37.32 34.7425C37.2763 36.4221 35.9743 37.7901 34.2606 37.9797C32.6573 38.1581 31.0838 37.0338 30.6721 35.4243C30.5019 34.7583 30.5134 34.0833 30.5318 33.4061C30.6468 29.3765 30.7181 25.3469 30.8906 21.3196C30.978 19.263 30.9688 17.2042 31.0493 15.1477C31.0815 14.3598 30.8262 13.7593 30.258 13.1859C27.5184 10.4273 27.1112 5.98009 29.2528 2.7203C31.675 -0.963892 36.4045 -0.896169 38.7278 2.85575C40.7842 6.17874 40.3173 10.4408 37.5615 13.2333C37.0002 13.8022 36.7725 14.4298 36.7955 15.2131C36.9749 20.9607 37.136 26.7082 37.3016 32.4557C37.3085 32.458 37.3154 32.458 37.3223 32.458ZM32.3237 32.9049C32.3191 32.9049 32.3145 32.9049 32.3099 32.9049C32.3099 33.4129 32.2984 33.9208 32.3122 34.4287C32.3421 35.6049 32.9609 36.2595 34.0052 36.2347C35.0174 36.2099 35.6523 35.4559 35.6223 34.3339C35.5142 30.4172 35.459 26.496 35.2865 22.5815C35.1899 20.3827 35.2773 18.1749 35.0887 15.9875C34.9392 14.2357 35.4268 12.9083 36.6713 11.6509C38.8635 9.43627 38.7554 5.0771 36.5816 2.88509C35.045 1.33421 32.9333 1.31389 31.3806 2.83317C29.0573 5.10419 29.0205 9.50851 31.3829 11.854C32.4295 12.8925 32.8896 14.0325 32.839 15.4886C32.6366 21.2948 32.4916 27.101 32.3237 32.9049Z" fill="#006A44"/>
<path d="M11.9685 6.59409C11.9685 7.97566 11.98 9.35949 11.9662 10.7411C11.9524 12.0978 11.421 13.2401 10.2663 13.9918C9.18742 14.6939 8.79867 15.6059 8.84467 16.8543C9.0448 22.349 9.19202 27.8437 9.34614 33.3406C9.36684 34.0968 9.44275 34.8599 9.20582 35.6094C8.72046 37.1422 7.20685 38.1626 5.65415 37.9797C4.04854 37.7901 2.73736 36.4333 2.72126 34.8192C2.67986 30.8709 2.87998 26.9271 3.0203 22.9811C3.09851 20.7552 3.041 18.5271 3.19512 16.3012C3.25493 15.4411 2.82247 14.7097 2.06107 14.2334C0.581977 13.3055 0.0138018 11.9285 0.00690091 10.276C-0.00460061 7.67993 0.0023003 5.08384 1.60674e-10 2.48775C1.60674e-10 2.37487 0 2.262 0.0115015 2.14913C0.0736098 1.58025 0.22773 1.02039 0.931623 1.03845C1.63552 1.05425 1.77814 1.60282 1.77814 2.1875C1.78044 4.89647 1.81034 7.60543 1.76893 10.3121C1.75283 11.407 2.14848 12.2152 3.0525 12.8247C4.33607 13.6916 4.94566 14.8858 4.89735 16.4276C4.72023 22.3174 4.5638 28.2094 4.39128 34.0991C4.37058 34.7741 4.46259 35.4062 4.99166 35.8825C5.49313 36.3317 6.10271 36.3475 6.68699 36.1037C7.29887 35.8464 7.5818 35.3339 7.5657 34.677C7.50589 32.2254 7.45069 29.7715 7.38168 27.3199C7.28507 23.7689 7.17465 20.2179 7.08034 16.6669C7.03893 15.1002 7.5565 13.7638 8.92058 12.8721C9.94652 12.2016 10.2962 11.2716 10.2916 10.127C10.2824 7.61672 10.287 5.10641 10.287 2.59385C10.287 2.3681 10.2847 2.14235 10.2939 1.91661C10.3169 1.39062 10.5814 1.02716 11.1289 1.03394C11.6786 1.04071 11.9455 1.42222 11.9478 1.93693C11.9685 3.49006 11.9616 5.0432 11.9616 6.59409C11.9639 6.59409 11.9662 6.59409 11.9685 6.59409Z" fill="#006A44"/>
<path d="M19.9553 28.5209C15.2489 28.5006 11.3521 24.6448 11.3613 20.017C11.3705 15.4276 15.3179 11.5515 20.0036 11.5312C24.7353 11.5109 28.7263 15.475 28.6803 20.1457C28.6343 24.7532 24.6893 28.5412 19.9553 28.5209ZM19.9553 26.7691C23.7554 26.8052 26.8401 23.9044 26.8861 20.2518C26.9344 16.4073 23.9808 13.3236 20.2152 13.2853C16.2633 13.2446 13.1924 16.1455 13.1533 19.9561C13.1142 23.7757 16.0655 26.733 19.9553 26.7691Z" fill="#006A44"/>
<path d="M19.2899 34.2753C16.9666 34.2211 14.2269 33.422 11.7748 31.7424C11.5862 31.6137 11.3953 31.4851 11.2273 31.3315C10.8777 31.0132 10.7075 30.6362 11.018 30.2096C11.3378 29.7671 11.761 29.7197 12.2257 29.9974C12.9135 30.406 13.5645 30.8891 14.289 31.2187C18.9587 33.3565 23.4213 32.9614 27.6584 30.0854C28.1806 29.731 28.6867 29.1057 29.3675 29.801C29.8184 30.2615 29.593 30.7717 28.7051 31.4354C26.2621 33.2572 23.1061 34.2798 19.2899 34.2753Z" fill="#006A44"/>
<path d="M19.9537 5.76108C22.2839 5.86944 24.4692 6.27352 26.4912 7.31422C26.965 7.55803 27.2825 7.92825 27.0134 8.48359C26.7488 9.0299 26.2796 9.0457 25.7689 8.83124C25.6102 8.76577 25.4514 8.69805 25.295 8.62807C23.5422 7.84924 21.7066 7.48353 19.7789 7.51965C18.0629 7.55125 16.4228 7.89213 14.8562 8.58292C14.6998 8.6529 14.5457 8.73191 14.387 8.79286C13.8533 9.00055 13.3449 9.02312 13.0712 8.42489C12.8136 7.86278 13.1517 7.49933 13.6348 7.2781C14.2582 6.99366 14.8954 6.73631 15.5417 6.50604C16.9886 5.99585 18.5045 5.86718 19.9537 5.76108Z" fill="#006A44"/>
<path d="M5.13579 5.6189C5.13579 4.49243 5.13349 3.36369 5.13809 2.23721C5.14039 1.62318 5.28991 1.04075 6.04211 1.05204C6.7437 1.06107 6.90012 1.65027 6.90472 2.21012C6.92312 4.52177 6.92312 6.83342 6.90472 9.14281C6.90012 9.7117 6.7184 10.2535 5.9869 10.2287C5.26 10.2038 5.14039 9.66429 5.13579 9.08863C5.13349 7.93055 5.13579 6.77473 5.13579 5.6189Z" fill="#006A44"/>
</g>
<defs>
<clipPath id="clip0">
<rect width="40" height="38" fill="white"/>
</clipPath>
</defs>
</svg>
