<svg width="20" height="18" viewBox="0 0 20 18" fill="none" xmlns="http://www.w3.org/2000/svg">
<g clip-path="url(#clip0)">
<path d="M0.00390625 8.19347L10.0645 0L19.9961 8.077L18.9973 9.40472L10.0701 2.143L1.00828 9.51537L0.00390625 8.19347Z" fill="#2B2A29"/>
<path d="M16.2916 17.1556V10.7208H17.9188V17.1556L17.1052 18L16.2916 17.1556ZM17.9188 17.1556V18H17.1052L17.9188 17.1556ZM12.8408 16.3113H17.1052V18H12.8408V16.3113ZM2.81946 16.3113H7.25219V18H2.81946L2.00586 17.1556L2.81946 16.3113ZM2.81946 18H2.00586V17.1556L2.81946 18ZM3.63306 10.7266V17.1556H2.00586V10.7266H3.63306Z" fill="#2B2A29"/>
<path d="M13.5828 12.9104V17.9942H11.9556V12.9104H13.5828ZM8.34205 12.9395H6.71484L6.73729 12.5493L6.7934 12.1766L6.88879 11.8214L7.01784 11.4895L7.18056 11.1808L7.37695 10.9013L7.59578 10.6509L7.84266 10.4354L8.10077 10.2491L8.38132 10.086L8.66749 9.95792L8.95926 9.85893L9.26226 9.78322L9.56525 9.73664L9.87386 9.71334L10.1769 9.70752L10.4855 9.73081L10.7885 9.7774L11.0915 9.84728L11.3832 9.94045L11.6694 10.0569L11.9443 10.1909L12.2137 10.3539L12.4662 10.5461L12.7018 10.7557L12.915 10.9945L13.1114 11.2624L13.2742 11.5477L13.4088 11.8622L13.5042 12.1941L13.5659 12.5435L13.5828 12.9104H11.9556L11.9499 12.7298L11.9219 12.5726L11.877 12.4212L11.8209 12.2873L11.7479 12.1592L11.6582 12.0369L11.5572 11.9262L11.4393 11.8214L11.3103 11.7224L11.1644 11.6351L11.0073 11.5593L10.8446 11.4895L10.6706 11.4371L10.4911 11.3963L10.3059 11.3672L10.1207 11.3555H9.93558L9.75603 11.3672L9.58209 11.3963L9.41375 11.4371L9.25665 11.4895L9.11076 11.5593L8.97609 11.6351L8.85265 11.7224L8.74604 11.8214L8.65065 11.9262L8.56649 12.0485L8.49354 12.1824L8.43182 12.3397L8.38693 12.5144L8.35327 12.7124L8.34205 12.9395ZM6.71484 17.9942V12.9395H8.34205V17.9942H6.71484Z" fill="#2B2A29"/>
</g>
<defs>
<clipPath id="clip0">
<rect width="20" height="18" fill="white"/>
</clipPath>
</defs>
</svg>
