<svg width="24" height="24" viewBox="0 0 24 24" fill="none" xmlns="http://www.w3.org/2000/svg">
<path d="M13.6693 22H13.6093C13.3892 21.9867 13.1797 21.9011 13.0133 21.7564C12.8469 21.6117 12.733 21.4161 12.6893 21.2L10.9993 13L2.79934 11.31C2.58281 11.267 2.3866 11.1535 2.24129 10.9874C2.09599 10.8212 2.00977 10.6115 1.99607 10.3912C1.98237 10.1709 2.04196 9.95221 2.16556 9.76929C2.28916 9.58637 2.4698 9.44949 2.67934 9.38L18.6793 4.05C18.8589 3.97584 19.0562 3.95561 19.2472 3.99179C19.4381 4.02796 19.6143 4.11896 19.7543 4.25368C19.8943 4.3884 19.9921 4.56099 20.0356 4.75036C20.0791 4.93973 20.0665 5.13767 19.9993 5.32L14.6693 21.32C14.5998 21.527 14.4643 21.7055 14.2838 21.8283C14.1032 21.9511 13.8874 22.0114 13.6693 22ZM6.86934 10.1L12.0593 11.16C12.2533 11.1974 12.4319 11.2915 12.5725 11.4303C12.7131 11.5691 12.8094 11.7465 12.8493 11.94L13.8993 17.13L17.4193 6.58L6.86934 10.1Z" fill="#F78222"/>
</svg>
