<svg width="50" height="50" viewBox="0 0 50 50" xmlns="http://www.w3.org/2000/svg">
<g clip-path="url(#clip0)">
<path d="M44.1289 9.11911L28.5199 0.106088C28.2751 -0.0353341 27.9731 -0.0352285 27.7283 0.106088L25.0894 1.63018C22.6222 3.05506 21.0894 5.7102 21.0891 8.55933L21.0882 18.3599L12.1198 23.5399C11.8751 23.6814 11.7243 23.9426 11.7242 24.2252L11.7222 34.5795L5.87613 37.9555C5.63139 38.0968 5.48047 38.3581 5.48047 38.641C5.48047 38.9238 5.63128 39.185 5.87613 39.3265L21.4823 48.3395C21.6048 48.4102 21.7415 48.4455 21.8782 48.4455C22.0148 48.4455 22.1514 48.4102 22.2738 48.3396L32.5269 42.4216C32.3677 42.6458 32.2155 42.8823 32.0722 43.1305C30.5273 45.8062 30.6627 48.679 32.3803 49.6707C32.7669 49.894 33.1958 50 33.6461 50C35.1968 50 37.0012 48.741 38.1985 46.6674C38.8975 45.4567 39.2803 44.1463 39.2763 42.9776C39.2719 41.653 38.7797 40.6406 37.8903 40.1273C37.6194 39.9709 37.3275 39.8722 37.0221 39.827L37.8843 39.3294C38.1292 39.1881 38.2802 38.9267 38.2802 38.6438V17.5729C38.2802 15.2864 39.5103 13.156 41.4906 12.013L44.1288 10.4902C44.3738 10.3488 44.5247 10.0875 44.5247 9.80469C44.5247 9.52185 44.3739 9.26053 44.1289 9.11911ZM37.6933 42.9828C37.6962 43.8633 37.3807 44.9177 36.8275 45.8759C35.6704 47.8801 33.9721 48.7621 33.1719 48.2997C32.3716 47.8375 32.2861 45.926 33.4431 43.9219C34.3984 42.2673 35.7224 41.3778 36.6056 41.3778C36.7922 41.3778 36.9592 41.4175 37.0988 41.4981C37.4741 41.7149 37.6907 42.2561 37.6933 42.9828ZM23.1812 6.06228L37.4098 14.2796C36.9479 15.2999 36.6971 16.4205 36.6971 17.5729V19.2496L22.6719 11.1523L22.6721 8.55954C22.6722 7.68916 22.8511 6.84158 23.1812 6.06228ZM13.3069 25.5963L21.0868 30.088L21.089 42.6799L13.3047 38.1857L13.3069 25.5963ZM22.672 42.6799L22.6699 30.0879L33.5756 23.7914L33.5736 36.3833L22.672 42.6799ZM21.8783 28.7169L14.0985 24.2252L25.0001 17.9285L32.784 22.4204L21.8783 28.7169ZM21.8783 46.7399L7.85478 38.641L11.7218 36.4079L11.7214 38.6425C11.7213 38.9253 11.8722 39.1867 12.1172 39.3281L21.4849 44.7366C21.6073 44.8073 21.744 44.8427 21.8807 44.8427C22.0174 44.8427 22.1541 44.8073 22.2766 44.7366L34.7609 37.5257C35.0056 37.3843 35.1565 37.1231 35.1565 36.8404L35.1589 22.4206C35.1589 22.1376 35.0079 21.8762 34.763 21.7348L25.3954 16.3291C25.1506 16.1878 24.8488 16.1879 24.6039 16.3292L22.6712 17.4455L22.6716 12.9801L36.697 21.0775V38.1867L21.8783 46.7399ZM40.6992 10.6418C39.7 11.2186 38.8542 11.997 38.2011 12.9085L23.9727 4.69123C24.4825 4.01535 25.1273 3.43647 25.8811 3.00113L28.1242 1.70564L42.15 9.80448L40.6992 10.6418Z"/>
</g>
<defs>
<clipPath id="clip0">
<rect width="50" height="50"/>
</clipPath>
</defs>
</svg>
