<svg width="20" height="20" viewBox="0 0 20 20" fill="none" xmlns="http://www.w3.org/2000/svg">
<g clip-path="url(#clip0)">
<path d="M16.6394 4.85429L15.805 1.79733L12.9698 2.57114L11.7888 0.187134L2.36823 4.85429H0V19.8128H18.7138V15.781H20V8.81791H18.7138V4.85429H16.6394ZM14.8211 3.51999L15.1853 4.85431H14.101H12.5355H9.93223L12.2254 4.22843L13.6044 3.85204L14.8211 3.51999ZM17.3109 18.41H1.40281V10.7698V8.10597V7.89486V6.45519V6.25711H2.12857H2.69667H4.79246H13.2305H14.796H15.5682H16.2952H17.0223H17.3109V7.31483V8.81789H16.9941H16.2671H14.4548H11.2948H10.1557V9.38223V10.9478V11.1284V11.8555V12.5826V15.7809H17.311V18.41H17.3109V18.41ZM18.5972 14.3782H18.0123H17.3109H11.5585V12.1997V11.4727V10.7456V10.2528V10.2207H11.6233H13.4817H16.1456H17.311H18.0124H18.1041H18.5972V14.3782ZM11.1545 2.06687L11.5908 2.9475L6.66131 4.29292L11.1545 2.06687Z" fill="white"/>
<path d="M12.6697 11.6467V11.8965V13.0203H14.0433V11.6467H13.5846H12.6697Z" fill="white"/>
</g>
<defs>
<clipPath id="clip0">
<rect width="20" height="20" fill="white"/>
</clipPath>
</defs>
</svg>
