<svg width="50" height="50" viewBox="0 0 50 50" xmlns="http://www.w3.org/2000/svg">
<path d="M41.8744 44.2448V49.1668C41.8744 49.6269 41.5013 50 41.0411 50C40.581 50 40.2079 49.6269 40.2079 49.1668V44.2448C40.2079 40.4125 37.1068 37.3111 33.2741 37.3112C31.4607 37.3112 29.8154 36.3874 28.8727 34.8399C28.6334 34.4469 28.7579 33.9342 29.1509 33.6948C29.5439 33.4554 30.0565 33.58 30.296 33.973C30.9336 35.0199 32.0469 35.6448 33.2741 35.6448C38.0274 35.6446 41.8744 39.4912 41.8744 44.2448ZM27.334 35.8925C27.432 36.3421 27.1469 36.786 26.6973 36.884C24.5045 37.3618 22.2742 36.8835 20.4985 35.6715C18.7406 37.5553 16.4182 37.3112 16.7291 37.3112C12.8968 37.3111 9.79535 40.4122 9.79535 44.2448V49.1668C9.79535 49.6269 9.42228 50 8.96213 50C8.50198 50 8.12891 49.6269 8.12891 49.1668V44.2448C8.12891 39.4917 11.9752 35.6448 16.7289 35.6448C18.6518 35.6448 20.2107 34.0955 20.2107 32.1721V31.9527C16.5737 30.2136 14.0209 26.5592 13.8653 22.3036C12.3687 21.9438 11.2535 20.6042 11.2535 19.0103V14.6908C11.208 12.5765 11.5219 7.28101 15.383 3.55921C20.1506 -1.03664 27.7962 -0.744705 33.4182 1.96171C33.9661 2.22574 34.0494 2.96606 33.5943 3.34945C36.4424 4.04415 38.8983 5.79496 40.4761 8.30067C40.5576 8.42972 40.7067 8.63229 40.6678 8.95548C40.6436 9.1566 40.5837 9.32679 40.4287 9.48406C39.4132 10.5139 38.854 11.8786 38.854 13.3269V19.0105C38.854 19.4707 38.481 19.8437 38.0208 19.8437C37.5607 19.8437 37.1876 19.4707 37.1876 19.0105V13.3269C37.1876 11.6566 37.7582 10.0712 38.8063 8.79758C37.2088 6.51288 34.7165 5.04349 31.8977 4.74166L30.4332 4.5848C29.5768 4.49315 29.4088 3.31341 30.2047 2.98585L30.8707 2.71161C22.1962 -0.31247 12.9198 3.04761 12.9198 14.6817V19.0103C12.9198 19.6715 13.3006 20.2461 13.8572 20.5347V15.133C13.8572 11.917 16.4737 9.30044 19.6898 9.30044H30.3134C33.5294 9.30044 36.146 11.9168 36.146 15.1327V21.955C36.146 29.2014 29.0648 34.7054 21.8593 32.5841C21.8124 33.1787 21.6644 33.7523 21.4233 34.2856C22.825 35.2482 24.5951 35.6365 26.3425 35.2557C26.7921 35.1578 27.236 35.4428 27.334 35.8925ZM25.0016 31.3696C30.2278 31.3696 34.4795 27.1179 34.4795 21.8917V15.1327C34.4795 12.8357 32.6106 10.9669 30.3134 10.9669H19.6898C17.3926 10.9669 15.5237 12.8358 15.5237 15.133V21.8917C15.5237 27.1179 19.7754 31.3696 25.0016 31.3696ZM33.438 45.7297H30.9383C30.4782 45.7297 30.1051 46.1028 30.1051 46.5629C30.1051 47.0231 30.4782 47.3962 30.9383 47.3962H33.438C33.8981 47.3962 34.2712 47.0231 34.2712 46.5629C34.2712 46.1028 33.8981 45.7297 33.438 45.7297Z"/>
</svg>
