<?xml version="1.0" encoding="iso-8859-1"?><!DOCTYPE svg PUBLIC "-//W3C//DTD SVG 1.1//EN" "http://www.w3.org/Graphics/SVG/1.1/DTD/svg11.dtd"><svg xmlns="http://www.w3.org/2000/svg" width="512" height="512" viewBox="0 0 470.346 470.346"><path d="M356.866 193.696c-.252 0-.508-.021-.762-.066l-44.764-7.884c-4.201-.738-11.518-.472-15.658.572l-23.432 5.92c-2.342.598-4.717-.829-5.309-3.168a4.374 4.374 0 013.168-5.309l23.432-5.92c5.377-1.355 13.859-1.67 19.314-.705l44.764 7.885a4.372 4.372 0 01-.753 8.675zM302.892 314.348c-3.541 0-7.086-.373-9.844-1.117l-67.534-18.234c-6.655-1.797-11.87-8.605-11.87-15.5v-16.731a4.37 4.37 0 014.372-4.371 4.37 4.37 0 014.371 4.371v16.731c0 2.932 2.577 6.295 5.405 7.059l67.533 18.234c3.998 1.078 11.014 1.086 15.014.021l68.449-18.281c2.826-.756 5.4-4.109 5.4-7.033v-70.598c0-1.028-.332-1.857-.93-2.34-.602-.479-1.482-.621-2.484-.4l-67.34 14.975c-5.359 1.193-12.842 1.591-17.043.923l-6.666-1.066a4.37 4.37 0 01-3.627-5.006 4.376 4.376 0 015.006-3.626l6.67 1.066c3.107.499 9.543.112 13.764-.825l67.34-14.975c3.592-.799 7.182-.028 9.852 2.116 2.67 2.142 4.201 5.48 4.201 9.157v70.598c0 6.898-5.221 13.699-11.887 15.479l-68.449 18.281c-2.721.728-6.209 1.092-9.703 1.092z" fill="#91DC5A"/><path d="M280.944 232.558c-9.234-10.699-80.136-92.636-103.118-113.486 18.218-11.93 29.318-32.14 29.318-54.208C207.145 29.098 178.047 0 142.28 0S77.415 29.098 77.415 64.865c0 21.854 10.887 41.886 28.79 53.86-14.877 11.25-23.885 28.993-23.885 47.85v277.328c0 14.582 11.862 26.443 26.443 26.443 14.582 0 26.444-11.861 26.444-26.443V291.564l13.6-.004V443.9c0 14.582 11.862 26.443 26.444 26.443s26.444-11.861 26.444-26.432l.521-226.077 46.606 46.606c4.412 4.412 10.207 6.619 16.002 6.619s11.592-2.207 16.004-6.619c8.778-8.784 8.818-23.049.116-31.882zm-6.3 25.702a13.801 13.801 0 01-9.82 4.068 13.795 13.795 0 01-9.82-4.068s-40.017-41.054-54.034-54.036c-3.495-3.236-7.472-.86-7.472 3.071 0 6.22-.546 236.604-.546 236.604 0 9.762-7.94 17.701-17.701 17.701-9.76 0-17.701-7.939-17.701-17.701V287.217c0-2.527-.804-4.396-4.739-4.396l-22.838.002c-2.235 0-3.509 1.104-3.509 4.398V443.9c0 9.762-7.94 17.701-17.701 17.701-9.76 0-17.701-7.939-17.701-17.701V166.574c0-18.156 9.766-35.122 25.487-44.277.165-.096.313-.213.467-.327.042-.031.087-.056.127-.089 1.693-1.32 2.52-3.577 1.427-5.452-.53-.913-1.432-1.563-2.446-1.925-18.488-9.759-29.965-28.75-29.965-49.639 0-30.944 25.176-56.122 56.122-56.122s56.122 25.176 56.122 56.122c0 20.983-11.577 40.058-30.212 49.778-1.894.988-3.883 4.627-.103 7.705 9.379 5.613 68.676 72.401 106.34 116.041l.217.233c5.411 5.412 5.411 14.224-.001 19.638z" fill="#91DC5A"/></svg>