<?xml version="1.0" encoding="iso-8859-1"?><!DOCTYPE svg PUBLIC "-//W3C//DTD SVG 1.1//EN" "http://www.w3.org/Graphics/SVG/1.1/DTD/svg11.dtd"><svg xmlns="http://www.w3.org/2000/svg" viewBox="0 0 380 380" width="380" height="380"><path d="M190 0C85.233 0 0 85.233 0 190s85.233 190 190 190 190-85.233 190-190S294.767 0 190 0zm0 340c-82.71 0-150-67.29-150-150S107.29 40 190 40s150 67.29 150 150-67.29 150-150 150z"/><path d="M291.993 184.132h-74.197A32.827 32.827 0 00207 173.336V84.139c0-9.389-7.611-17-17-17s-17 7.611-17 17v89.197c-9.345 5.737-15.593 16.05-15.593 27.796 0 17.972 14.622 32.593 32.593 32.593 11.746 0 22.059-6.248 27.796-15.593h74.197c9.389 0 17-7.611 17-17s-7.611-17-17-17z"/></svg>