<?xml version="1.0" encoding="iso-8859-1"?><!DOCTYPE svg PUBLIC "-//W3C//DTD SVG 1.1//EN" "http://www.w3.org/Graphics/SVG/1.1/DTD/svg11.dtd"><svg xmlns="http://www.w3.org/2000/svg" viewBox="0 0 487.542 487.542" width="512" height="512"><g fill="#91DC5A"><path d="M462.339 190.535h-85.18V67.444c0-13.896-11.306-25.202-25.202-25.202H25.204C11.307 42.242 0 53.548 0 67.444v204.359c0 13.897 11.307 25.203 25.204 25.203h85.178v123.09c0 13.897 11.307 25.203 25.204 25.203h326.753c13.897 0 25.203-11.306 25.203-25.203V215.737c0-13.896-11.306-25.202-25.203-25.202zM21 106.335h335.159v31.072H21v-31.072zm4.204-43.093h326.753a4.207 4.207 0 014.202 4.202v17.891H21V67.444a4.208 4.208 0 014.204-4.202zm0 212.765A4.209 4.209 0 0121 271.804V158.407h335.159v32.128H135.586c-13.897 0-25.204 11.306-25.204 25.203v60.269H25.204zm441.338 144.09a4.208 4.208 0 01-4.203 4.203H135.586a4.209 4.209 0 01-4.204-4.203V215.738a4.209 4.209 0 014.204-4.203h326.753a4.208 4.208 0 014.203 4.202v204.36z"/><path d="M405.99 331.552c-7.215 0-14.101 1.966-20.07 5.649-5.971-3.684-12.855-5.649-20.071-5.649-21.16 0-38.375 17.216-38.375 38.376 0 21.16 17.215 38.376 38.375 38.376 7.216 0 14.1-1.966 20.071-5.649 5.971 3.684 12.855 5.649 20.07 5.649 21.16 0 38.376-17.216 38.376-38.376 0-21.16-17.216-38.376-38.376-38.376zm0 55.752c-4.757 0-9.199-1.892-12.509-5.327a10.497 10.497 0 00-15.123 0c-3.31 3.436-7.752 5.327-12.51 5.327-9.581 0-17.375-7.795-17.375-17.376 0-9.581 7.794-17.376 17.375-17.376 4.758 0 9.201 1.892 12.51 5.326a10.497 10.497 0 0015.123 0c3.309-3.435 7.751-5.326 12.509-5.326 9.581 0 17.376 7.795 17.376 17.376 0 9.581-7.795 17.376-17.376 17.376zM301.216 260.805h-128.78c-5.799 0-10.5 4.701-10.5 10.5s4.701 10.5 10.5 10.5h128.78c5.799 0 10.5-4.701 10.5-10.5s-4.701-10.5-10.5-10.5zM344.699 281.805h40.14c5.799 0 10.5-4.701 10.5-10.5s-4.701-10.5-10.5-10.5h-40.14c-5.799 0-10.5 4.701-10.5 10.5s4.701 10.5 10.5 10.5z"/></g></svg>