<?xml version="1.0" encoding="utf-8"?><svg xmlns="http://www.w3.org/2000/svg" xmlns:xlink="http://www.w3.org/1999/xlink" width="0" height="0" style="position:absolute" viewBox="0 0 0 0"><defs><svg viewBox="0 0 459.529 459.529" width="512" height="512" id="aicart" y="0"><path d="M17 55.231h48.733l69.417 251.033c1.983 7.367 8.783 12.467 16.433 12.467h213.35c6.8 0 12.75-3.967 15.583-10.2l77.633-178.5c2.267-5.383 1.7-11.333-1.417-16.15-3.117-4.817-8.5-7.65-14.167-7.65H206.833c-9.35 0-17 7.65-17 17s7.65 17 17 17H416.5l-62.9 144.5H164.333L94.917 33.698c-1.983-7.367-8.783-12.467-16.433-12.467H17c-9.35 0-17 7.65-17 17s7.65 17 17 17zm118.433 383.067c21.25 0 38.533-17.283 38.533-38.533s-17.283-38.533-38.533-38.533S96.9 378.514 96.9 399.764s17.283 38.534 38.533 38.534zm240.834 0h2.833c10.2-.85 19.55-5.383 26.35-13.317 6.8-7.65 9.917-17.567 9.35-28.05-1.417-20.967-19.833-37.117-41.083-35.7-21.25 1.417-37.117 20.117-35.7 41.083 1.416 20.117 18.133 35.984 38.25 35.984z"/></svg><svg width="405.272" height="405.272" id="aicheck" y="512"><path d="M393.401 124.425L179.603 338.208c-15.832 15.835-41.514 15.835-57.361 0L11.878 227.836c-15.838-15.835-15.838-41.52 0-57.358 15.841-15.841 41.521-15.841 57.355-.006l81.698 81.699L336.037 67.064c15.841-15.841 41.523-15.829 57.358 0 15.835 15.838 15.835 41.514.006 57.361z"/></svg><svg width="380" height="380" id="aiclock" y="918"><path d="M190 0C85.233 0 0 85.233 0 190s85.233 190 190 190 190-85.233 190-190S294.767 0 190 0zm0 340c-82.71 0-150-67.29-150-150S107.29 40 190 40s150 67.29 150 150-67.29 150-150 150z"/><path d="M291.993 184.132h-74.197A32.827 32.827 0 00207 173.336V84.139c0-9.389-7.611-17-17-17s-17 7.611-17 17v89.197c-9.345 5.737-15.593 16.05-15.593 27.796 0 17.972 14.622 32.593 32.593 32.593 11.746 0 22.059-6.248 27.796-15.593h74.197c9.389 0 17-7.611 17-17s-7.611-17-17-17z"/></svg><svg width="47.971" height="47.971" id="aiclose" y="1298"><path d="M28.228 23.986L47.092 5.122a2.998 2.998 0 000-4.242 2.998 2.998 0 00-4.242 0L23.986 19.744 5.121.88a2.998 2.998 0 00-4.242 0 2.998 2.998 0 000 4.242l18.865 18.864L.879 42.85a2.998 2.998 0 104.242 4.241l18.865-18.864L42.85 47.091c.586.586 1.354.879 2.121.879s1.535-.293 2.121-.879a2.998 2.998 0 000-4.242L28.228 23.986z"/></svg><svg width="240.811" height="240.811" id="aidownload" y="1346"><path d="M220.088 57.667l-99.671 99.695-99.671-99.707a12.147 12.147 0 00-17.191 0c-4.74 4.752-4.74 12.451 0 17.203l108.261 108.297c4.74 4.752 12.439 4.752 17.179 0L237.256 74.859c4.74-4.752 4.74-12.463 0-17.215-4.728-4.729-12.428-4.729-17.168.023z"/></svg><svg width="352.718" height="352.718" id="ailocation" y="1587"><path d="M154.677 234.106c15.524 17.733 19.319 17.733 21.358 17.733 2.08 0 5.95 0 21.499-17.73 9.63-10.979 20.358-24.967 30.207-39.384 15.455-22.62 41.381-64.942 41.381-94.244 0-51.329-41.759-93.088-93.087-93.088-51.329 0-93.088 41.759-93.088 93.088 0 29.246 26.009 71.603 41.512 94.248 9.84 14.373 20.572 28.357 30.218 39.377zm21.358-188.607c28.616 0 51.897 23.281 51.897 51.898s-23.281 51.897-51.897 51.897c-28.617 0-51.899-23.281-51.899-51.897s23.282-51.898 51.899-51.898z"/><path d="M352.322 321.191l-22.629-96.794c-2.358-12.387-14.235-22.071-27.095-22.071h-41.713c-4.676 0-8.443 1.85-10.897 5.351-11.579 16.538-24.364 32.953-35.998 46.222-18.268 20.83-27.511 27.517-38.036 27.517-10.357 0-19.558-6.712-37.862-27.621-12.069-13.787-24.525-29.738-36.021-46.131l-.121-.175c-.968-1.412-3.541-5.162-10.095-5.162H50.119c-12.847 0-24.723 9.737-27.094 22.191L.443 321.084l-.048.229c-1.167 6.304.272 12.278 4.053 16.823 3.856 4.637 9.619 7.19 16.225 7.19h311.372c6.573 0 12.321-2.558 16.184-7.202 3.813-4.585 5.267-10.598 4.093-16.933z"/></svg><svg width="300" height="300" viewBox="0 0 11161 11161" shape-rendering="geometricPrecision" text-rendering="geometricPrecision" image-rendering="optimizeQuality" fill-rule="evenodd" clip-rule="evenodd" id="ailogo" y="1940"><path class="aifil0" d="M2240 6206c-599-2349-83-4443 1188-5110-759 364-1410 917-1896 1596-758 1152-946 2965-174 4679 755 1676 2089 2712 3218 3079 323 66 658 101 1001 101 65 0 129-3 194-5-1025-322-2769-1354-3531-4340z"/><path class="aifil0" d="M6652 3861c686-1679 2162-1930 2804-1389-725-904-1759-1549-2942-1774-735-28-2177 852-2459 3296-353 3049 1056 5582 2484 6463 303-60 596-147 876-259-1079-1202-1750-3925-763-6337z"/><path class="aifil0" d="M5580 0C2503 0 0 2503 0 5581c0 3077 2503 5580 5580 5580 1532 0 2921-621 3931-1623 191-190 369-394 531-609l-132-275-930-1925 945-1480h-493l-914 1503-304 251V5249h-709v3787h709V7510l259-232 918 2000c-965 994-2315 1613-3811 1613-2932 0-5310-2378-5310-5310 0-2933 2378-5311 5310-5311 2933 0 5311 2378 5311 5311 0 1036-299 2002-812 2819l137 283c596-888 945-1955 945-3102C11161 2503 8658 0 5580 0z"/></svg><svg width="512" height="512" id="aimap" y="2240"><path d="M416 48c-44.188 0-80 35.813-80 80 0 11.938 2.625 23.281 7.312 33.438L416 304l72.688-142.563C493.375 151.281 496 139.938 496 128c0-44.187-35.812-80-80-80zm0 128c-26.5 0-48-21.5-48-48s21.5-48 48-48 48 21.5 48 48-21.5 48-48 48zm23.938 151.469l29.125 58.219-73.844 36.906-24.75-123.812 4.156-4.156.438-.438-15.25-30L352 272l-96-64-96 64-64-64L0 400l128 64 128-64 128 64 128-64-54-107.969-18.062 35.438zM116.75 422.594l-73.813-36.906L104.75 262l32.625 32.625 4.156 4.156-24.781 123.813zM240 372.219l-89.5 44.75 23.125-115.594 4.125-2.75 62.25-41.5v115.094zm32 0V257.125l62.25 41.5 4.094 2.75 23.125 115.594L272 372.219z"/></svg><svg viewBox="0 0 473.806 473.806" width="512" height="512" id="aiphone" y="2752"><path d="M374.456 293.506c-9.7-10.1-21.4-15.5-33.8-15.5-12.3 0-24.1 5.3-34.2 15.4l-31.6 31.5c-2.6-1.4-5.2-2.7-7.7-4-3.6-1.8-7-3.5-9.9-5.3-29.6-18.8-56.5-43.3-82.3-75-12.5-15.8-20.9-29.1-27-42.6 8.2-7.5 15.8-15.3 23.2-22.8 2.8-2.8 5.6-5.7 8.4-8.5 21-21 21-48.2 0-69.2l-27.3-27.3c-3.1-3.1-6.3-6.3-9.3-9.5-6-6.2-12.3-12.6-18.8-18.6-9.7-9.6-21.3-14.7-33.5-14.7s-24 5.1-34 14.7l-.2.2-34 34.3c-12.8 12.8-20.1 28.4-21.7 46.5-2.4 29.2 6.2 56.4 12.8 74.2 16.2 43.7 40.4 84.2 76.5 127.6 43.8 52.3 96.5 93.6 156.7 122.7 23 10.9 53.7 23.8 88 26 2.1.1 4.3.2 6.3.2 23.1 0 42.5-8.3 57.7-24.8.1-.2.3-.3.4-.5 5.2-6.3 11.2-12 17.5-18.1 4.3-4.1 8.7-8.4 13-12.9 9.9-10.3 15.1-22.3 15.1-34.6 0-12.4-5.3-24.3-15.4-34.3l-54.9-55.1zm35.8 105.3c-.1 0-.1.1 0 0-3.9 4.2-7.9 8-12.2 12.2-6.5 6.2-13.1 12.7-19.3 20-10.1 10.8-22 15.9-37.6 15.9-1.5 0-3.1 0-4.6-.1-29.7-1.9-57.3-13.5-78-23.4-56.6-27.4-106.3-66.3-147.6-115.6-34.1-41.1-56.9-79.1-72-119.9-9.3-24.9-12.7-44.3-11.2-62.6 1-11.7 5.5-21.4 13.8-29.7l34.1-34.1c4.9-4.6 10.1-7.1 15.2-7.1 6.3 0 11.4 3.8 14.6 7l.3.3c6.1 5.7 11.9 11.6 18 17.9 3.1 3.2 6.3 6.4 9.5 9.7l27.3 27.3c10.6 10.6 10.6 20.4 0 31-2.9 2.9-5.7 5.8-8.6 8.6-8.4 8.6-16.4 16.6-25.1 24.4-.2.2-.4.3-.5.5-8.6 8.6-7 17-5.2 22.7l.3.9c7.1 17.2 17.1 33.4 32.3 52.7l.1.1c27.6 34 56.7 60.5 88.8 80.8 4.1 2.6 8.3 4.7 12.3 6.7 3.6 1.8 7 3.5 9.9 5.3.4.2.8.5 1.2.7 3.4 1.7 6.6 2.5 9.9 2.5 8.3 0 13.5-5.2 15.2-6.9l34.2-34.2c3.4-3.4 8.8-7.5 15.1-7.5 6.2 0 11.3 3.9 14.4 7.3l.2.2 55.1 55.1c10.3 10.2 10.3 20.7.1 31.3zm-154.2-286.1c26.2 4.4 50 16.8 69 35.8s31.3 42.8 35.8 69c1.1 6.6 6.8 11.2 13.3 11.2.8 0 1.5-.1 2.3-.2 7.4-1.2 12.3-8.2 11.1-15.6-5.4-31.7-20.4-60.6-43.3-83.5s-51.8-37.9-83.5-43.3c-7.4-1.2-14.3 3.7-15.6 11s3.5 14.4 10.9 15.6zm217.2 96.3c-8.9-52.2-33.5-99.7-71.3-137.5s-85.3-62.4-137.5-71.3c-7.3-1.3-14.2 3.7-15.5 11-1.2 7.4 3.7 14.3 11.1 15.6 46.6 7.9 89.1 30 122.9 63.7 33.8 33.8 55.8 76.3 63.7 122.9 1.1 6.6 6.8 11.2 13.3 11.2.8 0 1.5-.1 2.3-.2 7.3-1.1 12.3-8.1 11-15.4z"/></svg><svg width="491.582" height="491.582" id="aipoint" y="3264"><path d="M245.791 0C153.799 0 78.957 74.841 78.957 166.833c0 36.967 21.764 93.187 68.493 176.926 31.887 57.138 63.627 105.4 64.966 107.433l22.941 34.773a12.497 12.497 0 0020.868 0l22.94-34.771c1.326-2.01 32.835-49.855 64.967-107.435 46.729-83.735 68.493-139.955 68.493-176.926C412.625 74.841 337.783 0 245.791 0zm76.511 331.576c-31.685 56.775-62.696 103.869-64.003 105.848l-12.508 18.959-12.504-18.954c-1.314-1.995-32.563-49.511-64.007-105.853-43.345-77.676-65.323-133.104-65.323-164.743C103.957 88.626 167.583 25 245.791 25s141.834 63.626 141.834 141.833c0 31.643-21.978 87.069-65.323 164.743z"/><path d="M245.791 73.291c-51.005 0-92.5 41.496-92.5 92.5s41.495 92.5 92.5 92.5 92.5-41.496 92.5-92.5-41.495-92.5-92.5-92.5zm0 160c-37.22 0-67.5-30.28-67.5-67.5s30.28-67.5 67.5-67.5c37.221 0 67.5 30.28 67.5 67.5s-30.279 67.5-67.5 67.5z"/></svg><svg width="310.42" height="310.42" id="aisearch" y="3756"><path d="M273.587 214.965c49.11-49.111 49.109-129.021 0-178.132-49.111-49.111-129.02-49.111-178.13 0C53.793 78.497 47.483 140.462 76.51 188.85c0 0 2.085 3.498-.731 6.312l-64.263 64.263c-12.791 12.79-15.836 30.675-4.493 42.02l1.953 1.951c11.343 11.345 29.229 8.301 42.019-4.49l64.128-64.128c2.951-2.951 6.448-.866 6.448-.866 48.387 29.026 110.352 22.717 152.016-18.947zM118.711 191.71c-36.288-36.288-36.287-95.332.001-131.62 36.288-36.287 95.332-36.288 131.619 0 36.288 36.287 36.288 95.332 0 131.62-36.288 36.286-95.331 36.286-131.62 0z"/><path d="M126.75 118.424c-1.689 0-3.406-.332-5.061-1.031-6.611-2.798-9.704-10.426-6.906-17.038 17.586-41.559 65.703-61.062 107.261-43.476 6.611 2.798 9.704 10.426 6.906 17.038-2.799 6.612-10.425 9.703-17.039 6.906-28.354-11.998-61.186 1.309-73.183 29.663-2.099 4.959-6.913 7.938-11.978 7.938z"/></svg><svg viewBox="0 0 253.121 253.121" width="512" height="512" id="aiuser" y="4067"><path d="M253.121 126.561C253.121 56.775 196.346 0 126.561 0c-32.82 0-63.933 12.509-87.607 35.222a7.5 7.5 0 0010.384 10.824C70.206 26.026 97.631 15 126.561 15c61.515 0 111.561 50.046 111.561 111.561 0 27.975-10.409 54.736-29.311 75.355-21.092 23.009-51.071 36.206-82.25 36.206-29.913 0-58.723-12.148-79.64-33.454.124-.536.262-1.066.398-1.597.108-.423.208-.849.323-1.269.176-.64.372-1.271.565-1.903.115-.375.219-.755.339-1.127.234-.725.489-1.439.745-2.153.097-.27.184-.545.284-.814a72.009 72.009 0 012.427-5.753c.133-.28.278-.552.414-.83.318-.65.636-1.3.973-1.938.178-.337.369-.666.553-1 .311-.567.619-1.136.944-1.693.209-.359.432-.709.647-1.064.316-.521.63-1.043.958-1.555.234-.364.479-.718.719-1.077.328-.49.653-.982.992-1.464.255-.363.521-.716.783-1.074.34-.464.678-.929 1.028-1.384.275-.358.561-.708.843-1.06.353-.441.705-.884 1.068-1.316.293-.35.595-.691.895-1.035.367-.421.734-.842 1.111-1.255.31-.34.628-.671.944-1.005.382-.402.764-.804 1.154-1.197.326-.328.658-.648.989-.969.396-.383.793-.766 1.198-1.14.341-.315.687-.624 1.033-.932.409-.365.821-.727 1.238-1.082.355-.302.715-.599 1.077-.894.423-.345.848-.688 1.278-1.024a76.429 76.429 0 013.589-2.626 75.882 75.882 0 012.545-1.669 72.622 72.622 0 014.044-2.35c.417-.225.835-.448 1.256-.665.484-.249.973-.489 1.463-.727.427-.207.854-.414 1.285-.613.497-.229.998-.449 1.5-.667.435-.189.869-.378 1.307-.558.51-.209 1.024-.408 1.539-.605.442-.17.882-.341 1.328-.502.522-.189 1.05-.365 1.577-.542.447-.15.893-.303 1.344-.445.535-.168 1.076-.323 1.617-.478.451-.13.901-.265 1.356-.386.551-.147 1.107-.279 1.663-.414.452-.109.903-.224 1.358-.325.568-.126 1.143-.235 1.716-.347.45-.088.898-.184 1.351-.264.591-.104 1.188-.19 1.783-.28.442-.067.881-.142 1.325-.2.627-.083 1.261-.145 1.893-.212.418-.044.834-.098 1.254-.135.702-.062 1.411-.1 2.118-.142.355-.021.708-.053 1.064-.069a72.942 72.942 0 013.214-.072h18.463c21.67 0 42.011 9.609 55.807 26.364a7.5 7.5 0 0011.579-9.535c-11.759-14.28-27.46-24.253-44.882-28.888 9.915-8.785 16.181-21.6 16.181-35.857 0-26.421-21.495-47.917-47.917-47.917s-47.917 21.495-47.917 47.917c0 14.257 6.266 27.071 16.18 35.856-.246.066-.494.128-.74.195a85.493 85.493 0 00-3.061.906c-.124.039-.251.073-.375.112a88.96 88.96 0 00-3.377 1.161c-.348.127-.69.267-1.036.399-.765.291-1.529.586-2.284.899-.419.173-.832.356-1.248.536-.675.292-1.349.587-2.015.895-.435.201-.865.408-1.296.616a89.53 89.53 0 00-3.192 1.619 84.62 84.62 0 00-1.89 1.043c-.404.229-.809.456-1.209.691-.658.387-1.307.787-1.955 1.191-.353.22-.709.434-1.059.659a86.692 86.692 0 00-2.383 1.595c-.18.124-.364.241-.543.367a87.4 87.4 0 00-2.837 2.08c-.27.206-.532.423-.8.632a91.421 91.421 0 00-1.952 1.563c-.341.283-.675.575-1.011.863-.558.477-1.113.957-1.658 1.448a86.21 86.21 0 00-1.045.962 88.467 88.467 0 00-2.564 2.48 85.915 85.915 0 00-1.482 1.537c-.323.342-.646.682-.963 1.03a88.183 88.183 0 00-1.49 1.683c-.281.324-.567.644-.844.973a86.035 86.035 0 00-1.702 2.098c-.172.218-.351.429-.521.649a86.394 86.394 0 00-2.107 2.837c-.182.256-.354.519-.533.777-.496.713-.988 1.43-1.463 2.159-.24.369-.47.744-.705 1.117a86.696 86.696 0 00-1.178 1.912c-.245.411-.482.827-.72 1.243a86.22 86.22 0 00-1.738 3.183 84.678 84.678 0 00-.968 1.929c-.213.436-.425.871-.631 1.311a86.893 86.893 0 00-.924 2.063c-.18.414-.365.824-.54 1.242a88.038 88.038 0 00-.969 2.444c-.119.31-.246.616-.361.928l-.053.136C22.167 172.148 15 149.772 15 126.561a7.5 7.5 0 00-15 0c0 31.738 11.81 62.099 33.253 85.491 23.926 26.1 57.936 41.069 93.307 41.069 35.373 0 69.382-14.969 93.308-41.07l.006-.007c21.44-23.391 33.247-53.749 33.247-85.483zm-126.56-58.623c18.15 0 32.917 14.766 32.917 32.917s-14.766 32.917-32.917 32.917-32.917-14.766-32.917-32.917 14.766-32.917 32.917-32.917z"/></svg></defs></svg>