<?xml version="1.0" encoding="utf-8"?><svg width="50" height="50" xmlns="http://www.w3.org/2000/svg" viewBox="0 0 50 50"><g clip-path="url(#bjclip0)"><path d="M49.602 17.738l-8.148-4.704a9.373 9.373 0 013.055-2.836.796.796 0 000-1.378l-7.644-4.413a.796.796 0 00-.788-.005l-.01.006a10.966 10.966 0 00-3.639 3.415l-.66-.382a.796.796 0 00-.797 0l-10.189 5.884a.8.8 0 00-.123.087L.277 31.066l.001.001a.795.795 0 00-.276.6L0 34.607c0 .286.152.549.398.69l17.837 10.297a.796.796 0 00.796 0l30.571-17.651a.796.796 0 00.398-.69v-8.826a.796.796 0 00-.398-.69zm-18.628-3.13l7.643 4.416a.796.796 0 001.194-.69c0-.475.037-.946.108-1.409l2.6 1.502-3.503 2.023-11.148-6.436 2.817-1.627c-.071.504-.109 1.015-.109 1.532 0 .284.152.547.398.69zm5.504-8.587L42.6 9.556a11.03 11.03 0 00-4.3 7.446l-6.121-3.536a9.42 9.42 0 014.3-7.445zM31.37 9.05l.275.158c-.169.354-.319.717-.449 1.088a.794.794 0 00-.222.086l-5.095 2.943a.796.796 0 000 1.378l12.74 7.355a.796.796 0 00.795 0l5.096-2.942a.796.796 0 000-1.378l-4.197-2.424c.104-.304.223-.603.357-.895l6.944 4.009-8.598 4.966-16.242-9.38 8.596-4.964zm-10.095 5.936l16.375 9.457L18.538 40.99 2.165 31.538l19.109-16.552zM1.592 34.15l.001-1.103 16.242 9.377v1.102L1.593 34.149zm17.836 9.377l-.001-1.2 20.052-17.362 8.93-5.157v6.987L19.427 43.526z"/><path d="M17.203 21.463l12.766 7.37a.795.795 0 00.919-.087l3.903-3.38a.796.796 0 00-.123-1.29l-12.766-7.372a.796.796 0 00-.919.087l-3.903 3.381a.796.796 0 00.123 1.291zm4.394-3.097l11.307 6.53-2.63 2.276-11.307-6.528 2.63-2.278zM4.75 31.29a.796.796 0 00.394.614l12.764 7.37a.795.795 0 00.919-.088l10.019-8.675a.796.796 0 00-.123-1.291l-12.765-7.371a.796.796 0 00-.92.087L5.022 30.613a.796.796 0 00-.271.678zm10.902-7.78l11.306 6.53-8.745 7.572-11.305-6.527 8.744-7.574z"/></g><defs><clipPath id="bjclip0"><path d="M0 0h50v50H0z"/></clipPath></defs></svg>