<?xml version="1.0" encoding="utf-8"?><svg width="40" height="38" fill="none" xmlns="http://www.w3.org/2000/svg" viewBox="0 0 40 38"><g clip-path="url(#auclip0)" fill="#006A44"><path d="M37.322 32.458c0 .76.016 1.524-.002 2.285-.044 1.68-1.346 3.047-3.06 3.237-1.603.178-3.176-.946-3.588-2.556-.17-.666-.159-1.34-.14-2.018.115-4.03.186-8.06.359-12.086.087-2.057.078-4.116.158-6.172.032-.788-.223-1.389-.791-1.962-2.74-2.759-3.147-7.206-1.005-10.466 2.422-3.684 7.151-3.616 9.475.136a8.416 8.416 0 01-1.166 10.377c-.562.57-.79 1.197-.767 1.98.18 5.748.341 11.495.507 17.243a.064.064 0 00.02.002zm-4.998.447h-.014c0 .508-.012 1.016.002 1.524.03 1.176.649 1.83 1.693 1.806 1.012-.025 1.647-.78 1.617-1.901-.108-3.917-.163-7.838-.336-11.753-.096-2.198-.009-4.406-.197-6.593-.15-1.752.338-3.08 1.582-4.337 2.193-2.215 2.084-6.574-.09-8.766-1.536-1.55-3.648-1.571-5.2-.052-2.324 2.271-2.36 6.676.002 9.021 1.046 1.039 1.507 2.179 1.456 3.635-.202 5.806-.347 11.612-.515 17.416zM11.969 6.594c0 1.382.011 2.765-.003 4.147-.014 1.357-.545 2.5-1.7 3.25-1.079.703-1.467 1.615-1.421 2.863.2 5.495.347 10.99.501 16.487.02.756.097 1.519-.14 2.268-.486 1.533-2 2.554-3.552 2.37-1.605-.189-2.917-1.546-2.933-3.16-.041-3.948.159-7.892.3-11.838.078-2.226.02-4.454.174-6.68.06-.86-.373-1.591-1.134-2.068C.582 13.305.014 11.928.007 10.276-.005 7.68.002 5.084 0 2.488c0-.113 0-.226.012-.339.062-.569.216-1.129.92-1.11.704.015.846.564.846 1.149.002 2.708.032 5.417-.01 8.124-.015 1.095.38 1.903 1.285 2.513 1.283.867 1.893 2.06 1.844 3.603-.177 5.89-.333 11.781-.506 17.671-.02.675.072 1.307.6 1.784.502.449 1.112.464 1.696.22.612-.257.895-.77.879-1.426-.06-2.452-.115-4.905-.184-7.357-.097-3.551-.207-7.102-.302-10.653-.041-1.567.476-2.903 1.84-3.795 1.027-.67 1.376-1.6 1.372-2.745-.01-2.51-.005-5.02-.005-7.533 0-.226-.002-.452.007-.677.023-.526.287-.89.835-.883.55.007.816.388.819.903.02 1.553.014 3.106.014 4.657h.007z"/><path d="M19.955 28.52c-4.706-.02-8.603-3.875-8.594-8.503.01-4.59 3.957-8.465 8.643-8.486 4.731-.02 8.722 3.944 8.676 8.615-.046 4.607-3.99 8.395-8.725 8.375zm0-1.75c3.8.035 6.885-2.866 6.931-6.518.048-3.845-2.905-6.928-6.67-6.967-3.953-.04-7.024 2.86-7.063 6.671-.039 3.82 2.912 6.777 6.802 6.813zM19.29 34.275c-2.323-.054-5.063-.853-7.515-2.533-.189-.128-.38-.257-.548-.41-.35-.319-.52-.696-.209-1.122.32-.443.743-.49 1.208-.213.688.409 1.338.892 2.063 1.222 4.67 2.137 9.132 1.742 13.37-1.134.522-.354 1.028-.98 1.709-.284.45.46.225.97-.663 1.634-2.443 1.822-5.599 2.845-9.415 2.84zM19.954 5.761c2.33.108 4.515.513 6.537 1.553.474.244.791.614.522 1.17-.264.546-.733.562-1.244.347a17.545 17.545 0 01-.474-.203 12.817 12.817 0 00-5.516-1.108c-1.716.031-3.356.372-4.923 1.063-.156.07-.31.149-.469.21-.534.208-1.042.23-1.316-.368-.257-.562.08-.926.564-1.147.623-.284 1.26-.542 1.907-.772 1.447-.51 2.963-.639 4.412-.745zM5.136 5.619c0-1.127-.003-2.255.002-3.382.002-.614.152-1.196.904-1.185.702.01.858.598.863 1.158.018 2.312.018 4.623 0 6.933-.005.569-.187 1.11-.918 1.086-.727-.025-.847-.565-.851-1.14-.003-1.158 0-2.314 0-3.47z"/></g><defs><clipPath id="auclip0"><path fill="#fff" d="M0 0h40v38H0z"/></clipPath></defs></svg>