<?xml version="1.0" encoding="utf-8"?><svg width="50" height="50" xmlns="http://www.w3.org/2000/svg" viewBox="0 0 50 50"><path d="M19.574 36.748a.86.86 0 001.244 1.016l3.033-1.726a.86.86 0 00.436-.748v-4.438a.861.861 0 00-1.327-.724l-1.284.826a.86.86 0 00-.352.456l-1.75 5.338zm2.331-1.584l.66-2.012v1.637l-.66.375zM27.273 23.876v10.07a.861.861 0 001.29.746l18.045-10.355a.86.86 0 00.432-.747V13.52a.861.861 0 00-1.29-.746L27.707 23.13a.861.861 0 00-.433.746zm1.723.499l16.322-9.367v8.083l-16.322 9.367v-8.083z"/><path d="M.32 37.253v3.801c0 .308.164.592.43.746l14.005 8.085a.859.859 0 00.855 0v.002l4.995-2.836s2.005 1.205 2.113 1.268c.373.215.785.317 1.212.317 1.329 0 2.813-.986 3.768-2.64.566-.98.857-2.056.82-3.028-.005-.152-.02-.299-.042-.442l9.938-5.737 2.172 1.14c.358.2.76.3 1.185.3.501 0 1.032-.139 1.553-.414.86-.454 1.646-1.244 2.212-2.225.566-.98.858-2.056.82-3.027a4.063 4.063 0 00-.021-.284l.947-.547a.861.861 0 00.431-.745v-4.243l1.537-.883a.861.861 0 00.432-.747V8.947a.86.86 0 00-.43-.745L35.245.115a.861.861 0 00-.86 0L11.062 13.52a.861.861 0 00-.432.746v4.24l-4.74 2.766a.86.86 0 00-.401.54h-.001l-2.051 8.444A9.393 9.393 0 00.32 37.253zm1.763-.775l.8.462v.923l-.84-.474v-.136c0-.26.014-.52.04-.775zm3.115-6.176l.825-3.398L18.3 33.991l-.966 3.316-12.135-7.005zm1.692-6.965l12.423 7.172-.518 1.78L6.447 25.16l.443-1.823zm1.15-1.325l3.45-2.014 12.287 7.094-3.45 2.013L8.04 22.012zm4.312-6.254l12.282 7.09v2.75l-12.282-7.092v-2.748zm34.744-6.812l-21.6 12.412-12.28-7.09L34.814 1.856l12.282 7.09zM26.356 37.03v-14.18L47.96 10.434v14.181L26.356 37.031zm14.622-1.629c-.024-.642.191-1.408.592-2.102.4-.693.955-1.262 1.524-1.562.27-.143.527-.216.745-.216.136 0 .257.028.357.086.26.15.42.522.44 1.02.024.642-.192 1.408-.592 2.101-.4.694-.955 1.263-1.524 1.563-.44.233-.842.28-1.103.13-.26-.15-.42-.522-.439-1.02zm-13.758 5.12a2.353 2.353 0 00-.864-.292v-1.213l19.635-11.283v2.755l-.295.17a2.34 2.34 0 00-.638-.542c-.784-.453-1.793-.417-2.768.098-.86.454-1.645 1.244-2.212 2.225a6.293 6.293 0 00-.706 1.808l-11.614 6.704a2.324 2.324 0 00-.538-.43zm-3.488 3.184c.656-1.137 1.62-1.78 2.266-1.78.136 0 .259.029.36.088.26.15.42.522.44 1.02.024.642-.191 1.408-.592 2.101-.795 1.378-2.043 2.03-2.627 1.693-.584-.338-.643-1.744.152-3.122zm-7.685 1.113c0-2 .763-3.893 2.15-5.333l.276-.287a.86.86 0 00.206-.356l2.38-8.172 3.575-2.085V40.53c-.898.417-1.762 1.22-2.394 2.314a6.326 6.326 0 00-.68 1.682l-5.513 3.132v-2.84zm-2.575-.845v-.952l.938.54c-.041.307-.067.617-.077.93l-.861-.518zm-11.43-3.417v-1.192l1.28.721a.86.86 0 001.284-.75v-2.893a.861.861 0 00-.43-.745l-1.702-.983a7.67 7.67 0 011.853-2.928l12.167 7.025a9.36 9.36 0 00-1.677 2.997l-1.774-1.023a.861.861 0 00-1.291.745l-.003 2.93a.86.86 0 00.418.738l2.158 1.297v1.152L2.042 40.557z"/></svg>