<?xml version="1.0" encoding="utf-8"?><svg width="50" height="50" xmlns="http://www.w3.org/2000/svg" viewBox="0 0 50 50"><path d="M42.969 48.438H10.156a.782.782 0 010-1.563h32.032V5.469a.782.782 0 011.562 0v42.187c0 .431-.35.782-.781.782z"/><path d="M39.844 45.312H7.03a.782.782 0 01-.781-.78V11.718a.782.782 0 011.563 0v32.03h31.25V3.126H19.53a.782.782 0 010-1.563h20.313c.431 0 .781.35.781.782V44.53c0 .431-.35.781-.781.781z"/><path d="M16.408 12.5H7.066a.78.78 0 01-.72-.483.78.78 0 01.166-.85l9.343-9.375a.781.781 0 011.334.552v9.375c0 .431-.35.781-.781.781zm-7.46-1.563h6.678V4.234l-6.678 6.704zM11.719 23.438h12.5a.782.782 0 000-1.563h-12.5a.782.782 0 000 1.563zM11.719 26.563h7.812a.782.782 0 000-1.563H11.72a.782.782 0 000 1.563zM22.656 26.563h12.5a.782.782 0 000-1.563h-12.5a.782.782 0 000 1.563zM11.719 32.813h10.937a.782.782 0 000-1.563H11.72a.782.782 0 000 1.563zM11.719 29.688h15.625a.782.782 0 000-1.563H11.719a.782.782 0 000 1.563zM30.469 29.688h4.687a.782.782 0 000-1.563H30.47a.782.782 0 000 1.563zM27.344 23.438h7.812a.782.782 0 000-1.563h-7.812a.782.782 0 000 1.563zM14.844 17.188h20.312a.782.782 0 000-1.563H14.844a.782.782 0 000 1.563zM11.719 20.313h23.437a.782.782 0 000-1.563H11.72a.782.782 0 000 1.563z"/></svg>