<?xml version="1.0" encoding="utf-8"?><svg width="40" height="41" fill="none" xmlns="http://www.w3.org/2000/svg" viewBox="0 0 40 41"><path d="M39.733 16.862c.01.597-.358.998-.736 1.383-1.133 1.15-2.257 2.31-3.426 3.424-.584.554-.594.972 0 1.532a107.215 107.215 0 013.254 3.242c.928.955.978 1.638.053 2.576a982.98 982.98 0 01-9.833 9.84c-.978.964-1.638.9-2.665-.1-1.008-.985-2.048-1.94-2.973-2.997-.759-.869-1.28-.73-1.982.05-.997 1.103-2.078 2.134-3.155 3.169-1.114 1.07-1.74 1.054-2.85-.03-1.034-1.014-2.078-2.022-3.066-3.08-.583-.623-1.024-.66-1.624-.016-1.074 1.147-2.204 2.247-3.328 3.345-1.063 1.04-1.733 1.08-2.77.09a123.432 123.432 0 01-3.954-3.95c-.908-.95-.902-1.637.006-2.595 1.14-1.2 2.31-2.374 3.51-3.517.593-.564.56-.985-.02-1.535A93.097 93.097 0 01.84 24.355c-.931-.978-.925-1.575.02-2.56 1.12-1.163 2.247-2.324 3.427-3.42.66-.614.746-1.049.03-1.695-1.104-1.001-2.135-2.082-3.165-3.156-1.008-1.044-1.034-1.647-.043-2.649C4.34 7.607 7.59 4.358 10.856 1.122c1.014-1.004 1.614-.988 2.648.004a90.919 90.919 0 013.248 3.248c.553.59.948.617 1.511.014 1.074-1.147 2.208-2.241 3.331-3.345 1.223-1.2 1.767-1.197 3.01.023 1.004.985 2.035 1.953 2.972 2.997.677.752 1.16.673 1.807-.03 1.007-1.097 2.084-2.132 3.152-3.17 1.17-1.136 1.826-1.15 2.96-.046A176.125 176.125 0 0139.18 4.51c1.11 1.15 1.09 1.79-.053 2.954-1.074 1.09-2.141 2.191-3.258 3.242-.617.58-.673 1.021-.023 1.625 1.09 1.014 2.117 2.098 3.168 3.152.381.382.756.773.72 1.38zM23.14 2.266c-.378.027-.57.255-.773.458-2.833 2.834-5.664 5.675-8.507 8.5-.461.457-.587.838-.06 1.342.984.941 1.942 1.913 2.89 2.894.401.414.72.434 1.137.013 2.913-2.93 5.836-5.854 8.77-8.765.424-.42.397-.732-.014-1.134-.98-.948-1.932-1.926-2.903-2.884-.166-.165-.375-.298-.54-.424zM6.03 26.924c.375.033.527-.183.696-.352 2.894-2.89 5.78-5.791 8.684-8.675.43-.428.537-.763.046-1.23a103.5 103.5 0 01-2.896-2.888c-.441-.454-.806-.45-1.25 0-2.883 2.901-5.777 5.795-8.68 8.68-.414.41-.411.748-.003 1.15 1 .984 1.985 1.989 2.982 2.98.143.143.315.252.421.335zm22.272-11.325c.173-.129.421-.275.62-.474 2.84-2.83 5.668-5.675 8.514-8.496.471-.468.587-.816.047-1.32a60.57 60.57 0 01-2.807-2.804c-.508-.54-.855-.418-1.323.05-2.82 2.847-5.664 5.675-8.494 8.516-.226.225-.643.52-.411.815 1.07 1.366 2.323 2.563 3.649 3.68.023.027.076.017.205.033zm5.485-2.648c-.198.142-.38.242-.52.384-2.927 2.92-5.846 5.851-8.78 8.765-.487.484-.328.839.09 1.243.918.892 1.843 1.784 2.714 2.725.537.58.912.474 1.422-.036 2.82-2.854 5.654-5.689 8.508-8.51.504-.497.497-.845-.003-1.323-.962-.908-1.876-1.866-2.818-2.794-.175-.173-.39-.292-.613-.454zm-7.205 15.047c-.106-.173-.166-.332-.275-.444-1.047-1.058-2.104-2.105-3.152-3.163-.404-.408-.726-.225-1.054.103-2.893 2.897-5.783 5.795-8.69 8.679-.454.45-.46.795 0 1.236a80 80 0 012.804 2.808c.487.517.839.474 1.323-.017 2.82-2.854 5.664-5.678 8.497-8.52.2-.195.355-.437.547-.682zm-10.983.106c-.083-.113-.183-.295-.322-.434-.987-.998-1.992-1.983-2.976-2.987-.44-.451-.786-.272-1.15.096-2.89 2.897-5.78 5.795-8.684 8.679-.407.404-.44.726-.013 1.137.981.948 1.949 1.91 2.89 2.897.441.461.773.468 1.23.01 2.85-2.877 5.72-5.735 8.584-8.603.195-.202.437-.387.44-.795zm.417-21.79c-.05-.086-.093-.21-.175-.295a596.125 596.125 0 00-3.242-3.246c-.42-.417-.742-.13-1.05.18-2.864 2.863-5.724 5.734-8.598 8.589-.454.45-.454.802.004 1.243a86.142 86.142 0 012.804 2.808c.493.523.838.457 1.319-.03 2.817-2.851 5.664-5.679 8.494-8.517.199-.199.46-.364.444-.732zm1.058 20.398c.33.006.51-.242.709-.441 2.837-2.831 5.664-5.676 8.514-8.497.494-.49.51-.849.003-1.33a93.15 93.15 0 01-2.807-2.8c-.45-.468-.798-.422-1.24.023-2.853 2.874-5.723 5.731-8.583 8.602-.226.226-.604.514-.305.832 1.13 1.204 2.313 2.358 3.48 3.524.053.05.152.057.229.087zm16.332-2.755c-.102.08-.282.185-.424.325-2.897 2.89-5.783 5.791-8.69 8.675-.48.478-.358.832.066 1.243.948.922 1.89 1.853 2.804 2.808.444.464.782.448 1.233-.006 2.85-2.878 5.717-5.742 8.594-8.596.44-.438.514-.776.036-1.234-.984-.944-1.935-1.922-2.903-2.884-.172-.172-.344-.361-.716-.331z" fill="#006A44"/></svg>