<?xml version="1.0" encoding="utf-8"?><svg width="40" height="35" fill="none" xmlns="http://www.w3.org/2000/svg" viewBox="0 0 40 35"><path d="M28.69 18.156c-2.896 0-5.79.022-8.686-.015-.783-.01-1.095.213-1.059 1.036.056 1.309-.007 2.625.02 3.937.017.837-.322 1.252-1.178 1.25-2.347-.01-4.693-.01-7.04-.005-.766.003-1.134-.398-1.139-1.123-.015-3.173-.056-6.348.007-9.52.027-1.409 1.135-2.493 2.544-2.53 2.069-.051 4.142-.146 6.21.083.76.083 1.357.4 1.674 1.094.217.474.546.572 1.017.572 4.51-.01 9.023-.013 13.533.01.712.004.987-.247.965-.96-.036-1.158.008-2.32-.029-3.478-.034-1.092-.707-1.827-1.632-1.863-.944-.037-1.624.613-1.79 1.714-.017.12-.017.244-.039.364-.078.432-.295.772-.77.752-.515-.022-.713-.376-.745-.87-.078-1.252.956-2.803 2.22-3.301 1.232-.489 2.627-.064 3.503 1.052.627.801.914 1.715.922 2.721.007 1.006.017 2.015.002 3.021-.005.488.122.752.673.88 1.505.346 2.271 1.48 2.105 2.954-.148 1.331-1.258 2.218-2.785 2.22-2.835.003-5.669 0-8.503 0v.005zm-.195-1.56c2.892 0 5.785.007 8.678-.003 1.015-.002 1.327-.337 1.256-1.221-.07-.874-.702-.88-1.329-.88-5.695-.002-11.389.015-17.084-.016-.858-.005-1.08.29-1.085 1.11-.008.829.29 1.036 1.068 1.027 2.832-.037 5.664-.015 8.496-.018zm-11.089-.357h-.005c0-.884-.007-1.768.003-2.65.007-.527-.22-.784-.764-.781-1.49.012-2.983.002-4.473.01-.583.002-.925.285-.927.886-.007 1.707 0 3.412-.002 5.119 0 .495.229.71.726.708a228.72 228.72 0 014.657.005c.602.01.807-.259.793-.828-.023-.823-.008-1.646-.008-2.47zm-3.093 4.852v-.007c-.758 0-1.52.02-2.278-.007-.585-.02-.822.222-.815.808.008.557.095.943.788.933 1.55-.024 3.098-.024 4.647.003.634.01.763-.316.758-.855-.004-.518-.078-.901-.731-.88-.788.025-1.578.006-2.369.006z" fill="#006A44"/><path d="M37.22 22.132c.048 2.874-.915 5.329-3.1 7.229-.606.525-.8.989-.354 1.704.305.489.52 1.036.75 1.566.21.478.308.994-.26 1.275-.586.29-.895-.127-1.13-.599-.285-.574-.585-1.14-.843-1.726-.227-.513-.53-.667-1.081-.447-1.237.49-2.537.581-3.861.576-5.03-.02-10.06-.015-15.089-.005-1.17.003-2.322-.102-3.405-.552-.637-.263-.951-.053-1.198.528-.26.618-.575 1.214-.887 1.807-.203.379-.513.64-.969.454-.49-.2-.575-.632-.4-1.07.298-.732.637-1.453.998-2.158.234-.46.173-.762-.234-1.1-2.79-2.302-3.654-5.357-3.396-8.845.037-.5.25-.698.742-.7.512-.003.797.153.814.722.032 1.036-.068 2.071.125 3.104.685 3.654 3.463 6.17 7.188 6.225 5.579.083 11.157.086 16.735.005 4.169-.06 7.264-3.324 7.315-7.497.008-.61.01-1.221.003-1.832-.008-.488.2-.728.707-.728.49 0 .849.105.837.694-.012.454-.008.91-.008 1.37zM4.637 18.146c-.732 0-1.464.025-2.193-.005C1.034 18.081.007 16.99 0 15.58c-.007-1.434.973-2.58 2.373-2.628 1.58-.059 3.166-.005 4.752-.022.588-.005.822.256.81.83-.013.562-.31.73-.82.728-1.432-.01-2.863.005-4.295-.003-.72-.004-1.264.145-1.271 1.04-.005.88.495 1.075 1.237 1.068 1.4-.012 2.802.012 4.202-.005.586-.007.93.156.915.818-.012.626-.361.757-.893.745-.79-.017-1.583-.005-2.376-.005.003.003.003.003.003 0zM23.53 4.71c1.48-.025 2.896 1.377 2.891 2.857-.005 1.345-1.417 2.786-2.763 2.818-1.464.037-2.898-1.348-2.932-2.83-.032-1.405 1.363-2.821 2.805-2.846zm1.33 2.813c-.005-.706-.566-1.25-1.297-1.258-.727-.007-1.288.557-1.266 1.272.024.767.507 1.221 1.297 1.224.79 0 1.271-.471 1.266-1.238zM20.735 2.4c-.68-.11-1.134-.47-1.136-1.193-.003-.71.415-1.14 1.117-1.204.624-.056 1.285.606 1.22 1.217-.074.693-.505 1.074-1.2 1.18zM15.928 6.456c.017-.777.578-1.31 1.246-1.248.727.066 1.093.54 1.064 1.22-.03.704-.48 1.11-1.193 1.09-.717-.017-1.08-.45-1.117-1.062z" fill="#006A44"/></svg>