<?xml version="1.0" encoding="utf-8"?><svg width="50" height="50" xmlns="http://www.w3.org/2000/svg" viewBox="0 0 50 50"><path d="M41.874 44.245v4.922a.833.833 0 01-1.666 0v-4.922a6.93 6.93 0 00-6.934-6.934 5.116 5.116 0 01-4.401-2.471.833.833 0 011.423-.867 3.461 3.461 0 002.978 1.672c4.753 0 8.6 3.846 8.6 8.6zm-14.54-8.352a.833.833 0 01-.637.991 7.975 7.975 0 01-6.198-1.212c-1.758 1.883-4.08 1.64-3.77 1.64a6.93 6.93 0 00-6.934 6.933v4.922a.833.833 0 01-1.666 0v-4.922c0-4.753 3.846-8.6 8.6-8.6a3.474 3.474 0 003.482-3.473v-.22c-3.637-1.738-6.19-5.393-6.346-9.648-1.496-.36-2.611-1.7-2.611-3.294v-4.32c-.046-2.114.268-7.409 4.129-11.13 4.768-4.597 12.413-4.305 18.035-1.598a.835.835 0 01.176 1.387 11.246 11.246 0 016.882 4.952c.082.129.23.331.192.654a.843.843 0 01-.24.53 5.44 5.44 0 00-1.574 3.842v5.684a.833.833 0 11-1.666 0v-5.684c0-1.67.57-3.256 1.618-4.53-1.597-2.284-4.09-3.754-6.908-4.055l-1.465-.157c-.856-.092-1.024-1.272-.228-1.6l.666-.273c-8.675-3.024-17.951.336-17.951 11.97v4.328c0 .662.38 1.236.937 1.525v-5.402A5.84 5.84 0 0119.69 9.3h10.623a5.84 5.84 0 015.833 5.833v6.822c0 7.246-7.081 12.75-14.287 10.63a5.096 5.096 0 01-.436 1.7 6.31 6.31 0 004.92.97.833.833 0 01.991.637zm-2.332-4.523c5.226 0 9.478-4.252 9.478-9.478v-6.76a4.17 4.17 0 00-4.167-4.165H19.69a4.17 4.17 0 00-4.166 4.166v6.759c0 5.226 4.251 9.478 9.478 9.478zm8.436 14.36h-2.5a.833.833 0 000 1.666h2.5a.833.833 0 000-1.666z"/></svg>