<?xml version="1.0" encoding="utf-8"?><svg width="50" height="50" xmlns="http://www.w3.org/2000/svg" viewBox="0 0 50 50"><g clip-path="url(#aqclip0)"><path d="M29.413 38.832l-5.38-3.106a.788.788 0 00-1.181.682v6.212c0 .281.15.541.393.682l5.38 3.105a.786.786 0 001.181-.682v-6.211a.788.788 0 00-.393-.682zm-1.182 5.53l-3.804-2.197v-4.392l3.804 2.196v4.392z"/><path d="M45.99 14.1L22.974.812a6.135 6.135 0 00-5.98-.067l-.918.503a2.39 2.39 0 00-1.262 2.11v11.518l-5.318-3.07a6.135 6.135 0 00-5.98-.067l-.982.537a2.373 2.373 0 00-1.198 2.076v17.064c0 1.446.778 2.793 2.03 3.516l25.536 14.743c.375.217.787.325 1.198.325.398 0 .796-.102 1.161-.305l2.054-1.116a3.622 3.622 0 001.87-3.17V34.528l7.194 4.154c.375.216.787.324 1.198.324.398 0 .796-.102 1.161-.305l2.054-1.116a3.623 3.623 0 001.87-3.17V18.73a5.36 5.36 0 00-2.672-4.63zm-29.6-9.06L44.4 21.21v4.393L16.39 9.43V5.04zm.01-1.812c.039-.253.19-.47.421-.592l.016-.01a.804.804 0 01.784.02L43.157 17.39a2.494 2.494 0 011.237 2L16.4 3.228zM2.91 16.035l28.01 16.17v4.392L2.912 20.425v-4.39zm.01-1.813a.812.812 0 01.401-.581.807.807 0 01.822 0l25.535 14.743a2.492 2.492 0 011.238 1.998L2.92 14.222zm27.59 34.089a.807.807 0 01-.822 0L4.154 33.568a2.492 2.492 0 01-1.243-2.152v-9.172l28.01 16.172v9.183c0 .428-.286.64-.41.712zm3.098-2.902c0 .745-.405 1.431-1.056 1.791l-.056.031V30.536a4.072 4.072 0 00-2.03-3.517L5.582 12.652a4.55 4.55 0 013.127.519l23.015 13.288a3.78 3.78 0 011.885 3.265v15.685zm10.38-8.092a.808.808 0 01-.823 0l-7.981-4.608v-2.985a5.36 5.36 0 00-2.673-4.63l-16.123-9.308V11.25l28.01 16.172v9.183c0 .428-.287.64-.41.712zm3.098-2.902c0 .745-.405 1.431-1.057 1.791l-.055.031V19.541a4.073 4.073 0 00-2.03-3.516L19.059 1.658a4.548 4.548 0 013.127.518l23.016 13.288a3.78 3.78 0 011.885 3.266v15.685z"/><path d="M42.893 27.838l-5.38-3.106a.788.788 0 00-1.181.682v6.211c0 .282.15.542.394.683l5.38 3.105a.788.788 0 001.18-.682V28.52a.788.788 0 00-.393-.682zm-1.182 5.529l-3.804-2.196v-4.393l3.804 2.197v4.392z"/></g><defs><clipPath id="aqclip0"><path d="M0 0h50v50H0z"/></clipPath></defs></svg>