<?xml version="1.0" encoding="utf-8"?><svg width="20" height="20" fill="none" xmlns="http://www.w3.org/2000/svg" viewBox="0 0 20 20"><g clip-path="url(#bjclip0)" fill="#fff"><path d="M16.64 4.854l-.835-3.057-2.835.774L11.789.187l-9.42 4.667H0v14.959h18.714V15.78H20V8.818h-1.286V4.854h-2.075zM14.82 3.52l.364 1.334H9.932l2.293-.626 1.38-.376 1.216-.332zm2.49 14.89H1.403V6.257H17.31v2.561h-7.156V15.78h7.156v2.629zm1.286-4.032H11.56v-4.157H18.596v4.157zM11.154 2.067l.437.88-4.93 1.346 4.494-2.226z"/><path d="M12.67 11.647v1.373h1.373v-1.373H12.67z"/></g><defs><clipPath id="bjclip0"><path fill="#fff" d="M0 0h20v20H0z"/></clipPath></defs></svg>