<?xml version="1.0" encoding="utf-8"?><svg width="50" height="50" xmlns="http://www.w3.org/2000/svg" viewBox="0 0 50 50"><path d="M49.59 22.895L15.738 3.35a.82.82 0 00-.82 0L.412 11.726a.82.82 0 00-.41.71L0 26.395a.82.82 0 00.41.71L34.262 46.65a.82.82 0 00.82 0l14.508-8.374a.82.82 0 00.41-.71v-13.96a.82.82 0 00-.41-.711zm-37.48 9.071L1.64 25.922v-.9l10.47 6.045v.9zm0-2.793L1.64 23.128v-.897l10.47 6.046v.896zm0-2.79L1.641 20.337v-.897l10.47 6.045v.898zm0-2.792L1.642 17.546v-.898l10.468 6.045v.898zm0-2.792L1.642 14.754v-.898l10.468 6.045v.898zm-9.648-8.363l12.866-7.428 10.446 6.03-12.9 7.41-10.412-6.012zm19.3 25.103l-8.011-4.626V20.848l8.011 4.626v12.065zm-7.246-18.143l12.9-7.409 8.02 4.63-13 7.352-7.92-4.573zm19.336 25.123l-10.45-6.033v-.898l10.45 6.034v.897zm0-2.791l-10.45-6.035v-.896l10.45 6.033v.898zm0-2.792l-10.45-6.034v-.897l10.45 6.033v.898zm0-2.792l-10.45-6.033v-.898l10.45 6.033v.898zm0-2.792l-10.45-6.033v-.898l10.45 6.034v.897zm.82-2.318l-10.587-6.113 13-7.352 10.454 6.036-12.867 7.43zm13.688 6.058l-12.868 7.427v-.898l12.868-7.43v.901zm0-2.794l-12.868 7.43v-.899L48.36 33.4v.898zm0-2.792l-12.868 7.43v-.898l12.868-7.429v.897zm0-2.79l-12.868 7.428v-.898l12.868-7.429v.898zm0-2.793l-12.868 7.429v-.897l12.868-7.43v.898z"/></svg>