<?xml version="1.0" encoding="utf-8"?><svg width="37" height="30" fill="none" xmlns="http://www.w3.org/2000/svg" viewBox="0 0 37 30"><path d="M23.604 12.783c0-2.797.075-5.597-.025-8.39-.07-2.023 1.47-4.1 3.744-4.225 2.004-.11 3.846 1.827 3.906 4.078.044 1.697.03 3.395-.002 5.092-.012.625.19.85.806.828 1.099-.038 2.2.02 3.298-.02.63-.022.728.292.726.831-.002.536-.093.85-.722.845-3.041-.02-6.081-.009-9.122-.009-.985 0-.987 0-.987.97 0 2.965.012 5.927-.009 8.892-.004.542.146.813.687.953.56.145 1.1.401 1.622.663 1.644.821 3.29.846 4.925.018.889-.452 1.798-.807 2.788-.91.33-.035.721-.14.803.414.124.825-.002 1.152-.597 1.242-.797.12-1.538.388-2.257.748-2.111 1.06-4.254 1.107-6.343.007-1.931-1.015-3.78-.97-5.697.023-2.023 1.047-4.125 1.075-6.148.03-2.021-1.042-3.932-1.043-5.956.03-1.939 1.029-3.982.937-5.963.019-.791-.368-1.557-.765-2.442-.832-.885-.065-.593-.758-.591-1.246.003-.61.49-.468.836-.43a6.535 6.535 0 012.401.748c1.827.993 3.66 1.033 5.496.019a6.08 6.08 0 012.118-.721c.474-.065.676-.285.674-.798-.015-3.06-.015-6.119.004-9.18.003-.64-.348-.663-.815-.663-3.297.008-6.595-.007-9.893.014-.625.003-.868-.184-.86-.857.005-.63.205-.827.815-.823 3.272.023 6.547.012 9.822.012.92 0 .923-.004.923-.966.002-1.626-.024-3.252.006-4.876C11.61 2.377 12.81.782 14.52.311c2.191-.602 4.619 1.242 4.67 3.585.039 1.815.031 3.634 0 5.45-.012.623.166.87.795.816.558-.048 1.123.008 1.682-.013.545-.02.94.013.927.776-.011.693-.238.91-.9.9-2.082-.033-4.163-.014-6.246-.014-.515 0-1.03.02-1.544-.006-.503-.023-.64.228-.642.699-.002.485.167.684.657.68 2.573-.013 5.145-.007 7.719-.003.913.002.937.06.939.968.002.543-.219.696-.715.692-2.175-.015-4.35-.006-6.526-.004-.468 0-.936.02-1.404-.006-.477-.026-.672.161-.672.662-.002.515.17.73.695.727 2.573-.015 5.145-.008 7.718-.002.87.002.872.052.908.937.026.662-.266.811-.839.807-2.573-.017-5.145-.005-7.718-.007-.403 0-.74.017-.76.581-.02.565.125.815.741.808 2.573-.03 5.145.005 7.718-.02.616-.005.88.155.865.84-.013.616-.192.844-.81.836a477.377 477.377 0 00-7.578-.002c-.352.002-.86-.199-.92.455-.048.544-.063 1.003.665 1.171.652.151 1.262.497 1.877.782 1.449.672 2.905.656 4.35.039.968-.416 1.885-.965 2.965-1.047.516-.04.464-.434.464-.795 0-2.939 0-5.88.002-8.82zM17.58 6.759h-.006V3.97a1.86 1.86 0 00-.005-.144c-.096-1.184-.953-1.941-2.187-1.93-1.179.01-2.068.788-2.092 1.944-.04 1.907-.011 3.816-.02 5.725-.002.422.168.6.587.594a78.89 78.89 0 013.08.004c.495.012.66-.2.648-.683-.02-.906-.005-1.813-.005-2.72zm11.944-.06h-.003c0-.932.028-1.864-.008-2.793-.047-1.236-.866-2.001-2.096-2.013-1.269-.011-2.152.758-2.179 2.003-.039 1.884-.007 3.77-.018 5.656-.002.417.14.608.572.6a95.824 95.824 0 013.154 0c.421.006.59-.166.584-.592-.015-.953-.006-1.907-.006-2.862z" fill="#006A44"/><path d="M29.875 29.433c-.963-.08-2.008-.22-2.95-.755-1.916-1.09-3.817-1.046-5.758-.04-2.076 1.075-4.193 1.073-6.268-.002-1.917-.993-3.779-1.014-5.703.002-2.016 1.065-4.095 1.04-6.152.082-.83-.388-1.643-.776-2.579-.864-.704-.066-.374-.693-.429-1.087-.054-.396.173-.545.55-.541.91.007 1.77.246 2.555.68 1.977 1.089 3.903 1.022 5.894-.007 2.03-1.048 4.134-.974 6.148.052 1.934.983 3.78.971 5.705-.006 2.07-1.052 4.202-1.06 6.277.013 1.895.98 3.753 1.01 5.64.002.814-.434 1.684-.7 2.614-.738.448-.02.67.163.62.623-.045.402.222.985-.51 1.03-.812.05-1.545.344-2.253.732-1.033.564-2.154.765-3.4.824z" fill="#006A44"/></svg>