<?xml version="1.0" encoding="utf-8"?><svg width="40" height="40" fill="none" xmlns="http://www.w3.org/2000/svg" viewBox="0 0 40 40"><path d="M35.026 8.105c0 1.757.035 3.517-.015 5.274-.025.835.3 1.094 1.097 1.035.93-.07 1.859-.15 2.796-.027.56.074 1.139.118 1.094.832-.045.673-.63.77-1.186.772-2.335.01-4.673.008-7.008.008-1.378 0-1.378-.003-1.378 1.364 0 1.14-.022 2.284.005 3.424.02.827-.344 1.173-1.174 1.168-2.46-.018-4.922.02-7.381-.02-.778-.012-1.044.242-1.012 1.007.05 1.202.017 2.407.01 3.609-.008 1.185-.274 1.456-1.5 1.464-2.335.012-4.673.034-7.008-.008-.835-.015-1.094.284-1.059 1.079.052 1.138.017 2.283.01 3.423-.008 1.245-.234 1.474-1.46 1.477-2.368.005-4.735.03-7.1-.013-.795-.015-1.04.282-1.012 1.027.04 1.17.01 2.345.005 3.517 0 .373-.017.748-.204 1.08-.165.288-.436.46-.78.387-.464-.1-.67-.462-.686-.887-.035-.955-.027-1.91-.032-2.868-.005-.832-.015-1.666.005-2.498.025-1.029.324-1.32 1.343-1.338.748-.012 1.495-.024 2.243.003.615.022.92-.175.915-.837-.018-3.456-.013-6.909-.008-10.365 0-.57-.164-.765-.7-.4-.36.247-.71.514-1.104.694-.788.36-1.117.936-.995 1.777a.373.373 0 010 .092c-.062.632.043 1.483-.867 1.47-.904-.012-.752-.86-.84-1.49-.204-1.456.37-2.35 1.66-3.15C12.232 13.658 22.716 7.056 33.21.47A2.884 2.884 0 0134.877 0c1.308.032 2.616.005 3.925.017.598.005 1.218.131 1.194.86-.028.735-.668.804-1.256.767-.935-.062-1.864-.015-2.799.034-.68.035-.93.311-.922.968.022 1.817.007 3.638.007 5.458zm-9.659 5.729c0 1.848.025 3.7-.012 5.549-.015.703.184 1.044.944.975.494-.045 1-.045 1.493-.003.755.064 1.069-.2 1.037-.987-.05-1.232.005-2.466-.018-3.7-.017-.891.411-1.326 1.286-1.328.745-.003 1.493.014 2.236.069.71.052 1.001-.188.996-.936a742.71 742.71 0 01-.002-10.266c.005-.693-.137-.82-.76-.42a381.313 381.313 0 01-6.55 4.1c-.483.297-.662.657-.655 1.21.02 1.913.005 3.826.005 5.737zm-1.62.59c0-1.696-.025-3.392.01-5.088.018-.777-.15-.95-.86-.493a302.847 302.847 0 01-6.312 3.954c-.576.35-.79.768-.782 1.43.027 3.238-.018 6.476.02 9.712.03 2.728-.531 2.35 2.512 2.392.67.01.957-.212.934-.908-.037-1.294.003-2.59-.012-3.885-.01-.813.376-1.195 1.188-1.19.748.007 1.498-.042 2.24.012.803.06 1.112-.2 1.082-1.034-.06-1.632-.02-3.268-.02-4.902zM6.256 25.788c0 1.449-.018 2.898.005 4.347.037 2.582-.412 2.19 2.267 2.266.905.027 1.127-.33 1.094-1.14-.047-1.17-.027-2.343 0-3.515.025-1.074.332-1.375 1.403-1.412a23.972 23.972 0 012.149.002c.735.04 1.059-.185 1.051-.987a591.477 591.477 0 01-.007-10.084c.005-.693-.107-.93-.8-.481a389.225 389.225 0 01-6.392 4.014c-.576.353-.79.787-.78 1.441.03 1.849.01 3.7.01 5.55z" fill="#006A44"/></svg>