<?xml version="1.0" encoding="utf-8"?><svg width="20" height="18" fill="none" xmlns="http://www.w3.org/2000/svg" viewBox="0 0 20 18"><g clip-path="url(#bcclip0)" fill="#2B2A29"><path d="M.004 8.193L10.064 0l9.932 8.077-.999 1.328-8.927-7.262-9.062 7.372L.004 8.193zM16.292 17.156V10.72h1.627v6.435l-.814.844-.813-.844zm1.627 0V18h-.814l.814-.844zm-5.078-.845h4.264V18h-4.264v-1.689zm-10.022 0h4.433V18H2.82l-.813-.844.813-.845zm0 1.689h-.813v-.844l.813.844zm.814-7.273v6.429H2.006v-6.43h1.627z"/><path d="M13.583 12.91v5.084h-1.627V12.91h1.627zm-5.24.03H6.714l.022-.39.056-.373.096-.356.129-.332.163-.308.196-.28.219-.25.247-.216.258-.186.28-.163.286-.128.292-.1.303-.075.303-.046.309-.024.303-.005.309.023.303.046.303.07.291.093.286.117.275.134.27.163.252.192.236.21.213.239.196.267.163.286.135.314.095.332.062.35.017.366h-1.627l-.006-.18-.028-.157-.045-.152-.056-.134-.073-.128-.09-.122-.1-.11-.119-.106-.129-.099-.146-.087-.157-.076-.162-.07-.174-.052-.18-.04-.185-.03-.185-.012h-.185l-.18.012-.174.03-.168.04-.157.053-.146.07-.135.075-.123.087-.107.1-.095.104-.085.123-.072.133-.062.158-.045.174-.034.198-.01.228zm-1.628 5.054V12.94h1.627v5.054H6.715z"/></g><defs><clipPath id="bcclip0"><path fill="#fff" d="M0 0h20v18H0z"/></clipPath></defs></svg>