<?xml version="1.0" encoding="utf-8"?><svg width="12" height="12" fill="none" xmlns="http://www.w3.org/2000/svg" viewBox="0 0 12 12"><g clip-path="url(#aoclip0)"><path d="M7.798 6c0 .953-.806 1.725-1.801 1.725-.995 0-1.802-.772-1.802-1.726 0-.953.807-1.726 1.802-1.726S7.798 5.046 7.798 6zM6 2.404c-1.03.005-2.098.256-3.109.736A7.919 7.919 0 00.774 4.682C.462 5.012.064 5.49 0 6c.008.441.481.987.774 1.317A7.8 7.8 0 002.89 8.86c.943.458 1.986.721 3.109.736 1.031-.005 2.099-.259 3.109-.736a7.923 7.923 0 002.117-1.542c.312-.33.71-.807.774-1.317-.008-.442-.481-.987-.774-1.318A7.803 7.803 0 009.11 3.141 7.33 7.33 0 006 2.405zm0 .893c1.56 0 2.826 1.21 2.826 2.702 0 1.493-1.266 2.703-2.827 2.703S3.172 7.493 3.172 6c0-1.492 1.266-2.702 2.827-2.702z" fill="#A1A1A1"/></g><defs><clipPath id="aoclip0"><path fill="#fff" d="M0 0h12v12H0z"/></clipPath></defs></svg>