<?xml version="1.0" encoding="utf-8"?><svg width="50" height="50" xmlns="http://www.w3.org/2000/svg" viewBox="0 0 50 50"><g clip-path="url(#biclip0)"><path d="M44.129 9.12L28.519.105a.792.792 0 00-.79 0l-2.64 1.524a8.025 8.025 0 00-4 6.93v9.8l-8.97 5.18a.792.792 0 00-.395.685l-.002 10.355-5.846 3.376a.792.792 0 000 1.37l15.606 9.014a.791.791 0 00.792 0l10.253-5.918a8.98 8.98 0 00-.455.709c-1.545 2.675-1.41 5.548.308 6.54a2.5 2.5 0 001.266.329c1.55 0 3.355-1.259 4.553-3.333.699-1.21 1.081-2.52 1.077-3.69-.004-1.324-.496-2.336-1.386-2.85a2.44 2.44 0 00-.868-.3l.862-.498a.792.792 0 00.396-.685V17.573a6.437 6.437 0 013.21-5.56l2.639-1.523a.791.791 0 000-1.37zm-6.436 33.863c.003.88-.312 1.935-.865 2.893-1.158 2.004-2.856 2.886-3.656 2.424-.8-.462-.886-2.374.271-4.378.955-1.655 2.28-2.544 3.163-2.544.186 0 .353.04.493.12.375.217.592.758.594 1.485zM23.181 6.063L37.41 14.28a7.984 7.984 0 00-.713 3.293v1.677l-14.025-8.098V8.56c0-.87.18-1.718.51-2.498zm-9.874 19.533l7.78 4.492.002 12.592-7.784-4.494.002-12.59zm9.365 17.084l-.002-12.592 10.906-6.297-.002 12.592-10.902 6.297zm-.794-13.963l-7.78-4.492L25 17.928l7.784 4.492-10.906 6.297zm0 18.023L7.855 38.64l3.867-2.233v2.234c0 .283.15.545.395.686l9.368 5.409a.79.79 0 00.792 0l12.484-7.211a.792.792 0 00.395-.686l.003-14.42a.792.792 0 00-.396-.685l-9.368-5.406a.792.792 0 00-.791 0l-1.933 1.116V12.98l14.026 8.098v17.109L21.878 46.74zM40.7 10.642a7.984 7.984 0 00-2.498 2.267L23.973 4.69a6.4 6.4 0 011.908-1.69l2.243-1.295L42.15 9.804l-1.45.838z"/></g><defs><clipPath id="biclip0"><path d="M0 0h50v50H0z"/></clipPath></defs></svg>