<?xml version="1.0" encoding="utf-8"?><svg width="50" height="45" xmlns="http://www.w3.org/2000/svg" viewBox="0 0 50 45"><g clip-path="url(#bgclip0)"><path d="M33.963 33.448l2.862-2.086h-9.579v12.524h9.579V41.8h-6.848v-3.205h5.837v-2.086h-5.837v-3.06h3.986zM19.533 41.8h-2.845v-3.47h2.845c1.737 0 2.544.58 2.544 1.73 0 1.185-.856 1.74-2.544 1.74zm.481-5.557h-3.326v-2.795h5.307l2.862-2.086H13.949v12.524h5.707c3.203 0 5.038-1.433 5.038-3.938 0-2.384-1.663-3.705-4.68-3.705zM44.527 38.257h-2.429v-4.809h2.43c1.752 0 2.714.854 2.714 2.4 0 1.555-.962 2.409-2.715 2.409zm.057-6.895h-5.217v12.524h2.731v-3.551h2.486c3.326 0 5.397-1.724 5.397-4.486 0-2.763-2.07-4.487-5.397-4.487zM9.26 41.172a4.917 4.917 0 01-2.364.588c-2.462 0-4.256-1.74-4.256-4.131 0-2.4 1.794-4.14 4.256-4.14.929 0 1.769.257 2.486.773l1.965-1.426-.13-.112c-1.15-1-2.675-1.523-4.427-1.523-1.9 0-3.62.629-4.85 1.78C.707 34.133.022 35.76.022 37.556c0 1.804.677 3.455 1.908 4.64 1.24 1.191 2.96 1.852 4.842 1.852 1.973 0 3.693-.677 4.859-1.917-.905-.653-1.77-1.289-1.77-1.289l-.602.33z"/><path fill-rule="evenodd" clip-rule="evenodd" d="M37.309 10.43c.114.677.17 1.361.17 2.07 0 .628-.04 1.248-.138 1.86l-.081.484h-.009c-2.266 11.436-17.78 13.981-23.575 3.511-2.446-4.414-1.794-10.172 1.63-14.062C18.388.943 22.7-.62 27.2.225c2.323.435 3.807 1.249 5.584 2.554l-2.462 1.788c-.163-.105-.334-.21-.497-.314C22.895.12 13.455 5.83 15.42 14.843v.009c2.185 8.311 13.296 9.81 17.69 2.69.62-.975.848-1.643 1.158-2.698l.146-.685.058-.354c.057-.427.09-.87.09-1.305v-.258l2.64-1.933.074-.048.032.169z"/><path d="M34.852 4.865a12.445 12.445 0 011.516 2.48L24.849 15.73l-4.818-2.98V9.165l4.818 2.98 10.003-7.28z"/></g><defs><clipPath id="bgclip0"><path d="M0 0h50v44.048H0z"/></clipPath></defs></svg>