<?xml version="1.0" encoding="utf-8"?><svg width="24" height="24" fill="none" xmlns="http://www.w3.org/2000/svg" viewBox="0 0 24 24"><path d="M22.428 4.173L15.45 2.22 8.452 4.192 1.943 2.346a.937.937 0 00-1.193.902v15.966a1.13 1.13 0 00.818 1.082l6.882 1.952 7.002-1.972 6.608 1.849a.938.938 0 001.19-.903V5.256a1.129 1.129 0 00-.822-1.083zM7.641 20.459L2.25 18.93V3.992l5.39 1.53v14.937zm7.06-1.53l-5.56 1.566V5.557L14.7 3.99v14.938zm7.049 1.551l-5.55-1.552V3.988l5.55 1.553v14.94z" fill="#F78222"/></svg>