<?xml version="1.0" encoding="iso-8859-1"?><!DOCTYPE svg PUBLIC "-//W3C//DTD SVG 1.1//EN" "http://www.w3.org/Graphics/SVG/1.1/DTD/svg11.dtd"><svg xmlns="http://www.w3.org/2000/svg" viewBox="0 0 352.718 352.718" width="352.72" height="352.72"><path d="M154.677 234.106c15.524 17.733 19.319 17.733 21.358 17.733 2.08 0 5.95 0 21.499-17.73 9.63-10.979 20.358-24.967 30.207-39.384 15.455-22.62 41.381-64.942 41.381-94.244 0-51.329-41.759-93.088-93.087-93.088-51.329 0-93.088 41.759-93.088 93.088 0 29.246 26.009 71.603 41.512 94.248 9.84 14.373 20.572 28.357 30.218 39.377zm21.358-188.607c28.616 0 51.897 23.281 51.897 51.898s-23.281 51.897-51.897 51.897c-28.617 0-51.899-23.281-51.899-51.897s23.282-51.898 51.899-51.898z"/><path d="M352.322 321.191l-22.629-96.794c-2.358-12.387-14.235-22.071-27.095-22.071h-41.713c-4.676 0-8.443 1.85-10.897 5.351-11.579 16.538-24.364 32.953-35.998 46.222-18.268 20.83-27.511 27.517-38.036 27.517-10.357 0-19.558-6.712-37.862-27.621-12.069-13.787-24.525-29.738-36.021-46.131l-.121-.175c-.968-1.412-3.541-5.162-10.095-5.162H50.119c-12.847 0-24.723 9.737-27.094 22.191L.443 321.084l-.048.229c-1.167 6.304.272 12.278 4.053 16.823 3.856 4.637 9.619 7.19 16.225 7.19h311.372c6.573 0 12.321-2.558 16.184-7.202 3.813-4.585 5.267-10.598 4.093-16.933z"/></svg>