<?xml version="1.0" encoding="UTF-8"?><!DOCTYPE svg PUBLIC "-//W3C//DTD SVG 1.1//EN" "http://www.w3.org/Graphics/SVG/1.1/DTD/svg11.dtd"><svg xmlns="http://www.w3.org/2000/svg" width="300" height="300" viewBox="0 0 11161 11161" shape-rendering="geometricPrecision" text-rendering="geometricPrecision" image-rendering="optimizeQuality" fill-rule="evenodd" clip-rule="evenodd"><path class="bpfil0" d="M2240 6206c-599-2349-83-4443 1188-5110-759 364-1410 917-1896 1596-758 1152-946 2965-174 4679 755 1676 2089 2712 3218 3079 323 66 658 101 1001 101 65 0 129-3 194-5-1025-322-2769-1354-3531-4340z"/><path class="bpfil0" d="M6652 3861c686-1679 2162-1930 2804-1389-725-904-1759-1549-2942-1774-735-28-2177 852-2459 3296-353 3049 1056 5582 2484 6463 303-60 596-147 876-259-1079-1202-1750-3925-763-6337z"/><path class="bpfil0" d="M5580 0C2503 0 0 2503 0 5581c0 3077 2503 5580 5580 5580 1532 0 2921-621 3931-1623 191-190 369-394 531-609l-132-275-930-1925 945-1480h-493l-914 1503-304 251V5249h-709v3787h709V7510l259-232 918 2000c-965 994-2315 1613-3811 1613-2932 0-5310-2378-5310-5310 0-2933 2378-5311 5310-5311 2933 0 5311 2378 5311 5311 0 1036-299 2002-812 2819l137 283c596-888 945-1955 945-3102C11161 2503 8658 0 5580 0z"/></svg>