<?xml version="1.0" encoding="utf-8"?><!DOCTYPE svg PUBLIC "-//W3C//DTD SVG 1.1//EN" "http://www.w3.org/Graphics/SVG/1.1/DTD/svg11.dtd"><svg xmlns="http://www.w3.org/2000/svg" width="512" height="512" viewBox="0 0 512 512"><g fill="#91DC5A"><path d="M410.3 164.3v-45.9h60.5V11H272.7v107.4h60.5v45.9H202.8v-62.6H74.6v62.6H11V501h490V164.3h-90.7zM292.5 31.9h157.4v65.7H292.5V31.9zm60.5 86.5h36.5v45.9H353v-45.9zm-258.6 4.2H182v116.8H94.4V122.6zm385.7 357.5H31.9v-296h42.7v55.3H47.5v20.9h181.4v-20.9h-26.1v-55.3h277.3v296z"/><path d="M454.1 210.1H266.4v62.6h187.7v-62.6zm-20.9 41.7h-146v-21.9h146v21.9zM55.8 366.5h67.8v-67.8H55.8v67.8zm19.8-47.9h27.1v27.1H75.6v-27.1zM166.3 366.5h67.8v-67.8h-67.8v67.8zm20.9-47.9h27.1v27.1h-27.1v-27.1zM277.9 366.5h67.8v-67.8h-67.8v67.8zm19.8-47.9h27.1v27.1h-27.1v-27.1zM388.4 366.5h67.8v-67.8h-67.8v67.8zm20.9-47.9h27.1v27.1h-27.1v-27.1zM55.8 456.2h67.8v-67.8H55.8v67.8zm19.8-48h27.1v27.1H75.6v-27.1zM166.3 456.2h67.8v-67.8h-67.8v67.8zm20.9-48h27.1v27.1h-27.1v-27.1zM277.9 456.2h67.8v-67.8h-67.8v67.8zm19.8-48h27.1v27.1h-27.1v-27.1zM388.4 456.2h67.8v-67.8h-67.8v67.8zm20.9-48h27.1v27.1h-27.1v-27.1z"/></g></svg>