<?xml version="1.0" encoding="iso-8859-1"?><!DOCTYPE svg PUBLIC "-//W3C//DTD SVG 1.1//EN" "http://www.w3.org/Graphics/SVG/1.1/DTD/svg11.dtd"><svg xmlns="http://www.w3.org/2000/svg" width="512" height="512" viewBox="0 0 413.6 413.599"><g fill="#91DC5A"><path d="M164.033 275.857a30.58 30.58 0 00-16.031 4.521 4.37 4.37 0 00-1.436 6.012 4.367 4.367 0 006.011 1.436 21.873 21.873 0 0111.455-3.227c12.084 0 21.915 9.831 21.915 21.913 0 12.085-9.831 21.915-21.915 21.915s-21.915-9.83-21.915-21.915a4.37 4.37 0 00-4.371-4.371H97.479a4.371 4.371 0 000 8.743h36.245c2.133 14.834 14.893 26.286 30.31 26.286 16.905 0 30.658-13.753 30.658-30.658-.001-16.902-13.754-30.655-30.659-30.655z"/><path d="M265.331 119.467c-11.061 0-11.383-12.328-11.383-13.733V95.403c0-10.461-8.512-18.974-18.974-18.974h-216C8.512 76.429 0 84.941 0 95.403v196.506c0 10.641 6.137 18.976 13.973 18.976h5.58c2.131 14.837 14.891 26.286 30.308 26.286 16.905 0 30.659-13.752 30.659-30.657s-13.754-30.656-30.659-30.656a30.594 30.594 0 00-16.031 4.521 4.37 4.37 0 104.577 7.448A21.872 21.872 0 0149.86 284.6c12.084 0 21.917 9.832 21.917 21.913 0 12.083-9.832 21.915-21.917 21.915-12.083 0-21.915-9.832-21.915-21.915a4.37 4.37 0 00-4.371-4.371h-9.602c-2.133 0-5.23-3.985-5.23-10.232V95.403c0-5.641 4.59-10.231 10.231-10.231h216.001c5.641 0 10.23 4.59 10.23 10.231v10.331c0 10.826 6.301 22.476 20.126 22.476 2.895 0 6.135 4.375 6.135 10.233v153.466c0 5.644-4.59 10.233-10.233 10.233h-48.344a4.37 4.37 0 100 8.742h48.344c10.464 0 18.976-8.512 18.976-18.976V138.442c-.001-10.463-6.674-18.975-14.877-18.975zM405.981 213.888l-36.905-65.491c-4.662-8.269-15.746-14.746-25.233-14.746h-23.715c-10.334 0-18.742 8.407-18.742 18.743v61.791c0 10.336 8.408 18.743 18.742 18.743h50.298a4.37 4.37 0 004.371-4.372 4.37 4.37 0 00-4.371-4.371h-50.298c-5.515 0-10-4.486-10-10v-61.791c0-5.515 4.483-10 10-10h23.715c6.293 0 14.525 4.812 17.614 10.295l36.909 65.491c3.519 6.246 6.491 17.581 6.491 24.748v48.86c0 5.513-4.487 10-10.002 10h-15.634a4.371 4.371 0 100 8.743h15.634c10.334 0 18.744-8.409 18.744-18.743v-48.86c.001-8.699-3.346-21.455-7.618-29.04z"/><path d="M335.606 275.149a30.968 30.968 0 00-16.218 4.572 4.372 4.372 0 104.576 7.45 22.207 22.207 0 0111.64-3.278c12.278 0 22.269 9.989 22.269 22.268 0 12.277-9.99 22.267-22.269 22.267-12.28 0-22.268-9.989-22.268-22.267a4.37 4.37 0 00-4.372-4.371h-16.527a4.371 4.371 0 000 8.743h12.501c2.135 15.032 15.052 26.638 30.666 26.638 17.1 0 31.011-13.912 31.011-31.01.002-17.1-13.909-31.012-31.009-31.012z"/></g></svg>