<?xml version="1.0" encoding="iso-8859-1"?><!DOCTYPE svg PUBLIC "-//W3C//DTD SVG 1.1//EN" "http://www.w3.org/Graphics/SVG/1.1/DTD/svg11.dtd"><svg viewBox="0 0 548.358 548.358" xmlns="http://www.w3.org/2000/svg" xmlns:xlink="http://www.w3.org/1999/xlink"><style>:root>svg{display:none}:root>svg:target{display:block}</style><svg viewBox="0 0 463 463" id="agreement" xmlns="http://www.w3.org/2000/svg"><path d="M375.5 0h-224c-.086 0-.17.01-.256.013a7.514 7.514 0 00-1.194.129l-.017.003a7.52 7.52 0 00-1.141.33c-.297.11-.587.235-.865.38-.018.01-.037.017-.055.027a7.435 7.435 0 00-.836.526c-.061.043-.12.089-.18.134a7.57 7.57 0 00-.756.65l-.004.003-80 80-.003.003a7.572 7.572 0 00-.651.757l-.134.179c-.192.267-.37.544-.526.835l-.029.06a7.564 7.564 0 00-.378.858l-.065.177c-.108.313-.2.633-.266.964-.002.012-.003.025-.006.037a7.75 7.75 0 00-.128 1.184c0 .085-.01.167-.01.251v352c0 12.958 10.542 23.5 23.5 23.5h288c12.958 0 23.5-10.542 23.5-23.5v-416C399 10.542 388.458 0 375.5 0zM144 25.606V71.5c0 4.687-3.813 8.5-8.5 8.5H89.606L144 25.606zM384 439.5c0 4.687-3.813 8.5-8.5 8.5h-288c-4.687 0-8.5-3.813-8.5-8.5V95h56.5c12.958 0 23.5-10.542 23.5-23.5V15h216.5c4.687 0 8.5 3.813 8.5 8.5v416z" fill="#91DC5A"/><path d="M135.5 127h192c4.142 0 7.5-3.357 7.5-7.5s-3.358-7.5-7.5-7.5h-192c-4.142 0-7.5 3.357-7.5 7.5s3.358 7.5 7.5 7.5zM135.5 167h192c4.142 0 7.5-3.357 7.5-7.5s-3.358-7.5-7.5-7.5h-192c-4.142 0-7.5 3.357-7.5 7.5s3.358 7.5 7.5 7.5zM135.5 207h192c4.142 0 7.5-3.357 7.5-7.5s-3.358-7.5-7.5-7.5h-192c-4.142 0-7.5 3.357-7.5 7.5s3.358 7.5 7.5 7.5zM135.5 247h192c4.142 0 7.5-3.357 7.5-7.5s-3.358-7.5-7.5-7.5h-192c-4.142 0-7.5 3.357-7.5 7.5s3.358 7.5 7.5 7.5zM135.5 287h192c4.142 0 7.5-3.357 7.5-7.5s-3.358-7.5-7.5-7.5h-192c-4.142 0-7.5 3.357-7.5 7.5s3.358 7.5 7.5 7.5zM231.5 328h-96c-4.142 0-7.5 3.357-7.5 7.5s3.358 7.5 7.5 7.5h96c4.142 0 7.5-3.357 7.5-7.5s-3.358-7.5-7.5-7.5zM231.5 368h-96c-4.142 0-7.5 3.357-7.5 7.5s3.358 7.5 7.5 7.5h96c4.142 0 7.5-3.357 7.5-7.5s-3.358-7.5-7.5-7.5zM299.5 344c-6.341 0-11.5 5.159-11.5 11.5s5.159 11.5 11.5 11.5 11.5-5.159 11.5-11.5-5.159-11.5-11.5-11.5z" fill="#91DC5A"/><path d="M299.5 312c-23.986 0-43.5 19.514-43.5 43.5s19.514 43.5 43.5 43.5 43.5-19.514 43.5-43.5-19.514-43.5-43.5-43.5zm0 72c-15.715 0-28.5-12.785-28.5-28.5s12.785-28.5 28.5-28.5 28.5 12.785 28.5 28.5-12.785 28.5-28.5 28.5z" fill="#91DC5A"/></svg><svg viewBox="0 0 129 129" id="arrow" xmlns="http://www.w3.org/2000/svg"><path d="M121.3 34.6c-1.6-1.6-4.2-1.6-5.8 0l-51 51.1-51.1-51.1c-1.6-1.6-4.2-1.6-5.8 0-1.6 1.6-1.6 4.2 0 5.8l53.9 53.9c.8.8 1.8 1.2 2.9 1.2 1 0 2.1-.4 2.9-1.2l53.9-53.9c1.7-1.6 1.7-4.2.1-5.8z"/></svg><svg viewBox="0 0 470.346 470.346" id="box" xmlns="http://www.w3.org/2000/svg"><path d="M356.866 193.696c-.252 0-.508-.021-.762-.066l-44.764-7.884c-4.201-.738-11.518-.472-15.658.572l-23.432 5.92c-2.342.598-4.717-.829-5.309-3.168a4.374 4.374 0 013.168-5.309l23.432-5.92c5.377-1.355 13.859-1.67 19.314-.705l44.764 7.885a4.372 4.372 0 01-.753 8.675zM302.892 314.348c-3.541 0-7.086-.373-9.844-1.117l-67.534-18.234c-6.655-1.797-11.87-8.605-11.87-15.5v-16.731a4.37 4.37 0 014.372-4.371 4.37 4.37 0 014.371 4.371v16.731c0 2.932 2.577 6.295 5.405 7.059l67.533 18.234c3.998 1.078 11.014 1.086 15.014.021l68.449-18.281c2.826-.756 5.4-4.109 5.4-7.033v-70.598c0-1.028-.332-1.857-.93-2.34-.602-.479-1.482-.621-2.484-.4l-67.34 14.975c-5.359 1.193-12.842 1.591-17.043.923l-6.666-1.066a4.37 4.37 0 01-3.627-5.006 4.376 4.376 0 015.006-3.626l6.67 1.066c3.107.499 9.543.112 13.764-.825l67.34-14.975c3.592-.799 7.182-.028 9.852 2.116 2.67 2.142 4.201 5.48 4.201 9.157v70.598c0 6.898-5.221 13.699-11.887 15.479l-68.449 18.281c-2.721.728-6.209 1.092-9.703 1.092z" fill="#91DC5A"/><path d="M280.944 232.558c-9.234-10.699-80.136-92.636-103.118-113.486 18.218-11.93 29.318-32.14 29.318-54.208C207.145 29.098 178.047 0 142.28 0S77.415 29.098 77.415 64.865c0 21.854 10.887 41.886 28.79 53.86-14.877 11.25-23.885 28.993-23.885 47.85v277.328c0 14.582 11.862 26.443 26.443 26.443 14.582 0 26.444-11.861 26.444-26.443V291.564l13.6-.004V443.9c0 14.582 11.862 26.443 26.444 26.443s26.444-11.861 26.444-26.432l.521-226.077 46.606 46.606c4.412 4.412 10.207 6.619 16.002 6.619s11.592-2.207 16.004-6.619c8.778-8.784 8.818-23.049.116-31.882zm-6.3 25.702a13.801 13.801 0 01-9.82 4.068 13.795 13.795 0 01-9.82-4.068s-40.017-41.054-54.034-54.036c-3.495-3.236-7.472-.86-7.472 3.071 0 6.22-.546 236.604-.546 236.604 0 9.762-7.94 17.701-17.701 17.701-9.76 0-17.701-7.939-17.701-17.701V287.217c0-2.527-.804-4.396-4.739-4.396l-22.838.002c-2.235 0-3.509 1.104-3.509 4.398V443.9c0 9.762-7.94 17.701-17.701 17.701-9.76 0-17.701-7.939-17.701-17.701V166.574c0-18.156 9.766-35.122 25.487-44.277.165-.096.313-.213.467-.327.042-.031.087-.056.127-.089 1.693-1.32 2.52-3.577 1.427-5.452-.53-.913-1.432-1.563-2.446-1.925-18.488-9.759-29.965-28.75-29.965-49.639 0-30.944 25.176-56.122 56.122-56.122s56.122 25.176 56.122 56.122c0 20.983-11.577 40.058-30.212 49.778-1.894.988-3.883 4.627-.103 7.705 9.379 5.613 68.676 72.401 106.34 116.041l.217.233c5.411 5.412 5.411 14.224-.001 19.638z" fill="#91DC5A"/></svg><svg viewBox="0 0 459.529 459.529" id="cart" xmlns="http://www.w3.org/2000/svg"><path d="M17 55.231h48.733l69.417 251.033c1.983 7.367 8.783 12.467 16.433 12.467h213.35c6.8 0 12.75-3.967 15.583-10.2l77.633-178.5c2.267-5.383 1.7-11.333-1.417-16.15-3.117-4.817-8.5-7.65-14.167-7.65H206.833c-9.35 0-17 7.65-17 17s7.65 17 17 17H416.5l-62.9 144.5H164.333L94.917 33.698c-1.983-7.367-8.783-12.467-16.433-12.467H17c-9.35 0-17 7.65-17 17s7.65 17 17 17zM135.433 438.298c21.25 0 38.533-17.283 38.533-38.533s-17.283-38.533-38.533-38.533S96.9 378.514 96.9 399.764s17.283 38.534 38.533 38.534zM376.267 438.298h2.833c10.2-.85 19.55-5.383 26.35-13.317 6.8-7.65 9.917-17.567 9.35-28.05-1.417-20.967-19.833-37.117-41.083-35.7-21.25 1.417-37.117 20.117-35.7 41.083 1.416 20.117 18.133 35.984 38.25 35.984z"/></svg><svg viewBox="0 0 405.272 405.272" id="check" xmlns="http://www.w3.org/2000/svg"><path d="M393.401 124.425L179.603 338.208c-15.832 15.835-41.514 15.835-57.361 0L11.878 227.836c-15.838-15.835-15.838-41.52 0-57.358 15.841-15.841 41.521-15.841 57.355-.006l81.698 81.699L336.037 67.064c15.841-15.841 41.523-15.829 57.358 0 15.835 15.838 15.835 41.514.006 57.361z"/></svg><svg viewBox="0 0 380 380" id="clock" xmlns="http://www.w3.org/2000/svg"><path d="M190 0C85.233 0 0 85.233 0 190s85.233 190 190 190 190-85.233 190-190S294.767 0 190 0zm0 340c-82.71 0-150-67.29-150-150S107.29 40 190 40s150 67.29 150 150-67.29 150-150 150z"/><path d="M291.993 184.132h-74.197A32.827 32.827 0 00207 173.336V84.139c0-9.389-7.611-17-17-17s-17 7.611-17 17v89.197c-9.345 5.737-15.593 16.05-15.593 27.796 0 17.972 14.622 32.593 32.593 32.593 11.746 0 22.059-6.248 27.796-15.593h74.197c9.389 0 17-7.611 17-17s-7.611-17-17-17z"/></svg><svg viewBox="0 0 47.971 47.971" id="close" xmlns="http://www.w3.org/2000/svg"><path d="M28.228 23.986L47.092 5.122a2.998 2.998 0 000-4.242 2.998 2.998 0 00-4.242 0L23.986 19.744 5.121.88a2.998 2.998 0 00-4.242 0 2.998 2.998 0 000 4.242l18.865 18.864L.879 42.85a2.998 2.998 0 104.242 4.241l18.865-18.864L42.85 47.091c.586.586 1.354.879 2.121.879s1.535-.293 2.121-.879a2.998 2.998 0 000-4.242L28.228 23.986z"/></svg><svg viewBox="0 0 487.542 487.542" id="credit-cards" xmlns="http://www.w3.org/2000/svg"><g fill="#91DC5A"><path d="M462.339 190.535h-85.18V67.444c0-13.896-11.306-25.202-25.202-25.202H25.204C11.307 42.242 0 53.548 0 67.444v204.359c0 13.897 11.307 25.203 25.204 25.203h85.178v123.09c0 13.897 11.307 25.203 25.204 25.203h326.753c13.897 0 25.203-11.306 25.203-25.203V215.737c0-13.896-11.306-25.202-25.203-25.202zM21 106.335h335.159v31.072H21v-31.072zm4.204-43.093h326.753a4.207 4.207 0 014.202 4.202v17.891H21V67.444a4.208 4.208 0 014.204-4.202zm0 212.765A4.209 4.209 0 0121 271.804V158.407h335.159v32.128H135.586c-13.897 0-25.204 11.306-25.204 25.203v60.269H25.204zm441.338 144.09a4.208 4.208 0 01-4.203 4.203H135.586a4.209 4.209 0 01-4.204-4.203V215.738a4.209 4.209 0 014.204-4.203h326.753a4.208 4.208 0 014.203 4.202v204.36z"/><path d="M405.99 331.552c-7.215 0-14.101 1.966-20.07 5.649-5.971-3.684-12.855-5.649-20.071-5.649-21.16 0-38.375 17.216-38.375 38.376 0 21.16 17.215 38.376 38.375 38.376 7.216 0 14.1-1.966 20.071-5.649 5.971 3.684 12.855 5.649 20.07 5.649 21.16 0 38.376-17.216 38.376-38.376 0-21.16-17.216-38.376-38.376-38.376zm0 55.752c-4.757 0-9.199-1.892-12.509-5.327a10.497 10.497 0 00-15.123 0c-3.31 3.436-7.752 5.327-12.51 5.327-9.581 0-17.375-7.795-17.375-17.376 0-9.581 7.794-17.376 17.375-17.376 4.758 0 9.201 1.892 12.51 5.326a10.497 10.497 0 0015.123 0c3.309-3.435 7.751-5.326 12.509-5.326 9.581 0 17.376 7.795 17.376 17.376 0 9.581-7.795 17.376-17.376 17.376zM301.216 260.805h-128.78c-5.799 0-10.5 4.701-10.5 10.5s4.701 10.5 10.5 10.5h128.78c5.799 0 10.5-4.701 10.5-10.5s-4.701-10.5-10.5-10.5zM344.699 281.805h40.14c5.799 0 10.5-4.701 10.5-10.5s-4.701-10.5-10.5-10.5h-40.14c-5.799 0-10.5 4.701-10.5 10.5s4.701 10.5 10.5 10.5z"/></g></svg><svg style="position:absolute" viewBox="0 0 0 0" id="defs" xmlns="http://www.w3.org/2000/svg"><defs><svg viewBox="0 0 459.529 459.529" width="512" height="512" id="aicart" y="0"><path d="M17 55.231h48.733l69.417 251.033c1.983 7.367 8.783 12.467 16.433 12.467h213.35c6.8 0 12.75-3.967 15.583-10.2l77.633-178.5c2.267-5.383 1.7-11.333-1.417-16.15-3.117-4.817-8.5-7.65-14.167-7.65H206.833c-9.35 0-17 7.65-17 17s7.65 17 17 17H416.5l-62.9 144.5H164.333L94.917 33.698c-1.983-7.367-8.783-12.467-16.433-12.467H17c-9.35 0-17 7.65-17 17s7.65 17 17 17zm118.433 383.067c21.25 0 38.533-17.283 38.533-38.533s-17.283-38.533-38.533-38.533S96.9 378.514 96.9 399.764s17.283 38.534 38.533 38.534zm240.834 0h2.833c10.2-.85 19.55-5.383 26.35-13.317 6.8-7.65 9.917-17.567 9.35-28.05-1.417-20.967-19.833-37.117-41.083-35.7-21.25 1.417-37.117 20.117-35.7 41.083 1.416 20.117 18.133 35.984 38.25 35.984z"/></svg><svg width="405.272" height="405.272" id="aicheck" y="512"><path d="M393.401 124.425L179.603 338.208c-15.832 15.835-41.514 15.835-57.361 0L11.878 227.836c-15.838-15.835-15.838-41.52 0-57.358 15.841-15.841 41.521-15.841 57.355-.006l81.698 81.699L336.037 67.064c15.841-15.841 41.523-15.829 57.358 0 15.835 15.838 15.835 41.514.006 57.361z"/></svg><svg width="380" height="380" id="aiclock" y="918"><path d="M190 0C85.233 0 0 85.233 0 190s85.233 190 190 190 190-85.233 190-190S294.767 0 190 0zm0 340c-82.71 0-150-67.29-150-150S107.29 40 190 40s150 67.29 150 150-67.29 150-150 150z"/><path d="M291.993 184.132h-74.197A32.827 32.827 0 00207 173.336V84.139c0-9.389-7.611-17-17-17s-17 7.611-17 17v89.197c-9.345 5.737-15.593 16.05-15.593 27.796 0 17.972 14.622 32.593 32.593 32.593 11.746 0 22.059-6.248 27.796-15.593h74.197c9.389 0 17-7.611 17-17s-7.611-17-17-17z"/></svg><svg width="47.971" height="47.971" id="aiclose" y="1298"><path d="M28.228 23.986L47.092 5.122a2.998 2.998 0 000-4.242 2.998 2.998 0 00-4.242 0L23.986 19.744 5.121.88a2.998 2.998 0 00-4.242 0 2.998 2.998 0 000 4.242l18.865 18.864L.879 42.85a2.998 2.998 0 104.242 4.241l18.865-18.864L42.85 47.091c.586.586 1.354.879 2.121.879s1.535-.293 2.121-.879a2.998 2.998 0 000-4.242L28.228 23.986z"/></svg><svg width="240.811" height="240.811" id="aidownload" y="1346"><path d="M220.088 57.667l-99.671 99.695-99.671-99.707a12.147 12.147 0 00-17.191 0c-4.74 4.752-4.74 12.451 0 17.203l108.261 108.297c4.74 4.752 12.439 4.752 17.179 0L237.256 74.859c4.74-4.752 4.74-12.463 0-17.215-4.728-4.729-12.428-4.729-17.168.023z"/></svg><svg width="352.718" height="352.718" id="ailocation" y="1587"><path d="M154.677 234.106c15.524 17.733 19.319 17.733 21.358 17.733 2.08 0 5.95 0 21.499-17.73 9.63-10.979 20.358-24.967 30.207-39.384 15.455-22.62 41.381-64.942 41.381-94.244 0-51.329-41.759-93.088-93.087-93.088-51.329 0-93.088 41.759-93.088 93.088 0 29.246 26.009 71.603 41.512 94.248 9.84 14.373 20.572 28.357 30.218 39.377zm21.358-188.607c28.616 0 51.897 23.281 51.897 51.898s-23.281 51.897-51.897 51.897c-28.617 0-51.899-23.281-51.899-51.897s23.282-51.898 51.899-51.898z"/><path d="M352.322 321.191l-22.629-96.794c-2.358-12.387-14.235-22.071-27.095-22.071h-41.713c-4.676 0-8.443 1.85-10.897 5.351-11.579 16.538-24.364 32.953-35.998 46.222-18.268 20.83-27.511 27.517-38.036 27.517-10.357 0-19.558-6.712-37.862-27.621-12.069-13.787-24.525-29.738-36.021-46.131l-.121-.175c-.968-1.412-3.541-5.162-10.095-5.162H50.119c-12.847 0-24.723 9.737-27.094 22.191L.443 321.084l-.048.229c-1.167 6.304.272 12.278 4.053 16.823 3.856 4.637 9.619 7.19 16.225 7.19h311.372c6.573 0 12.321-2.558 16.184-7.202 3.813-4.585 5.267-10.598 4.093-16.933z"/></svg><svg width="300" height="300" viewBox="0 0 11161 11161" shape-rendering="geometricPrecision" text-rendering="geometricPrecision" image-rendering="optimizeQuality" fill-rule="evenodd" clip-rule="evenodd" id="ailogo" y="1940"><path class="aifil0" d="M2240 6206c-599-2349-83-4443 1188-5110-759 364-1410 917-1896 1596-758 1152-946 2965-174 4679 755 1676 2089 2712 3218 3079 323 66 658 101 1001 101 65 0 129-3 194-5-1025-322-2769-1354-3531-4340z"/><path class="aifil0" d="M6652 3861c686-1679 2162-1930 2804-1389-725-904-1759-1549-2942-1774-735-28-2177 852-2459 3296-353 3049 1056 5582 2484 6463 303-60 596-147 876-259-1079-1202-1750-3925-763-6337z"/><path class="aifil0" d="M5580 0C2503 0 0 2503 0 5581c0 3077 2503 5580 5580 5580 1532 0 2921-621 3931-1623 191-190 369-394 531-609l-132-275-930-1925 945-1480h-493l-914 1503-304 251V5249h-709v3787h709V7510l259-232 918 2000c-965 994-2315 1613-3811 1613-2932 0-5310-2378-5310-5310 0-2933 2378-5311 5310-5311 2933 0 5311 2378 5311 5311 0 1036-299 2002-812 2819l137 283c596-888 945-1955 945-3102C11161 2503 8658 0 5580 0z"/></svg><svg width="512" height="512" id="aimap" y="2240"><path d="M416 48c-44.188 0-80 35.813-80 80 0 11.938 2.625 23.281 7.312 33.438L416 304l72.688-142.563C493.375 151.281 496 139.938 496 128c0-44.187-35.812-80-80-80zm0 128c-26.5 0-48-21.5-48-48s21.5-48 48-48 48 21.5 48 48-21.5 48-48 48zm23.938 151.469l29.125 58.219-73.844 36.906-24.75-123.812 4.156-4.156.438-.438-15.25-30L352 272l-96-64-96 64-64-64L0 400l128 64 128-64 128 64 128-64-54-107.969-18.062 35.438zM116.75 422.594l-73.813-36.906L104.75 262l32.625 32.625 4.156 4.156-24.781 123.813zM240 372.219l-89.5 44.75 23.125-115.594 4.125-2.75 62.25-41.5v115.094zm32 0V257.125l62.25 41.5 4.094 2.75 23.125 115.594L272 372.219z"/></svg><svg viewBox="0 0 473.806 473.806" width="512" height="512" id="aiphone" y="2752"><path d="M374.456 293.506c-9.7-10.1-21.4-15.5-33.8-15.5-12.3 0-24.1 5.3-34.2 15.4l-31.6 31.5c-2.6-1.4-5.2-2.7-7.7-4-3.6-1.8-7-3.5-9.9-5.3-29.6-18.8-56.5-43.3-82.3-75-12.5-15.8-20.9-29.1-27-42.6 8.2-7.5 15.8-15.3 23.2-22.8 2.8-2.8 5.6-5.7 8.4-8.5 21-21 21-48.2 0-69.2l-27.3-27.3c-3.1-3.1-6.3-6.3-9.3-9.5-6-6.2-12.3-12.6-18.8-18.6-9.7-9.6-21.3-14.7-33.5-14.7s-24 5.1-34 14.7l-.2.2-34 34.3c-12.8 12.8-20.1 28.4-21.7 46.5-2.4 29.2 6.2 56.4 12.8 74.2 16.2 43.7 40.4 84.2 76.5 127.6 43.8 52.3 96.5 93.6 156.7 122.7 23 10.9 53.7 23.8 88 26 2.1.1 4.3.2 6.3.2 23.1 0 42.5-8.3 57.7-24.8.1-.2.3-.3.4-.5 5.2-6.3 11.2-12 17.5-18.1 4.3-4.1 8.7-8.4 13-12.9 9.9-10.3 15.1-22.3 15.1-34.6 0-12.4-5.3-24.3-15.4-34.3l-54.9-55.1zm35.8 105.3c-.1 0-.1.1 0 0-3.9 4.2-7.9 8-12.2 12.2-6.5 6.2-13.1 12.7-19.3 20-10.1 10.8-22 15.9-37.6 15.9-1.5 0-3.1 0-4.6-.1-29.7-1.9-57.3-13.5-78-23.4-56.6-27.4-106.3-66.3-147.6-115.6-34.1-41.1-56.9-79.1-72-119.9-9.3-24.9-12.7-44.3-11.2-62.6 1-11.7 5.5-21.4 13.8-29.7l34.1-34.1c4.9-4.6 10.1-7.1 15.2-7.1 6.3 0 11.4 3.8 14.6 7l.3.3c6.1 5.7 11.9 11.6 18 17.9 3.1 3.2 6.3 6.4 9.5 9.7l27.3 27.3c10.6 10.6 10.6 20.4 0 31-2.9 2.9-5.7 5.8-8.6 8.6-8.4 8.6-16.4 16.6-25.1 24.4-.2.2-.4.3-.5.5-8.6 8.6-7 17-5.2 22.7l.3.9c7.1 17.2 17.1 33.4 32.3 52.7l.1.1c27.6 34 56.7 60.5 88.8 80.8 4.1 2.6 8.3 4.7 12.3 6.7 3.6 1.8 7 3.5 9.9 5.3.4.2.8.5 1.2.7 3.4 1.7 6.6 2.5 9.9 2.5 8.3 0 13.5-5.2 15.2-6.9l34.2-34.2c3.4-3.4 8.8-7.5 15.1-7.5 6.2 0 11.3 3.9 14.4 7.3l.2.2 55.1 55.1c10.3 10.2 10.3 20.7.1 31.3zm-154.2-286.1c26.2 4.4 50 16.8 69 35.8s31.3 42.8 35.8 69c1.1 6.6 6.8 11.2 13.3 11.2.8 0 1.5-.1 2.3-.2 7.4-1.2 12.3-8.2 11.1-15.6-5.4-31.7-20.4-60.6-43.3-83.5s-51.8-37.9-83.5-43.3c-7.4-1.2-14.3 3.7-15.6 11s3.5 14.4 10.9 15.6zm217.2 96.3c-8.9-52.2-33.5-99.7-71.3-137.5s-85.3-62.4-137.5-71.3c-7.3-1.3-14.2 3.7-15.5 11-1.2 7.4 3.7 14.3 11.1 15.6 46.6 7.9 89.1 30 122.9 63.7 33.8 33.8 55.8 76.3 63.7 122.9 1.1 6.6 6.8 11.2 13.3 11.2.8 0 1.5-.1 2.3-.2 7.3-1.1 12.3-8.1 11-15.4z"/></svg><svg width="491.582" height="491.582" id="aipoint" y="3264"><path d="M245.791 0C153.799 0 78.957 74.841 78.957 166.833c0 36.967 21.764 93.187 68.493 176.926 31.887 57.138 63.627 105.4 64.966 107.433l22.941 34.773a12.497 12.497 0 0020.868 0l22.94-34.771c1.326-2.01 32.835-49.855 64.967-107.435 46.729-83.735 68.493-139.955 68.493-176.926C412.625 74.841 337.783 0 245.791 0zm76.511 331.576c-31.685 56.775-62.696 103.869-64.003 105.848l-12.508 18.959-12.504-18.954c-1.314-1.995-32.563-49.511-64.007-105.853-43.345-77.676-65.323-133.104-65.323-164.743C103.957 88.626 167.583 25 245.791 25s141.834 63.626 141.834 141.833c0 31.643-21.978 87.069-65.323 164.743z"/><path d="M245.791 73.291c-51.005 0-92.5 41.496-92.5 92.5s41.495 92.5 92.5 92.5 92.5-41.496 92.5-92.5-41.495-92.5-92.5-92.5zm0 160c-37.22 0-67.5-30.28-67.5-67.5s30.28-67.5 67.5-67.5c37.221 0 67.5 30.28 67.5 67.5s-30.279 67.5-67.5 67.5z"/></svg><svg width="310.42" height="310.42" id="aisearch" y="3756"><path d="M273.587 214.965c49.11-49.111 49.109-129.021 0-178.132-49.111-49.111-129.02-49.111-178.13 0C53.793 78.497 47.483 140.462 76.51 188.85c0 0 2.085 3.498-.731 6.312l-64.263 64.263c-12.791 12.79-15.836 30.675-4.493 42.02l1.953 1.951c11.343 11.345 29.229 8.301 42.019-4.49l64.128-64.128c2.951-2.951 6.448-.866 6.448-.866 48.387 29.026 110.352 22.717 152.016-18.947zM118.711 191.71c-36.288-36.288-36.287-95.332.001-131.62 36.288-36.287 95.332-36.288 131.619 0 36.288 36.287 36.288 95.332 0 131.62-36.288 36.286-95.331 36.286-131.62 0z"/><path d="M126.75 118.424c-1.689 0-3.406-.332-5.061-1.031-6.611-2.798-9.704-10.426-6.906-17.038 17.586-41.559 65.703-61.062 107.261-43.476 6.611 2.798 9.704 10.426 6.906 17.038-2.799 6.612-10.425 9.703-17.039 6.906-28.354-11.998-61.186 1.309-73.183 29.663-2.099 4.959-6.913 7.938-11.978 7.938z"/></svg><svg viewBox="0 0 253.121 253.121" width="512" height="512" id="aiuser" y="4067"><path d="M253.121 126.561C253.121 56.775 196.346 0 126.561 0c-32.82 0-63.933 12.509-87.607 35.222a7.5 7.5 0 0010.384 10.824C70.206 26.026 97.631 15 126.561 15c61.515 0 111.561 50.046 111.561 111.561 0 27.975-10.409 54.736-29.311 75.355-21.092 23.009-51.071 36.206-82.25 36.206-29.913 0-58.723-12.148-79.64-33.454.124-.536.262-1.066.398-1.597.108-.423.208-.849.323-1.269.176-.64.372-1.271.565-1.903.115-.375.219-.755.339-1.127.234-.725.489-1.439.745-2.153.097-.27.184-.545.284-.814a72.009 72.009 0 012.427-5.753c.133-.28.278-.552.414-.83.318-.65.636-1.3.973-1.938.178-.337.369-.666.553-1 .311-.567.619-1.136.944-1.693.209-.359.432-.709.647-1.064.316-.521.63-1.043.958-1.555.234-.364.479-.718.719-1.077.328-.49.653-.982.992-1.464.255-.363.521-.716.783-1.074.34-.464.678-.929 1.028-1.384.275-.358.561-.708.843-1.06.353-.441.705-.884 1.068-1.316.293-.35.595-.691.895-1.035.367-.421.734-.842 1.111-1.255.31-.34.628-.671.944-1.005.382-.402.764-.804 1.154-1.197.326-.328.658-.648.989-.969.396-.383.793-.766 1.198-1.14.341-.315.687-.624 1.033-.932.409-.365.821-.727 1.238-1.082.355-.302.715-.599 1.077-.894.423-.345.848-.688 1.278-1.024a76.429 76.429 0 013.589-2.626 75.882 75.882 0 012.545-1.669 72.622 72.622 0 014.044-2.35c.417-.225.835-.448 1.256-.665.484-.249.973-.489 1.463-.727.427-.207.854-.414 1.285-.613.497-.229.998-.449 1.5-.667.435-.189.869-.378 1.307-.558.51-.209 1.024-.408 1.539-.605.442-.17.882-.341 1.328-.502.522-.189 1.05-.365 1.577-.542.447-.15.893-.303 1.344-.445.535-.168 1.076-.323 1.617-.478.451-.13.901-.265 1.356-.386.551-.147 1.107-.279 1.663-.414.452-.109.903-.224 1.358-.325.568-.126 1.143-.235 1.716-.347.45-.088.898-.184 1.351-.264.591-.104 1.188-.19 1.783-.28.442-.067.881-.142 1.325-.2.627-.083 1.261-.145 1.893-.212.418-.044.834-.098 1.254-.135.702-.062 1.411-.1 2.118-.142.355-.021.708-.053 1.064-.069a72.942 72.942 0 013.214-.072h18.463c21.67 0 42.011 9.609 55.807 26.364a7.5 7.5 0 0011.579-9.535c-11.759-14.28-27.46-24.253-44.882-28.888 9.915-8.785 16.181-21.6 16.181-35.857 0-26.421-21.495-47.917-47.917-47.917s-47.917 21.495-47.917 47.917c0 14.257 6.266 27.071 16.18 35.856-.246.066-.494.128-.74.195a85.493 85.493 0 00-3.061.906c-.124.039-.251.073-.375.112a88.96 88.96 0 00-3.377 1.161c-.348.127-.69.267-1.036.399-.765.291-1.529.586-2.284.899-.419.173-.832.356-1.248.536-.675.292-1.349.587-2.015.895-.435.201-.865.408-1.296.616a89.53 89.53 0 00-3.192 1.619 84.62 84.62 0 00-1.89 1.043c-.404.229-.809.456-1.209.691-.658.387-1.307.787-1.955 1.191-.353.22-.709.434-1.059.659a86.692 86.692 0 00-2.383 1.595c-.18.124-.364.241-.543.367a87.4 87.4 0 00-2.837 2.08c-.27.206-.532.423-.8.632a91.421 91.421 0 00-1.952 1.563c-.341.283-.675.575-1.011.863-.558.477-1.113.957-1.658 1.448a86.21 86.21 0 00-1.045.962 88.467 88.467 0 00-2.564 2.48 85.915 85.915 0 00-1.482 1.537c-.323.342-.646.682-.963 1.03a88.183 88.183 0 00-1.49 1.683c-.281.324-.567.644-.844.973a86.035 86.035 0 00-1.702 2.098c-.172.218-.351.429-.521.649a86.394 86.394 0 00-2.107 2.837c-.182.256-.354.519-.533.777-.496.713-.988 1.43-1.463 2.159-.24.369-.47.744-.705 1.117a86.696 86.696 0 00-1.178 1.912c-.245.411-.482.827-.72 1.243a86.22 86.22 0 00-1.738 3.183 84.678 84.678 0 00-.968 1.929c-.213.436-.425.871-.631 1.311a86.893 86.893 0 00-.924 2.063c-.18.414-.365.824-.54 1.242a88.038 88.038 0 00-.969 2.444c-.119.31-.246.616-.361.928l-.053.136C22.167 172.148 15 149.772 15 126.561a7.5 7.5 0 00-15 0c0 31.738 11.81 62.099 33.253 85.491 23.926 26.1 57.936 41.069 93.307 41.069 35.373 0 69.382-14.969 93.308-41.07l.006-.007c21.44-23.391 33.247-53.749 33.247-85.483zm-126.56-58.623c18.15 0 32.917 14.766 32.917 32.917s-14.766 32.917-32.917 32.917-32.917-14.766-32.917-32.917 14.766-32.917 32.917-32.917z"/></svg></defs></svg><svg viewBox="0 0 240.811 240.811" id="download" xmlns="http://www.w3.org/2000/svg"><path d="M220.088 57.667l-99.671 99.695-99.671-99.707a12.147 12.147 0 00-17.191 0c-4.74 4.752-4.74 12.451 0 17.203l108.261 108.297c4.74 4.752 12.439 4.752 17.179 0L237.256 74.859c4.74-4.752 4.74-12.463 0-17.215-4.728-4.729-12.428-4.729-17.168.023z"/></svg><svg viewBox="0 0 96.124 96.123" id="facebook" xmlns="http://www.w3.org/2000/svg"><path d="M72.089.02L59.624 0C45.62 0 36.57 9.285 36.57 23.656v10.907H24.037a1.96 1.96 0 00-1.96 1.961v15.803a1.96 1.96 0 001.96 1.96H36.57v39.876a1.96 1.96 0 001.96 1.96h16.352a1.96 1.96 0 001.96-1.96V54.287h14.654a1.96 1.96 0 001.96-1.96l.006-15.803a1.963 1.963 0 00-1.961-1.961H56.842v-9.246c0-4.444 1.059-6.7 6.848-6.7l8.397-.003a1.96 1.96 0 001.959-1.96V1.98A1.96 1.96 0 0072.089.02z"/></svg><svg viewBox="0 0 442.003 442.003" id="funds" xmlns="http://www.w3.org/2000/svg"><g fill="#91DC5A"><path d="M337.897 189.476c-.01-.082-.016-.165-.028-.246a9.855 9.855 0 00-.244-1.205l-.004-.013a9.962 9.962 0 00-.379-1.102c-.042-.104-.088-.204-.133-.306a9.948 9.948 0 00-.385-.774c-.061-.111-.12-.222-.186-.331-.035-.059-.063-.12-.1-.179-.148-.235-.31-.456-.474-.675-.031-.041-.056-.084-.087-.124a9.722 9.722 0 00-.803-.91c-.053-.054-.111-.104-.166-.156a10.075 10.075 0 00-.767-.668c-.068-.053-.134-.106-.204-.157-.356-.264-.723-.51-1.106-.723L185.506 98.164l84.825-53.414 142.207 80.832-59.891 37.713c-4.674 2.942-6.077 9.117-3.134 13.79 2.942 4.674 9.116 6.077 13.79 3.134l74.026-46.613a9.996 9.996 0 004.669-8.688 9.996 9.996 0 00-5.056-8.468L275.009 24.404a10.001 10.001 0 00-10.27.231L160.783 90.096l-.064.04-51.947 32.711a4.4 4.4 0 00-.071.045L4.674 188.398a9.996 9.996 0 00-4.669 8.688 9.996 9.996 0 005.056 8.468L166.995 297.6a9.995 9.995 0 0010.269-.231l74.026-46.614c4.674-2.942 6.077-9.117 3.134-13.79-2.941-4.674-9.117-6.078-13.79-3.134l-68.961 43.424-142.207-80.834 84.826-53.415 151.67 86.212V343.4a10 10 0 0015.328 8.462l52.014-32.753a10 10 0 004.672-8.462v-120c0-.059-.01-.115-.012-.174a10.135 10.135 0 00-.067-.997zm-51.935 135.811V223.401a9.998 9.998 0 00-5.059-8.693l-147.411-83.791 32.813-20.663 142.206 80.833-12.451 7.84c-4.674 2.942-6.077 9.117-3.134 13.79a9.988 9.988 0 008.472 4.673 9.95 9.95 0 005.318-1.539l11.259-7.089v96.366l-32.013 20.159z"/><path d="M426.674 156.681l-74.026 46.613c-4.674 2.942-6.077 9.117-3.134 13.79a9.988 9.988 0 008.472 4.673 9.95 9.95 0 005.318-1.539l74.026-46.613c4.674-2.942 6.077-9.117 3.134-13.79-2.942-4.674-9.117-6.078-13.79-3.134zM240.633 273.83l-68.961 43.424-156.729-89.087c-4.798-2.728-10.906-1.052-13.635 3.752-2.729 4.801-1.05 10.906 3.752 13.635L166.994 337.6a9.995 9.995 0 0010.269-.231l74.026-46.614c4.674-2.942 6.077-9.117 3.134-13.79-2.941-4.675-9.117-6.079-13.79-3.135zM426.674 196.681l-74.026 46.613c-4.674 2.942-6.077 9.117-3.134 13.79a9.988 9.988 0 008.472 4.673 9.95 9.95 0 005.318-1.539l74.026-46.613c4.674-2.942 6.077-9.117 3.134-13.79-2.942-4.675-9.117-6.078-13.79-3.134z"/><path d="M240.633 313.83l-68.961 43.424-156.729-89.087c-4.798-2.728-10.906-1.052-13.635 3.752-2.729 4.801-1.05 10.906 3.752 13.635L166.994 377.6a9.995 9.995 0 0010.269-.231l74.026-46.614c4.674-2.942 6.077-9.117 3.134-13.79-2.941-4.676-9.117-6.079-13.79-3.135zM426.674 236.681l-74.026 46.613c-4.674 2.942-6.077 9.117-3.134 13.79a9.988 9.988 0 008.472 4.673 9.95 9.95 0 005.318-1.539l74.026-46.613c4.674-2.942 6.077-9.117 3.134-13.79-2.942-4.674-9.117-6.077-13.79-3.134z"/><path d="M240.633 353.83l-68.961 43.424-156.729-89.087c-4.798-2.728-10.906-1.052-13.635 3.752-2.729 4.801-1.05 10.906 3.752 13.635L166.994 417.6a9.995 9.995 0 0010.269-.231l74.026-46.614c4.674-2.942 6.077-9.117 3.134-13.79-2.941-4.675-9.117-6.079-13.79-3.135z"/></g></svg><svg viewBox="0 0 129 129" id="icon-arrow" xmlns="http://www.w3.org/2000/svg"><path d="M121.3 34.6c-1.6-1.6-4.2-1.6-5.8 0l-51 51.1-51.1-51.1c-1.6-1.6-4.2-1.6-5.8 0-1.6 1.6-1.6 4.2 0 5.8l53.9 53.9c.8.8 1.8 1.2 2.9 1.2 1 0 2.1-.4 2.9-1.2l53.9-53.9c1.7-1.6 1.7-4.2.1-5.8z"/></svg><svg fill="none" viewBox="0 0 12 12" id="icon-check" xmlns="http://www.w3.org/2000/svg"><g clip-path="url(#anclip0)"><path d="M10.042.992L3.928 7.106 1.945 5.123 0 7.068 1.983 9.05l1.958 1.957 1.945-1.944L12 2.949 10.042.992z" fill="#A1A1A1"/></g><defs><clipPath id="anclip0"><path fill="#fff" d="M0 0h12v12H0z"/></clipPath></defs></svg><svg fill="none" viewBox="0 0 12 12" id="icon-eye" xmlns="http://www.w3.org/2000/svg"><g clip-path="url(#aoclip0)"><path d="M7.798 6c0 .953-.806 1.725-1.801 1.725-.995 0-1.802-.772-1.802-1.726 0-.953.807-1.726 1.802-1.726S7.798 5.046 7.798 6zM6 2.404c-1.03.005-2.098.256-3.109.736A7.919 7.919 0 00.774 4.682C.462 5.012.064 5.49 0 6c.008.441.481.987.774 1.317A7.8 7.8 0 002.89 8.86c.943.458 1.986.721 3.109.736 1.031-.005 2.099-.259 3.109-.736a7.923 7.923 0 002.117-1.542c.312-.33.71-.807.774-1.317-.008-.442-.481-.987-.774-1.318A7.803 7.803 0 009.11 3.141 7.33 7.33 0 006 2.405zm0 .893c1.56 0 2.826 1.21 2.826 2.702 0 1.493-1.266 2.703-2.827 2.703S3.172 7.493 3.172 6c0-1.492 1.266-2.702 2.827-2.702z" fill="#A1A1A1"/></g><defs><clipPath id="aoclip0"><path fill="#fff" d="M0 0h12v12H0z"/></clipPath></defs></svg><svg fill="none" viewBox="0 0 37 65" id="icon-slider-left" xmlns="http://www.w3.org/2000/svg"><path d="M10 32l27 32V2L10 32z" fill="#EAEAEA"/><path d="M29 64L2 32 29 2" stroke="#EAEAEA" stroke-width="3"/></svg><svg fill="none" viewBox="0 0 37 65" id="icon-slider-right" xmlns="http://www.w3.org/2000/svg"><path d="M27 33L0 1v62l27-30z" fill="#EAEAEA"/><path d="M8 1l27 32L8 63" stroke="#EAEAEA" stroke-width="3"/></svg><svg viewBox="0 0 50 50" id="icon-svg-agreement" xmlns="http://www.w3.org/2000/svg"><path d="M42.969 48.438H10.156a.782.782 0 010-1.563h32.032V5.469a.782.782 0 011.562 0v42.187c0 .431-.35.782-.781.782z"/><path d="M39.844 45.312H7.03a.782.782 0 01-.781-.78V11.718a.782.782 0 011.563 0v32.03h31.25V3.126H19.53a.782.782 0 010-1.563h20.313c.431 0 .781.35.781.782V44.53c0 .431-.35.781-.781.781z"/><path d="M16.408 12.5H7.066a.78.78 0 01-.72-.483.78.78 0 01.166-.85l9.343-9.375a.781.781 0 011.334.552v9.375c0 .431-.35.781-.781.781zm-7.46-1.563h6.678V4.234l-6.678 6.704zM11.719 23.438h12.5a.782.782 0 000-1.563h-12.5a.782.782 0 000 1.563zM11.719 26.563h7.812a.782.782 0 000-1.563H11.72a.782.782 0 000 1.563zM22.656 26.563h12.5a.782.782 0 000-1.563h-12.5a.782.782 0 000 1.563zM11.719 32.813h10.937a.782.782 0 000-1.563H11.72a.782.782 0 000 1.563zM11.719 29.688h15.625a.782.782 0 000-1.563H11.719a.782.782 0 000 1.563zM30.469 29.688h4.687a.782.782 0 000-1.563H30.47a.782.782 0 000 1.563zM27.344 23.438h7.812a.782.782 0 000-1.563h-7.812a.782.782 0 000 1.563zM14.844 17.188h20.312a.782.782 0 000-1.563H14.844a.782.782 0 000 1.563zM11.719 20.313h23.437a.782.782 0 000-1.563H11.72a.782.782 0 000 1.563z"/></svg><svg fill="none" viewBox="0 0 24 24" id="icon-svg-call" xmlns="http://www.w3.org/2000/svg"><path d="M13 8a3 3 0 013 3 1 1 0 002 0 5 5 0 00-5-5 1 1 0 100 2z" fill="#F78222"/><path d="M13 4a7 7 0 017 7 1 1 0 002 0 9 9 0 00-9-9 1 1 0 100 2zm8.75 11.91a1 1 0 00-.72-.65l-6-1.37a1 1 0 00-.92.26c-.14.13-.15.14-.8 1.38a9.91 9.91 0 01-4.87-4.89C9.71 10 9.72 10 9.85 9.85a1 1 0 00.26-.92L8.74 3a1 1 0 00-.65-.72 3.79 3.79 0 00-.72-.18A3.94 3.94 0 006.6 2 4.6 4.6 0 002 6.6 15.42 15.42 0 0017.4 22a4.6 4.6 0 004.6-4.6 4.338 4.338 0 00-.25-1.49zM17.4 20A13.41 13.41 0 014 6.6 2.61 2.61 0 016.6 4h.33L8 8.64l-.54.28c-.86.45-1.54.81-1.18 1.59a11.85 11.85 0 007.18 7.21c.84.34 1.17-.29 1.62-1.16l.29-.55L20 17.07v.33a2.61 2.61 0 01-2.6 2.6z" fill="#F78222"/></svg><svg viewBox="0 0 50 50" id="icon-svg-cards" xmlns="http://www.w3.org/2000/svg"><g clip-path="url(#atclip0)"><path d="M29.413 38.832l-5.38-3.106a.788.788 0 00-1.181.682v6.212c0 .281.15.541.393.682l5.38 3.105a.786.786 0 001.181-.682v-6.211a.788.788 0 00-.393-.682zm-1.182 5.53l-3.804-2.197v-4.392l3.804 2.196v4.392z"/><path d="M45.99 14.1L22.974.812a6.135 6.135 0 00-5.98-.067l-.918.503a2.39 2.39 0 00-1.262 2.11v11.518l-5.318-3.07a6.135 6.135 0 00-5.98-.067l-.982.537a2.373 2.373 0 00-1.198 2.076v17.064c0 1.446.778 2.793 2.03 3.516l25.536 14.743c.375.217.787.325 1.198.325.398 0 .796-.102 1.161-.305l2.054-1.116a3.622 3.622 0 001.87-3.17V34.528l7.194 4.154c.375.216.787.324 1.198.324.398 0 .796-.102 1.161-.305l2.054-1.116a3.623 3.623 0 001.87-3.17V18.73a5.36 5.36 0 00-2.672-4.63zm-29.6-9.06L44.4 21.21v4.393L16.39 9.43V5.04zm.01-1.812c.039-.253.19-.47.421-.592l.016-.01a.804.804 0 01.784.02L43.157 17.39a2.494 2.494 0 011.237 2L16.4 3.228zM2.91 16.035l28.01 16.17v4.392L2.912 20.425v-4.39zm.01-1.813a.812.812 0 01.401-.581.807.807 0 01.822 0l25.535 14.743a2.492 2.492 0 011.238 1.998L2.92 14.222zm27.59 34.089a.807.807 0 01-.822 0L4.154 33.568a2.492 2.492 0 01-1.243-2.152v-9.172l28.01 16.172v9.183c0 .428-.286.64-.41.712zm3.098-2.902c0 .745-.405 1.431-1.056 1.791l-.056.031V30.536a4.072 4.072 0 00-2.03-3.517L5.582 12.652a4.55 4.55 0 013.127.519l23.015 13.288a3.78 3.78 0 011.885 3.265v15.685zm10.38-8.092a.808.808 0 01-.823 0l-7.981-4.608v-2.985a5.36 5.36 0 00-2.673-4.63l-16.123-9.308V11.25l28.01 16.172v9.183c0 .428-.287.64-.41.712zm3.098-2.902c0 .745-.405 1.431-1.057 1.791l-.055.031V19.541a4.073 4.073 0 00-2.03-3.516L19.059 1.658a4.548 4.548 0 013.127.518l23.016 13.288a3.78 3.78 0 011.885 3.266v15.685z"/><path d="M42.893 27.838l-5.38-3.106a.788.788 0 00-1.181.682v6.211c0 .282.15.542.394.683l5.38 3.105a.788.788 0 001.18-.682V28.52a.788.788 0 00-.393-.682zm-1.182 5.529l-3.804-2.196v-4.393l3.804 2.197v4.392z"/></g><defs><clipPath id="atclip0"><path d="M0 0h50v50H0z"/></clipPath></defs></svg><svg viewBox="0 0 405.272 405.272" id="icon-svg-check" xmlns="http://www.w3.org/2000/svg"><path d="M393.401 124.425L179.603 338.208c-15.832 15.835-41.514 15.835-57.361 0L11.878 227.836c-15.838-15.835-15.838-41.52 0-57.358 15.841-15.841 41.521-15.841 57.355-.006l81.698 81.699L336.037 67.064c15.841-15.841 41.523-15.829 57.358 0 15.835 15.838 15.835 41.514.006 57.361z"/></svg><svg fill="none" viewBox="0 0 24 24" id="icon-svg-clock" xmlns="http://www.w3.org/2000/svg"><path d="M11.99 2C6.47 2 2 6.48 2 12s4.47 10 9.99 10C17.52 22 22 17.52 22 12S17.52 2 11.99 2zM12 20c-4.42 0-8-3.58-8-8s3.58-8 8-8 8 3.58 8 8-3.58 8-8 8zm-.22-13h-.06c-.4 0-.72.32-.72.72v4.72c0 .35.18.68.49.86l4.15 2.49c.34.2.78.1.98-.24a.71.71 0 00-.25-.99l-3.87-2.3V7.72c0-.4-.32-.72-.72-.72z" fill="#F78222"/></svg><svg viewBox="0 0 357 357" id="icon-svg-close" xmlns="http://www.w3.org/2000/svg"><path d="M357 35.7L321.3 0 178.5 142.8 35.7 0 0 35.7l142.8 142.8L0 321.3 35.7 357l142.8-142.8L321.3 357l35.7-35.7-142.8-142.8z"/></svg><svg viewBox="0 0 50 50" id="icon-svg-funds" xmlns="http://www.w3.org/2000/svg"><path d="M49.59 22.895L15.738 3.35a.82.82 0 00-.82 0L.412 11.726a.82.82 0 00-.41.71L0 26.395a.82.82 0 00.41.71L34.262 46.65a.82.82 0 00.82 0l14.508-8.374a.82.82 0 00.41-.71v-13.96a.82.82 0 00-.41-.711zm-37.48 9.071L1.64 25.922v-.9l10.47 6.045v.9zm0-2.793L1.64 23.128v-.897l10.47 6.046v.896zm0-2.79L1.641 20.337v-.897l10.47 6.045v.898zm0-2.792L1.642 17.546v-.898l10.468 6.045v.898zm0-2.792L1.642 14.754v-.898l10.468 6.045v.898zm-9.648-8.363l12.866-7.428 10.446 6.03-12.9 7.41-10.412-6.012zm19.3 25.103l-8.011-4.626V20.848l8.011 4.626v12.065zm-7.246-18.143l12.9-7.409 8.02 4.63-13 7.352-7.92-4.573zm19.336 25.123l-10.45-6.033v-.898l10.45 6.034v.897zm0-2.791l-10.45-6.035v-.896l10.45 6.033v.898zm0-2.792l-10.45-6.034v-.897l10.45 6.033v.898zm0-2.792l-10.45-6.033v-.898l10.45 6.033v.898zm0-2.792l-10.45-6.033v-.898l10.45 6.034v.897zm.82-2.318l-10.587-6.113 13-7.352 10.454 6.036-12.867 7.43zm13.688 6.058l-12.868 7.427v-.898l12.868-7.43v.901zm0-2.794l-12.868 7.43v-.899L48.36 33.4v.898zm0-2.792l-12.868 7.43v-.898l12.868-7.429v.897zm0-2.79l-12.868 7.428v-.898l12.868-7.429v.898zm0-2.793l-12.868 7.429v-.897l12.868-7.43v.898z"/></svg><svg fill="none" viewBox="0 0 40 38" id="icon-svg-garant-1" xmlns="http://www.w3.org/2000/svg"><g clip-path="url(#ayclip0)" fill="#006A44"><path d="M37.322 32.458c0 .76.016 1.524-.002 2.285-.044 1.68-1.346 3.047-3.06 3.237-1.603.178-3.176-.946-3.588-2.556-.17-.666-.159-1.34-.14-2.018.115-4.03.186-8.06.359-12.086.087-2.057.078-4.116.158-6.172.032-.788-.223-1.389-.791-1.962-2.74-2.759-3.147-7.206-1.005-10.466 2.422-3.684 7.151-3.616 9.475.136a8.416 8.416 0 01-1.166 10.377c-.562.57-.79 1.197-.767 1.98.18 5.748.341 11.495.507 17.243a.064.064 0 00.02.002zm-4.998.447h-.014c0 .508-.012 1.016.002 1.524.03 1.176.649 1.83 1.693 1.806 1.012-.025 1.647-.78 1.617-1.901-.108-3.917-.163-7.838-.336-11.753-.096-2.198-.009-4.406-.197-6.593-.15-1.752.338-3.08 1.582-4.337 2.193-2.215 2.084-6.574-.09-8.766-1.536-1.55-3.648-1.571-5.2-.052-2.324 2.271-2.36 6.676.002 9.021 1.046 1.039 1.507 2.179 1.456 3.635-.202 5.806-.347 11.612-.515 17.416zM11.969 6.594c0 1.382.011 2.765-.003 4.147-.014 1.357-.545 2.5-1.7 3.25-1.079.703-1.467 1.615-1.421 2.863.2 5.495.347 10.99.501 16.487.02.756.097 1.519-.14 2.268-.486 1.533-2 2.554-3.552 2.37-1.605-.189-2.917-1.546-2.933-3.16-.041-3.948.159-7.892.3-11.838.078-2.226.02-4.454.174-6.68.06-.86-.373-1.591-1.134-2.068C.582 13.305.014 11.928.007 10.276-.005 7.68.002 5.084 0 2.488c0-.113 0-.226.012-.339.062-.569.216-1.129.92-1.11.704.015.846.564.846 1.149.002 2.708.032 5.417-.01 8.124-.015 1.095.38 1.903 1.285 2.513 1.283.867 1.893 2.06 1.844 3.603-.177 5.89-.333 11.781-.506 17.671-.02.675.072 1.307.6 1.784.502.449 1.112.464 1.696.22.612-.257.895-.77.879-1.426-.06-2.452-.115-4.905-.184-7.357-.097-3.551-.207-7.102-.302-10.653-.041-1.567.476-2.903 1.84-3.795 1.027-.67 1.376-1.6 1.372-2.745-.01-2.51-.005-5.02-.005-7.533 0-.226-.002-.452.007-.677.023-.526.287-.89.835-.883.55.007.816.388.819.903.02 1.553.014 3.106.014 4.657h.007z"/><path d="M19.955 28.52c-4.706-.02-8.603-3.875-8.594-8.503.01-4.59 3.957-8.465 8.643-8.486 4.731-.02 8.722 3.944 8.676 8.615-.046 4.607-3.99 8.395-8.725 8.375zm0-1.75c3.8.035 6.885-2.866 6.931-6.518.048-3.845-2.905-6.928-6.67-6.967-3.953-.04-7.024 2.86-7.063 6.671-.039 3.82 2.912 6.777 6.802 6.813zM19.29 34.275c-2.323-.054-5.063-.853-7.515-2.533-.189-.128-.38-.257-.548-.41-.35-.319-.52-.696-.209-1.122.32-.443.743-.49 1.208-.213.688.409 1.338.892 2.063 1.222 4.67 2.137 9.132 1.742 13.37-1.134.522-.354 1.028-.98 1.709-.284.45.46.225.97-.663 1.634-2.443 1.822-5.599 2.845-9.415 2.84zM19.954 5.761c2.33.108 4.515.513 6.537 1.553.474.244.791.614.522 1.17-.264.546-.733.562-1.244.347a17.545 17.545 0 01-.474-.203 12.817 12.817 0 00-5.516-1.108c-1.716.031-3.356.372-4.923 1.063-.156.07-.31.149-.469.21-.534.208-1.042.23-1.316-.368-.257-.562.08-.926.564-1.147.623-.284 1.26-.542 1.907-.772 1.447-.51 2.963-.639 4.412-.745zM5.136 5.619c0-1.127-.003-2.255.002-3.382.002-.614.152-1.196.904-1.185.702.01.858.598.863 1.158.018 2.312.018 4.623 0 6.933-.005.569-.187 1.11-.918 1.086-.727-.025-.847-.565-.851-1.14-.003-1.158 0-2.314 0-3.47z"/></g><defs><clipPath id="ayclip0"><path fill="#fff" d="M0 0h40v38H0z"/></clipPath></defs></svg><svg fill="none" viewBox="0 0 40 35" id="icon-svg-garant-2" xmlns="http://www.w3.org/2000/svg"><path d="M28.69 18.156c-2.896 0-5.79.022-8.686-.015-.783-.01-1.095.213-1.059 1.036.056 1.309-.007 2.625.02 3.937.017.837-.322 1.252-1.178 1.25-2.347-.01-4.693-.01-7.04-.005-.766.003-1.134-.398-1.139-1.123-.015-3.173-.056-6.348.007-9.52.027-1.409 1.135-2.493 2.544-2.53 2.069-.051 4.142-.146 6.21.083.76.083 1.357.4 1.674 1.094.217.474.546.572 1.017.572 4.51-.01 9.023-.013 13.533.01.712.004.987-.247.965-.96-.036-1.158.008-2.32-.029-3.478-.034-1.092-.707-1.827-1.632-1.863-.944-.037-1.624.613-1.79 1.714-.017.12-.017.244-.039.364-.078.432-.295.772-.77.752-.515-.022-.713-.376-.745-.87-.078-1.252.956-2.803 2.22-3.301 1.232-.489 2.627-.064 3.503 1.052.627.801.914 1.715.922 2.721.007 1.006.017 2.015.002 3.021-.005.488.122.752.673.88 1.505.346 2.271 1.48 2.105 2.954-.148 1.331-1.258 2.218-2.785 2.22-2.835.003-5.669 0-8.503 0v.005zm-.195-1.56c2.892 0 5.785.007 8.678-.003 1.015-.002 1.327-.337 1.256-1.221-.07-.874-.702-.88-1.329-.88-5.695-.002-11.389.015-17.084-.016-.858-.005-1.08.29-1.085 1.11-.008.829.29 1.036 1.068 1.027 2.832-.037 5.664-.015 8.496-.018zm-11.089-.357h-.005c0-.884-.007-1.768.003-2.65.007-.527-.22-.784-.764-.781-1.49.012-2.983.002-4.473.01-.583.002-.925.285-.927.886-.007 1.707 0 3.412-.002 5.119 0 .495.229.71.726.708a228.72 228.72 0 014.657.005c.602.01.807-.259.793-.828-.023-.823-.008-1.646-.008-2.47zm-3.093 4.852v-.007c-.758 0-1.52.02-2.278-.007-.585-.02-.822.222-.815.808.008.557.095.943.788.933 1.55-.024 3.098-.024 4.647.003.634.01.763-.316.758-.855-.004-.518-.078-.901-.731-.88-.788.025-1.578.006-2.369.006z" fill="#006A44"/><path d="M37.22 22.132c.048 2.874-.915 5.329-3.1 7.229-.606.525-.8.989-.354 1.704.305.489.52 1.036.75 1.566.21.478.308.994-.26 1.275-.586.29-.895-.127-1.13-.599-.285-.574-.585-1.14-.843-1.726-.227-.513-.53-.667-1.081-.447-1.237.49-2.537.581-3.861.576-5.03-.02-10.06-.015-15.089-.005-1.17.003-2.322-.102-3.405-.552-.637-.263-.951-.053-1.198.528-.26.618-.575 1.214-.887 1.807-.203.379-.513.64-.969.454-.49-.2-.575-.632-.4-1.07.298-.732.637-1.453.998-2.158.234-.46.173-.762-.234-1.1-2.79-2.302-3.654-5.357-3.396-8.845.037-.5.25-.698.742-.7.512-.003.797.153.814.722.032 1.036-.068 2.071.125 3.104.685 3.654 3.463 6.17 7.188 6.225 5.579.083 11.157.086 16.735.005 4.169-.06 7.264-3.324 7.315-7.497.008-.61.01-1.221.003-1.832-.008-.488.2-.728.707-.728.49 0 .849.105.837.694-.012.454-.008.91-.008 1.37zM4.637 18.146c-.732 0-1.464.025-2.193-.005C1.034 18.081.007 16.99 0 15.58c-.007-1.434.973-2.58 2.373-2.628 1.58-.059 3.166-.005 4.752-.022.588-.005.822.256.81.83-.013.562-.31.73-.82.728-1.432-.01-2.863.005-4.295-.003-.72-.004-1.264.145-1.271 1.04-.005.88.495 1.075 1.237 1.068 1.4-.012 2.802.012 4.202-.005.586-.007.93.156.915.818-.012.626-.361.757-.893.745-.79-.017-1.583-.005-2.376-.005.003.003.003.003.003 0zM23.53 4.71c1.48-.025 2.896 1.377 2.891 2.857-.005 1.345-1.417 2.786-2.763 2.818-1.464.037-2.898-1.348-2.932-2.83-.032-1.405 1.363-2.821 2.805-2.846zm1.33 2.813c-.005-.706-.566-1.25-1.297-1.258-.727-.007-1.288.557-1.266 1.272.024.767.507 1.221 1.297 1.224.79 0 1.271-.471 1.266-1.238zM20.735 2.4c-.68-.11-1.134-.47-1.136-1.193-.003-.71.415-1.14 1.117-1.204.624-.056 1.285.606 1.22 1.217-.074.693-.505 1.074-1.2 1.18zM15.928 6.456c.017-.777.578-1.31 1.246-1.248.727.066 1.093.54 1.064 1.22-.03.704-.48 1.11-1.193 1.09-.717-.017-1.08-.45-1.117-1.062z" fill="#006A44"/></svg><svg fill="none" viewBox="0 0 37 30" id="icon-svg-garant-3" xmlns="http://www.w3.org/2000/svg"><path d="M23.604 12.783c0-2.797.075-5.597-.025-8.39-.07-2.023 1.47-4.1 3.744-4.225 2.004-.11 3.846 1.827 3.906 4.078.044 1.697.03 3.395-.002 5.092-.012.625.19.85.806.828 1.099-.038 2.2.02 3.298-.02.63-.022.728.292.726.831-.002.536-.093.85-.722.845-3.041-.02-6.081-.009-9.122-.009-.985 0-.987 0-.987.97 0 2.965.012 5.927-.009 8.892-.004.542.146.813.687.953.56.145 1.1.401 1.622.663 1.644.821 3.29.846 4.925.018.889-.452 1.798-.807 2.788-.91.33-.035.721-.14.803.414.124.825-.002 1.152-.597 1.242-.797.12-1.538.388-2.257.748-2.111 1.06-4.254 1.107-6.343.007-1.931-1.015-3.78-.97-5.697.023-2.023 1.047-4.125 1.075-6.148.03-2.021-1.042-3.932-1.043-5.956.03-1.939 1.029-3.982.937-5.963.019-.791-.368-1.557-.765-2.442-.832-.885-.065-.593-.758-.591-1.246.003-.61.49-.468.836-.43a6.535 6.535 0 012.401.748c1.827.993 3.66 1.033 5.496.019a6.08 6.08 0 012.118-.721c.474-.065.676-.285.674-.798-.015-3.06-.015-6.119.004-9.18.003-.64-.348-.663-.815-.663-3.297.008-6.595-.007-9.893.014-.625.003-.868-.184-.86-.857.005-.63.205-.827.815-.823 3.272.023 6.547.012 9.822.012.92 0 .923-.004.923-.966.002-1.626-.024-3.252.006-4.876C11.61 2.377 12.81.782 14.52.311c2.191-.602 4.619 1.242 4.67 3.585.039 1.815.031 3.634 0 5.45-.012.623.166.87.795.816.558-.048 1.123.008 1.682-.013.545-.02.94.013.927.776-.011.693-.238.91-.9.9-2.082-.033-4.163-.014-6.246-.014-.515 0-1.03.02-1.544-.006-.503-.023-.64.228-.642.699-.002.485.167.684.657.68 2.573-.013 5.145-.007 7.719-.003.913.002.937.06.939.968.002.543-.219.696-.715.692-2.175-.015-4.35-.006-6.526-.004-.468 0-.936.02-1.404-.006-.477-.026-.672.161-.672.662-.002.515.17.73.695.727 2.573-.015 5.145-.008 7.718-.002.87.002.872.052.908.937.026.662-.266.811-.839.807-2.573-.017-5.145-.005-7.718-.007-.403 0-.74.017-.76.581-.02.565.125.815.741.808 2.573-.03 5.145.005 7.718-.02.616-.005.88.155.865.84-.013.616-.192.844-.81.836a477.377 477.377 0 00-7.578-.002c-.352.002-.86-.199-.92.455-.048.544-.063 1.003.665 1.171.652.151 1.262.497 1.877.782 1.449.672 2.905.656 4.35.039.968-.416 1.885-.965 2.965-1.047.516-.04.464-.434.464-.795 0-2.939 0-5.88.002-8.82zM17.58 6.759h-.006V3.97a1.86 1.86 0 00-.005-.144c-.096-1.184-.953-1.941-2.187-1.93-1.179.01-2.068.788-2.092 1.944-.04 1.907-.011 3.816-.02 5.725-.002.422.168.6.587.594a78.89 78.89 0 013.08.004c.495.012.66-.2.648-.683-.02-.906-.005-1.813-.005-2.72zm11.944-.06h-.003c0-.932.028-1.864-.008-2.793-.047-1.236-.866-2.001-2.096-2.013-1.269-.011-2.152.758-2.179 2.003-.039 1.884-.007 3.77-.018 5.656-.002.417.14.608.572.6a95.824 95.824 0 013.154 0c.421.006.59-.166.584-.592-.015-.953-.006-1.907-.006-2.862z" fill="#006A44"/><path d="M29.875 29.433c-.963-.08-2.008-.22-2.95-.755-1.916-1.09-3.817-1.046-5.758-.04-2.076 1.075-4.193 1.073-6.268-.002-1.917-.993-3.779-1.014-5.703.002-2.016 1.065-4.095 1.04-6.152.082-.83-.388-1.643-.776-2.579-.864-.704-.066-.374-.693-.429-1.087-.054-.396.173-.545.55-.541.91.007 1.77.246 2.555.68 1.977 1.089 3.903 1.022 5.894-.007 2.03-1.048 4.134-.974 6.148.052 1.934.983 3.78.971 5.705-.006 2.07-1.052 4.202-1.06 6.277.013 1.895.98 3.753 1.01 5.64.002.814-.434 1.684-.7 2.614-.738.448-.02.67.163.62.623-.045.402.222.985-.51 1.03-.812.05-1.545.344-2.253.732-1.033.564-2.154.765-3.4.824z" fill="#006A44"/></svg><svg fill="none" viewBox="0 0 40 41" id="icon-svg-garant-4" xmlns="http://www.w3.org/2000/svg"><path d="M39.733 16.862c.01.597-.358.998-.736 1.383-1.133 1.15-2.257 2.31-3.426 3.424-.584.554-.594.972 0 1.532a107.215 107.215 0 013.254 3.242c.928.955.978 1.638.053 2.576a982.98 982.98 0 01-9.833 9.84c-.978.964-1.638.9-2.665-.1-1.008-.985-2.048-1.94-2.973-2.997-.759-.869-1.28-.73-1.982.05-.997 1.103-2.078 2.134-3.155 3.169-1.114 1.07-1.74 1.054-2.85-.03-1.034-1.014-2.078-2.022-3.066-3.08-.583-.623-1.024-.66-1.624-.016-1.074 1.147-2.204 2.247-3.328 3.345-1.063 1.04-1.733 1.08-2.77.09a123.432 123.432 0 01-3.954-3.95c-.908-.95-.902-1.637.006-2.595 1.14-1.2 2.31-2.374 3.51-3.517.593-.564.56-.985-.02-1.535A93.097 93.097 0 01.84 24.355c-.931-.978-.925-1.575.02-2.56 1.12-1.163 2.247-2.324 3.427-3.42.66-.614.746-1.049.03-1.695-1.104-1.001-2.135-2.082-3.165-3.156-1.008-1.044-1.034-1.647-.043-2.649C4.34 7.607 7.59 4.358 10.856 1.122c1.014-1.004 1.614-.988 2.648.004a90.919 90.919 0 013.248 3.248c.553.59.948.617 1.511.014 1.074-1.147 2.208-2.241 3.331-3.345 1.223-1.2 1.767-1.197 3.01.023 1.004.985 2.035 1.953 2.972 2.997.677.752 1.16.673 1.807-.03 1.007-1.097 2.084-2.132 3.152-3.17 1.17-1.136 1.826-1.15 2.96-.046A176.125 176.125 0 0139.18 4.51c1.11 1.15 1.09 1.79-.053 2.954-1.074 1.09-2.141 2.191-3.258 3.242-.617.58-.673 1.021-.023 1.625 1.09 1.014 2.117 2.098 3.168 3.152.381.382.756.773.72 1.38zM23.14 2.266c-.378.027-.57.255-.773.458-2.833 2.834-5.664 5.675-8.507 8.5-.461.457-.587.838-.06 1.342.984.941 1.942 1.913 2.89 2.894.401.414.72.434 1.137.013 2.913-2.93 5.836-5.854 8.77-8.765.424-.42.397-.732-.014-1.134-.98-.948-1.932-1.926-2.903-2.884-.166-.165-.375-.298-.54-.424zM6.03 26.924c.375.033.527-.183.696-.352 2.894-2.89 5.78-5.791 8.684-8.675.43-.428.537-.763.046-1.23a103.5 103.5 0 01-2.896-2.888c-.441-.454-.806-.45-1.25 0-2.883 2.901-5.777 5.795-8.68 8.68-.414.41-.411.748-.003 1.15 1 .984 1.985 1.989 2.982 2.98.143.143.315.252.421.335zm22.272-11.325c.173-.129.421-.275.62-.474 2.84-2.83 5.668-5.675 8.514-8.496.471-.468.587-.816.047-1.32a60.57 60.57 0 01-2.807-2.804c-.508-.54-.855-.418-1.323.05-2.82 2.847-5.664 5.675-8.494 8.516-.226.225-.643.52-.411.815 1.07 1.366 2.323 2.563 3.649 3.68.023.027.076.017.205.033zm5.485-2.648c-.198.142-.38.242-.52.384-2.927 2.92-5.846 5.851-8.78 8.765-.487.484-.328.839.09 1.243.918.892 1.843 1.784 2.714 2.725.537.58.912.474 1.422-.036 2.82-2.854 5.654-5.689 8.508-8.51.504-.497.497-.845-.003-1.323-.962-.908-1.876-1.866-2.818-2.794-.175-.173-.39-.292-.613-.454zm-7.205 15.047c-.106-.173-.166-.332-.275-.444-1.047-1.058-2.104-2.105-3.152-3.163-.404-.408-.726-.225-1.054.103-2.893 2.897-5.783 5.795-8.69 8.679-.454.45-.46.795 0 1.236a80 80 0 012.804 2.808c.487.517.839.474 1.323-.017 2.82-2.854 5.664-5.678 8.497-8.52.2-.195.355-.437.547-.682zm-10.983.106c-.083-.113-.183-.295-.322-.434-.987-.998-1.992-1.983-2.976-2.987-.44-.451-.786-.272-1.15.096-2.89 2.897-5.78 5.795-8.684 8.679-.407.404-.44.726-.013 1.137.981.948 1.949 1.91 2.89 2.897.441.461.773.468 1.23.01 2.85-2.877 5.72-5.735 8.584-8.603.195-.202.437-.387.44-.795zm.417-21.79c-.05-.086-.093-.21-.175-.295a596.125 596.125 0 00-3.242-3.246c-.42-.417-.742-.13-1.05.18-2.864 2.863-5.724 5.734-8.598 8.589-.454.45-.454.802.004 1.243a86.142 86.142 0 012.804 2.808c.493.523.838.457 1.319-.03 2.817-2.851 5.664-5.679 8.494-8.517.199-.199.46-.364.444-.732zm1.058 20.398c.33.006.51-.242.709-.441 2.837-2.831 5.664-5.676 8.514-8.497.494-.49.51-.849.003-1.33a93.15 93.15 0 01-2.807-2.8c-.45-.468-.798-.422-1.24.023-2.853 2.874-5.723 5.731-8.583 8.602-.226.226-.604.514-.305.832 1.13 1.204 2.313 2.358 3.48 3.524.053.05.152.057.229.087zm16.332-2.755c-.102.08-.282.185-.424.325-2.897 2.89-5.783 5.791-8.69 8.675-.48.478-.358.832.066 1.243.948.922 1.89 1.853 2.804 2.808.444.464.782.448 1.233-.006 2.85-2.878 5.717-5.742 8.594-8.596.44-.438.514-.776.036-1.234-.984-.944-1.935-1.922-2.903-2.884-.172-.172-.344-.361-.716-.331z" fill="#006A44"/></svg><svg fill="none" viewBox="0 0 40 40" id="icon-svg-garant-5" xmlns="http://www.w3.org/2000/svg"><path d="M35.026 8.105c0 1.757.035 3.517-.015 5.274-.025.835.3 1.094 1.097 1.035.93-.07 1.859-.15 2.796-.027.56.074 1.139.118 1.094.832-.045.673-.63.77-1.186.772-2.335.01-4.673.008-7.008.008-1.378 0-1.378-.003-1.378 1.364 0 1.14-.022 2.284.005 3.424.02.827-.344 1.173-1.174 1.168-2.46-.018-4.922.02-7.381-.02-.778-.012-1.044.242-1.012 1.007.05 1.202.017 2.407.01 3.609-.008 1.185-.274 1.456-1.5 1.464-2.335.012-4.673.034-7.008-.008-.835-.015-1.094.284-1.059 1.079.052 1.138.017 2.283.01 3.423-.008 1.245-.234 1.474-1.46 1.477-2.368.005-4.735.03-7.1-.013-.795-.015-1.04.282-1.012 1.027.04 1.17.01 2.345.005 3.517 0 .373-.017.748-.204 1.08-.165.288-.436.46-.78.387-.464-.1-.67-.462-.686-.887-.035-.955-.027-1.91-.032-2.868-.005-.832-.015-1.666.005-2.498.025-1.029.324-1.32 1.343-1.338.748-.012 1.495-.024 2.243.003.615.022.92-.175.915-.837-.018-3.456-.013-6.909-.008-10.365 0-.57-.164-.765-.7-.4-.36.247-.71.514-1.104.694-.788.36-1.117.936-.995 1.777a.373.373 0 010 .092c-.062.632.043 1.483-.867 1.47-.904-.012-.752-.86-.84-1.49-.204-1.456.37-2.35 1.66-3.15C12.232 13.658 22.716 7.056 33.21.47A2.884 2.884 0 0134.877 0c1.308.032 2.616.005 3.925.017.598.005 1.218.131 1.194.86-.028.735-.668.804-1.256.767-.935-.062-1.864-.015-2.799.034-.68.035-.93.311-.922.968.022 1.817.007 3.638.007 5.458zm-9.659 5.729c0 1.848.025 3.7-.012 5.549-.015.703.184 1.044.944.975.494-.045 1-.045 1.493-.003.755.064 1.069-.2 1.037-.987-.05-1.232.005-2.466-.018-3.7-.017-.891.411-1.326 1.286-1.328.745-.003 1.493.014 2.236.069.71.052 1.001-.188.996-.936a742.71 742.71 0 01-.002-10.266c.005-.693-.137-.82-.76-.42a381.313 381.313 0 01-6.55 4.1c-.483.297-.662.657-.655 1.21.02 1.913.005 3.826.005 5.737zm-1.62.59c0-1.696-.025-3.392.01-5.088.018-.777-.15-.95-.86-.493a302.847 302.847 0 01-6.312 3.954c-.576.35-.79.768-.782 1.43.027 3.238-.018 6.476.02 9.712.03 2.728-.531 2.35 2.512 2.392.67.01.957-.212.934-.908-.037-1.294.003-2.59-.012-3.885-.01-.813.376-1.195 1.188-1.19.748.007 1.498-.042 2.24.012.803.06 1.112-.2 1.082-1.034-.06-1.632-.02-3.268-.02-4.902zM6.256 25.788c0 1.449-.018 2.898.005 4.347.037 2.582-.412 2.19 2.267 2.266.905.027 1.127-.33 1.094-1.14-.047-1.17-.027-2.343 0-3.515.025-1.074.332-1.375 1.403-1.412a23.972 23.972 0 012.149.002c.735.04 1.059-.185 1.051-.987a591.477 591.477 0 01-.007-10.084c.005-.693-.107-.93-.8-.481a389.225 389.225 0 01-6.392 4.014c-.576.353-.79.787-.78 1.441.03 1.849.01 3.7.01 5.55z" fill="#006A44"/></svg><svg fill="none" viewBox="0 0 20 18" id="icon-svg-home" xmlns="http://www.w3.org/2000/svg"><g clip-path="url(#bdclip0)" fill="#2B2A29"><path d="M.004 8.193L10.064 0l9.932 8.077-.999 1.328-8.927-7.262-9.062 7.372L.004 8.193zM16.292 17.156V10.72h1.627v6.435l-.814.844-.813-.844zm1.627 0V18h-.814l.814-.844zm-5.078-.845h4.264V18h-4.264v-1.689zm-10.022 0h4.433V18H2.82l-.813-.844.813-.845zm0 1.689h-.813v-.844l.813.844zm.814-7.273v6.429H2.006v-6.43h1.627z"/><path d="M13.583 12.91v5.084h-1.627V12.91h1.627zm-5.24.03H6.714l.022-.39.056-.373.096-.356.129-.332.163-.308.196-.28.219-.25.247-.216.258-.186.28-.163.286-.128.292-.1.303-.075.303-.046.309-.024.303-.005.309.023.303.046.303.07.291.093.286.117.275.134.27.163.252.192.236.21.213.239.196.267.163.286.135.314.095.332.062.35.017.366h-1.627l-.006-.18-.028-.157-.045-.152-.056-.134-.073-.128-.09-.122-.1-.11-.119-.106-.129-.099-.146-.087-.157-.076-.162-.07-.174-.052-.18-.04-.185-.03-.185-.012h-.185l-.18.012-.174.03-.168.04-.157.053-.146.07-.135.075-.123.087-.107.1-.095.104-.085.123-.072.133-.062.158-.045.174-.034.198-.01.228zm-1.628 5.054V12.94h1.627v5.054H6.715z"/></g><defs><clipPath id="bdclip0"><path fill="#fff" d="M0 0h20v18H0z"/></clipPath></defs></svg><svg fill="none" viewBox="0 0 24 24" id="icon-svg-map" xmlns="http://www.w3.org/2000/svg"><path d="M22.428 4.173L15.45 2.22 8.452 4.192 1.943 2.346a.937.937 0 00-1.193.902v15.966a1.13 1.13 0 00.818 1.082l6.882 1.952 7.002-1.972 6.608 1.849a.938.938 0 001.19-.903V5.256a1.129 1.129 0 00-.822-1.083zM7.641 20.459L2.25 18.93V3.992l5.39 1.53v14.937zm7.06-1.53l-5.56 1.566V5.557L14.7 3.99v14.938zm7.049 1.551l-5.55-1.552V3.988l5.55 1.553v14.94z" fill="#F78222"/></svg><svg fill="none" viewBox="0 0 24 24" id="icon-svg-marker" xmlns="http://www.w3.org/2000/svg"><path d="M21 10c0 7-9 13-9 13s-9-6-9-13a9 9 0 1118 0z" stroke="#F78222" stroke-width="2" stroke-linecap="round" stroke-linejoin="round"/><path d="M12 13a3 3 0 100-6 3 3 0 000 6z" stroke="#F78222" stroke-width="2" stroke-linecap="round" stroke-linejoin="round"/></svg><svg fill="none" viewBox="0 0 10 2" id="icon-svg-minus" xmlns="http://www.w3.org/2000/svg"><path stroke="#fff" stroke-width="2" d="M0 1h10"/></svg><svg fill="none" viewBox="0 0 18 18" id="icon-svg-modal-close" xmlns="http://www.w3.org/2000/svg"><path stroke="#494A4D" d="M.354.646l17 17M17.646.646l-17 17"/></svg><svg fill="none" viewBox="0 0 24 24" id="icon-svg-order-ok" xmlns="http://www.w3.org/2000/svg"><path d="M17.28 9.28a.75.75 0 00-1.06-1.06l-5.97 5.97-2.47-2.47a.75.75 0 00-1.06 1.06l3 3a.75.75 0 001.06 0l6.5-6.5z" fill="#fff"/><path fill-rule="evenodd" clip-rule="evenodd" d="M12 1C5.925 1 1 5.925 1 12s4.925 11 11 11 11-4.925 11-11S18.075 1 12 1zM2.5 12a9.5 9.5 0 1119 0 9.5 9.5 0 01-19 0z" fill="#fff"/></svg><svg fill="none" viewBox="0 0 20 20" id="icon-svg-order-payment" xmlns="http://www.w3.org/2000/svg"><g clip-path="url(#bjclip0)" fill="#fff"><path d="M16.64 4.854l-.835-3.057-2.835.774L11.789.187l-9.42 4.667H0v14.959h18.714V15.78H20V8.818h-1.286V4.854h-2.075zM14.82 3.52l.364 1.334H9.932l2.293-.626 1.38-.376 1.216-.332zm2.49 14.89H1.403V6.257H17.31v2.561h-7.156V15.78h7.156v2.629zm1.286-4.032H11.56v-4.157H18.596v4.157zM11.154 2.067l.437.88-4.93 1.346 4.494-2.226z"/><path d="M12.67 11.647v1.373h1.373v-1.373H12.67z"/></g><defs><clipPath id="bjclip0"><path fill="#fff" d="M0 0h20v20H0z"/></clipPath></defs></svg><svg viewBox="0 0 50 50" id="icon-svg-payment" xmlns="http://www.w3.org/2000/svg"><g clip-path="url(#bkclip0)"><path d="M49.602 17.738l-8.148-4.704a9.373 9.373 0 013.055-2.836.796.796 0 000-1.378l-7.644-4.413a.796.796 0 00-.788-.005l-.01.006a10.966 10.966 0 00-3.639 3.415l-.66-.382a.796.796 0 00-.797 0l-10.189 5.884a.8.8 0 00-.123.087L.277 31.066l.001.001a.795.795 0 00-.276.6L0 34.607c0 .286.152.549.398.69l17.837 10.297a.796.796 0 00.796 0l30.571-17.651a.796.796 0 00.398-.69v-8.826a.796.796 0 00-.398-.69zm-18.628-3.13l7.643 4.416a.796.796 0 001.194-.69c0-.475.037-.946.108-1.409l2.6 1.502-3.503 2.023-11.148-6.436 2.817-1.627c-.071.504-.109 1.015-.109 1.532 0 .284.152.547.398.69zm5.504-8.587L42.6 9.556a11.03 11.03 0 00-4.3 7.446l-6.121-3.536a9.42 9.42 0 014.3-7.445zM31.37 9.05l.275.158c-.169.354-.319.717-.449 1.088a.794.794 0 00-.222.086l-5.095 2.943a.796.796 0 000 1.378l12.74 7.355a.796.796 0 00.795 0l5.096-2.942a.796.796 0 000-1.378l-4.197-2.424c.104-.304.223-.603.357-.895l6.944 4.009-8.598 4.966-16.242-9.38 8.596-4.964zm-10.095 5.936l16.375 9.457L18.538 40.99 2.165 31.538l19.109-16.552zM1.592 34.15l.001-1.103 16.242 9.377v1.102L1.593 34.149zm17.836 9.377l-.001-1.2 20.052-17.362 8.93-5.157v6.987L19.427 43.526z"/><path d="M17.203 21.463l12.766 7.37a.795.795 0 00.919-.087l3.903-3.38a.796.796 0 00-.123-1.29l-12.766-7.372a.796.796 0 00-.919.087l-3.903 3.381a.796.796 0 00.123 1.291zm4.394-3.097l11.307 6.53-2.63 2.276-11.307-6.528 2.63-2.278zM4.75 31.29a.796.796 0 00.394.614l12.764 7.37a.795.795 0 00.919-.088l10.019-8.675a.796.796 0 00-.123-1.291l-12.765-7.371a.796.796 0 00-.92.087L5.022 30.613a.796.796 0 00-.271.678zm10.902-7.78l11.306 6.53-8.745 7.572-11.305-6.527 8.744-7.574z"/></g><defs><clipPath id="bkclip0"><path d="M0 0h50v50H0z"/></clipPath></defs></svg><svg viewBox="0 0 50 50" id="icon-svg-pickup" xmlns="http://www.w3.org/2000/svg"><g clip-path="url(#blclip0)"><path d="M44.129 9.12L28.519.105a.792.792 0 00-.79 0l-2.64 1.524a8.025 8.025 0 00-4 6.93v9.8l-8.97 5.18a.792.792 0 00-.395.685l-.002 10.355-5.846 3.376a.792.792 0 000 1.37l15.606 9.014a.791.791 0 00.792 0l10.253-5.918a8.98 8.98 0 00-.455.709c-1.545 2.675-1.41 5.548.308 6.54a2.5 2.5 0 001.266.329c1.55 0 3.355-1.259 4.553-3.333.699-1.21 1.081-2.52 1.077-3.69-.004-1.324-.496-2.336-1.386-2.85a2.44 2.44 0 00-.868-.3l.862-.498a.792.792 0 00.396-.685V17.573a6.437 6.437 0 013.21-5.56l2.639-1.523a.791.791 0 000-1.37zm-6.436 33.863c.003.88-.312 1.935-.865 2.893-1.158 2.004-2.856 2.886-3.656 2.424-.8-.462-.886-2.374.271-4.378.955-1.655 2.28-2.544 3.163-2.544.186 0 .353.04.493.12.375.217.592.758.594 1.485zM23.181 6.063L37.41 14.28a7.984 7.984 0 00-.713 3.293v1.677l-14.025-8.098V8.56c0-.87.18-1.718.51-2.498zm-9.874 19.533l7.78 4.492.002 12.592-7.784-4.494.002-12.59zm9.365 17.084l-.002-12.592 10.906-6.297-.002 12.592-10.902 6.297zm-.794-13.963l-7.78-4.492L25 17.928l7.784 4.492-10.906 6.297zm0 18.023L7.855 38.64l3.867-2.233v2.234c0 .283.15.545.395.686l9.368 5.409a.79.79 0 00.792 0l12.484-7.211a.792.792 0 00.395-.686l.003-14.42a.792.792 0 00-.396-.685l-9.368-5.406a.792.792 0 00-.791 0l-1.933 1.116V12.98l14.026 8.098v17.109L21.878 46.74zM40.7 10.642a7.984 7.984 0 00-2.498 2.267L23.973 4.69a6.4 6.4 0 011.908-1.69l2.243-1.295L42.15 9.804l-1.45.838z"/></g><defs><clipPath id="blclip0"><path d="M0 0h50v50H0z"/></clipPath></defs></svg><svg fill="none" viewBox="0 0 10 10" id="icon-svg-plus" xmlns="http://www.w3.org/2000/svg"><path stroke="#fff" stroke-width="2" d="M5 0v10M0 5h10"/></svg><svg viewBox="0 0 50 50" id="icon-svg-profile" xmlns="http://www.w3.org/2000/svg"><path d="M41.874 44.245v4.922a.833.833 0 01-1.666 0v-4.922a6.93 6.93 0 00-6.934-6.934 5.116 5.116 0 01-4.401-2.471.833.833 0 011.423-.867 3.461 3.461 0 002.978 1.672c4.753 0 8.6 3.846 8.6 8.6zm-14.54-8.352a.833.833 0 01-.637.991 7.975 7.975 0 01-6.198-1.212c-1.758 1.883-4.08 1.64-3.77 1.64a6.93 6.93 0 00-6.934 6.933v4.922a.833.833 0 01-1.666 0v-4.922c0-4.753 3.846-8.6 8.6-8.6a3.474 3.474 0 003.482-3.473v-.22c-3.637-1.738-6.19-5.393-6.346-9.648-1.496-.36-2.611-1.7-2.611-3.294v-4.32c-.046-2.114.268-7.409 4.129-11.13 4.768-4.597 12.413-4.305 18.035-1.598a.835.835 0 01.176 1.387 11.246 11.246 0 016.882 4.952c.082.129.23.331.192.654a.843.843 0 01-.24.53 5.44 5.44 0 00-1.574 3.842v5.684a.833.833 0 11-1.666 0v-5.684c0-1.67.57-3.256 1.618-4.53-1.597-2.284-4.09-3.754-6.908-4.055l-1.465-.157c-.856-.092-1.024-1.272-.228-1.6l.666-.273c-8.675-3.024-17.951.336-17.951 11.97v4.328c0 .662.38 1.236.937 1.525v-5.402A5.84 5.84 0 0119.69 9.3h10.623a5.84 5.84 0 015.833 5.833v6.822c0 7.246-7.081 12.75-14.287 10.63a5.096 5.096 0 01-.436 1.7 6.31 6.31 0 004.92.97.833.833 0 01.991.637zm-2.332-4.523c5.226 0 9.478-4.252 9.478-9.478v-6.76a4.17 4.17 0 00-4.167-4.165H19.69a4.17 4.17 0 00-4.166 4.166v6.759c0 5.226 4.251 9.478 9.478 9.478zm8.436 14.36h-2.5a.833.833 0 000 1.666h2.5a.833.833 0 000-1.666z"/></svg><svg fill="none" viewBox="0 0 24 24" id="icon-svg-route" xmlns="http://www.w3.org/2000/svg"><path d="M13.67 22h-.06a1 1 0 01-.92-.8L11 13l-8.2-1.69a1 1 0 01-.12-1.93l16-5.33A1 1 0 0120 5.32l-5.33 16a1 1 0 01-1 .68zm-6.8-11.9l5.19 1.06a1 1 0 01.79.78l1.05 5.19 3.52-10.55L6.87 10.1z" fill="#F78222"/></svg><svg viewBox="0 0 50 45" id="icon-svg-sber" xmlns="http://www.w3.org/2000/svg"><g clip-path="url(#bpclip0)"><path d="M33.963 33.448l2.862-2.086h-9.579v12.524h9.579V41.8h-6.848v-3.205h5.837v-2.086h-5.837v-3.06h3.986zM19.533 41.8h-2.845v-3.47h2.845c1.737 0 2.544.58 2.544 1.73 0 1.185-.856 1.74-2.544 1.74zm.481-5.557h-3.326v-2.795h5.307l2.862-2.086H13.949v12.524h5.707c3.203 0 5.038-1.433 5.038-3.938 0-2.384-1.663-3.705-4.68-3.705zM44.527 38.257h-2.429v-4.809h2.43c1.752 0 2.714.854 2.714 2.4 0 1.555-.962 2.409-2.715 2.409zm.057-6.895h-5.217v12.524h2.731v-3.551h2.486c3.326 0 5.397-1.724 5.397-4.486 0-2.763-2.07-4.487-5.397-4.487zM9.26 41.172a4.917 4.917 0 01-2.364.588c-2.462 0-4.256-1.74-4.256-4.131 0-2.4 1.794-4.14 4.256-4.14.929 0 1.769.257 2.486.773l1.965-1.426-.13-.112c-1.15-1-2.675-1.523-4.427-1.523-1.9 0-3.62.629-4.85 1.78C.707 34.133.022 35.76.022 37.556c0 1.804.677 3.455 1.908 4.64 1.24 1.191 2.96 1.852 4.842 1.852 1.973 0 3.693-.677 4.859-1.917-.905-.653-1.77-1.289-1.77-1.289l-.602.33z"/><path fill-rule="evenodd" clip-rule="evenodd" d="M37.309 10.43c.114.677.17 1.361.17 2.07 0 .628-.04 1.248-.138 1.86l-.081.484h-.009c-2.266 11.436-17.78 13.981-23.575 3.511-2.446-4.414-1.794-10.172 1.63-14.062C18.388.943 22.7-.62 27.2.225c2.323.435 3.807 1.249 5.584 2.554l-2.462 1.788c-.163-.105-.334-.21-.497-.314C22.895.12 13.455 5.83 15.42 14.843v.009c2.185 8.311 13.296 9.81 17.69 2.69.62-.975.848-1.643 1.158-2.698l.146-.685.058-.354c.057-.427.09-.87.09-1.305v-.258l2.64-1.933.074-.048.032.169z"/><path d="M34.852 4.865a12.445 12.445 0 011.516 2.48L24.849 15.73l-4.818-2.98V9.165l4.818 2.98 10.003-7.28z"/></g><defs><clipPath id="bpclip0"><path d="M0 0h50v44.048H0z"/></clipPath></defs></svg><svg fill="none" viewBox="0 0 36 36" id="icon-svg-slide-next" xmlns="http://www.w3.org/2000/svg"><path fill-rule="evenodd" clip-rule="evenodd" d="M18.33 10.454a1.125 1.125 0 011.594 0l6.75 6.75a1.124 1.124 0 010 1.593l-6.75 6.75a1.126 1.126 0 01-1.593-1.594L24.285 18l-5.956-5.954a1.125 1.125 0 010-1.592z" fill="#fff"/><path fill-rule="evenodd" clip-rule="evenodd" d="M9 18a1.125 1.125 0 011.125-1.125H24.75a1.125 1.125 0 110 2.25H10.125A1.125 1.125 0 019 18z" fill="#fff"/></svg><svg fill="none" viewBox="0 0 36 36" id="icon-svg-slide-prev" xmlns="http://www.w3.org/2000/svg"><path fill-rule="evenodd" clip-rule="evenodd" d="M17.67 10.454a1.125 1.125 0 00-1.594 0l-6.75 6.75a1.124 1.124 0 000 1.593l6.75 6.75a1.126 1.126 0 001.593-1.594L11.714 18l5.955-5.954a1.125 1.125 0 000-1.592z" fill="#fff"/><path fill-rule="evenodd" clip-rule="evenodd" d="M27 18a1.125 1.125 0 00-1.125-1.125H11.25a1.125 1.125 0 100 2.25h14.625A1.125 1.125 0 0027 18z" fill="#fff"/></svg><svg viewBox="0 0 50 50" id="icon-svg-truck" xmlns="http://www.w3.org/2000/svg"><path d="M19.574 36.748a.86.86 0 001.244 1.016l3.033-1.726a.86.86 0 00.436-.748v-4.438a.861.861 0 00-1.327-.724l-1.284.826a.86.86 0 00-.352.456l-1.75 5.338zm2.331-1.584l.66-2.012v1.637l-.66.375zM27.273 23.876v10.07a.861.861 0 001.29.746l18.045-10.355a.86.86 0 00.432-.747V13.52a.861.861 0 00-1.29-.746L27.707 23.13a.861.861 0 00-.433.746zm1.723.499l16.322-9.367v8.083l-16.322 9.367v-8.083z"/><path d="M.32 37.253v3.801c0 .308.164.592.43.746l14.005 8.085a.859.859 0 00.855 0v.002l4.995-2.836s2.005 1.205 2.113 1.268c.373.215.785.317 1.212.317 1.329 0 2.813-.986 3.768-2.64.566-.98.857-2.056.82-3.028-.005-.152-.02-.299-.042-.442l9.938-5.737 2.172 1.14c.358.2.76.3 1.185.3.501 0 1.032-.139 1.553-.414.86-.454 1.646-1.244 2.212-2.225.566-.98.858-2.056.82-3.027a4.063 4.063 0 00-.021-.284l.947-.547a.861.861 0 00.431-.745v-4.243l1.537-.883a.861.861 0 00.432-.747V8.947a.86.86 0 00-.43-.745L35.245.115a.861.861 0 00-.86 0L11.062 13.52a.861.861 0 00-.432.746v4.24l-4.74 2.766a.86.86 0 00-.401.54h-.001l-2.051 8.444A9.393 9.393 0 00.32 37.253zm1.763-.775l.8.462v.923l-.84-.474v-.136c0-.26.014-.52.04-.775zm3.115-6.176l.825-3.398L18.3 33.991l-.966 3.316-12.135-7.005zm1.692-6.965l12.423 7.172-.518 1.78L6.447 25.16l.443-1.823zm1.15-1.325l3.45-2.014 12.287 7.094-3.45 2.013L8.04 22.012zm4.312-6.254l12.282 7.09v2.75l-12.282-7.092v-2.748zm34.744-6.812l-21.6 12.412-12.28-7.09L34.814 1.856l12.282 7.09zM26.356 37.03v-14.18L47.96 10.434v14.181L26.356 37.031zm14.622-1.629c-.024-.642.191-1.408.592-2.102.4-.693.955-1.262 1.524-1.562.27-.143.527-.216.745-.216.136 0 .257.028.357.086.26.15.42.522.44 1.02.024.642-.192 1.408-.592 2.101-.4.694-.955 1.263-1.524 1.563-.44.233-.842.28-1.103.13-.26-.15-.42-.522-.439-1.02zm-13.758 5.12a2.353 2.353 0 00-.864-.292v-1.213l19.635-11.283v2.755l-.295.17a2.34 2.34 0 00-.638-.542c-.784-.453-1.793-.417-2.768.098-.86.454-1.645 1.244-2.212 2.225a6.293 6.293 0 00-.706 1.808l-11.614 6.704a2.324 2.324 0 00-.538-.43zm-3.488 3.184c.656-1.137 1.62-1.78 2.266-1.78.136 0 .259.029.36.088.26.15.42.522.44 1.02.024.642-.191 1.408-.592 2.101-.795 1.378-2.043 2.03-2.627 1.693-.584-.338-.643-1.744.152-3.122zm-7.685 1.113c0-2 .763-3.893 2.15-5.333l.276-.287a.86.86 0 00.206-.356l2.38-8.172 3.575-2.085V40.53c-.898.417-1.762 1.22-2.394 2.314a6.326 6.326 0 00-.68 1.682l-5.513 3.132v-2.84zm-2.575-.845v-.952l.938.54c-.041.307-.067.617-.077.93l-.861-.518zm-11.43-3.417v-1.192l1.28.721a.86.86 0 001.284-.75v-2.893a.861.861 0 00-.43-.745l-1.702-.983a7.67 7.67 0 011.853-2.928l12.167 7.025a9.36 9.36 0 00-1.677 2.997l-1.774-1.023a.861.861 0 00-1.291.745l-.003 2.93a.86.86 0 00.418.738l2.158 1.297v1.152L2.042 40.557z"/></svg><svg viewBox="0 0 512 512" id="instagram" xmlns="http://www.w3.org/2000/svg"><path d="M352 0H160C71.6 0 0 71.6 0 160v192c0 88.4 71.6 160 160 160h192c88.4 0 160-71.6 160-160V160C512 71.6 440.4 0 352 0zm112 352c0 61.8-50.2 112-112 112H160c-61.8 0-112-50.2-112-112V160C48 98.2 98.2 48 160 48h192c61.8 0 112 50.2 112 112v192zM256 128c-70.7 0-128 57.3-128 128s57.3 128 128 128 128-57.3 128-128-57.3-128-128-128zm0 208c-44.1 0-80-35.9-80-80s35.9-80 80-80 80 35.9 80 80-35.9 80-80 80zm137.6-234.7c9.4 0 17.1 7.6 17.1 17.1s-7.6 17.1-17.1 17.1-17.1-7.6-17.1-17.1 7.7-17.1 17.1-17.1z"/></svg><svg viewBox="0 0 352.718 352.718" id="location" xmlns="http://www.w3.org/2000/svg"><path d="M154.677 234.106c15.524 17.733 19.319 17.733 21.358 17.733 2.08 0 5.95 0 21.499-17.73 9.63-10.979 20.358-24.967 30.207-39.384 15.455-22.62 41.381-64.942 41.381-94.244 0-51.329-41.759-93.088-93.087-93.088-51.329 0-93.088 41.759-93.088 93.088 0 29.246 26.009 71.603 41.512 94.248 9.84 14.373 20.572 28.357 30.218 39.377zm21.358-188.607c28.616 0 51.897 23.281 51.897 51.898s-23.281 51.897-51.897 51.897c-28.617 0-51.899-23.281-51.899-51.897s23.282-51.898 51.899-51.898z"/><path d="M352.322 321.191l-22.629-96.794c-2.358-12.387-14.235-22.071-27.095-22.071h-41.713c-4.676 0-8.443 1.85-10.897 5.351-11.579 16.538-24.364 32.953-35.998 46.222-18.268 20.83-27.511 27.517-38.036 27.517-10.357 0-19.558-6.712-37.862-27.621-12.069-13.787-24.525-29.738-36.021-46.131l-.121-.175c-.968-1.412-3.541-5.162-10.095-5.162H50.119c-12.847 0-24.723 9.737-27.094 22.191L.443 321.084l-.048.229c-1.167 6.304.272 12.278 4.053 16.823 3.856 4.637 9.619 7.19 16.225 7.19h311.372c6.573 0 12.321-2.558 16.184-7.202 3.813-4.585 5.267-10.598 4.093-16.933z"/></svg><svg viewBox="0 0 11161 11161" shape-rendering="geometricPrecision" text-rendering="geometricPrecision" image-rendering="optimizeQuality" fill-rule="evenodd" clip-rule="evenodd" id="logo" xmlns="http://www.w3.org/2000/svg"><path class="bvfil0" d="M2240 6206c-599-2349-83-4443 1188-5110-759 364-1410 917-1896 1596-758 1152-946 2965-174 4679 755 1676 2089 2712 3218 3079 323 66 658 101 1001 101 65 0 129-3 194-5-1025-322-2769-1354-3531-4340z"/><path class="bvfil0" d="M6652 3861c686-1679 2162-1930 2804-1389-725-904-1759-1549-2942-1774-735-28-2177 852-2459 3296-353 3049 1056 5582 2484 6463 303-60 596-147 876-259-1079-1202-1750-3925-763-6337z"/><path class="bvfil0" d="M5580 0C2503 0 0 2503 0 5581c0 3077 2503 5580 5580 5580 1532 0 2921-621 3931-1623 191-190 369-394 531-609l-132-275-930-1925 945-1480h-493l-914 1503-304 251V5249h-709v3787h709V7510l259-232 918 2000c-965 994-2315 1613-3811 1613-2932 0-5310-2378-5310-5310 0-2933 2378-5311 5310-5311 2933 0 5311 2378 5311 5311 0 1036-299 2002-812 2819l137 283c596-888 945-1955 945-3102C11161 2503 8658 0 5580 0z"/></svg><svg viewBox="0 0 512 512" id="map" xmlns="http://www.w3.org/2000/svg"><path d="M416 48c-44.188 0-80 35.813-80 80 0 11.938 2.625 23.281 7.312 33.438L416 304l72.688-142.563C493.375 151.281 496 139.938 496 128c0-44.187-35.812-80-80-80zm0 128c-26.5 0-48-21.5-48-48s21.5-48 48-48 48 21.5 48 48-21.5 48-48 48zm23.938 151.469l29.125 58.219-73.844 36.906-24.75-123.812 4.156-4.156.438-.438-15.25-30L352 272l-96-64-96 64-64-64L0 400l128 64 128-64 128 64 128-64-54-107.969-18.062 35.438zM116.75 422.594l-73.813-36.906L104.75 262l32.625 32.625 4.156 4.156-24.781 123.813zM240 372.219l-89.5 44.75 23.125-115.594 4.125-2.75 62.25-41.5v115.094zm32 0V257.125l62.25 41.5 4.094 2.75 23.125 115.594L272 372.219z"/></svg><svg viewBox="0 0 459 459" id="menu-button" xmlns="http://www.w3.org/2000/svg"><path d="M0 382.5h459v-51H0v51zM0 255h459v-51H0v51zM0 76.5v51h459v-51H0z"/></svg><svg viewBox="0 0 24 24" id="minus" xmlns="http://www.w3.org/2000/svg"><path d="M24 11c0-.6-.4-1-1-1H1c-.6 0-1 .4-1 1v2c0 .6.4 1 1 1h22c.6 0 1-.4 1-1v-2z"/></svg><svg viewBox="0 0 512 512" id="payment" xmlns="http://www.w3.org/2000/svg"><g fill="#91DC5A"><path d="M410.3 164.3v-45.9h60.5V11H272.7v107.4h60.5v45.9H202.8v-62.6H74.6v62.6H11V501h490V164.3h-90.7zM292.5 31.9h157.4v65.7H292.5V31.9zm60.5 86.5h36.5v45.9H353v-45.9zm-258.6 4.2H182v116.8H94.4V122.6zm385.7 357.5H31.9v-296h42.7v55.3H47.5v20.9h181.4v-20.9h-26.1v-55.3h277.3v296z"/><path d="M454.1 210.1H266.4v62.6h187.7v-62.6zm-20.9 41.7h-146v-21.9h146v21.9zM55.8 366.5h67.8v-67.8H55.8v67.8zm19.8-47.9h27.1v27.1H75.6v-27.1zM166.3 366.5h67.8v-67.8h-67.8v67.8zm20.9-47.9h27.1v27.1h-27.1v-27.1zM277.9 366.5h67.8v-67.8h-67.8v67.8zm19.8-47.9h27.1v27.1h-27.1v-27.1zM388.4 366.5h67.8v-67.8h-67.8v67.8zm20.9-47.9h27.1v27.1h-27.1v-27.1zM55.8 456.2h67.8v-67.8H55.8v67.8zm19.8-48h27.1v27.1H75.6v-27.1zM166.3 456.2h67.8v-67.8h-67.8v67.8zm20.9-48h27.1v27.1h-27.1v-27.1zM277.9 456.2h67.8v-67.8h-67.8v67.8zm19.8-48h27.1v27.1h-27.1v-27.1zM388.4 456.2h67.8v-67.8h-67.8v67.8zm20.9-48h27.1v27.1h-27.1v-27.1z"/></g></svg><svg viewBox="0 0 473.806 473.806" id="phone" xmlns="http://www.w3.org/2000/svg"><path d="M374.456 293.506c-9.7-10.1-21.4-15.5-33.8-15.5-12.3 0-24.1 5.3-34.2 15.4l-31.6 31.5c-2.6-1.4-5.2-2.7-7.7-4-3.6-1.8-7-3.5-9.9-5.3-29.6-18.8-56.5-43.3-82.3-75-12.5-15.8-20.9-29.1-27-42.6 8.2-7.5 15.8-15.3 23.2-22.8 2.8-2.8 5.6-5.7 8.4-8.5 21-21 21-48.2 0-69.2l-27.3-27.3c-3.1-3.1-6.3-6.3-9.3-9.5-6-6.2-12.3-12.6-18.8-18.6-9.7-9.6-21.3-14.7-33.5-14.7s-24 5.1-34 14.7l-.2.2-34 34.3c-12.8 12.8-20.1 28.4-21.7 46.5-2.4 29.2 6.2 56.4 12.8 74.2 16.2 43.7 40.4 84.2 76.5 127.6 43.8 52.3 96.5 93.6 156.7 122.7 23 10.9 53.7 23.8 88 26 2.1.1 4.3.2 6.3.2 23.1 0 42.5-8.3 57.7-24.8.1-.2.3-.3.4-.5 5.2-6.3 11.2-12 17.5-18.1 4.3-4.1 8.7-8.4 13-12.9 9.9-10.3 15.1-22.3 15.1-34.6 0-12.4-5.3-24.3-15.4-34.3l-54.9-55.1zm35.8 105.3c-.1 0-.1.1 0 0-3.9 4.2-7.9 8-12.2 12.2-6.5 6.2-13.1 12.7-19.3 20-10.1 10.8-22 15.9-37.6 15.9-1.5 0-3.1 0-4.6-.1-29.7-1.9-57.3-13.5-78-23.4-56.6-27.4-106.3-66.3-147.6-115.6-34.1-41.1-56.9-79.1-72-119.9-9.3-24.9-12.7-44.3-11.2-62.6 1-11.7 5.5-21.4 13.8-29.7l34.1-34.1c4.9-4.6 10.1-7.1 15.2-7.1 6.3 0 11.4 3.8 14.6 7l.3.3c6.1 5.7 11.9 11.6 18 17.9 3.1 3.2 6.3 6.4 9.5 9.7l27.3 27.3c10.6 10.6 10.6 20.4 0 31-2.9 2.9-5.7 5.8-8.6 8.6-8.4 8.6-16.4 16.6-25.1 24.4-.2.2-.4.3-.5.5-8.6 8.6-7 17-5.2 22.7l.3.9c7.1 17.2 17.1 33.4 32.3 52.7l.1.1c27.6 34 56.7 60.5 88.8 80.8 4.1 2.6 8.3 4.7 12.3 6.7 3.6 1.8 7 3.5 9.9 5.3.4.2.8.5 1.2.7 3.4 1.7 6.6 2.5 9.9 2.5 8.3 0 13.5-5.2 15.2-6.9l34.2-34.2c3.4-3.4 8.8-7.5 15.1-7.5 6.2 0 11.3 3.9 14.4 7.3l.2.2 55.1 55.1c10.3 10.2 10.3 20.7.1 31.3zM256.056 112.706c26.2 4.4 50 16.8 69 35.8s31.3 42.8 35.8 69c1.1 6.6 6.8 11.2 13.3 11.2.8 0 1.5-.1 2.3-.2 7.4-1.2 12.3-8.2 11.1-15.6-5.4-31.7-20.4-60.6-43.3-83.5s-51.8-37.9-83.5-43.3c-7.4-1.2-14.3 3.7-15.6 11s3.5 14.4 10.9 15.6zM473.256 209.006c-8.9-52.2-33.5-99.7-71.3-137.5s-85.3-62.4-137.5-71.3c-7.3-1.3-14.2 3.7-15.5 11-1.2 7.4 3.7 14.3 11.1 15.6 46.6 7.9 89.1 30 122.9 63.7 33.8 33.8 55.8 76.3 63.7 122.9 1.1 6.6 6.8 11.2 13.3 11.2.8 0 1.5-.1 2.3-.2 7.3-1.1 12.3-8.1 11-15.4z"/></svg><svg viewBox="0 0 357 357" id="plus" xmlns="http://www.w3.org/2000/svg"><path d="M357 204H204v153h-51V204H0v-51h153V0h51v153h153v51z"/></svg><svg viewBox="0 0 491.582 491.582" id="point" xmlns="http://www.w3.org/2000/svg"><path d="M245.791 0C153.799 0 78.957 74.841 78.957 166.833c0 36.967 21.764 93.187 68.493 176.926 31.887 57.138 63.627 105.4 64.966 107.433l22.941 34.773a12.497 12.497 0 0020.868 0l22.94-34.771c1.326-2.01 32.835-49.855 64.967-107.435 46.729-83.735 68.493-139.955 68.493-176.926C412.625 74.841 337.783 0 245.791 0zm76.511 331.576c-31.685 56.775-62.696 103.869-64.003 105.848l-12.508 18.959-12.504-18.954c-1.314-1.995-32.563-49.511-64.007-105.853-43.345-77.676-65.323-133.104-65.323-164.743C103.957 88.626 167.583 25 245.791 25s141.834 63.626 141.834 141.833c0 31.643-21.978 87.069-65.323 164.743z"/><path d="M245.791 73.291c-51.005 0-92.5 41.496-92.5 92.5s41.495 92.5 92.5 92.5 92.5-41.496 92.5-92.5-41.495-92.5-92.5-92.5zm0 160c-37.22 0-67.5-30.28-67.5-67.5s30.28-67.5 67.5-67.5c37.221 0 67.5 30.28 67.5 67.5s-30.279 67.5-67.5 67.5z"/></svg><svg viewBox="0 0 53.908 53.909" id="profile" xmlns="http://www.w3.org/2000/svg"><path d="M53.226 43.86l-2.412-4.892c-1.681-3.411-5.865-5.483-9.13-5.769-1.151-.099-3.331-.484-5.183-.92-1.486-.349-2.35-.623-2.829-.801.117-.431.333-.863.66-1.312 3.683-2.896 5.875-7.728 5.875-12.958 0-8.587-5.928-15.572-13.212-15.572S13.783 8.622 13.783 17.209c0 5.233 2.193 10.062 5.873 12.96.323.433.547.875.667 1.327-.49.188-1.363.469-2.87.82-2.074.481-4.174.866-5.231.955-3.166.271-7.439 2.411-9.138 5.854L.681 44.146c-.898 1.817-.908 3.911-.024 5.334 1.082 1.745 2.774 2.789 4.528 2.789h43.536c1.749 0 3.44-1.041 4.527-2.789.89-1.428.879-3.793-.022-5.62zm-2.066 4.323c-.487.785-1.387 1.627-2.439 1.627H5.185c-1.057 0-1.953-.839-2.44-1.625-.425-.683-.364-1.923.146-2.959l2.403-5.022c1.246-2.525 4.606-4.26 7.137-4.479 1.433-.12 3.901-.62 5.58-1.01 3.562-.831 4.224-1.395 4.441-1.579.28-.24.439-.594.432-.964-.027-1.286-.491-2.508-1.364-3.616a1.092 1.092 0 00-.238-.237c-3.155-2.424-5.04-6.575-5.04-11.108 0-7.229 4.824-13.11 10.755-13.11 5.932 0 10.753 5.881 10.753 13.109 0 4.532-1.884 8.684-5.04 11.102a1.296 1.296 0 00-.221.223c-.888 1.119-1.351 2.338-1.38 3.621-.007.368.148.721.425.957.209.182.843.731 4.406 1.567 1.951.457 4.279.865 5.532.974 2.551.223 5.918 1.932 7.138 4.407l2.412 4.892c.558 1.133.522 2.614.138 3.23z" fill="#91DC5A"/></svg><svg viewBox="0 0 310.42 310.42" id="search" xmlns="http://www.w3.org/2000/svg"><path d="M273.587 214.965c49.11-49.111 49.109-129.021 0-178.132-49.111-49.111-129.02-49.111-178.13 0C53.793 78.497 47.483 140.462 76.51 188.85c0 0 2.085 3.498-.731 6.312l-64.263 64.263c-12.791 12.79-15.836 30.675-4.493 42.02l1.953 1.951c11.343 11.345 29.229 8.301 42.019-4.49l64.128-64.128c2.951-2.951 6.448-.866 6.448-.866 48.387 29.026 110.352 22.717 152.016-18.947zM118.711 191.71c-36.288-36.288-36.287-95.332.001-131.62 36.288-36.287 95.332-36.288 131.619 0 36.288 36.287 36.288 95.332 0 131.62-36.288 36.286-95.331 36.286-131.62 0z"/><path d="M126.75 118.424c-1.689 0-3.406-.332-5.061-1.031-6.611-2.798-9.704-10.426-6.906-17.038 17.586-41.559 65.703-61.062 107.261-43.476 6.611 2.798 9.704 10.426 6.906 17.038-2.799 6.612-10.425 9.703-17.039 6.906-28.354-11.998-61.186 1.309-73.183 29.663-2.099 4.959-6.913 7.938-11.978 7.938z"/></svg><svg viewBox="0 0 413.6 413.599" id="truck" xmlns="http://www.w3.org/2000/svg"><g fill="#91DC5A"><path d="M164.033 275.857a30.58 30.58 0 00-16.031 4.521 4.37 4.37 0 00-1.436 6.012 4.367 4.367 0 006.011 1.436 21.873 21.873 0 0111.455-3.227c12.084 0 21.915 9.831 21.915 21.913 0 12.085-9.831 21.915-21.915 21.915s-21.915-9.83-21.915-21.915a4.37 4.37 0 00-4.371-4.371H97.479a4.371 4.371 0 000 8.743h36.245c2.133 14.834 14.893 26.286 30.31 26.286 16.905 0 30.658-13.753 30.658-30.658-.001-16.902-13.754-30.655-30.659-30.655z"/><path d="M265.331 119.467c-11.061 0-11.383-12.328-11.383-13.733V95.403c0-10.461-8.512-18.974-18.974-18.974h-216C8.512 76.429 0 84.941 0 95.403v196.506c0 10.641 6.137 18.976 13.973 18.976h5.58c2.131 14.837 14.891 26.286 30.308 26.286 16.905 0 30.659-13.752 30.659-30.657s-13.754-30.656-30.659-30.656a30.594 30.594 0 00-16.031 4.521 4.37 4.37 0 104.577 7.448A21.872 21.872 0 0149.86 284.6c12.084 0 21.917 9.832 21.917 21.913 0 12.083-9.832 21.915-21.917 21.915-12.083 0-21.915-9.832-21.915-21.915a4.37 4.37 0 00-4.371-4.371h-9.602c-2.133 0-5.23-3.985-5.23-10.232V95.403c0-5.641 4.59-10.231 10.231-10.231h216.001c5.641 0 10.23 4.59 10.23 10.231v10.331c0 10.826 6.301 22.476 20.126 22.476 2.895 0 6.135 4.375 6.135 10.233v153.466c0 5.644-4.59 10.233-10.233 10.233h-48.344a4.37 4.37 0 100 8.742h48.344c10.464 0 18.976-8.512 18.976-18.976V138.442c-.001-10.463-6.674-18.975-14.877-18.975zM405.981 213.888l-36.905-65.491c-4.662-8.269-15.746-14.746-25.233-14.746h-23.715c-10.334 0-18.742 8.407-18.742 18.743v61.791c0 10.336 8.408 18.743 18.742 18.743h50.298a4.37 4.37 0 004.371-4.372 4.37 4.37 0 00-4.371-4.371h-50.298c-5.515 0-10-4.486-10-10v-61.791c0-5.515 4.483-10 10-10h23.715c6.293 0 14.525 4.812 17.614 10.295l36.909 65.491c3.519 6.246 6.491 17.581 6.491 24.748v48.86c0 5.513-4.487 10-10.002 10h-15.634a4.371 4.371 0 100 8.743h15.634c10.334 0 18.744-8.409 18.744-18.743v-48.86c.001-8.699-3.346-21.455-7.618-29.04z"/><path d="M335.606 275.149a30.968 30.968 0 00-16.218 4.572 4.372 4.372 0 104.576 7.45 22.207 22.207 0 0111.64-3.278c12.278 0 22.269 9.989 22.269 22.268 0 12.277-9.99 22.267-22.269 22.267-12.28 0-22.268-9.989-22.268-22.267a4.37 4.37 0 00-4.372-4.371h-16.527a4.371 4.371 0 000 8.743h12.501c2.135 15.032 15.052 26.638 30.666 26.638 17.1 0 31.011-13.912 31.011-31.01.002-17.1-13.909-31.012-31.009-31.012z"/></g></svg><svg viewBox="0 0 253.121 253.121" id="user" xmlns="http://www.w3.org/2000/svg"><path d="M253.121 126.561C253.121 56.775 196.346 0 126.561 0c-32.82 0-63.933 12.509-87.607 35.222a7.5 7.5 0 0010.384 10.824C70.206 26.026 97.631 15 126.561 15c61.515 0 111.561 50.046 111.561 111.561 0 27.975-10.409 54.736-29.311 75.355-21.092 23.009-51.071 36.206-82.25 36.206-29.913 0-58.723-12.148-79.64-33.454.124-.536.262-1.066.398-1.597.108-.423.208-.849.323-1.269.176-.64.372-1.271.565-1.903.115-.375.219-.755.339-1.127.234-.725.489-1.439.745-2.153.097-.27.184-.545.284-.814a72.009 72.009 0 012.427-5.753c.133-.28.278-.552.414-.83.318-.65.636-1.3.973-1.938.178-.337.369-.666.553-1 .311-.567.619-1.136.944-1.693.209-.359.432-.709.647-1.064.316-.521.63-1.043.958-1.555.234-.364.479-.718.719-1.077.328-.49.653-.982.992-1.464.255-.363.521-.716.783-1.074.34-.464.678-.929 1.028-1.384.275-.358.561-.708.843-1.06.353-.441.705-.884 1.068-1.316.293-.35.595-.691.895-1.035.367-.421.734-.842 1.111-1.255.31-.34.628-.671.944-1.005.382-.402.764-.804 1.154-1.197.326-.328.658-.648.989-.969.396-.383.793-.766 1.198-1.14.341-.315.687-.624 1.033-.932.409-.365.821-.727 1.238-1.082.355-.302.715-.599 1.077-.894.423-.345.848-.688 1.278-1.024a76.429 76.429 0 013.589-2.626 75.882 75.882 0 012.545-1.669 72.622 72.622 0 014.044-2.35c.417-.225.835-.448 1.256-.665.484-.249.973-.489 1.463-.727.427-.207.854-.414 1.285-.613.497-.229.998-.449 1.5-.667.435-.189.869-.378 1.307-.558.51-.209 1.024-.408 1.539-.605.442-.17.882-.341 1.328-.502.522-.189 1.05-.365 1.577-.542.447-.15.893-.303 1.344-.445.535-.168 1.076-.323 1.617-.478.451-.13.901-.265 1.356-.386.551-.147 1.107-.279 1.663-.414.452-.109.903-.224 1.358-.325.568-.126 1.143-.235 1.716-.347.45-.088.898-.184 1.351-.264.591-.104 1.188-.19 1.783-.28.442-.067.881-.142 1.325-.2.627-.083 1.261-.145 1.893-.212.418-.044.834-.098 1.254-.135.702-.062 1.411-.1 2.118-.142.355-.021.708-.053 1.064-.069a72.942 72.942 0 013.214-.072h18.463c21.67 0 42.011 9.609 55.807 26.364a7.5 7.5 0 0011.579-9.535c-11.759-14.28-27.46-24.253-44.882-28.888 9.915-8.785 16.181-21.6 16.181-35.857 0-26.421-21.495-47.917-47.917-47.917s-47.917 21.495-47.917 47.917c0 14.257 6.266 27.071 16.18 35.856-.246.066-.494.128-.74.195a85.493 85.493 0 00-3.061.906c-.124.039-.251.073-.375.112a88.96 88.96 0 00-3.377 1.161c-.348.127-.69.267-1.036.399-.765.291-1.529.586-2.284.899-.419.173-.832.356-1.248.536-.675.292-1.349.587-2.015.895-.435.201-.865.408-1.296.616a89.53 89.53 0 00-3.192 1.619 84.62 84.62 0 00-1.89 1.043c-.404.229-.809.456-1.209.691-.658.387-1.307.787-1.955 1.191-.353.22-.709.434-1.059.659a86.692 86.692 0 00-2.383 1.595c-.18.124-.364.241-.543.367a87.4 87.4 0 00-2.837 2.08c-.27.206-.532.423-.8.632a91.421 91.421 0 00-1.952 1.563c-.341.283-.675.575-1.011.863-.558.477-1.113.957-1.658 1.448a86.21 86.21 0 00-1.045.962 88.467 88.467 0 00-2.564 2.48 85.915 85.915 0 00-1.482 1.537c-.323.342-.646.682-.963 1.03a88.183 88.183 0 00-1.49 1.683c-.281.324-.567.644-.844.973a86.035 86.035 0 00-1.702 2.098c-.172.218-.351.429-.521.649a86.394 86.394 0 00-2.107 2.837c-.182.256-.354.519-.533.777-.496.713-.988 1.43-1.463 2.159-.24.369-.47.744-.705 1.117a86.696 86.696 0 00-1.178 1.912c-.245.411-.482.827-.72 1.243a86.22 86.22 0 00-1.738 3.183 84.678 84.678 0 00-.968 1.929c-.213.436-.425.871-.631 1.311a86.893 86.893 0 00-.924 2.063c-.18.414-.365.824-.54 1.242a88.038 88.038 0 00-.969 2.444c-.119.31-.246.616-.361.928l-.053.136C22.167 172.148 15 149.772 15 126.561a7.5 7.5 0 00-15 0c0 31.738 11.81 62.099 33.253 85.491 23.926 26.1 57.936 41.069 93.307 41.069 35.373 0 69.382-14.969 93.308-41.07l.006-.007c21.44-23.391 33.247-53.749 33.247-85.483zm-126.56-58.623c18.15 0 32.917 14.766 32.917 32.917s-14.766 32.917-32.917 32.917-32.917-14.766-32.917-32.917 14.766-32.917 32.917-32.917z"/></svg><svg viewBox="0 0 548.358 548.358" id="vk" xmlns="http://www.w3.org/2000/svg"><path d="M545.451 400.298c-.664-1.431-1.283-2.618-1.858-3.569-9.514-17.135-27.695-38.167-54.532-63.102l-.567-.571-.284-.28-.287-.287h-.288c-12.18-11.611-19.893-19.418-23.123-23.415-5.91-7.614-7.234-15.321-4.004-23.13 2.282-5.9 10.854-18.36 25.696-37.397 7.807-10.089 13.99-18.175 18.556-24.267 32.931-43.78 47.208-71.756 42.828-83.939l-1.701-2.847c-1.143-1.714-4.093-3.282-8.846-4.712-4.764-1.427-10.853-1.663-18.278-.712l-82.224.568c-1.332-.472-3.234-.428-5.712.144l-3.713.859-1.431.715-1.136.859c-.952.568-1.999 1.567-3.142 2.995-1.137 1.423-2.088 3.093-2.848 4.996-8.952 23.031-19.13 44.444-30.553 64.238-7.043 11.803-13.511 22.032-19.418 30.693-5.899 8.658-10.848 15.037-14.842 19.126-4 4.093-7.61 7.372-10.852 9.849-3.237 2.478-5.708 3.525-7.419 3.142-1.715-.383-3.33-.763-4.859-1.143-2.663-1.714-4.805-4.045-6.42-6.995-1.622-2.95-2.714-6.663-3.285-11.136-.568-4.476-.904-8.326-1-11.563-.089-3.233-.048-7.806.145-13.706.198-5.903.287-9.897.287-11.991 0-7.234.141-15.085.424-23.555.288-8.47.521-15.181.716-20.125.194-4.949.284-10.185.284-15.705s-.336-9.849-1-12.991a44.442 44.442 0 00-2.99-9.137c-1.335-2.95-3.289-5.232-5.853-6.852-2.569-1.618-5.763-2.902-9.564-3.856-10.089-2.283-22.936-3.518-38.547-3.71-35.401-.38-58.148 1.906-68.236 6.855-3.997 2.091-7.614 4.948-10.848 8.562-3.427 4.189-3.905 6.475-1.431 6.851 11.422 1.711 19.508 5.804 24.267 12.275l1.715 3.429c1.334 2.474 2.666 6.854 3.999 13.134 1.331 6.28 2.19 13.227 2.568 20.837.95 13.897.95 25.793 0 35.689-.953 9.9-1.853 17.607-2.712 23.127-.859 5.52-2.143 9.993-3.855 13.418-1.715 3.426-2.856 5.52-3.428 6.28-.571.76-1.047 1.239-1.425 1.427a21.387 21.387 0 01-7.71 1.431c-2.667 0-5.901-1.334-9.707-4-3.805-2.666-7.754-6.328-11.847-10.992-4.093-4.665-8.709-11.184-13.85-19.558-5.137-8.374-10.467-18.271-15.987-29.691l-4.567-8.282c-2.855-5.328-6.755-13.086-11.704-23.267-4.952-10.185-9.329-20.037-13.134-29.554-1.521-3.997-3.806-7.04-6.851-9.134l-1.429-.859c-.95-.76-2.475-1.567-4.567-2.427a30.301 30.301 0 00-6.567-1.854l-78.229.568c-7.994 0-13.418 1.811-16.274 5.428l-1.143 1.711c-.571.953-.859 2.475-.859 4.57 0 2.094.571 4.664 1.714 7.707 11.42 26.84 23.839 52.725 37.257 77.659 13.418 24.934 25.078 45.019 34.973 60.237 9.897 15.229 19.985 29.602 30.264 43.112 10.279 13.515 17.083 22.176 20.412 25.981 3.333 3.812 5.951 6.662 7.854 8.565l7.139 6.851c4.568 4.569 11.276 10.041 20.127 16.416 8.853 6.379 18.654 12.659 29.408 18.85 10.756 6.181 23.269 11.225 37.546 15.126 14.275 3.905 28.169 5.472 41.684 4.716h32.834c6.659-.575 11.704-2.669 15.133-6.283l1.136-1.431c.764-1.136 1.479-2.901 2.139-5.276.668-2.379 1-5 1-7.851-.195-8.183.428-15.558 1.852-22.124 1.423-6.564 3.045-11.513 4.859-14.846 1.813-3.33 3.859-6.14 6.136-8.418 2.282-2.283 3.908-3.666 4.862-4.142.948-.479 1.705-.804 2.276-.999 4.568-1.522 9.944-.048 16.136 4.429 6.187 4.473 11.99 9.996 17.418 16.56 5.425 6.57 11.943 13.941 19.555 22.124 7.617 8.186 14.277 14.271 19.985 18.274l5.708 3.426c3.812 2.286 8.761 4.38 14.853 6.283 6.081 1.902 11.409 2.378 15.984 1.427l73.087-1.14c7.229 0 12.854-1.197 16.844-3.572 3.998-2.379 6.373-5 7.139-7.851.764-2.854.805-6.092.145-9.712-.677-3.611-1.344-6.136-2.008-7.563z"/></svg><svg viewBox="0 0 461.001 461.001" id="youtube"><path d="M365.257 67.393H95.744C42.866 67.393 0 110.259 0 163.137v134.728c0 52.878 42.866 95.744 95.744 95.744h269.513c52.878 0 95.744-42.866 95.744-95.744V163.137c0-52.878-42.866-95.744-95.744-95.744zm-64.751 169.663l-126.06 60.123c-3.359 1.602-7.239-.847-7.239-4.568V168.607c0-3.774 3.982-6.22 7.348-4.514l126.06 63.881c3.748 1.899 3.683 7.274-.109 9.082z" fill="#f61c0d"/></svg></svg>